<svg width="1000" height="1000" viewBox="0 0 1000 1000" fill="none" xmlns="http://www.w3.org/2000/svg">
<rect width="1000" height="1000" fill="white"/>
<path d="M344.35 392.29C344.35 392.29 373.14 291.24 270.27 287.54L268.17 275.54L236.31 305.89L270.57 324.68L274.48 311.61C274.48 311.61 335.27 322.66 317.15 378.49L344.35 392.29Z" fill="#FFAD00"/>
<path d="M344.35 393.79C344.114 393.792 343.881 393.737 343.67 393.63L316.47 379.8C316.151 379.638 315.901 379.368 315.766 379.037C315.63 378.707 315.617 378.339 315.73 378C320.73 362.47 320.01 349.05 313.49 338.12C303.15 320.79 281.11 314.66 275.49 313.35L272 325.09C271.942 325.312 271.833 325.519 271.682 325.692C271.531 325.865 271.342 326.002 271.13 326.09C270.923 326.173 270.7 326.21 270.477 326.198C270.254 326.186 270.037 326.125 269.84 326.02L235.58 307.23C235.372 307.118 235.194 306.958 235.06 306.763C234.926 306.568 234.84 306.344 234.81 306.109C234.779 305.875 234.805 305.637 234.885 305.414C234.965 305.192 235.097 304.991 235.27 304.83L267.13 274.47C267.326 274.283 267.569 274.153 267.834 274.095C268.098 274.037 268.374 274.052 268.63 274.14C268.886 274.226 269.113 274.379 269.289 274.583C269.465 274.787 269.583 275.035 269.63 275.3L271.52 286.13C301.35 287.44 323.02 297.13 335.93 314.86C358.68 346.15 346.31 390.86 345.77 392.75C345.715 392.969 345.611 393.174 345.465 393.347C345.32 393.52 345.137 393.658 344.93 393.75C344.741 393.8 344.544 393.814 344.35 393.79ZM319 377.71L343.39 390.11C345.39 381.47 352.96 343.25 333.55 316.57C321 299.36 299.7 290.1 270.22 289C269.876 288.991 269.546 288.862 269.287 288.635C269.028 288.409 268.856 288.099 268.8 287.76L267.18 278.5L238.83 305.5L269.67 322.41L273 311.16C273.105 310.805 273.338 310.501 273.654 310.307C273.969 310.113 274.346 310.043 274.71 310.11C275.88 310.32 303.46 315.56 316.02 336.57C322.88 348 323.85 361.82 319 377.71Z" fill="black"/>
<path d="M339 377.92C338.91 377.93 338.82 377.93 338.73 377.92C338.339 377.849 337.992 377.626 337.765 377.3C337.538 376.974 337.45 376.571 337.52 376.18C341.23 355.64 338.17 338.23 328.45 324.42C312.21 301.36 282.61 296.19 282.31 296.14C281.912 296.075 281.557 295.855 281.321 295.527C281.086 295.2 280.99 294.793 281.055 294.395C281.12 293.997 281.34 293.641 281.668 293.406C281.995 293.171 282.402 293.075 282.8 293.14C284.07 293.35 313.95 298.58 330.91 322.65C341.11 337.14 344.33 355.31 340.47 376.65C340.415 377.002 340.238 377.322 339.968 377.555C339.699 377.788 339.356 377.917 339 377.92Z" fill="white"/>
<path d="M366.65 384.83C366.537 384.84 366.423 384.84 366.31 384.83C366.117 384.785 365.935 384.703 365.775 384.588C365.614 384.472 365.478 384.326 365.374 384.158C365.269 383.99 365.2 383.803 365.168 383.607C365.137 383.412 365.144 383.212 365.19 383.02C373.97 346.17 366.52 323.86 358.73 311.63C350.31 298.42 339.68 293.8 339.58 293.75C339.386 293.683 339.209 293.577 339.057 293.438C338.906 293.299 338.785 293.131 338.702 292.944C338.618 292.756 338.574 292.554 338.572 292.349C338.57 292.144 338.61 291.941 338.689 291.752C338.768 291.563 338.886 291.392 339.034 291.25C339.182 291.108 339.357 290.998 339.55 290.927C339.742 290.855 339.947 290.824 340.151 290.835C340.356 290.846 340.557 290.899 340.74 290.99C341.21 291.18 352.22 295.93 361.15 309.84C369.32 322.57 377.15 345.72 368.15 383.72C368.061 384.046 367.864 384.333 367.592 384.534C367.32 384.736 366.988 384.84 366.65 384.83Z" fill="black"/>
<path d="M262.8 452.54H129.16C122.33 452.54 116.8 446.03 116.8 438.01C114.52 416.01 114.69 392.64 116.8 368.2C116.8 360.2 122.33 353.67 129.16 353.67H262.8C269.62 353.67 275.16 360.18 275.16 368.2C278.18 391.372 278.18 414.838 275.16 438.01C275.16 446 269.62 452.54 262.8 452.54Z" fill="#D9CFFF"/>
<path d="M262.79 454H129.16C121.54 454 115.34 446.85 115.3 438C113.12 416.9 113.12 393.36 115.3 368.06C115.3 359.25 121.54 352.06 129.16 352.06H262.79C270.41 352.06 276.61 359.2 276.66 368C279.671 391.236 279.671 414.764 276.66 438C276.61 446.9 270.41 454 262.79 454ZM129.16 355.17C123.16 355.17 118.3 361.02 118.3 368.17C118.305 368.213 118.305 368.257 118.3 368.3C116.13 393.48 116.13 416.87 118.3 437.82C118.305 437.873 118.305 437.927 118.3 437.98C118.3 445.16 123.17 450.98 129.16 450.98H262.79C268.79 450.98 273.66 445.13 273.66 437.98C273.655 437.913 273.655 437.846 273.66 437.78C276.65 414.74 276.65 391.41 273.66 368.37C273.655 368.303 273.655 368.236 273.66 368.17C273.66 360.99 268.78 355.17 262.79 355.17H129.16Z" fill="black"/>
<path d="M115.19 409.39C115.29 416.923 115.623 424.313 116.19 431.56C201.7 440.41 253.68 437.04 275.55 434.56C276.377 427.52 276.927 420.477 277.2 413.43C223.185 416.973 168.961 415.621 115.19 409.39Z" fill="#58298C"/>
<path d="M218.51 438.83C192.14 438.83 158.17 437.41 116.06 433.05C115.712 433.014 115.387 432.857 115.143 432.607C114.898 432.357 114.748 432.029 114.72 431.68C114.13 424.5 113.79 417.01 113.72 409.41C113.717 409.197 113.761 408.986 113.847 408.791C113.933 408.596 114.06 408.422 114.22 408.28C114.378 408.137 114.566 408.029 114.769 407.963C114.972 407.898 115.187 407.876 115.4 407.9C169.074 414.124 223.199 415.496 277.12 412C277.329 411.985 277.539 412.014 277.735 412.087C277.932 412.159 278.111 412.273 278.26 412.42C278.41 412.566 278.529 412.742 278.608 412.937C278.687 413.131 278.725 413.34 278.72 413.55C278.45 420.61 277.89 427.76 277.07 434.79C277.027 435.127 276.873 435.44 276.632 435.679C276.391 435.919 276.077 436.07 275.74 436.11C256.728 438.075 237.622 438.983 218.51 438.83ZM117.61 430.19C199.81 438.62 250.61 435.78 274.22 433.19C274.9 427.19 275.38 421.07 275.65 415.03C222.658 418.367 169.476 417.028 116.72 411.03C116.83 417.59 117.13 424 117.61 430.19Z" fill="black"/>
<path d="M148.11 365.46C147.782 365.46 147.463 365.355 147.2 365.16C117.74 342.71 103.34 304.63 96.4399 276.65C91.9254 258.359 89.2455 239.663 88.4399 220.84C88.4333 220.442 88.585 220.058 88.8616 219.772C89.1382 219.486 89.5171 219.322 89.9149 219.315C90.3127 219.308 90.6969 219.46 90.9829 219.737C91.2689 220.013 91.4333 220.392 91.4399 220.79C91.4399 221.79 93.8699 320.79 149 362.79C149.248 362.981 149.431 363.244 149.522 363.544C149.613 363.843 149.608 364.164 149.508 364.461C149.407 364.757 149.217 365.015 148.962 365.198C148.708 365.381 148.403 365.479 148.09 365.48L148.11 365.46Z" fill="black"/>
<path d="M137.38 385.15C137.277 385.165 137.173 385.165 137.07 385.15C101 377.62 80.2399 357.54 69.1699 342C57.1699 325.17 53.7399 310.32 53.5999 309.7C53.5566 309.508 53.5516 309.308 53.5852 309.114C53.6188 308.92 53.6903 308.734 53.7957 308.567C53.9011 308.401 54.0383 308.256 54.1994 308.143C54.3606 308.029 54.5426 307.948 54.7349 307.905C55.1235 307.817 55.5309 307.888 55.8675 308.101C56.0342 308.206 56.1785 308.343 56.2921 308.504C56.4058 308.666 56.4866 308.848 56.5299 309.04C56.5299 309.19 59.9899 324.04 71.6899 340.36C82.4499 355.41 102.63 374.87 137.69 382.16C138.088 382.2 138.453 382.396 138.707 382.705C138.96 383.015 139.08 383.412 139.04 383.81C139 384.208 138.804 384.573 138.495 384.827C138.185 385.08 137.788 385.2 137.39 385.16L137.38 385.15Z" fill="black"/>
<path d="M251.46 361.79H178.9C178.502 361.79 178.121 361.632 177.839 361.351C177.558 361.069 177.4 360.688 177.4 360.29C177.4 359.892 177.558 359.511 177.839 359.229C178.121 358.948 178.502 358.79 178.9 358.79H251.46C251.858 358.79 252.239 358.948 252.521 359.229C252.802 359.511 252.96 359.892 252.96 360.29C252.96 360.688 252.802 361.069 252.521 361.351C252.239 361.632 251.858 361.79 251.46 361.79Z" fill="white"/>
<path d="M325.54 897.5C325.01 897.5 324.501 897.289 324.126 896.914C323.751 896.539 323.54 896.031 323.54 895.5C323.54 894.97 323.751 894.461 324.126 894.086C324.501 893.711 325.01 893.5 325.54 893.5L887.3 890.09L887 261.8C887 261.27 887.211 260.761 887.586 260.386C887.961 260.011 888.47 259.8 889 259.8C889.53 259.8 890.039 260.011 890.414 260.386C890.789 260.761 891 261.27 891 261.8L891.25 892.07C891.25 892.601 891.039 893.109 890.664 893.484C890.289 893.859 889.78 894.07 889.25 894.07L325.55 897.5H325.54Z" fill="black"/>
<path d="M359.74 917H237.64C237.242 917 236.861 916.842 236.579 916.561C236.298 916.279 236.14 915.898 236.14 915.5C236.14 915.102 236.298 914.721 236.579 914.439C236.861 914.158 237.242 914 237.64 914H359.74C360.138 914 360.519 914.158 360.801 914.439C361.082 914.721 361.24 915.102 361.24 915.5C361.24 915.898 361.082 916.279 360.801 916.561C360.519 916.842 360.138 917 359.74 917Z" fill="black"/>
<path d="M921.86 300.74C921.463 300.74 921.081 300.582 920.8 300.301C920.518 300.019 920.36 299.638 920.36 299.24V214C920.36 213.602 920.518 213.221 920.8 212.939C921.081 212.658 921.463 212.5 921.86 212.5C922.258 212.5 922.64 212.658 922.921 212.939C923.202 213.221 923.36 213.602 923.36 214V299.24C923.36 299.638 923.202 300.019 922.921 300.301C922.64 300.582 922.258 300.74 921.86 300.74Z" fill="black"/>
<path d="M130.28 578.57C130.28 578.57 133.87 556.74 166.13 565.47C166.13 565.47 176.88 548.01 194.8 556.74C212.72 565.47 230.65 582.93 230.65 582.93L180.46 609.12H141L130.28 578.57Z" fill="#FFCDB2"/>
<path d="M180.46 610.62H141C140.689 610.621 140.385 610.525 140.13 610.346C139.876 610.167 139.684 609.913 139.58 609.62L128.83 579.07C128.743 578.833 128.719 578.578 128.76 578.33C129.325 575.755 130.393 573.317 131.903 571.156C133.413 568.996 135.336 567.155 137.56 565.74C144.29 561.41 153.67 560.74 165.46 563.74C168.13 560.09 179.01 547.39 195.46 555.38C213.39 564.11 230.95 581.12 231.69 581.84C231.861 582.004 231.991 582.207 232.068 582.431C232.145 582.656 232.167 582.895 232.133 583.13C232.098 583.365 232.009 583.588 231.871 583.781C231.733 583.974 231.551 584.131 231.34 584.24L181.16 610.43C180.945 610.548 180.705 610.613 180.46 610.62ZM142.1 607.62H180.1L228.1 582.62C223.43 578.29 208.7 565.21 194.17 558.13C177.65 550.13 167.83 565.63 167.42 566.3C167.252 566.575 166.999 566.787 166.7 566.906C166.401 567.025 166.071 567.044 165.76 566.96C154.38 563.88 145.47 564.32 139.29 568.27C135.621 570.635 132.97 574.288 131.86 578.51L142.1 607.62Z" fill="black"/>
<path d="M285.2 659.34C285.2 659.34 280.94 655.65 237.72 648.26C197.3 641.35 132.43 640.2 116 578.57C116 578.57 126.75 565.47 159 587.3C191.25 609.13 249.49 580.3 232.44 558.41C215.39 536.52 198.44 513.1 219.93 495.64C219.93 495.64 255.78 500 305.93 578.57L285.2 659.34Z" fill="#FFCDB2"/>
<path d="M285.2 660.84C284.868 660.84 284.544 660.731 284.28 660.53C283.94 660.3 278.04 656.68 237.47 649.74C232.6 648.91 227.41 648.17 221.91 647.38C182.81 641.77 129.25 634.1 114.5 578.96C114.436 578.73 114.429 578.488 114.479 578.254C114.53 578.021 114.636 577.803 114.79 577.62C115.26 577.04 126.79 563.72 159.79 586.06C182.31 601.29 216.22 591.13 228.79 577.72C232.96 573.27 236.79 566.46 231.23 559.34C216.17 540 195.55 513.46 219 494.47C219.155 494.343 219.334 494.248 219.527 494.193C219.719 494.138 219.921 494.124 220.12 494.15C221.62 494.33 257.25 499.5 307.23 577.76C307.344 577.932 307.419 578.126 307.452 578.329C307.485 578.533 307.474 578.741 307.42 578.94L286.7 659.71C286.638 659.957 286.513 660.185 286.338 660.371C286.163 660.556 285.943 660.694 285.7 660.77C285.539 660.823 285.369 660.847 285.2 660.84ZM117.63 579C132.18 631.45 182.15 638.61 222.34 644.37C227.86 645.16 233.07 645.9 237.97 646.74C269.19 652.08 280.32 655.53 284.2 657.14L304.3 578.79C258.76 507.7 225.16 498.22 220.3 497.2C201.56 513 215.22 533.84 233.57 557.45C238.83 564.22 237.88 572.34 230.96 579.73C217.71 593.88 181.91 604.6 158.11 588.5C131.4 570.47 120.1 577.05 117.63 579Z" fill="black"/>
<path d="M763.95 335.16C785.539 335.16 803.04 317.659 803.04 296.07C803.04 274.481 785.539 256.98 763.95 256.98C742.361 256.98 724.86 274.481 724.86 296.07C724.86 317.659 742.361 335.16 763.95 335.16Z" fill="#6C32AD"/>
<path d="M764 257C774.241 257.06 784.049 261.137 791.315 268.353C798.582 275.569 802.726 285.349 802.857 295.589C802.988 305.829 799.096 315.712 792.016 323.112C784.936 330.512 775.236 334.838 765 335.16H763.95C753.65 335.193 743.754 331.158 736.413 323.934C729.072 316.709 724.88 306.879 724.748 296.58C724.616 286.281 728.556 276.347 735.709 268.937C742.863 261.527 752.653 257.241 762.95 257.01H764V257ZM764 254.01H762.87C751.773 254.247 741.219 258.858 733.506 266.84C725.793 274.821 721.546 285.527 721.69 296.625C721.834 307.724 726.357 318.316 734.274 326.095C742.191 333.875 752.861 338.211 763.96 338.16H765.09C776.12 337.824 786.577 333.169 794.208 325.198C801.84 317.228 806.036 306.579 805.893 295.544C805.75 284.51 801.28 273.973 793.444 266.203C785.609 258.433 775.035 254.051 764 254V254.01Z" fill="black"/>
<path d="M750.44 421.39C750.44 421.39 751.44 461.39 780.05 454.48C808.66 447.57 869.85 432.16 884.19 474.89C898.53 517.62 893.71 525.83 925.44 526.64C957.17 527.45 1011.71 584.21 940.99 638.19C870.27 692.17 693.22 459.46 693.22 459.46L698.7 435.26L750.44 421.39Z" fill="#6C32AD"/>
<path d="M750.44 421.39C750.44 421.39 751.26 455.28 773.72 455.28C775.854 455.264 777.979 454.996 780.05 454.48C793.62 451.19 814.49 446.01 834.22 446.01C856.14 446.01 876.64 452.4 884.22 474.89C898.55 517.63 893.74 525.83 925.47 526.64C957.2 527.45 1011.74 584.21 941.02 638.19C933.67 643.8 925.16 646.31 915.84 646.31C835.41 646.31 693.25 459.46 693.25 459.46L698.73 435.26L750.47 421.39H750.44ZM750.47 418.39C750.21 418.388 749.951 418.422 749.7 418.49L697.96 432.37C697.433 432.511 696.954 432.793 696.575 433.186C696.196 433.579 695.932 434.068 695.81 434.6L690.32 458.8C690.223 459.228 690.221 459.671 690.315 460.1C690.408 460.528 690.594 460.931 690.86 461.28C716.272 493.96 743.428 525.245 772.21 555C798.8 582.25 823.42 604 845.36 619.58C873.13 639.32 896.83 649.33 915.81 649.33C926.13 649.33 935.21 646.39 942.81 640.59C958.71 628.46 969.46 615.36 974.81 601.66C979.445 590.178 979.877 577.429 976.03 565.66C968.09 541.13 943.53 524.16 925.56 523.66C901.95 523.06 900.82 519.26 893.56 494.58C891.81 488.69 889.83 482 887.13 473.96C880.15 453.42 862.38 443 834.22 443C814.66 443 794.07 448 780.45 451.28L779.35 451.55C777.508 452.012 775.618 452.253 773.72 452.27C754.42 452.27 753.45 421.61 753.44 421.27C753.419 420.488 753.094 419.745 752.533 419.2C751.973 418.655 751.222 418.35 750.44 418.35L750.47 418.39Z" fill="black"/>
<path d="M948.46 632.05C941.84 566.27 836.71 498.74 803.14 488.79C769.57 478.84 729.05 462.69 722.95 448.52C716.85 434.35 740.66 427.79 740.66 427.79L733.52 425.93L698.7 435.26L693.22 459.46C693.22 459.46 870.27 692.17 941 638.19C943.66 636.15 946.14 634.1 948.46 632.05Z" fill="#59298F"/>
<path d="M613.4 359.42C613.4 359.42 598.88 326.49 619.75 309.36C640.62 292.23 645.49 296.83 655.89 287.07C666.29 277.31 693.5 275.42 710.48 290.37C710.48 290.37 743.48 283.58 762.86 299.65C782.24 315.72 784.98 329.87 783.15 350.06C781.32 370.25 783.96 380.85 783.15 395.06C782.34 409.27 773.73 446.3 715.21 449.06C656.69 451.82 613.4 359.42 613.4 359.42Z" fill="#6C32AD"/>
<path d="M679.85 279.45C690.32 279.45 701.75 282.68 710.48 290.37C715.857 289.419 721.31 288.96 726.77 289C737.86 289 752.36 291 762.86 299.7C782.24 315.78 784.98 329.92 783.15 350.11C781.32 370.3 783.96 380.9 783.15 395.11C782.34 409.32 773.73 446.35 715.21 449.11C714.37 449.11 713.52 449.17 712.68 449.17C655.44 449.17 613.4 359.49 613.4 359.49C613.4 359.49 598.88 326.56 619.75 309.43C640.62 292.3 645.49 296.9 655.89 287.14C660.95 282.41 669.97 279.52 679.89 279.52L679.85 279.45ZM679.89 276.52C669.24 276.52 659.51 279.67 653.89 284.96C649.65 288.96 646.55 290.24 642.27 292.05C636.72 294.4 629.81 297.32 617.9 307.11C608.55 314.78 604.37 326.56 605.81 341.18C606.494 347.889 608.145 354.463 610.71 360.7V360.77C618.631 376.852 628.192 392.072 639.24 406.19C649.68 419.43 660.47 430.01 671.32 437.61C685.1 447.27 699.02 452.17 712.7 452.17C713.59 452.17 714.49 452.17 715.37 452.11C741.47 450.9 760.91 442.92 773.14 428.39C780.895 419.043 785.451 407.456 786.14 395.33C786.391 389.52 786.314 383.701 785.91 377.9C785.262 368.742 785.332 359.547 786.12 350.4C788.01 329.63 785.12 314.3 764.76 297.4C753.41 287.98 737.83 286.01 726.76 286.01C721.589 286.004 716.426 286.412 711.32 287.23C702.9 280.31 691.78 276.51 679.83 276.51L679.89 276.52Z" fill="black"/>
<path d="M666 445.57L648.22 489.88C648.22 489.88 650.22 518.13 719.4 476.88C719.4 476.88 712.12 460.05 716.2 416.96C716.2 416.96 735.3 422.38 740.78 405.64C746.26 388.9 735.35 379.72 725.88 379.97C725.88 379.97 686.88 384.56 689.67 309.84C689.67 309.84 652.84 306.07 629.88 333.93C606.92 361.79 593.74 401.23 612.13 424.45C630.52 447.67 666 445.57 666 445.57Z" fill="#FFCDB2"/>
<path d="M685.15 309.71C688 309.71 689.67 309.88 689.67 309.88C687.21 376.43 717.86 380.07 724.59 380.07C725.021 380.075 725.451 380.055 725.88 380.01H726.26C735.64 380.01 746.19 389.17 740.78 405.68C737.45 415.84 729.11 417.83 723.06 417.83C720.748 417.838 718.443 417.559 716.2 417C712.12 460.09 719.4 476.92 719.4 476.92C690.21 494.3 672.98 499.33 662.81 499.33C648.87 499.33 648.22 489.88 648.22 489.88L666 445.57C666 445.57 665.16 445.62 663.65 445.62C655.44 445.62 627.65 444.11 612.13 424.49C593.74 401.27 606.92 361.83 629.88 333.97C648 312 674.62 309.71 685.15 309.71ZM685.15 306.71C674.15 306.71 646.42 309.18 627.56 332.06C615.32 346.92 606.44 364.06 602.56 380.28C598.13 398.88 600.62 414.81 609.76 426.35C624.97 445.56 651.1 448.3 661.54 448.59L645.41 488.76C645.24 489.182 645.168 489.636 645.2 490.09C645.5 494.32 649.55 502.33 662.79 502.33C676.03 502.33 695.47 494.65 720.91 479.5C721.537 479.127 722.006 478.539 722.231 477.845C722.455 477.151 722.419 476.399 722.13 475.73C722.07 475.58 715.6 459.73 718.87 420.56C720.253 420.737 721.645 420.827 723.04 420.83C733.3 420.83 740.61 415.83 743.61 406.62C746.34 398.28 745.61 390.55 741.44 384.85C739.703 382.438 737.42 380.471 734.779 379.109C732.138 377.747 729.212 377.027 726.24 377.01H725.78H725.51C725.197 377.026 724.883 377.026 724.57 377.01C721.57 377.01 713.9 376.21 706.79 368.83C696.51 358.16 691.62 337.83 692.65 309.93C692.679 309.167 692.416 308.421 691.914 307.845C691.412 307.269 690.71 306.906 689.95 306.83C689.88 306.83 688.1 306.65 685.13 306.65L685.15 306.71Z" fill="black"/>
<path d="M663.94 448.24C663.19 448.24 662.43 448.24 661.69 448.16C661.292 448.132 660.921 447.947 660.66 447.646C660.398 447.345 660.267 446.953 660.295 446.555C660.323 446.157 660.507 445.786 660.808 445.525C661.109 445.263 661.502 445.132 661.9 445.16C672.57 445.92 685.29 440.16 685.41 440.16C685.59 440.062 685.789 440.002 685.993 439.984C686.198 439.966 686.404 439.991 686.599 440.055C686.793 440.12 686.973 440.225 687.126 440.362C687.279 440.499 687.402 440.666 687.487 440.852C687.573 441.039 687.62 441.241 687.624 441.446C687.629 441.651 687.591 441.855 687.513 442.045C687.436 442.236 687.32 442.408 687.173 442.551C687.026 442.695 686.851 442.807 686.66 442.88C686.15 443.09 674.77 448.24 663.94 448.24Z" fill="black"/>
<path d="M720.71 410.08C720.45 410.079 720.195 410.012 719.969 409.884C719.743 409.756 719.554 409.572 719.42 409.35C719.218 409.009 719.16 408.602 719.257 408.218C719.354 407.834 719.6 407.504 719.94 407.3C725.45 404 728.28 400.57 728.36 397.1C728.47 392.17 722.93 388.47 722.88 388.43C722.561 388.206 722.343 387.868 722.269 387.486C722.196 387.103 722.274 386.708 722.486 386.382C722.699 386.056 723.03 385.826 723.41 385.74C723.789 385.654 724.187 385.718 724.52 385.92C724.81 386.11 731.52 390.56 731.36 397.15C731.26 401.73 727.94 406.01 721.48 409.87C721.248 410.012 720.981 410.085 720.71 410.08Z" fill="black"/>
<path d="M663.75 355.82C680.17 367.47 707.96 370.06 709.37 378.31C710.78 386.56 703.85 393.86 693.14 391.78C682.43 389.7 672.82 385.2 653.59 375.05C634.36 364.9 616.3 353.52 623.15 343.86C630 334.2 639.6 338.69 663.75 355.82Z" fill="#FFB49F"/>
<path d="M651.23 336.09C650.892 336.091 650.563 335.978 650.297 335.77C650.032 335.561 649.844 335.268 649.765 334.939C649.687 334.611 649.721 334.265 649.864 333.958C650.006 333.652 650.248 333.402 650.55 333.25C654.905 331.284 659.74 330.634 664.46 331.38C664.655 331.412 664.842 331.481 665.01 331.586C665.177 331.69 665.323 331.827 665.437 331.988C665.552 332.149 665.633 332.331 665.676 332.523C665.72 332.716 665.724 332.916 665.69 333.11C665.619 333.5 665.399 333.847 665.075 334.077C664.752 334.307 664.352 334.401 663.96 334.34C659.867 333.724 655.684 334.275 651.89 335.93C651.686 336.036 651.46 336.091 651.23 336.09Z" fill="black"/>
<path d="M697.67 360.08C697.339 360.08 697.016 359.97 696.754 359.767C696.492 359.565 696.304 359.281 696.22 358.96C696.12 358.6 693.84 350.27 686.42 350.27H686.23C685.832 350.27 685.451 350.112 685.169 349.831C684.888 349.549 684.73 349.168 684.73 348.77C684.73 348.372 684.888 347.991 685.169 347.709C685.451 347.428 685.832 347.27 686.23 347.27H686.45C694.25 347.27 698.16 354.4 699.15 358.2C699.251 358.585 699.194 358.993 698.994 359.336C698.793 359.68 698.464 359.929 698.08 360.03C697.946 360.063 697.808 360.08 697.67 360.08Z" fill="black"/>
<path d="M667.75 416.19C662.927 416.181 658.26 414.483 654.56 411.39C654.28 411.115 654.12 410.741 654.113 410.348C654.106 409.956 654.253 409.577 654.523 409.291C654.792 409.006 655.163 408.838 655.555 408.823C655.947 408.808 656.329 408.947 656.62 409.21C657.04 409.6 666.89 418.56 680.75 408.41C681.071 408.174 681.472 408.075 681.866 408.135C682.26 408.195 682.614 408.409 682.85 408.73C683.086 409.051 683.185 409.452 683.125 409.846C683.065 410.24 682.851 410.594 682.53 410.83C677 414.86 672 416.19 667.75 416.19Z" fill="black"/>
<path d="M728.17 380.05C722.576 380.187 717.022 379.066 711.92 376.77C711.742 376.684 711.584 376.564 711.453 376.416C711.322 376.269 711.222 376.097 711.157 375.911C711.092 375.725 711.065 375.528 711.077 375.331C711.088 375.135 711.139 374.942 711.225 374.765C711.311 374.588 711.431 374.429 711.578 374.298C711.725 374.167 711.897 374.067 712.083 374.002C712.269 373.938 712.467 373.91 712.663 373.922C712.86 373.934 713.052 373.984 713.23 374.07C727.8 381.15 749.89 373.29 750.11 373.21C750.475 373.109 750.865 373.151 751.201 373.326C751.537 373.502 751.794 373.798 751.921 374.155C752.047 374.512 752.034 374.904 751.884 375.252C751.733 375.6 751.457 375.878 751.11 376.03C743.718 378.552 735.979 379.908 728.17 380.05Z" fill="black"/>
<path d="M729.18 372C729.044 372 728.91 371.979 728.78 371.94C693.28 361.94 699.13 322.83 699.19 322.43C699.254 322.032 699.473 321.676 699.799 321.44C700.125 321.203 700.532 321.106 700.93 321.17C701.328 321.234 701.684 321.453 701.92 321.779C702.157 322.105 702.254 322.512 702.19 322.91C701.95 324.41 696.73 359.79 729.63 369.05C729.984 369.144 730.292 369.364 730.496 369.669C730.699 369.974 730.783 370.343 730.733 370.707C730.682 371.07 730.5 371.402 730.222 371.64C729.943 371.879 729.587 372.007 729.22 372H729.18Z" fill="white"/>
<path d="M816.92 284.32H816.62C816.426 284.282 816.242 284.206 816.078 284.096C815.914 283.986 815.774 283.844 815.665 283.68C815.556 283.515 815.481 283.33 815.444 283.136C815.407 282.942 815.409 282.743 815.45 282.55C817.18 274.02 816.03 266.67 812.04 260.68C804.9 249.98 790.9 247.12 790.76 247.09C790.559 247.06 790.367 246.99 790.194 246.883C790.021 246.777 789.872 246.637 789.755 246.471C789.638 246.305 789.556 246.117 789.513 245.918C789.471 245.72 789.47 245.515 789.509 245.316C789.548 245.117 789.627 244.928 789.742 244.76C789.856 244.593 790.004 244.45 790.175 244.341C790.346 244.232 790.537 244.159 790.738 244.126C790.938 244.093 791.143 244.101 791.34 244.15C791.96 244.27 806.67 247.25 814.52 259C818.98 265.67 820.28 273.8 818.38 283.15C818.307 283.482 818.122 283.78 817.856 283.993C817.591 284.205 817.26 284.321 816.92 284.32Z" fill="black"/>
<path d="M644.15 385.89C643.78 385.886 643.425 385.747 643.15 385.5C643.004 385.367 642.887 385.206 642.804 385.027C642.721 384.848 642.674 384.654 642.667 384.457C642.659 384.26 642.691 384.063 642.76 383.878C642.829 383.693 642.935 383.524 643.07 383.38L665.16 359.48C665.281 359.304 665.439 359.156 665.622 359.046C665.806 358.936 666.011 358.866 666.223 358.842C666.436 358.817 666.651 358.839 666.854 358.904C667.058 358.97 667.245 359.078 667.403 359.222C667.562 359.366 667.687 359.542 667.772 359.738C667.857 359.935 667.898 360.147 667.894 360.361C667.89 360.575 667.84 360.785 667.748 360.978C667.656 361.171 667.524 361.342 667.36 361.48L645.27 385.38C645.13 385.539 644.958 385.667 644.765 385.755C644.572 385.843 644.362 385.889 644.15 385.89Z" fill="black"/>
<path d="M792.46 300.37H792.39C791.999 300.342 791.635 300.162 791.375 299.868C791.115 299.575 790.98 299.191 791 298.8C791.44 289.59 789.15 282.45 784.21 277.58C776.14 269.63 763.49 270.32 763.36 270.33C763.163 270.342 762.965 270.316 762.778 270.252C762.592 270.188 762.419 270.088 762.271 269.958C761.972 269.694 761.79 269.323 761.765 268.925C761.74 268.527 761.873 268.136 762.137 267.837C762.4 267.537 762.772 267.355 763.17 267.33C763.74 267.33 777.25 266.52 786.3 275.42C791.89 280.91 794.48 288.82 794 298.93C793.982 299.323 793.81 299.694 793.523 299.963C793.235 300.232 792.854 300.378 792.46 300.37Z" fill="white"/>
<path d="M642.03 358.13C644.338 358.13 646.21 356.259 646.21 353.95C646.21 351.641 644.338 349.77 642.03 349.77C639.721 349.77 637.85 351.641 637.85 353.95C637.85 356.259 639.721 358.13 642.03 358.13Z" fill="black"/>
<path d="M683.03 381.13C685.338 381.13 687.21 379.259 687.21 376.95C687.21 374.641 685.338 372.77 683.03 372.77C680.721 372.77 678.85 374.641 678.85 376.95C678.85 379.259 680.721 381.13 683.03 381.13Z" fill="black"/>
<path d="M544.22 552.91C544.22 552.91 548.1 443.27 431.75 409.25C431.75 409.25 412.36 431.93 447.26 465.96C447.26 465.96 423.99 477.3 431.75 496.2C431.75 496.2 416.23 515.11 431.75 526.45C447.27 537.79 451 552.12 476.26 562C501.52 571.88 544.22 552.91 544.22 552.91Z" fill="#FFCDB2"/>
<path d="M493.75 566.33C487.617 566.443 481.515 565.426 475.75 563.33C459.27 556.91 451.75 548.58 444.44 540.53C440.29 535.95 436.38 531.63 430.89 527.62C426.6 524.48 424.12 520.5 423.52 515.79C422.38 507 428.18 498.45 430 496C424 479.76 439.33 468.9 444.75 465.66C427.57 448.32 424.43 433.92 424.88 424.81C425.38 414.49 430.36 408.56 430.57 408.31C430.756 408.089 431.004 407.928 431.281 407.847C431.558 407.765 431.853 407.766 432.13 407.85C492.79 425.59 520.44 464.1 532.96 493.29C546.51 524.9 545.69 552.73 545.68 553.01C545.668 553.291 545.578 553.563 545.421 553.796C545.264 554.029 545.046 554.214 544.79 554.33C543.44 554.9 517.3 566.33 493.75 566.33ZM432.31 411C429.39 415.13 417.99 435.35 448.31 464.9C448.482 465.068 448.611 465.274 448.685 465.502C448.76 465.73 448.779 465.973 448.74 466.21C448.705 466.448 448.612 466.674 448.469 466.868C448.326 467.062 448.137 467.217 447.92 467.32C447.02 467.76 426.01 478.32 433.14 495.65C433.24 495.901 433.271 496.174 433.231 496.441C433.191 496.708 433.08 496.96 432.91 497.17C432.83 497.27 425.33 506.56 426.47 515.48C426.752 517.451 427.447 519.341 428.508 521.026C429.569 522.711 430.974 524.154 432.63 525.26C438.36 529.45 442.57 534.09 446.63 538.58C453.69 546.37 460.98 554.43 476.81 560.58C499.26 569.32 536.54 554.52 542.73 551.93C542.73 546.86 542.12 522.09 530.19 494.33C518 465.92 491.11 428.5 432.31 411Z" fill="black"/>
<path d="M213 590.65H212.92C192.65 589.5 166.45 567.79 165.34 566.86C165.189 566.733 165.064 566.578 164.973 566.403C164.882 566.228 164.827 566.037 164.809 565.841C164.792 565.644 164.814 565.447 164.873 565.259C164.932 565.07 165.028 564.896 165.155 564.745C165.282 564.594 165.437 564.469 165.612 564.378C165.787 564.287 165.978 564.232 166.174 564.214C166.371 564.197 166.568 564.219 166.756 564.278C166.944 564.338 167.119 564.433 167.27 564.56C167.53 564.78 193.81 586.56 213.08 587.66C213.478 587.671 213.855 587.839 214.129 588.128C214.403 588.416 214.551 588.802 214.54 589.2C214.529 589.598 214.361 589.975 214.072 590.249C213.784 590.523 213.398 590.671 213 590.66V590.65Z" fill="black"/>
<path d="M459.77 522.29C459.458 522.294 459.153 522.2 458.898 522.02C458.643 521.841 458.451 521.585 458.35 521.29C458.3 521.15 453.43 506.97 430.7 497.22C430.334 497.063 430.045 496.768 429.897 496.399C429.749 496.029 429.753 495.616 429.91 495.25C430.066 494.884 430.362 494.595 430.731 494.447C431.101 494.299 431.514 494.303 431.88 494.46C456 504.75 461 519.7 461.2 520.33C461.26 520.52 461.282 520.719 461.264 520.918C461.246 521.116 461.189 521.308 461.096 521.484C461.003 521.66 460.876 521.816 460.722 521.942C460.568 522.068 460.391 522.163 460.2 522.22C460.061 522.265 459.916 522.289 459.77 522.29Z" fill="black"/>
<path d="M484.46 494.52C484.169 494.519 483.885 494.433 483.641 494.274C483.398 494.114 483.207 493.887 483.09 493.62C474.94 475.09 447.33 467.7 447.09 467.62C446.899 467.57 446.72 467.483 446.562 467.364C446.405 467.245 446.272 467.095 446.173 466.925C446.073 466.755 446.007 466.566 445.98 466.371C445.953 466.175 445.965 465.976 446.015 465.785C446.065 465.594 446.152 465.414 446.271 465.257C446.391 465.1 446.54 464.967 446.71 464.867C446.88 464.768 447.069 464.702 447.264 464.675C447.46 464.648 447.659 464.66 447.85 464.71C449.04 465.02 477.14 472.53 485.85 492.41C485.934 492.591 485.981 492.788 485.988 492.988C485.995 493.187 485.961 493.387 485.889 493.573C485.818 493.76 485.709 493.93 485.57 494.074C485.431 494.218 485.264 494.332 485.08 494.41C484.884 494.491 484.672 494.529 484.46 494.52Z" fill="black"/>
<path d="M568.76 521.78C637.52 482.58 722.4 450.32 787.56 497.36C852.72 544.4 890.19 625.28 890.19 625.28V893.44L592.41 893.61C592.41 893.61 572.73 788.82 581.41 675.91C581.41 675.91 544.9 691.74 501.46 705.91C458.02 720.08 334.19 752.35 312.46 667.67L277.71 658.26C277.71 658.26 299.43 606.51 303.77 568.88L338.52 578.28C338.52 578.28 342.86 535.94 390.64 554.76C438.42 573.58 486.23 568.83 568.76 521.78Z" fill="#FFAD00"/>
<path d="M592.41 895.11C592.06 895.109 591.721 894.987 591.451 894.765C591.181 894.542 590.997 894.233 590.93 893.89C590.74 892.89 571.6 789.15 579.74 678.25C571.07 681.92 538.82 695.25 501.93 707.25C481.37 713.94 440.93 725.25 402.31 725.25C381.57 725.25 361.37 722 345.05 713.03C327.93 703.61 316.56 688.75 311.25 668.85L277.34 659.67C277.135 659.616 276.945 659.519 276.781 659.385C276.617 659.252 276.483 659.085 276.388 658.896C276.294 658.707 276.24 658.499 276.232 658.288C276.224 658.077 276.261 657.866 276.34 657.67C276.55 657.16 298.02 605.67 302.29 568.67C302.314 568.455 302.384 568.249 302.496 568.064C302.608 567.88 302.758 567.721 302.937 567.601C303.115 567.48 303.318 567.399 303.531 567.365C303.744 567.33 303.962 567.342 304.17 567.4L337.3 576.4C338.13 571.81 341.3 559.4 352.3 552.7C362 546.8 375.09 547.02 391.19 553.37C407.472 559.942 424.862 563.336 442.42 563.37C477.85 563.37 516.91 549.59 567.99 520.48C610.05 496.48 646.43 481.88 679.21 475.76C721.9 467.76 758.64 474.65 788.41 496.15C853.14 542.88 891.15 623.84 891.53 624.65C891.621 624.847 891.669 625.062 891.67 625.28V893.44C891.67 893.838 891.512 894.219 891.231 894.501C890.949 894.782 890.568 894.94 890.17 894.94L592.41 895.11ZM581.41 674.41C581.722 674.408 582.027 674.506 582.28 674.69C582.49 674.839 582.658 675.039 582.766 675.273C582.875 675.506 582.921 675.763 582.9 676.02C574.83 780.93 591.51 880.02 593.65 892.11L888.65 891.94V625.62C886.08 620.22 848.75 543.43 786.65 498.62C735 461.24 663.93 469.26 569.5 523.08L568.75 521.78L569.5 523.08C528.5 546.46 495.89 559.6 466.93 564.42C440.23 568.87 415.82 566.23 390.12 556.11C374.93 550.11 362.73 549.82 353.88 555.21C341.79 562.57 340.05 578.21 340.03 578.39C340.009 578.606 339.94 578.815 339.83 579.002C339.719 579.189 339.569 579.349 339.39 579.472C339.211 579.595 339.007 579.678 338.793 579.713C338.579 579.749 338.359 579.738 338.15 579.68L305.07 570.73C300.78 604.26 283.36 648.36 279.76 657.21L312.87 666.21C313.126 666.282 313.358 666.419 313.544 666.609C313.73 666.798 313.863 667.033 313.93 667.29C318.93 686.78 329.93 701.29 346.5 710.43C392.14 735.53 469.76 714.62 501.01 704.43C543.87 690.5 580.46 674.69 580.82 674.53C581.01 674.451 581.214 674.41 581.42 674.41H581.41Z" fill="black"/>
<path d="M338.57 579.6L305 570.51C300.78 607.06 279.69 657.33 279.69 657.33L312.69 666.25C312.85 666.02 313.02 665.8 313.18 665.56C331.77 637.56 339 580.56 339 580.56L338.57 579.6Z" fill="#E89D00"/>
<path d="M486.05 481.08C486.05 481.08 431.75 488.64 443.38 526.45C443.38 526.45 455.02 534.01 486.05 515.11" fill="#FFCDB2"/>
<path d="M450.94 529.44C445.36 529.44 442.79 527.85 442.57 527.71C442.271 527.521 442.05 527.229 441.95 526.89C439.01 517.36 439.88 508.82 444.53 501.53C455.7 483.98 484.61 479.77 485.84 479.59C486.238 479.536 486.641 479.641 486.96 479.884C487.28 480.127 487.49 480.487 487.545 480.885C487.599 481.283 487.493 481.686 487.25 482.006C487.008 482.325 486.648 482.536 486.25 482.59C485.97 482.59 457.48 486.78 447.05 503.17C443 509.53 442.19 517.01 444.63 525.42C446.96 526.42 458.89 529.91 485.27 513.85C485.438 513.738 485.627 513.662 485.825 513.625C486.024 513.589 486.227 513.592 486.424 513.636C486.621 513.68 486.807 513.763 486.971 513.881C487.135 513.998 487.274 514.148 487.379 514.32C487.484 514.492 487.553 514.684 487.582 514.883C487.611 515.083 487.6 515.287 487.549 515.482C487.498 515.677 487.407 515.86 487.284 516.019C487.16 516.179 487.006 516.311 486.83 516.41C469.4 527 457.86 529.43 450.94 529.44Z" fill="black"/>
<path d="M566.95 559.62C571.788 559.62 575.71 555.698 575.71 550.86C575.71 546.022 571.788 542.1 566.95 542.1C562.112 542.1 558.19 546.022 558.19 550.86C558.19 555.698 562.112 559.62 566.95 559.62Z" fill="#FFC140"/>
<path d="M504.54 617.22C509.002 617.22 512.62 613.298 512.62 608.46C512.62 603.622 509.002 599.7 504.54 599.7C500.078 599.7 496.46 603.622 496.46 608.46C496.46 613.298 500.078 617.22 504.54 617.22Z" fill="#FFC140"/>
<path d="M580.77 650.62C585.608 650.62 589.53 646.698 589.53 641.86C589.53 637.022 585.608 633.1 580.77 633.1C575.932 633.1 572.01 637.022 572.01 641.86C572.01 646.698 575.932 650.62 580.77 650.62Z" fill="#FFC140"/>
<path d="M424.78 690.94C429.242 690.94 432.86 687.018 432.86 682.18C432.86 677.342 429.242 673.42 424.78 673.42C420.317 673.42 416.7 677.342 416.7 682.18C416.7 687.018 420.317 690.94 424.78 690.94Z" fill="#FFC140"/>
<path d="M386.49 609.15C390.952 609.15 394.57 605.228 394.57 600.39C394.57 595.552 390.952 591.63 386.49 591.63C382.027 591.63 378.41 595.552 378.41 600.39C378.41 605.228 382.027 609.15 386.49 609.15Z" fill="#FFC140"/>
<path d="M707.48 553.86C712.318 553.86 716.24 549.938 716.24 545.1C716.24 540.262 712.318 536.34 707.48 536.34C702.642 536.34 698.72 540.262 698.72 545.1C698.72 549.938 702.642 553.86 707.48 553.86Z" fill="#FFC140"/>
<path d="M829.58 618.37C834.418 618.37 838.34 614.448 838.34 609.61C838.34 604.772 834.418 600.85 829.58 600.85C824.742 600.85 820.82 604.772 820.82 609.61C820.82 614.448 824.742 618.37 829.58 618.37Z" fill="#FFC140"/>
<path d="M732.82 765.81C737.658 765.81 741.58 761.888 741.58 757.05C741.58 752.212 737.658 748.29 732.82 748.29C727.982 748.29 724.06 752.212 724.06 757.05C724.06 761.888 727.982 765.81 732.82 765.81Z" fill="#FFC140"/>
<path d="M829.58 823.4C834.418 823.4 838.34 819.478 838.34 814.64C838.34 809.802 834.418 805.88 829.58 805.88C824.742 805.88 820.82 809.802 820.82 814.64C820.82 819.478 824.742 823.4 829.58 823.4Z" fill="#FFC140"/>
<path d="M645.28 860.26C650.118 860.26 654.04 856.338 654.04 851.5C654.04 846.662 650.118 842.74 645.28 842.74C640.442 842.74 636.52 846.662 636.52 851.5C636.52 856.338 640.442 860.26 645.28 860.26Z" fill="#FFC140"/>
<path d="M713.24 658.68C718.078 658.68 722 654.758 722 649.92C722 645.082 718.078 641.16 713.24 641.16C708.402 641.16 704.48 645.082 704.48 649.92C704.48 654.758 708.402 658.68 713.24 658.68Z" fill="#FFC140"/>
<path d="M192.16 657.93C152.29 657.93 127.38 638.15 113.33 621.14C103.682 609.535 96.3226 596.206 91.6399 581.86C91.572 581.667 91.5443 581.462 91.5586 581.258C91.5728 581.054 91.6287 580.855 91.7228 580.673C91.8169 580.491 91.9471 580.33 92.1056 580.201C92.2641 580.071 92.4473 579.976 92.6442 579.92C92.841 579.864 93.0472 579.848 93.2501 579.875C93.4531 579.902 93.6484 579.97 93.8241 580.075C93.9998 580.179 94.1522 580.319 94.2718 580.485C94.3915 580.651 94.4759 580.84 94.5199 581.04C99.1598 594.995 106.344 607.971 115.71 619.31C136.38 644.31 163.84 656.25 197.24 654.83C197.437 654.821 197.634 654.852 197.819 654.919C198.004 654.987 198.174 655.09 198.32 655.223C198.465 655.357 198.583 655.517 198.666 655.696C198.749 655.875 198.796 656.068 198.805 656.265C198.813 656.462 198.783 656.659 198.716 656.844C198.648 657.029 198.545 657.199 198.411 657.345C198.278 657.49 198.118 657.608 197.939 657.691C197.76 657.774 197.567 657.821 197.37 657.83C195.61 657.9 193.87 657.93 192.16 657.93Z" fill="black"/>
<path d="M580.9 677.41C580.54 677.407 580.192 677.276 579.921 677.038C579.65 676.801 579.474 676.474 579.424 676.117C579.374 675.76 579.455 675.398 579.65 675.095C579.846 674.793 580.144 674.571 580.49 674.47C580.84 674.36 616.49 664 646.12 654.89C646.308 654.832 646.506 654.812 646.702 654.831C646.899 654.85 647.089 654.907 647.263 654.999C647.437 655.091 647.592 655.217 647.717 655.369C647.843 655.521 647.937 655.696 647.995 655.885C648.053 656.073 648.073 656.271 648.054 656.468C648.035 656.664 647.978 656.854 647.886 657.028C647.793 657.203 647.667 657.357 647.515 657.482C647.363 657.608 647.188 657.702 647 657.76C617.39 666.87 581.68 677.24 581.32 677.35C581.183 677.389 581.042 677.41 580.9 677.41Z" fill="black"/>
<path d="M520.61 505.78C520.232 505.778 519.869 505.634 519.592 505.377C519.316 505.119 519.147 504.767 519.12 504.39C516.03 465.39 454.59 432.21 453.97 431.88C453.796 431.787 453.642 431.661 453.516 431.509C453.391 431.357 453.297 431.182 453.239 430.993C453.182 430.805 453.162 430.607 453.181 430.411C453.2 430.214 453.257 430.024 453.35 429.85C453.442 429.676 453.568 429.522 453.72 429.396C453.872 429.271 454.048 429.177 454.236 429.119C454.425 429.062 454.623 429.042 454.819 429.061C455.015 429.08 455.206 429.137 455.38 429.23C457.97 430.61 518.89 463.49 522.11 504.16C522.14 504.556 522.012 504.949 521.753 505.25C521.494 505.552 521.126 505.739 520.73 505.77L520.61 505.78Z" fill="white"/>
<path d="M213.26 632.48C163.11 631.33 139.99 599.92 139.76 599.61C139.526 599.286 139.431 598.883 139.495 598.489C139.559 598.096 139.776 597.743 140.1 597.51C140.423 597.276 140.826 597.181 141.22 597.245C141.614 597.309 141.966 597.526 142.2 597.85C142.42 598.16 164.74 628.36 213.33 629.48C213.728 629.48 214.109 629.638 214.391 629.919C214.672 630.2 214.83 630.582 214.83 630.98C214.83 631.378 214.672 631.759 214.391 632.041C214.109 632.322 213.728 632.48 213.33 632.48H213.26Z" fill="white"/>
<path d="M802.07 527.66C801.846 527.66 801.626 527.61 801.423 527.515C801.221 527.42 801.042 527.282 800.9 527.11C769.9 488.98 721.9 485.76 687.03 489.78C663.237 492.703 639.949 498.832 617.8 508C617.438 508.152 617.031 508.156 616.666 508.012C616.302 507.867 616.008 507.586 615.848 507.227C615.689 506.869 615.676 506.462 615.813 506.094C615.95 505.727 616.225 505.427 616.58 505.26C638.977 495.998 662.524 489.805 686.58 486.85C709.18 484.24 729.79 485.34 747.83 490.12C770.47 496.12 789.1 507.94 803.2 525.27C803.381 525.489 803.496 525.754 803.531 526.036C803.566 526.318 803.52 526.603 803.398 526.86C803.276 527.116 803.083 527.332 802.843 527.483C802.602 527.633 802.324 527.712 802.04 527.71L802.07 527.66Z" fill="white"/>
<path d="M540 457.5C539.664 457.501 539.337 457.389 539.073 457.182C538.808 456.975 538.62 456.686 538.54 456.36C522.93 393.91 431.54 365.71 430.54 365.44C430.158 365.326 429.837 365.065 429.647 364.714C429.458 364.363 429.416 363.952 429.53 363.57C429.644 363.188 429.905 362.867 430.255 362.678C430.606 362.488 431.018 362.446 431.4 362.56C448.432 368.157 464.808 375.584 480.24 384.71C503.52 398.54 533.03 422.07 541.43 455.64C541.523 456.027 541.46 456.436 541.254 456.776C541.048 457.117 540.716 457.363 540.33 457.46C540.222 457.486 540.111 457.499 540 457.5Z" fill="black"/>
<path d="M420 709.65C409.425 709.671 398.879 708.561 388.54 706.34C364.9 701.21 351.21 692.13 350.64 691.74C350.31 691.517 350.082 691.172 350.006 690.781C349.93 690.39 350.012 689.985 350.235 689.655C350.458 689.325 350.803 689.097 351.194 689.021C351.585 688.945 351.99 689.027 352.32 689.25C352.45 689.35 366.2 698.45 389.32 703.44C410.63 708.04 444.52 709.99 484.9 693.12C485.083 693.029 485.284 692.976 485.489 692.965C485.693 692.954 485.898 692.985 486.09 693.057C486.283 693.128 486.458 693.238 486.606 693.38C486.754 693.522 486.872 693.693 486.951 693.882C487.031 694.071 487.07 694.274 487.068 694.479C487.066 694.684 487.022 694.887 486.938 695.074C486.855 695.261 486.734 695.429 486.583 695.568C486.432 695.707 486.254 695.813 486.06 695.88C461.19 706.28 438.71 709.65 420 709.65Z" fill="white"/>
<path d="M472.91 78.7598L603.23 101.31C620.18 104.25 631.78 118 630 133L623.91 183.37C622.11 198.22 607.77 209.49 590.68 209.49H580.19L557.43 242.15L533.23 209.49H472.49C454.97 209.49 440.43 197.68 439.16 182.42L433.09 109.49C431.49 90.2898 451.27 74.9998 472.91 78.7598Z" fill="#FFAD00"/>
<path d="M557.43 243.66C557.194 243.662 556.961 243.608 556.751 243.502C556.541 243.395 556.358 243.241 556.22 243.05L532.48 211H472.48C454.28 211 438.99 198.51 437.66 182.56L431.59 109.63C430.85 100.83 434.27 92.4999 441.2 86.1499C449.48 78.5699 461.42 75.2499 473.2 77.2799L603.48 99.8299C621.35 102.93 633.38 117.26 631.48 133.19L625.39 183.56C623.46 199.2 608.54 211 590.64 211H581L558.69 243C558.553 243.194 558.372 243.354 558.162 243.465C557.951 243.576 557.718 243.636 557.48 243.64L557.43 243.66ZM466.35 79.6599C457.833 79.5738 449.59 82.665 443.23 88.3299C437 94.0299 433.93 101.49 434.59 109.33L440.66 182.26C441.86 196.66 455.84 207.95 472.49 207.95H533.23C533.465 207.95 533.697 208.006 533.907 208.112C534.117 208.217 534.3 208.371 534.44 208.56L557.39 239.56L578.96 208.56C579.098 208.362 579.282 208.201 579.497 208.089C579.711 207.978 579.949 207.92 580.19 207.92H590.64C607.02 207.92 620.64 197.26 622.38 183.12L628.47 132.75C630.2 118.44 619.24 105.52 602.97 102.75L472.65 80.2399C470.57 79.877 468.462 79.6964 466.35 79.6999V79.6599Z" fill="black"/>
<path d="M573.73 148.85H573.63L474.87 145.5C474.074 145.472 473.322 145.129 472.779 144.547C472.236 143.965 471.947 143.191 471.975 142.395C472.003 141.599 472.346 140.847 472.928 140.304C473.51 139.761 474.284 139.472 475.08 139.5L573.83 142.84C574.626 142.853 575.383 143.182 575.937 143.754C576.49 144.326 576.793 145.094 576.78 145.89C576.767 146.686 576.438 147.443 575.866 147.997C575.294 148.55 574.526 148.853 573.73 148.84V148.85Z" fill="white"/>
<path d="M569.89 174H569.75L499.75 170.65C498.954 170.613 498.206 170.261 497.67 169.672C497.133 169.083 496.853 168.306 496.89 167.51C496.927 166.714 497.279 165.966 497.868 165.43C498.457 164.893 499.234 164.613 500.03 164.65L570 168C570.796 168.019 571.551 168.352 572.101 168.928C572.65 169.504 572.949 170.274 572.93 171.07C572.911 171.866 572.578 172.621 572.002 173.171C571.426 173.72 570.656 174.019 569.86 174H569.89Z" fill="white"/>
<path d="M581.85 114.56C572.924 114.576 564.017 113.77 555.24 112.15C555.047 112.114 554.863 112.041 554.698 111.935C554.533 111.828 554.391 111.69 554.279 111.528C554.168 111.367 554.089 111.185 554.048 110.993C554.007 110.801 554.004 110.603 554.04 110.41C554.075 110.217 554.148 110.033 554.255 109.868C554.362 109.703 554.5 109.561 554.661 109.45C554.823 109.338 555.005 109.26 555.197 109.218C555.389 109.177 555.587 109.174 555.78 109.21C631 123.15 699.64 70.6699 700.32 70.1299C700.637 69.89 701.035 69.7838 701.43 69.8343C701.824 69.8848 702.183 70.0879 702.43 70.3999C702.672 70.7145 702.779 71.1121 702.729 71.5057C702.678 71.8993 702.473 72.2568 702.16 72.4999C701.99 72.6399 684.45 86.1499 657.73 97.7099C638.62 106 611.63 114.56 581.85 114.56Z" fill="black"/>
<path d="M616.43 165.86C607.606 165.854 598.843 164.384 590.5 161.51C590.123 161.377 589.815 161.1 589.642 160.74C589.47 160.38 589.447 159.966 589.58 159.59C589.713 159.213 589.99 158.905 590.35 158.732C590.71 158.56 591.123 158.537 591.5 158.67C634.25 173.28 668.32 145 668.66 144.67C668.81 144.542 668.984 144.446 669.172 144.386C669.36 144.326 669.557 144.303 669.754 144.319C669.95 144.336 670.142 144.39 670.317 144.481C670.492 144.571 670.648 144.694 670.775 144.845C670.902 144.995 670.999 145.169 671.059 145.357C671.119 145.545 671.142 145.742 671.126 145.939C671.109 146.135 671.055 146.326 670.964 146.501C670.874 146.677 670.75 146.832 670.6 146.96C670.29 147.23 647.91 165.86 616.43 165.86Z" fill="black"/>
<path d="M445.5 122C445.126 122.001 444.766 121.862 444.49 121.61C444.214 121.359 444.043 121.012 444.01 120.64C443.09 111.2 445.23 103.81 450.36 98.6399C459.31 89.6399 474.02 90.9199 474.64 90.9799C475.038 91.0171 475.405 91.2107 475.66 91.5183C475.915 91.8258 476.037 92.2221 476 92.6199C475.963 93.0178 475.769 93.3845 475.462 93.6396C475.154 93.8946 474.758 94.0171 474.36 93.9799C474.22 93.9799 460.42 92.7999 452.47 100.79C448.01 105.26 446.17 111.79 446.99 120.35C447.009 120.546 446.989 120.743 446.932 120.932C446.874 121.12 446.78 121.295 446.655 121.446C446.529 121.598 446.375 121.723 446.201 121.815C446.026 121.906 445.836 121.962 445.64 121.98L445.5 122Z" fill="white"/>
<path d="M718.12 426.53C721.097 426.53 723.51 423.888 723.51 420.63C723.51 417.371 721.097 414.73 718.12 414.73C715.143 414.73 712.73 417.371 712.73 420.63C712.73 423.888 715.143 426.53 718.12 426.53Z" fill="#FFAD00"/>
<path d="M718.12 414.73C719.16 414.731 720.173 415.056 721.02 415.66C722.246 416.578 723.091 417.915 723.394 419.417C723.696 420.918 723.435 422.479 722.66 423.8C722.21 424.616 721.552 425.299 720.753 425.778C719.953 426.258 719.042 426.517 718.11 426.53C717.073 426.527 716.063 426.202 715.22 425.6C713.992 424.683 713.145 423.346 712.843 421.844C712.54 420.342 712.802 418.781 713.58 417.46C714.027 416.643 714.682 415.96 715.48 415.48C716.278 415.001 717.189 414.742 718.12 414.73ZM718.12 412C716.757 412.019 715.423 412.4 714.255 413.102C713.087 413.805 712.126 414.805 711.47 416C710.339 417.934 709.959 420.216 710.401 422.412C710.844 424.608 712.078 426.565 713.87 427.91C715.109 428.79 716.59 429.265 718.11 429.27C719.473 429.252 720.807 428.872 721.976 428.169C723.144 427.466 724.105 426.466 724.76 425.27C725.891 423.336 726.271 421.054 725.828 418.858C725.386 416.662 724.151 414.705 722.36 413.36C721.12 412.48 719.64 412.005 718.12 412Z" fill="black"/>
<path d="M891.91 657.48V467.42L994.43 560.72L965.63 656.33L891.91 657.48Z" fill="white"/>
<path d="M891.91 657.48V467.42L994.43 560.72L965.63 656.33L891.91 657.48Z" fill="white"/>
<path d="M891.91 657.48V467.42L994.43 560.72L965.63 656.33L891.91 657.48Z" fill="white"/>
</svg>
