<svg width="1000" height="1000" viewBox="0 0 1000 1000" fill="none" xmlns="http://www.w3.org/2000/svg">
<rect width="1000" height="1000" fill="white"/>
<path d="M834.3 915.4H130.3C129.2 915.4 128.3 914.5 128.3 913.4C128.3 912.3 129.2 911.4 130.3 911.4H834.3C835.4 911.4 836.3 912.3 836.3 913.4C836.3 914.5 835.4 915.4 834.3 915.4Z" fill="#1D1D1B"/>
<path d="M216.3 940.4H79.3C78.2 940.4 77.3 939.5 77.3 938.4C77.3 937.3 78.2 936.4 79.3 936.4H216.3C217.4 936.4 218.3 937.3 218.3 938.4C218.3 939.5 217.4 940.4 216.3 940.4Z" fill="#1D1D1B"/>
<path d="M888.3 951.4H780.3C779.2 951.4 778.3 950.5 778.3 949.4C778.3 948.3 779.2 947.4 780.3 947.4H888.3C889.4 947.4 890.3 948.3 890.3 949.4C890.3 950.5 889.4 951.4 888.3 951.4Z" fill="#1D1D1B"/>
<path d="M451.2 427.9C451.2 427.9 502 612.8 665 673.1C787.7 718.5 781.3 707.7 824.6 671.3C862.5 639.4 911.9 521.2 896.8 487.7C881.7 454.2 855.8 458.6 855.8 458.6L849.6 431.4L752.5 432.3L752.6 451.1C752.6 451.1 717.2 465 721.4 498.7C725.6 532.4 723.4 579.1 734.7 595.2C734.7 595.2 696.4 444.5 485.4 428.4" fill="#FFAD00"/>
<path d="M770.2 704.5C750.8 704.5 721.3 695.5 664.4 674.5C627 660.7 592.5 639.1 561.7 610.5C537.1 587.5 514.9 560 495.6 528.7C462.8 475.4 449.8 428.8 449.7 428.3L452.6 427.5C452.7 428 465.6 474.2 498.2 527.2C528.2 576 581.6 640.7 665.4 671.7C775.4 712.4 780.3 708.1 812.2 679.9C815.5 676.9 819.3 673.6 823.5 670.1C841 655.3 862.8 619.8 879 579.5C895.7 538 901.9 503.1 895.3 488.3C880.9 456.3 856.9 459.9 855.9 460.1L854.5 460.3L848.2 432.9L753.8 433.8L753.9 452.1L752.9 452.5C752.6 452.6 718.8 466.4 722.8 498.6C724.1 509.4 724.8 521.6 725.5 533.5C726.4 549.3 727.3 565.4 729.8 577.8C732.3 583.4 734.4 589.1 736.1 595L738.1 602.8L733.4 596.2C730.4 592 728.4 585.9 726.9 578.5C717.2 556.6 704 536.5 687.9 518.8C655.3 482.8 593.6 438.2 485.3 430L485.5 427C533.8 430.7 577.1 441.8 614 460C643.6 474.6 669.3 493.7 690.3 516.9C704.2 532.2 715.9 549.3 725.2 567.7C723.9 557.4 723.2 545.7 722.5 533.6C721.8 521.8 721.1 509.6 719.8 498.9C715.9 467.6 745.1 452.7 750.8 450.1L750.7 430.8L850.5 429.9L856.8 457C862.6 456.6 884.6 457.4 898 487C905.1 502.8 899.1 537.7 881.8 580.6C865.4 621.3 843.3 657.3 825.4 672.4C821.2 675.9 817.5 679.2 814.1 682.2C798.4 696.1 788.9 704.5 770.2 704.5Z" fill="#1D1D1B"/>
<path d="M755.1 452.5C755.1 452.5 780.8 492.9 855.4 460.4L848.6 433.8L755.7 434.4L755.1 452.5Z" fill="#E89D00"/>
<path d="M384.6 310.6C384.6 310.6 371.7 344.7 349.2 330.2C326.7 315.7 278.7 284 253.5 316.5C228.3 349 230 357.5 202.4 348.6C174.8 339.7 110.9 372.2 155.5 439.9C200.1 507.6 422.4 360.6 422.4 360.6L425 338.1L384.6 310.6Z" fill="#6C32AD"/>
<path d="M384.6 310.6L424.9 338.1L422.3 360.6C422.3 360.6 239.5 481.5 172.2 453.5C165.3 450.8 159.5 446 155.4 439.9C110.8 372.2 174.8 339.8 202.3 348.6C229.8 357.4 228.2 348.9 253.4 316.5C268.1 297.6 290.5 300.4 311.2 309C325.9 315.1 339.8 324.2 349.2 330.2C350.5 331 351.9 331.8 353.3 332.4C373.3 340.7 384.6 310.6 384.6 310.6ZM385.9 307.6C384.2 306.9 382.4 307.7 381.7 309.3V309.4C381.6 309.6 375.7 324.9 365.6 329.4C362.1 330.9 358.1 330.9 354.7 329.3C353.5 328.8 352.3 328.1 351.1 327.4L350.2 326.8C341 320.8 327.1 311.8 312.5 305.8C284.9 294.3 264.2 297.2 250.9 314.3C246.2 320.4 242.4 325.6 239.2 330.1C225.4 349.3 223.6 351.7 203.4 345.3C187.6 340.2 161.1 347.5 146.8 366.4C138.1 377.9 127.3 402.8 152.8 441.5C157.2 448.2 163.6 453.3 171 456.3C199.8 468.3 251.3 456.2 324 420.3C358.4 403.1 391.9 384 424.2 363.2C425 362.7 425.5 361.8 425.6 360.9L428.2 338.4C428.3 337.2 427.8 336.1 426.8 335.4L386.4 308C386.2 307.9 386 307.8 385.9 307.6Z" fill="black"/>
<path d="M150.9 432.4C176.4 377.8 287.1 351.3 319 352.8C350.9 354.3 390.6 352.6 400.1 342.3C409.6 332 391.1 319.2 391.1 319.2L397.8 319.7L424.9 338.2L422.3 360.7C422.3 360.7 200 507.7 155.4 440C153.8 437.3 152.3 434.8 150.9 432.4Z" fill="#59298F"/>
<path d="M260.3 912.4C260.3 912.4 199.1 462.6 465 456C787 448 732.3 912.4 732.3 912.4H260.3Z" fill="#FFAD00"/>
<path d="M734.1 914.4H258.5L258.3 912.7C258.2 912 249.2 844.3 253.3 762.2C255.7 713.9 262.1 670.2 272.4 632.2C285.2 584.6 304.1 545.9 328.6 517.1C363 476.6 408.9 455.4 465 454C540.7 452.1 602 476.3 647.1 525.8C674 555.3 695.3 594 710.4 640.9C722.5 678.3 730.7 721 734.8 767.8C741.8 847.4 734.4 912.1 734.3 912.7L734.1 914.4ZM262.1 910.4H730.5C731.6 899.5 737.1 839.9 730.8 768C724.4 695.1 704.1 594.3 644.1 528.5C599.8 479.9 539.6 456.2 465.1 458C410.2 459.4 365.4 480.1 331.7 519.7C277 583.8 261.1 687 257.3 762.4C253.6 836.8 260.7 899.3 262.1 910.4Z" fill="#1D1D1B"/>
<path d="M443.5 456.2C443.5 456.2 432.7 468.9 447.7 485.9C462.7 502.9 490 478.6 490 478.6L443.5 456.2Z" fill="white"/>
<path d="M461.2 493.4C460.7 493.4 460.3 493.4 459.8 493.4C454.7 493.1 449.9 490.8 446.6 486.9C430.9 469.1 442.2 455.4 442.3 455.2L443.1 454.3L492.7 478.2L491 479.7C490.5 480.3 475.5 493.4 461.2 493.4ZM444 458.1C442 461.2 437 471.5 448.9 484.9C451.7 488.2 455.7 490.2 460.1 490.4C470.9 491 482.9 482.4 487.4 478.9L444 458.1Z" fill="#1D1D1B"/>
<path d="M559.7 288.4C581.515 288.4 599.2 270.715 599.2 248.9C599.2 227.085 581.515 209.4 559.7 209.4C537.885 209.4 520.2 227.085 520.2 248.9C520.2 270.715 537.885 288.4 559.7 288.4Z" fill="#6C32AD"/>
<path d="M591.4 225.4C604.4 242.9 600.7 267.7 583.2 280.7C565.7 293.7 540.9 290 527.9 272.5C514.9 255 518.6 230.2 536.1 217.2C553.6 204.2 578.4 207.9 591.4 225.4ZM594 223.5C579.9 204.5 553.2 200.6 534.2 214.7C515.2 228.8 511.3 255.5 525.4 274.5C539.5 293.4 566.2 297.4 585.2 283.3C604.1 269.2 608 242.4 594 223.5Z" fill="black"/>
<path d="M603.1 408.2C603.1 408.2 638.3 399.2 639 371.9C639.7 344.6 632.9 343.6 634.2 329.3C635.5 315 620 292.1 597.6 287.9C597.6 287.9 582.4 257.4 557.6 252C532.8 246.6 519.8 253.2 504.9 267.3C490 281.4 479.9 285.8 469.1 295.4C458.3 305 434.2 334.8 468.5 383.1C502.8 431.4 603.1 408.2 603.1 408.2Z" fill="#6C32AD"/>
<path d="M626.1 306.5C631.7 314.1 634.7 322.6 634.1 329.2C632.8 343.6 639.5 344.6 638.9 371.8C638.3 399 603 408.1 603 408.1C603 408.1 504 431 469 384L468.4 383.1C434.1 334.9 458.1 305 469 295.4C479.9 285.8 489.9 281.4 504.8 267.3C519.7 253.2 532.7 246.6 557.5 252C572 255.1 583.2 266.8 590 276C592.8 279.7 595.3 283.7 597.5 287.9C609.5 290.2 619.6 297.8 626.1 306.5ZM628.7 304.7C621.3 294.7 610.8 287.7 599.7 285.1C597.6 281.3 595.3 277.7 592.7 274.2C585.5 264.5 573.7 252.3 558.3 249C532.1 243.3 518 250.6 502.6 265.1C495.8 271.4 488.6 277.2 480.9 282.4C476 285.7 471.4 289.3 466.9 293.1C457.7 301.2 451.3 312.1 448.7 324.2C444.8 343 450.5 363.5 465.9 385.1C466.1 385.4 466.4 385.7 466.6 386C475 397.3 487.5 405.6 503.9 410.8C516.8 414.9 532.1 417 549.3 417.1C567.7 417.1 586 415.3 604 411.5H604.1C610.7 409.6 617 406.9 622.7 403.2C635.3 395.2 642.1 384.5 642.4 372.2C642.8 356.6 640.8 349.3 639.2 343.4C638 338.9 637.1 335.6 637.6 329.8C638.1 322.2 634.8 312.9 628.7 304.7Z" fill="black"/>
<path d="M514.3 434.4L516.3 468.4C516.3 468.4 468.3 498.4 447.3 455.4C447.3 455.4 478.3 410.4 493.3 362.3C493.3 362.3 477.1 350.5 487 335.7C496.9 320.9 511 323.8 516.7 331.5C516.7 331.5 537.4 365.4 595 316.6C595 316.6 621 343.6 613.1 379.2C605.2 414.8 582.1 449.9 552.2 449.8C522.3 449.7 514.3 434.4 514.3 434.4Z" fill="#FFCDB2"/>
<path d="M595 316.6C595 316.6 621 343.6 613.1 379.2C605.2 414.8 582.2 449.7 552.4 449.7H552.2C522.3 449.5 514.3 434.4 514.3 434.4L516.3 468.4C516.3 468.4 500 478.6 482.3 478.6C469.6 478.6 456.1 473.4 447.3 455.4C447.3 455.4 478.3 410.4 493.3 362.3C493.3 362.3 477.1 350.5 487 335.7C492.1 328.1 498.3 325.2 503.9 325.2C508.9 325.2 513.7 327.6 516.7 331.6C516.7 331.6 523.7 343 540.9 343C553.2 343 570.8 337.1 595 316.6ZM595.3 312.5L593 314.3C572.9 331.3 555.3 339.9 540.7 339.9C525.4 339.9 519.2 330 519.1 329.9L519 329.8L518.9 329.7C515.3 324.9 509.6 322.1 503.6 322.1C496.2 322.1 489.3 326.3 484.2 334C479.5 341.1 479.2 348.7 483.6 356C485.2 358.7 487.2 361.2 489.6 363.3C474.7 409.7 444.9 453.2 444.6 453.7L443.6 455.1L444.4 456.7C452.4 473 465.4 481.6 482.1 481.6C500.5 481.6 517 471.4 517.7 471L519.2 470.1L519.1 468.3L517.6 442.7C523.4 447.4 534 452.7 552 452.8H552.2C567 452.8 581.2 444.8 593.2 429.7C603.7 416.5 611.7 398.8 615.9 379.9C619.3 364.7 617.1 348.5 609.6 333.3C606.3 326.5 602.1 320.2 597.1 314.6L595.1 312.6L595.3 312.5Z" fill="#1D1D1B"/>
<path d="M522.7 446.1C523.6 446.7 524.6 447.2 525.5 447.7C526.3 448.1 527.3 447.8 527.7 447C528.1 446.2 527.8 445.2 527 444.8C527 444.8 526.9 444.8 526.9 444.7C517.2 439.9 509.2 428.4 509.1 428.3C508.6 427.6 507.6 427.4 506.9 427.9C506.2 428.4 506 429.4 506.5 430.1C506.8 430.7 513.7 440.5 522.7 446.1Z" fill="black"/>
<path d="M495.8 354.4C496.3 355.1 497.4 355.3 498.1 354.7C498.6 354.4 498.8 353.8 498.7 353.2C497.9 346.8 498.8 342.4 501.5 340.2C505.3 337.1 511.6 339.2 511.7 339.2C512.5 339.5 513.5 339 513.7 338.2C513.9 337.4 513.5 336.5 512.7 336.2C512.4 336.1 504.6 333.5 499.4 337.8C495.8 340.8 494.4 346.1 495.4 353.7C495.6 354 495.7 354.2 495.8 354.4Z" fill="black"/>
<path d="M574.6 365.9C555.1 360.1 535.7 339.6 528.3 343.6C520.9 347.6 519.4 357.7 527.7 364.9C536 372.1 545.6 377 565.7 385.9C585.8 394.8 606.1 402.1 609.5 390.7C612.9 379.3 603.3 374.4 574.6 365.9Z" fill="#FFB49F"/>
<path d="M530.4 355.9C530.8 356.4 531.5 356.7 532.2 356.5C550.2 351.3 556.5 366.5 556.8 367.2C557.2 368 558.2 368.3 559 367.9C559.7 367.5 560 366.7 559.8 366C559.7 365.8 552.2 347.4 531.3 353.4C530.4 353.6 529.9 354.5 530.2 355.4C530.2 355.5 530.3 355.7 530.4 355.9Z" fill="black"/>
<path d="M591.4 357.2C593.3 359.8 595.7 362.1 598.5 364C599.2 364.5 600.2 364.3 600.8 363.6C601.3 362.9 601.1 361.9 600.4 361.3C600.3 361.3 600.3 361.2 600.2 361.2C596.8 358.8 593.9 355.7 592 352C591.6 351.2 590.6 350.9 589.8 351.3C589 351.7 588.7 352.7 589.1 353.5C589.7 354.8 590.5 356.1 591.4 357.2Z" fill="black"/>
<path d="M523.7 400C526.7 404.1 531.2 406.9 536.1 408C537 408.1 537.8 407.4 537.9 406.5C538 405.7 537.4 404.9 536.6 404.8C536 404.7 522.8 402.5 522.3 385.2C522.3 384.3 521.6 383.6 520.7 383.5C519.8 383.4 519.1 384.2 519 385.1C519 385.2 519 385.3 519 385.3C519.3 391.9 521.2 396.6 523.7 400Z" fill="black"/>
<path d="M514.2 328.6C517.8 333.4 522.3 338 527.9 340.7C528.7 341.1 529.7 340.9 530.1 340.1C530.5 339.3 530.3 338.3 529.5 337.9C529.4 337.9 529.4 337.8 529.3 337.8C514.6 330.7 507.1 308.2 507 308C506.7 307.2 505.7 306.8 504.9 307.1C504.2 307.4 503.8 308.2 504 309C506.4 316 509.8 322.6 514.2 328.6Z" fill="black"/>
<path d="M520.9 323.9C521 324 521.1 324.1 521.2 324.2C551.4 346.2 578.9 317.2 579.2 316.9C579.8 316.3 579.9 315.3 579.3 314.6C578.7 314 577.7 313.9 577 314.5L576.9 314.6C575.9 315.7 551 341.9 523.2 321.5C522.5 321 521.5 321.2 520.9 321.9C520.5 322.6 520.5 323.4 520.9 323.9Z" fill="white"/>
<path d="M562.8 400.2C563 400.5 563.4 400.8 563.8 400.8C564.7 400.9 565.5 400.4 565.7 399.5L570.9 367C571.1 366.1 570.6 365.3 569.7 365.1C568.8 364.9 568 365.4 567.8 366.3C567.8 366.4 567.8 366.4 567.8 366.5L562.6 398.9C562.4 399.4 562.5 399.9 562.8 400.2Z" fill="black"/>
<path d="M486.2 365C489.79 365 492.7 362.09 492.7 358.5C492.7 354.91 489.79 352 486.2 352C482.61 352 479.7 354.91 479.7 358.5C479.7 362.09 482.61 365 486.2 365Z" fill="#FFAD00"/>
<path d="M491.4 354.6C493.5 357.5 492.9 361.5 490.1 363.6C487.2 365.7 483.2 365.1 481.1 362.3C479 359.4 479.6 355.4 482.4 353.3C485.2 351.2 489.2 351.8 491.4 354.6ZM494 352.7C490.8 348.4 484.7 347.5 480.4 350.7C476.1 353.9 475.2 360 478.4 364.3C481.6 368.6 487.7 369.5 492 366.3C496.3 363.1 497.2 357 494 352.7Z" fill="black"/>
<path d="M538.4 229C539.1 229.8 540.1 229.8 540.8 229.3C547.8 223.2 554.9 220.6 561.8 221.5C573.1 223 580.4 233.4 580.5 233.5C581 234.2 582.1 234.4 582.8 233.8C583.5 233.3 583.6 232.4 583.2 231.6C582.9 231.1 575 219.9 562.3 218.2C554.4 217.2 546.5 220.1 538.7 226.8C537.9 227.4 537.8 228.3 538.4 229Z" fill="white"/>
<path d="M408.4 605.9C412.874 605.9 416.5 602.273 416.5 597.8C416.5 593.326 412.874 589.7 408.4 589.7C403.926 589.7 400.3 593.326 400.3 597.8C400.3 602.273 403.926 605.9 408.4 605.9Z" fill="#FFC140"/>
<path d="M250.4 581.9C254.873 581.9 258.5 578.273 258.5 573.8C258.5 569.326 254.873 565.7 250.4 565.7C245.926 565.7 242.3 569.326 242.3 573.8C242.3 578.273 245.926 581.9 250.4 581.9Z" fill="#FFC140"/>
<path d="M435.4 776.9C439.874 776.9 443.5 773.273 443.5 768.8C443.5 764.326 439.874 760.7 435.4 760.7C430.926 760.7 427.3 764.326 427.3 768.8C427.3 773.273 430.926 776.9 435.4 776.9Z" fill="#FFC140"/>
<path d="M312.4 787.9C316.874 787.9 320.5 784.273 320.5 779.8C320.5 775.326 316.874 771.7 312.4 771.7C307.926 771.7 304.3 775.326 304.3 779.8C304.3 784.273 307.926 787.9 312.4 787.9Z" fill="#FFC140"/>
<path d="M531.4 860.9C535.874 860.9 539.5 857.273 539.5 852.8C539.5 848.326 535.874 844.7 531.4 844.7C526.927 844.7 523.3 848.326 523.3 852.8C523.3 857.273 526.927 860.9 531.4 860.9Z" fill="#FFC140"/>
<path d="M684.4 697.9C688.874 697.9 692.5 694.273 692.5 689.8C692.5 685.326 688.874 681.7 684.4 681.7C679.927 681.7 676.3 685.326 676.3 689.8C676.3 694.273 679.927 697.9 684.4 697.9Z" fill="#FFC140"/>
<path d="M772.4 649.9C776.874 649.9 780.5 646.273 780.5 641.8C780.5 637.326 776.874 633.7 772.4 633.7C767.927 633.7 764.3 637.326 764.3 641.8C764.3 646.273 767.927 649.9 772.4 649.9Z" fill="#FFC140"/>
<path d="M843.4 527.9C847.874 527.9 851.5 524.273 851.5 519.8C851.5 515.326 847.874 511.7 843.4 511.7C838.927 511.7 835.3 515.326 835.3 519.8C835.3 524.273 838.927 527.9 843.4 527.9Z" fill="#FFC140"/>
<path d="M763.4 541.9C767.874 541.9 771.5 538.273 771.5 533.8C771.5 529.326 767.874 525.7 763.4 525.7C758.927 525.7 755.3 529.326 755.3 533.8C755.3 538.273 758.927 541.9 763.4 541.9Z" fill="#FFC140"/>
<path d="M375.4 549.9C379.874 549.9 383.5 546.273 383.5 541.8C383.5 537.326 379.874 533.7 375.4 533.7C370.926 533.7 367.3 537.326 367.3 541.8C367.3 546.273 370.926 549.9 375.4 549.9Z" fill="#FFC140"/>
<path d="M416.4 500.9C420.874 500.9 424.5 497.273 424.5 492.8C424.5 488.326 420.874 484.7 416.4 484.7C411.926 484.7 408.3 488.326 408.3 492.8C408.3 497.273 411.926 500.9 416.4 500.9Z" fill="#FFC140"/>
<path d="M648.4 623.9C652.874 623.9 656.5 620.273 656.5 615.8C656.5 611.326 652.874 607.7 648.4 607.7C643.927 607.7 640.3 611.326 640.3 615.8C640.3 620.273 643.927 623.9 648.4 623.9Z" fill="#FFC140"/>
<path d="M406 493C406 493 416 778 468 793C520 808 658.6 629 680.3 581C702 533 406 493 406 493Z" fill="#E89D00"/>
<path d="M772.6 394.3C769.2 394.3 765.9 393.9 762.6 393.1C761.8 392.9 761.3 392.1 761.5 391.3C761.7 390.5 762.5 390 763.3 390.2C781.8 395 808.2 382.1 808.5 381.9C809.2 381.5 810.1 381.7 810.6 382.4C811 383.1 810.8 384 810.1 384.5C810 384.5 810 384.6 809.9 384.6C809 385.1 790.2 394.3 772.6 394.3Z" fill="#1D1D1B"/>
<path d="M593 384C595.209 384 597 382.209 597 380C597 377.791 595.209 376 593 376C590.791 376 589 377.791 589 380C589 382.209 590.791 384 593 384Z" fill="black"/>
<path d="M272.3 345.1H272C239.2 341.2 207.3 329.8 177.2 311.2C153.2 296.3 130.2 276.9 108.9 253.4C72.7 213.4 53.8 174.9 53.6 174.6C53.1 173.6 53.5 172.4 54.5 171.9C55.5 171.4 56.7 171.8 57.2 172.8C57.4 173.2 76.1 211.2 112 250.8C145 287.2 199.6 332.4 272.6 341.1C273.7 341.2 274.5 342.1 274.5 343.2C274.3 344.3 273.4 345.2 272.3 345.1Z" fill="#1D1D1B"/>
<path d="M201.2 368.9C167.6 368.9 132.1 348.4 108 331.1C92 319.6 77 306.8 63.1 292.8C62.3 292 62.3 290.8 63 290C63.7 289.2 65 289.2 65.8 289.9L65.9 290C66.6 290.8 138.4 364.9 201 364.9H202C203.1 364.9 204 365.8 204 366.9C204 368 203.1 368.9 202 368.9H201.2Z" fill="#1D1D1B"/>
<path d="M870 646C869.5 646 869.1 645.8 868.7 645.5C867.8 644.8 867.7 643.5 868.4 642.7C905.3 597.7 915.2 553.2 916.9 523.9C918.9 492.1 912.1 470.8 912 470.6C911.7 469.5 912.3 468.4 913.4 468.1C914.4 467.8 915.5 468.4 915.8 469.3C916.1 470.2 922.9 491.5 920.9 524C919.1 554 909 599.3 871.4 645.2C871.2 645.7 870.6 646 870 646Z" fill="#1D1D1B"/>
<path d="M202 644C201.3 644 200.6 643.6 200.2 643C185.4 616.6 177.9 586.8 178.4 556.6C178.9 534.2 183.8 519.9 184 519.4C184.4 518.4 185.5 517.8 186.6 518.2C187.7 518.6 188.2 519.7 187.8 520.7C187.6 521.3 168.5 577.7 203.7 641.1C204.3 642.1 203.9 643.3 203 643.8C202.7 644 202.4 644.1 202 644Z" fill="#1D1D1B"/>
<path d="M865 581C864.5 581 864 580.9 863.5 580.6C862.1 579.8 861.5 578 862.3 576.5C882.8 539.5 883.3 515.5 880 501.9C876.5 487.4 868.3 481.4 868.2 481.4C866.9 480.4 866.6 478.5 867.6 477.2C868.5 475.9 870.3 475.6 871.7 476.5C872.1 476.8 881.7 483.6 885.8 500C891.1 521.3 885 548.1 867.6 579.4C867.1 580.4 866.1 581 865 581Z" fill="white"/>
<path d="M398.4 890.9C402.874 890.9 406.5 887.273 406.5 882.8C406.5 878.326 402.874 874.7 398.4 874.7C393.926 874.7 390.3 878.326 390.3 882.8C390.3 887.273 393.926 890.9 398.4 890.9Z" fill="#FFC140"/>
<path d="M627.4 885.9C631.874 885.9 635.5 882.273 635.5 877.8C635.5 873.326 631.874 869.7 627.4 869.7C622.927 869.7 619.3 873.326 619.3 877.8C619.3 882.273 622.927 885.9 627.4 885.9Z" fill="#FFC140"/>
<path d="M641.3 210.9C541.8 183.1 438.7 241.3 410.9 340.7C388.5 421 445.3 670.6 468.1 763.8C470.8 775 482.1 781.8 493.3 779.1C497 778.2 500.4 776.3 503.1 773.6C570.9 705.6 748.7 521.6 771.2 441.3C798.9 341.8 740.8 238.6 641.3 210.9ZM568.5 471.4C517.8 457.3 488.2 404.7 502.4 354C516.5 303.3 569.1 273.7 619.8 287.9C670.5 302 700.1 354.6 685.9 405.3C671.8 455.9 619.2 485.5 568.5 471.4C568.6 471.4 568.6 471.4 568.5 471.4Z" fill="#D9CFFF"/>
<path d="M488.4 781.2C486.3 781.2 484.3 780.9 482.3 780.4C474.5 778.3 468.5 772.1 466.6 764.2C442 663.4 387.2 420.2 409.4 340.4C437.4 240.1 541.4 181.5 641.7 209.5C741.8 237.5 800.5 341.6 772.6 441.7C750.3 521.5 577.5 701.1 504.2 774.6C500 778.8 494.3 781.2 488.4 781.2ZM590.7 205.4C507.6 205.6 434.7 261 412.3 341.1C390.2 420.2 445 662.8 469.5 763.4C472 773.8 482.5 780.1 492.9 777.6C496.3 776.8 499.5 775 502 772.5C575.1 699.1 747.6 520 769.7 440.9C797.2 342.4 739.4 239.9 640.9 212.4C624.6 207.7 607.7 205.4 590.7 205.4ZM594.3 476.4C540.8 476.5 497.4 433.2 497.3 379.7C497.2 326.2 540.5 282.8 594 282.7C647.5 282.6 690.9 325.9 691 379.4C691.1 414.4 672.2 446.8 641.6 464C627.2 472.1 610.9 476.4 594.3 476.4ZM594 285.9C542.2 285.9 500.3 327.9 500.3 379.7C500.3 421.8 528.4 458.7 569 470C618.8 484.2 670.7 455.4 684.9 405.6C699.1 355.8 670.3 303.9 620.5 289.7C620.1 289.6 619.8 289.5 619.4 289.4C611.1 287.1 602.6 285.9 594 285.9Z" fill="#1D1E1B"/>
<path d="M755 249C754.2 249 753.5 248.5 753.2 247.8C726 183.6 642.6 173.1 641.8 173C640.7 172.9 639.9 171.9 640 170.8C640.1 169.7 641.1 168.9 642.2 169C658.3 171.4 673.9 175.9 688.8 182.4C711.7 192.4 742.1 211.5 756.8 246.2C757.2 247.2 756.8 248.4 755.7 248.8C755.5 248.9 755.3 249 755 249Z" fill="#1D1D1B"/>
<path d="M799 863C798.8 863 798.6 863 798.5 862.9C755.1 851.2 715.5 829.6 680.9 798.6C653.2 773.9 628.7 743.2 607.9 707.3C572.5 646.4 560.2 590.9 560.1 590.3C559.8 589.2 560.4 588.1 561.5 587.8C562.6 587.5 563.7 588.1 564 589.2C564 589.3 564 589.3 564 589.4C564.1 589.9 576.4 644.9 611.5 705.3C643.8 760.9 702.7 832.7 799.6 858.9C800.7 859 801.5 860.1 801.3 861.2C801.1 862.3 800.1 863.1 799 863Z" fill="#1D1D1B"/>
<path d="M639 825C638.6 825 638.3 824.9 638 824.7C592.1 798.1 565 758.9 550.2 730.8C534.2 700.3 529.1 675.6 529 675.4C528.8 674.3 529.5 673.3 530.6 673C531.7 672.7 532.7 673.5 533 674.6C533 674.8 538.2 699 553.9 729.1C568.4 756.8 595.1 795.2 640.1 821.3C641.1 821.9 641.4 823.1 640.8 824C640.4 824.6 639.7 825 639 825Z" fill="#1D1D1B"/>
<path d="M610 619C608.3 619 607 617.7 607 616C607 615.1 607.4 614.2 608.2 613.6C673.9 563.6 720 482.3 720.4 481.5C721.2 480.1 723 479.5 724.5 480.4C725.9 481.2 726.5 483 725.7 484.5C725.2 485.3 678.6 567.6 611.9 618.4C611.3 618.8 610.7 619 610 619Z" fill="white"/>
<path d="M490 253C489.1 253 488.2 252.6 487.7 251.9C486.7 250.6 486.8 248.7 488.1 247.7C488.8 247.1 505.6 233.5 532.7 223.6C557.8 214.4 596.8 206.9 640 223.2C641.6 223.8 642.3 225.5 641.8 227.1C641.3 228.7 639.5 229.4 637.9 228.9C596.5 213.2 559.1 220.4 534.9 229.2C508.6 238.8 492 252.3 491.8 252.4C491.3 252.8 490.7 253 490 253Z" fill="white"/>
<path d="M256 755C256 671 216.4 627.9 213.4 581.5C204.5 442.4 275.9 397.7 294.2 369.8C318.7 332.5 365.8 364.7 365.8 364.7L375.4 354C375.4 354 391 388.4 437.1 400.2L431.1 419.6C431.1 419.6 450.3 462.7 421.1 488C392 513.1 362 583 385 648" fill="#FFAD00"/>
<path d="M256 757C254.9 757 254 756.1 254 755C254 705.4 240.2 670.6 228.1 639.9C219.8 618.9 212.6 600.7 211.4 581.6C204.1 467.4 250.3 416.5 277.9 386.1C284 379.4 289.2 373.6 292.5 368.6C299 358.7 307.7 352.6 318.2 350.5C338.6 346.5 359.7 358.4 365.4 361.9L373.9 352.5C374.4 352 375 351.8 375.7 351.9C376.4 352 376.9 352.4 377.2 353C377.3 353.3 393 386.7 437.6 398.1C438.1 398.2 438.6 398.6 438.9 399.1C439.2 399.6 439.2 400.1 439.1 400.7L433.3 419.4C435.7 425.2 450.4 465.2 422.5 489.4C393.1 514.8 364.4 583.9 386.9 647.4C387.3 648.4 386.7 649.6 385.7 650C384.7 650.4 383.5 649.8 383.1 648.8C360.1 583.6 389.6 512.7 419.9 486.5C447.6 462.5 429.5 420.9 429.3 420.5C429.1 420.1 429.1 419.6 429.2 419.1L434.6 401.7C396.5 391.2 379.7 365.9 375 357.6L367.3 366.1C366.6 366.8 365.5 367 364.7 366.4C364.5 366.2 340.7 350.3 319 354.6C309.5 356.5 301.7 362 295.8 371C292.3 376.3 287 382.2 280.8 389C253.6 418.9 208.1 469 215.3 581.5C216.5 600 223.6 617.8 231.7 638.5C243.9 669.5 257.9 704.7 257.9 755.1C258 756.1 257.1 757 256 757Z" fill="#1D1D1B"/>
<path d="M429.6 419.2C429.7 419.2 435.3 400.8 435.3 400.8C389.2 389 375.3 356.1 375.3 356.1L365.4 366.5L365.7 365.9C365.6 365.9 366.5 411.8 429.6 419.2Z" fill="#E89D00"/>
<path d="M451.9 264.9C451.9 264.9 419.8 251.2 399.2 282C378.6 312.8 369.2 347.6 383.1 372.7C397 397.8 418.4 403.7 434.1 400.1C449.8 396.5 455.7 381.4 447.2 362.6C447.2 362.6 472.9 351 456 319C456 319 487.5 287 448.1 278.9L451.9 264.9Z" fill="#FFCDB2"/>
<path d="M377.8 331.7C380.7 315.3 388.4 298.1 399.2 282C419.7 251.2 451.9 264.9 451.9 264.9L448.2 278.9C465.6 282.5 469.2 290.7 467.7 298.8C465.9 309 456.1 319 456.1 319C461.6 329.4 462.6 337.6 461.4 343.9C459 357.3 447.2 362.5 447.2 362.5C450.7 370.2 451.8 377.3 450.7 383.2C449.2 391.7 443.3 397.8 434.1 400C418.4 403.7 396.9 397.7 383.1 372.6C376.5 360.8 375.2 346.6 377.8 331.7ZM375 331.2C372.1 347.6 373.9 362 380.6 374C387.3 386 396.2 394.8 406.7 399.7C415.5 403.8 425.3 404.9 434.8 402.8C445 400.4 451.8 393.5 453.6 383.8C454.7 377.8 453.7 370.9 450.9 363.8C457.9 359.5 462.7 352.4 464.2 344.4C465.5 336.9 464 328.5 459.5 319.4C462.4 316.1 469 307.9 470.5 299.2C471.9 291.3 469.6 281.3 451.7 276.7L454.7 265.6C454.7 265.5 454.7 265.4 454.7 265.4C454.9 264.1 454.2 262.8 453 262.3C446.6 259.9 439.9 258.8 433.1 259.1C422.8 259.5 408.1 263.6 396.8 280.5C385.4 297.4 377.9 315 375 331.2Z" fill="black"/>
<path d="M441.2 364.8C423.7 364.8 407.2 356.3 397 342C396.6 341.3 396.8 340.4 397.5 339.9C398.2 339.5 399.1 339.7 399.6 340.4C399.8 340.7 416.3 366.4 450.5 361C451.3 360.9 452.1 361.4 452.2 362.3C452.3 363.1 451.8 363.9 450.9 364C447.7 364.6 444.4 364.8 441.2 364.8Z" fill="#1D1D1B"/>
<path d="M451 322.4C432.7 322.4 412.9 311.4 411.9 310.9C411.2 310.5 410.9 309.6 411.3 308.9C411.7 308.2 412.6 307.9 413.3 308.3C413.6 308.4 439.3 322.7 458 318.8C458.8 318.6 459.6 319.2 459.8 320C460 320.8 459.4 321.6 458.6 321.8C456.2 322.2 453.6 322.5 451 322.4Z" fill="#1D1D1B"/>
<path d="M451.5 279.9C451.3 279.9 451 279.8 450.8 279.7C450.7 279.6 435.6 271.5 424.9 275.3C424.1 275.6 423.3 275.2 423 274.4C422.7 273.6 423.1 272.8 423.9 272.5C435.9 268.2 451.6 276.7 452.2 277.1C452.9 277.5 453.2 278.4 452.8 279.1C452.6 279.6 452.1 279.9 451.5 279.9Z" fill="#1D1D1B"/>
<path d="M296.4 468.9C300.874 468.9 304.5 465.273 304.5 460.8C304.5 456.326 300.874 452.7 296.4 452.7C291.926 452.7 288.3 456.326 288.3 460.8C288.3 465.273 291.926 468.9 296.4 468.9Z" fill="#FFC140"/>
<path d="M294.4 544.9C298.874 544.9 302.5 541.273 302.5 536.8C302.5 532.326 298.874 528.7 294.4 528.7C289.926 528.7 286.3 532.326 286.3 536.8C286.3 541.273 289.926 544.9 294.4 544.9Z" fill="#FFC140"/>
<path d="M397.4 482.9C401.874 482.9 405.5 479.273 405.5 474.8C405.5 470.326 401.874 466.7 397.4 466.7C392.926 466.7 389.3 470.326 389.3 474.8C389.3 479.273 392.926 482.9 397.4 482.9Z" fill="#FFC140"/>
<path d="M296.4 665.9C300.874 665.9 304.5 662.273 304.5 657.8C304.5 653.326 300.874 649.7 296.4 649.7C291.926 649.7 288.3 653.326 288.3 657.8C288.3 662.273 291.926 665.9 296.4 665.9Z" fill="#FFC140"/>
<path d="M772.3 336.7C772.3 336.7 805.1 324.7 824.1 356.4C843.1 388.1 850.8 423.4 835.7 447.8C820.6 472.2 798.9 477 783.4 472.6C767.9 468.2 762.7 452.8 772.2 434.6C772.2 434.6 747.1 421.8 765.5 390.6C765.5 390.6 735.6 357 775.4 350.9L772.3 336.7Z" fill="#FFCDB2"/>
<path d="M842.9 407.1C844.8 422.1 842.8 436.1 835.6 447.7C820.6 472 798.8 476.9 783.3 472.5C774.2 469.9 768.6 463.5 767.5 454.9C766.7 448.9 768.2 441.9 772 434.4C772 434.4 760.5 428.5 758.8 415.1C758 408.7 759.4 400.5 765.3 390.5C765.3 390.5 756 380 754.7 369.7C753.7 361.6 757.6 353.5 775.2 350.8L772.2 336.7C772.2 336.7 805 324.7 824 356.4C834 373 840.8 390.6 842.9 407.1ZM845.8 406.8C843.7 390.5 837.1 372.6 826.5 354.9C816.1 337.5 801.6 332.7 791.3 331.8C784.6 331.2 777.7 331.9 771.3 334C770.1 334.5 769.3 335.7 769.5 337C769.5 337.1 769.5 337.2 769.5 337.2L771.9 348.5C753.7 352.3 751 362.2 752 370.1C753.1 378.8 759.2 387.3 762 390.8C757.1 399.6 755.1 407.9 756.1 415.5C757.2 423.6 761.7 430.9 768.5 435.5C765.3 442.5 764.1 449.3 764.8 455.3C766.1 465.1 772.5 472.4 782.6 475.3C791.9 477.9 801.8 477.3 810.8 473.6C821.5 469.3 831 460.9 838.2 449.3C845.4 437.7 847.9 423.3 845.8 406.8Z" fill="black"/>
<path d="M780.9 437.1C776.7 437.1 772.5 436.6 768.4 435.8C767.6 435.7 767 434.9 767.1 434.1C767.2 433.3 768 432.7 768.8 432.8C768.9 432.8 768.9 432.8 769 432.8C802.9 439.9 820.7 415 820.9 414.8C821.4 414.1 822.3 414 823 414.4C823.7 414.9 823.8 415.8 823.4 416.5C813 429.5 797.4 437.1 780.9 437.1Z" fill="#1D1D1B"/>
<path d="M772 351.8C771.2 351.8 770.5 351.1 770.5 350.3C770.5 349.7 770.8 349.2 771.3 348.9C772 348.6 788.1 340.9 799.8 345.8C800.6 346.1 800.9 347 800.6 347.8C800.3 348.5 799.4 348.9 798.7 348.6C788.2 344.2 772.8 351.6 772.6 351.7C772.4 351.7 772.2 351.8 772 351.8Z" fill="#1D1D1B"/>
<path d="M225 568C223.4 568 222.1 566.7 222 565.1C220.4 528.3 233.5 493.8 244.7 471.4C256.8 447.1 269.2 431.8 269.7 431.1C270.7 429.8 272.6 429.6 273.9 430.6C275.2 431.6 275.4 433.5 274.4 434.8C273.9 435.4 225.1 496.8 228.1 564.8C228.2 566.5 226.9 567.9 225.2 567.9L225 568Z" fill="white"/>
<path d="M776.4 387.3C765.3 387.3 761 382.3 760.7 381.9C759.7 380.6 759.9 378.7 761.2 377.7C762.4 376.7 764.2 376.9 765.3 378C765.5 378.3 775 387.6 803.7 373.3C805.2 372.6 807 373.3 807.7 374.8C808.3 376.2 807.8 377.9 806.4 378.6C793.2 385.2 783.5 387.3 776.4 387.3Z" fill="white"/>
<path d="M778.5 428.5C773.7 428.5 768.9 428 764.3 427C762.7 426.6 761.7 424.9 762.1 423.3C762.5 421.7 764.2 420.7 765.8 421.1C766.1 421.2 795.3 428.4 813.8 408C814.8 406.7 816.7 406.4 818 407.4C819.3 408.4 819.6 410.3 818.6 411.6C818.5 411.7 818.4 411.9 818.2 412C805.9 425.6 789.9 428.5 778.5 428.5Z" fill="white"/>
<path d="M793 471C791.3 471.1 789.9 469.9 789.8 468.2C789.7 466.5 790.9 465.1 792.6 465C793.8 464.8 820.7 460.2 831.1 432.6C831.6 431 833.3 430.2 834.9 430.7C836.5 431.2 837.3 432.9 836.8 434.5C836.8 434.6 836.7 434.7 836.7 434.8C825 465.8 794.8 470.8 793.5 471C793.3 471 793.2 471 793 471Z" fill="white"/>
</svg>
