<svg width="1000" height="1000" viewBox="0 0 1000 1000" fill="none" xmlns="http://www.w3.org/2000/svg">
<rect width="1000" height="1000" fill="white"/>
<path d="M924.4 853.2H184.6C183.5 853.2 182.6 852.3 182.6 851.2C182.6 850.1 183.5 849.2 184.6 849.2H924.4C925.5 849.2 926.4 850.1 926.4 851.2C926.4 852.3 925.5 853.2 924.4 853.2Z" fill="#1D1D1B"/>
<path d="M981.2 891H867.7C866.6 891 865.7 890.1 865.7 889C865.7 887.9 866.6 887 867.7 887H981.2C982.3 887 983.2 887.9 983.2 889C983.2 890.1 982.3 891 981.2 891Z" fill="#1D1D1B"/>
<path d="M241.3 817.4H127.8C126.7 817.4 125.8 816.5 125.8 815.4C125.8 814.3 126.7 813.4 127.8 813.4H241.3C242.4 813.4 243.3 814.3 243.3 815.4C243.3 816.5 242.4 817.4 241.3 817.4Z" fill="#1D1D1B"/>
<path d="M876.1 851.7V256.9C876.1 227.6 852.3 203.8 823 203.8H513C483.7 203.8 459.9 227.6 459.9 256.9V851.7H876.1Z" fill="#6C32AD"/>
<path d="M877.6 853.2H458.4V256.9C458.4 226.8 482.8 202.3 513 202.3H823C853.1 202.3 877.6 226.8 877.6 256.9V853.2ZM461.4 850.2H874.5V256.9C874.5 228.4 851.4 205.4 822.9 205.3H513C484.5 205.3 461.4 228.4 461.4 256.9V850.2Z" fill="#1D1E1B"/>
<path d="M860.9 851.7C861.2 849.5 861.4 847.2 861.4 845V278.3C861.4 251.1 839.3 229 812.1 229H756.3C756.3 229.2 756.3 229.4 756.3 229.5C756.3 243.7 744.8 255.3 730.5 255.3H607.6C593.4 255.3 581.8 243.8 581.8 229.5C581.8 229.3 581.8 229.1 581.8 229H523.9C496.7 229 474.6 251.1 474.6 278.3V845C474.6 847.2 474.8 849.5 475.1 851.7H860.9Z" fill="#D9CFFF"/>
<path d="M862.2 853.2H473.8L473.6 851.9C473.3 849.6 473.1 847.3 473.1 845V278.3C473.1 250.3 495.8 227.6 523.9 227.5H583.4V229.5C583.4 242.9 594.3 253.7 607.6 253.8H730.5C743.9 253.8 754.7 242.9 754.8 229.5V227.5H812.2C840.2 227.5 862.9 250.2 863 278.3V845C863 847.3 862.8 849.6 862.5 851.9L862.2 853.2ZM476.4 850.2H859.5C859.7 848.5 859.8 846.7 859.8 845V278.3C859.8 251.9 838.4 230.6 812 230.5H757.7C757.2 245.2 745.1 256.8 730.5 256.8H607.5C592.8 256.8 580.8 245.2 580.3 230.5H523.9C497.5 230.5 476.2 251.9 476.1 278.3V845C476.1 846.7 476.2 848.5 476.4 850.2Z" fill="#1D1E1B"/>
<path d="M687.5 850.6H859.9C860.2 848.4 860.4 846.2 860.4 843.9V637.5C847 624.4 810.1 596.9 731.5 589.5C627 579.6 588.4 643.5 607.7 697.5C607.6 697.5 651.3 788.2 687.5 850.6Z" fill="#6C32AD"/>
<path d="M861.2 852.1H686.6L686.2 851.4C650.4 789.6 606.7 699.1 606.3 698.2L606.2 698C596.9 672 600.9 645 617.1 624.2C639.1 595.9 679.7 583.1 731.6 588C811.8 595.6 849.1 624.4 861.4 636.4L861.9 636.8V844C861.9 846.3 861.7 848.6 861.4 850.8L861.2 852.1ZM688.4 849.1H858.6C858.8 847.4 858.9 845.7 858.9 843.9V638.1C846.4 626 809.7 598.4 731.4 590.9C680.6 586.1 640.9 598.5 619.6 625.9C604 645.9 600.2 671.8 609.1 696.8C610.5 699.9 653.1 788.2 688.4 849.1Z" fill="#1D1E1B"/>
<path d="M475.7 491.8C505 446 638.4 370.4 696 382.1C753.6 393.8 820.2 474.3 820.2 474.3C820.2 474.3 773.6 511.1 786.3 535C798.8 558.5 809.3 578.5 817.7 610C817.7 610 673.4 738.2 636.1 754.5C636.1 754.5 549.1 717.1 525.4 626.1C525.4 626.1 485.9 703.2 451.4 713.1C416.9 723 326.6 682.1 345.8 654.1L326.6 641.3L346.9 586.4L363.8 589.9C363.8 589.9 363.8 564.2 381.9 567.7C400 571.2 432.7 581.7 432.7 581.7C432.7 581.7 431.6 560.7 475.7 491.8Z" fill="#FFAD00"/>
<path d="M636.1 756C635.9 756 635.7 756 635.5 755.9C635.3 755.8 613.3 746.2 588.7 725.6C566.6 707.1 537.9 675.6 525 630.2C516.8 645.4 482.8 705.7 451.9 714.6C447.8 715.7 443.6 716.2 439.3 716.1C409.3 716.1 361.6 696.3 346.6 675.3C341.2 667.9 340.3 660.7 343.8 654.5L325.8 642.5C325.2 642.1 325 641.4 325.2 640.7L345.5 585.8C345.7 585.1 346.5 584.7 347.2 584.8L362.4 587.9C362.7 583.8 363.9 573.8 370.1 568.7C373.3 566 377.4 565.1 382.2 566.1C397.7 569.1 424.2 577.3 431.4 579.6C432.2 572.8 437.6 548.5 474.4 490.9C488.7 468.5 528 438.3 574.5 414C624.6 387.7 670.1 375.2 696.3 380.5C753.8 392.1 820.7 472.4 821.4 473.2C821.9 473.8 821.8 474.8 821.2 475.3C820.7 475.7 775.7 511.6 787.7 534.1C800 557.3 810.7 577.3 819.2 609.4C819.4 609.9 819.2 610.5 818.7 610.9C812.8 616.1 673.7 739.4 636.7 755.6C636.5 755.9 636.3 756 636.1 756ZM525.4 624.6H525.6C526.2 624.7 526.7 625.1 526.9 625.7C539 672.3 568.2 704.5 590.6 723.2C612.6 741.7 632.5 751.2 636.2 752.8C672.4 736.3 805.3 619 816.2 609.4C807.8 578.2 797.3 558.4 785.2 535.6C773.1 512.8 810.8 480.2 818.3 474C809.9 464.1 748.6 394.1 695.9 383.5C670.4 378.3 625.6 390.7 576.1 416.7C530 440.8 491.2 470.6 477.2 492.6L475.9 491.8L477.2 492.6C434.2 559.9 434.5 581.4 434.5 581.6C434.5 582.1 434.3 582.6 433.9 582.9C433.5 583.2 433 583.3 432.5 583.1C432.2 583 399.6 572.6 381.8 569.1C377.9 568.3 374.7 569 372.2 571.1C365.6 576.5 365.5 589.7 365.5 589.8C365.5 590.6 364.8 591.3 364 591.3C363.9 591.3 363.8 591.3 363.7 591.3L348 588.1L328.5 640.6L346.7 652.8C347 653 347.3 653.4 347.3 653.8C347.4 654.2 347.3 654.6 347.1 654.9C343.4 660.3 344 666.6 349 673.5C365.9 697 425 719.1 451 711.6C484.4 702 523.7 626.1 524.1 625.3C524.3 624.9 524.8 624.6 525.4 624.6Z" fill="#1D1D1B"/>
<path d="M817.6 358.5C817.6 358.5 804.8 284.6 857.2 261.6L860.4 294.2C860.4 294.2 868.3 276.9 878.8 276.9C889.3 276.9 894.6 289.8 880.4 305.8C866.2 321.8 878.8 334.7 872.5 345.2C866.2 355.7 860.3 372 860.3 372L817.6 358.5Z" fill="#FFCDB2"/>
<path d="M857.2 261.6L860.4 294.2C860.4 294.2 868.3 276.9 878.8 276.9C889.3 276.9 894.6 289.8 880.4 305.8C866.2 321.8 878.8 334.7 872.5 345.2C866.2 355.7 860.3 372 860.3 372L817.6 358.5C817.6 358.5 804.8 284.6 857.2 261.6ZM859.7 257.2L856 258.8C833.6 268.6 819.4 289.1 814.8 318.1C812.7 331.6 812.7 345.4 814.7 358.9L815 360.7L816.7 361.2L859.4 374.7L862.2 375.6L863.2 372.9C863.3 372.7 869 356.8 875 346.6C878.1 341.4 877.4 336 876.8 330.6C875.9 323.5 875 316.1 882.6 307.6C890.9 298.2 894 288.3 890.7 281.1C888.6 276.4 883.9 273.5 878.7 273.7C871.7 273.7 866.1 279.3 862.4 284.5L860.1 261.1L859.7 257.2Z" fill="#1D1D1B"/>
<path d="M783.1 529.1C850.4 568 878.6 437.8 878.4 415.3C878.2 392.8 863.1 390.6 863.1 390.6L866.2 373.5L813.4 356.1L808.9 367.2C808.9 367.2 786.5 368.8 780.7 389.5C774.9 410.2 772.4 416.7 769.3 431.4" fill="#FFAD00"/>
<path d="M807.1 537.8C799.1 537.8 790.9 535.3 782.3 530.4C781.6 530 781.3 529.1 781.8 528.4C782.3 527.7 783.1 527.4 783.8 527.9C798.7 536.5 812.8 537.2 825.5 529.7C844.7 518.5 857.3 491.6 864.6 471.1C873.1 447 876.9 423.6 876.9 415.4C876.7 394.6 863.5 392.3 862.9 392.2C862.5 392.1 862.1 391.9 861.9 391.6C861.7 391.3 861.6 390.9 861.6 390.5L864.5 374.6L814.3 358.1L810.4 367.9C810.2 368.4 809.7 368.8 809.1 368.8C808.2 368.9 787.7 370.6 782.2 390C780.3 396.7 778.8 401.9 777.5 406.4C774.7 415.7 772.9 421.9 770.8 431.8C770.7 432.6 769.9 433.2 769.1 433C768.3 432.9 767.7 432.1 767.9 431.3V431.2C770 421.2 771.9 415 774.6 405.6C775.9 401.1 777.4 395.9 779.3 389.2C784.6 370.3 803.4 366.5 807.9 365.9L812 355.6C812.3 354.9 813.1 354.5 813.9 354.7L866.7 372.1C867.4 372.3 867.8 373.1 867.7 373.8L864.8 389.6C868.8 390.9 879.7 396.2 879.8 415.4C880 433 864 510.8 827 532.3C821 535.8 814.1 537.7 807.1 537.8Z" fill="#1D1D1B"/>
<path d="M862.3 390.8C863.1 391 863.9 391.2 864.7 391.5C851.6 394.9 821.6 398.8 809.2 368.2C809.7 368.1 810 368.1 810 368.1L814.3 357.4L865.3 374.2L862.3 390.8Z" fill="#E89D00"/>
<path d="M380 364.5H379.8C379.4 364.5 340.9 360.9 294.3 337.5C267.1 323.9 242.2 306 220.6 284.6C193.7 257.9 171.8 225.6 155.7 188.5C155.3 187.5 155.7 186.3 156.7 185.9C157.7 185.5 158.9 185.9 159.3 186.9C195.5 269.7 253.5 312.5 295.9 333.8C341.8 356.9 379.7 360.4 380.1 360.5C381.2 360.5 382.1 361.5 382 362.6C382 363.7 381.1 364.6 380 364.5Z" fill="#1D1D1B"/>
<path d="M507.6 334C507.6 334 489.3 359.4 473.9 342.3C458.5 325.2 425.9 288.3 397.8 309.5C369.7 330.7 369.2 338.1 348.3 324.6C327.4 311.1 250.7 354.5 296.5 406.8C371.6 492.5 542.6 390.7 542.6 390.7L534.8 365.8L507.6 334Z" fill="#6C32AD"/>
<path d="M381.6 442.6C376.4 442.6 371.4 442.4 366.5 441.9C336.7 439.1 312.8 427.6 295.4 407.7C276.9 386.5 275.9 363.2 292.7 343.8C308.4 325.7 336.8 315.4 349.1 323.3C365.1 333.7 367.9 331.4 383.6 318.7C387.3 315.7 391.6 312.2 396.8 308.3C425.7 286.5 458.6 323.1 474.4 340.7L475 341.4C478.4 345.2 482.3 347 486.5 346.8C496.9 346.2 506.3 333.4 506.4 333.3L507.5 331.8L536.2 365.3L544.4 391.6L543.4 392.2C543 392.5 499.9 417.9 448.1 432.5C423.9 439.1 401.6 442.6 381.6 442.6ZM338.3 323.6C325.8 323.6 307.2 331.6 295 345.7C285.7 356.4 273.8 378.4 297.6 405.7C335.9 449.4 400.1 442.7 447.3 429.3C494.3 416 534 393.8 540.8 389.9L533.5 366.5L507.7 336.3C504.7 340 496.3 349.1 486.7 349.6C481.6 349.9 476.9 347.7 472.9 343.2L472.3 342.5C457.1 325.6 425.4 290.4 398.8 310.5C393.6 314.5 389.4 317.9 385.7 320.9C369.8 333.8 365.5 337.3 347.7 325.7C344.7 324.2 341.5 323.5 338.3 323.6Z" fill="black"/>
<path d="M355.1 438.8C434.8 375.7 526 379.8 526 379.8C529.7 384.4 532.3 389.8 533.6 395.6C506.5 410.3 422.6 451.1 355.1 438.8Z" fill="#59298F"/>
<path d="M567.1 291.4C583.282 291.4 596.4 278.282 596.4 262.1C596.4 245.918 583.282 232.8 567.1 232.8C550.918 232.8 537.8 245.918 537.8 262.1C537.8 278.282 550.918 291.4 567.1 291.4Z" fill="#6C32AD"/>
<path d="M565 232.9C581.1 231.7 595.1 243.8 596.3 259.9C597.5 276 585.4 290 569.3 291.2C553.2 292.4 539.2 280.3 538 264.2C537.3 254.2 541.7 244.6 549.7 238.6C554.1 235.3 559.4 233.4 565 232.9ZM564.8 230.7C547.5 232 534.5 247.1 535.7 264.4C537 281.7 552.1 294.7 569.4 293.5C586.7 292.2 599.7 277.1 598.5 259.8C598.1 253.8 595.9 248.1 592.3 243.3C586 234.7 575.6 229.9 564.8 230.7Z" fill="black"/>
<path d="M502.5 365.8C502.5 365.8 479.4 352 484.8 332.5C490.2 313 495.1 313.7 497.3 303.3C499.5 292.9 515.3 279.9 532.1 281.7C532.1 281.7 549.3 263.3 568.1 264.8C586.9 266.3 594.7 273.7 602.3 286.8C609.9 299.9 616.1 305.3 621.7 314.3C627.3 323.3 638.1 349.7 603.5 376.6C568.9 403.5 502.5 365.8 502.5 365.8Z" fill="#6C32AD"/>
<path d="M571.2 387.8C560.5 387.6 549.8 385.9 539.6 382.8C526.5 378.9 513.8 373.7 501.8 367.2C500.8 366.6 477.8 352.5 483.4 332.2C486.4 321.2 489.4 316.5 491.7 312.7C493.7 309.8 495.1 306.5 495.8 303.1C498.2 291.5 514.5 278.9 531.5 280.3C534.6 277.2 550.5 262 568.2 263.4C587.6 264.9 595.9 272.9 603.5 286.2C607 292.2 610.9 297.9 615.3 303.2C618 306.6 620.6 310.1 622.9 313.7C627.8 321.6 641 349.5 604.3 378C595.8 384.4 584.6 387.8 571.2 387.8ZM503.2 364.5C504.6 365.3 569.2 401.3 602.4 375.4C637.1 348.4 624.9 322.4 620.3 315.1C618 311.6 615.5 308.1 612.9 304.9C608.5 299.4 604.5 293.6 600.9 287.6C593.5 274.9 586.1 267.7 567.9 266.3C550.1 264.9 533.3 282.6 533.1 282.8L532.6 283.3L531.8 283.2C515.3 281.4 500.6 294.1 498.7 303.6C497.9 307.4 496.4 311 494.2 314.2C491.9 317.8 489.2 322.3 486.2 332.9C481.2 350.9 502.6 364.1 503.2 364.5Z" fill="black"/>
<path d="M570.1 333.9C583.1 331.8 593.4 317.1 593.8 316.5C594.2 316 594.1 315.3 593.6 314.9C593.1 314.5 592.4 314.6 592 315.1L591.9 315.2C591.8 315.3 581.7 329.7 569.7 331.7C569.1 331.8 568.7 332.4 568.8 333C569 333.5 569.5 333.9 570.1 333.9Z" fill="black"/>
<path d="M558.3 418.1C558.3 418.1 544.8 433.3 563.8 441.6C582.8 449.9 593 434 593 434C593 434 653.9 440.8 622.4 396.7L558.3 418.1Z" fill="white"/>
<path d="M574.3 445.5C570.5 445.5 566.7 444.6 563.1 443C557 440.4 553.3 436.7 552.3 432.1C550.6 424.5 556.8 417.5 557.1 417.2L557.4 416.9L557.8 416.8L622.9 395L623.5 395.9C632.5 408.5 635 418.5 630.9 425.4C623.7 437.7 598.7 436.1 593.6 435.6C591.7 438 585.1 445.5 574.3 445.5ZM559.1 419.5C558.1 420.8 554.1 426.2 555.3 431.5C556.1 435.1 559.1 438 564.3 440.3C581.9 447.9 591.2 433.9 591.6 433.3L592.1 432.5L593 432.6C593.3 432.6 621.4 435.6 628.3 423.9C631.6 418.2 629.4 409.7 621.7 398.5L559.1 419.5Z" fill="#1D1D1B"/>
<path d="M569.7 325.5C572.7 325.3 575.6 324.6 578.3 323.6C578.9 323.4 579.1 322.7 578.9 322.2C578.7 321.7 578.1 321.4 577.6 321.6C553.5 330.1 541.4 306.3 540.9 305.2C540.6 304.6 540 304.4 539.4 304.7C538.9 305 538.6 305.6 538.9 306.2C539 306.4 549.4 327 569.7 325.5Z" fill="white"/>
<path d="M567.6 326.1C548.3 326.1 538.5 306.6 538.4 306.4C538 305.6 538.3 304.6 539 304.2C539.7 303.8 540.8 304.1 541.2 304.8C541.2 304.8 541.3 304.9 541.3 305C541.8 306 553.7 329.5 577.4 321.1C578.2 320.8 579.1 321.3 579.4 322.1C579.7 322.9 579.2 323.8 578.4 324.1C575.6 325.1 572.6 325.8 569.6 326C569 326 568.3 326.1 567.6 326.1ZM539.9 305.1C539.8 305.1 539.7 305.1 539.6 305.2C539.3 305.3 539.2 305.7 539.3 306C539.4 306.2 549.6 326.6 569.6 325.1C572.5 324.9 575.4 324.3 578.1 323.3C578.4 323.2 578.6 322.8 578.5 322.5C578.4 322.3 578.3 322.2 578.2 322.1C578.1 322 577.9 322 577.7 322.1C553.2 330.8 540.9 306.5 540.4 305.5C540.4 305.2 540.2 305.1 539.9 305.1Z" fill="white"/>
<path d="M585.8 252.6C586 252.6 586.2 252.5 586.3 252.4C586.8 252.1 587 251.4 586.6 250.9C582.5 244.5 577.5 240.8 571.8 239.9C562.4 238.4 554.5 244.7 554.2 244.9C553.7 245.3 553.7 246 554.1 246.5C554.5 247 555.1 247 555.6 246.7C555.7 246.6 563.1 240.8 571.5 242.1C576.6 243 581.1 246.3 584.8 252.2C585 252.4 585.4 252.6 585.8 252.6Z" fill="white"/>
<path d="M585.8 253.1C585.3 253.1 584.7 252.8 584.4 252.4C580.8 246.7 576.4 243.4 571.4 242.6C563.3 241.3 556 247 555.9 247C555.2 247.5 554.2 247.3 553.7 246.6C553.3 245.9 553.4 245.1 553.9 244.5C554.2 244.2 562.4 237.8 571.9 239.4C577.8 240.4 582.9 244.2 587.1 250.7C587.6 251.4 587.4 252.4 586.6 252.9C586.4 253 586.1 253.1 585.9 253.1H585.8ZM568.9 241.4C569.8 241.4 570.7 241.5 571.6 241.6C576.9 242.5 581.5 245.9 585.3 251.9C585.4 252.1 585.6 252.2 585.9 252.2C586.2 252.2 586.4 252 586.4 251.7C586.4 251.5 586.4 251.4 586.3 251.2C582.3 244.9 577.4 241.3 571.8 240.4C562.7 238.9 554.9 245.1 554.6 245.3C554.3 245.5 554.3 245.9 554.5 246.2C554.7 246.5 555.1 246.5 555.4 246.3C555.4 246.2 561.5 241.4 568.9 241.4Z" fill="white"/>
<path d="M563.6 401.4L559.6 417.4C559.6 417.4 594.4 447.6 616.4 397.2C616.4 397.2 602.6 388.2 590.1 356.6C590.1 356.6 604.1 351.7 600.2 339.1C596.3 326.5 585.7 325.6 580 329.8C580 329.8 558.2 349.4 527.6 302.6C527.6 302.6 503.5 316.2 501.5 343.1C499.5 370 508.5 399.8 529.7 406.1C550.9 412.4 563.6 401.4 563.6 401.4Z" fill="#FFCDB2"/>
<path d="M527.7 302.6C544.3 328.1 558.4 333.9 567.7 333.9C572.2 334 576.5 332.6 580.1 329.8C582.1 328.3 584.6 327.5 587.1 327.5C592.2 327.5 597.7 330.7 600.3 339C604.2 351.6 590.2 356.5 590.2 356.5C602.7 388.1 616.5 397.1 616.5 397.1C606.5 420.1 593.8 426.3 583 426.3C570 426.3 559.7 417.3 559.7 417.3L563.7 401.3C563.7 401.3 556 408 542.6 408C538.3 408 534 407.3 529.8 406.1C508.5 399.8 499.6 370.1 501.6 343.1C503.6 316.1 527.6 302.6 527.7 302.6ZM528.6 298.6L526.2 300C525.2 300.6 500.7 314.7 498.5 342.9C497.4 357.4 499.4 371.8 504.1 383.5C509.5 397 518.1 405.8 528.9 409C533.3 410.3 537.9 411 542.5 411C548.2 411 553.8 409.9 558.9 407.6L556.6 416.7L556.1 418.5L557.5 419.7C558 420.1 568.8 429.4 582.8 429.4C589.7 429.4 596.3 427.1 601.7 422.8C608.4 417.6 614.3 409.4 619.1 398.4L620.1 396.1L618 394.7C617.9 394.6 605.5 386.1 593.9 358.2C599.5 355.2 606.2 348.5 603 338.2C600.4 329.7 594.4 324.5 587 324.5C583.8 324.5 580.7 325.5 578.2 327.4L578.1 327.5L578 327.6C575 329.8 571.4 331 567.6 330.9C559.4 330.9 546.2 325.7 530.1 300.9L528.6 298.6Z" fill="#1D1D1B"/>
<path d="M563.4 403.7C563.5 403.7 563.6 403.7 563.7 403.6C575.2 398.8 582.9 385.7 583.2 385.2C583.5 384.7 583.4 384 582.9 383.7C582.4 383.4 581.7 383.5 581.4 384C581.4 384 581.4 384.1 581.3 384.1C581.2 384.2 573.7 397.1 562.9 401.6C562.3 401.8 562.1 402.5 562.3 403.1C562.5 403.4 563 403.7 563.4 403.7Z" fill="black"/>
<path d="M589.4 350.6C589.8 350.6 590.2 350.3 590.3 349.9C592.6 344.8 592.8 340.7 590.8 337.9C588 333.8 582 334 581.8 334C581.2 334 580.7 334.5 580.7 335.1C580.7 335.7 581.2 336.2 581.8 336.2C581.9 336.2 586.8 336.1 588.9 339.1C590.4 341.3 590.1 344.6 588.2 349C588 349.6 588.2 350.2 588.8 350.5C589 350.6 589.2 350.7 589.4 350.6Z" fill="black"/>
<path d="M531.7 341.9C546.8 341.9 564.9 331.5 569.3 335.9C573.7 340.3 572.6 347.8 565.2 351.1C557.8 354.4 549.9 355.9 533.8 358C517.7 360.1 501.7 361 501.7 352.1C501.7 343.2 509.5 341.8 531.7 341.9Z" fill="#FFB49F"/>
<path d="M513 336.1C513.3 336.1 513.6 335.9 513.8 335.6C513.8 335.5 517.8 330.3 523.2 330.3C523.8 330.4 524.4 329.9 524.4 329.3C524.5 328.7 524 328.1 523.4 328.1C523.3 328.1 523.3 328.1 523.2 328.1C516.7 328.1 512.2 334.1 512 334.3C511.6 334.8 511.8 335.5 512.3 335.9C512.5 336 512.8 336.1 513 336.1Z" fill="black"/>
<path d="M532.1 368.9C532.6 368.8 533 368.4 533.1 367.9L536.3 343.8C536.4 343.2 535.9 342.6 535.3 342.6C534.7 342.5 534.2 342.9 534.1 343.5L530.9 367.6C530.8 368.2 531.2 368.8 531.8 368.8L532.1 368.9Z" fill="black"/>
<path d="M596 360.2C598.651 360.2 600.8 358.051 600.8 355.4C600.8 352.749 598.651 350.6 596 350.6C593.349 350.6 591.2 352.749 591.2 355.4C591.2 358.051 593.349 360.2 596 360.2Z" fill="#FFAD00"/>
<path d="M595.6 350.6C598.2 350.4 600.5 352.4 600.7 355C600.8 356.6 600.1 358.2 598.8 359.2C598.1 359.8 597.2 360.1 596.3 360.1C593.7 360.3 591.4 358.3 591.2 355.7C591.1 354.1 591.8 352.5 593.1 351.5C593.8 351 594.7 350.7 595.6 350.6ZM595.5 348.4C591.6 348.7 588.7 352 589 355.9C589.3 359.8 592.6 362.7 596.5 362.4C600.4 362.1 603.3 358.8 603 354.9C602.9 353.6 602.4 352.3 601.6 351.2C600.1 349.3 597.8 348.3 595.5 348.4Z" fill="black"/>
<path d="M540.5 327.4C540.8 327.4 541.1 327.2 541.3 327C542 326.2 544.2 324 545.8 324.5C546.4 324.7 547 324.3 547.2 323.7C547.4 323.1 547 322.5 546.4 322.3C543.1 321.4 539.9 325.2 539.6 325.6C539.2 326.1 539.3 326.8 539.8 327.2C539.9 327.4 540.2 327.5 540.5 327.4Z" fill="black"/>
<path d="M325.8 393.1C317.7 393.1 296.7 392.2 269.8 384.8C224.7 372.2 184.3 346.7 153.7 311.2C153.1 310.3 153.3 309.1 154.1 308.4C154.9 307.8 156 307.9 156.7 308.6C186.8 343.4 226.4 368.6 270.8 380.9C304.3 390.2 329.1 389.1 329.3 389.1C330.4 389 331.3 389.9 331.4 391C331.5 392.1 330.6 393 329.5 393.1C329.2 393 328 393.1 325.8 393.1Z" fill="#1D1D1B"/>
<path d="M808.3 852.1C807.9 852.1 807.5 851.9 807.2 851.6C806.9 851.3 776.8 818.8 755.9 772.4L719.2 778.5C718.4 778.6 717.6 778.1 717.5 777.2C717.4 776.3 717.9 775.6 718.8 775.5L756.6 769.2C757.3 769.1 757.9 769.4 758.2 770.1C778.9 816.6 809.1 849.2 809.4 849.6C810 850.2 809.9 851.1 809.4 851.7C809.1 852 808.7 852.1 808.3 852.1Z" fill="#1D1D1B"/>
<path d="M695.4 576.1C698.548 576.1 701.1 573.548 701.1 570.4C701.1 567.252 698.548 564.7 695.4 564.7C692.252 564.7 689.7 567.252 689.7 570.4C689.7 573.548 692.252 576.1 695.4 576.1Z" fill="#FFC140"/>
<path d="M553.6 567.7C556.748 567.7 559.3 565.148 559.3 562C559.3 558.852 556.748 556.3 553.6 556.3C550.452 556.3 547.9 558.852 547.9 562C547.9 565.148 550.452 567.7 553.6 567.7Z" fill="#FFC140"/>
<path d="M583 669.6C586.148 669.6 588.7 667.048 588.7 663.9C588.7 660.752 586.148 658.2 583 658.2C579.852 658.2 577.3 660.752 577.3 663.9C577.3 667.048 579.852 669.6 583 669.6Z" fill="#FFC140"/>
<path d="M618.7 616C621.848 616 624.4 613.448 624.4 610.3C624.4 607.152 621.848 604.6 618.7 604.6C615.552 604.6 613 607.152 613 610.3C613 613.448 615.552 616 618.7 616Z" fill="#FFC140"/>
<path d="M653.4 708.5C656.548 708.5 659.1 705.948 659.1 702.8C659.1 699.652 656.548 697.1 653.4 697.1C650.252 697.1 647.7 699.652 647.7 702.8C647.7 705.948 650.252 708.5 653.4 708.5Z" fill="#FFC140"/>
<path d="M766.9 616C770.048 616 772.6 613.448 772.6 610.3C772.6 607.152 770.048 604.6 766.9 604.6C763.752 604.6 761.2 607.152 761.2 610.3C761.2 613.448 763.752 616 766.9 616Z" fill="#FFC140"/>
<path d="M700.7 657C703.848 657 706.4 654.448 706.4 651.3C706.4 648.152 703.848 645.6 700.7 645.6C697.552 645.6 695 648.152 695 651.3C695 654.448 697.552 657 700.7 657Z" fill="#FFC140"/>
<path d="M678.6 482.6C681.748 482.6 684.3 480.048 684.3 476.9C684.3 473.752 681.748 471.2 678.6 471.2C675.452 471.2 672.9 473.752 672.9 476.9C672.9 480.048 675.452 482.6 678.6 482.6Z" fill="#FFC140"/>
<path d="M641.8 538.3C644.948 538.3 647.5 535.748 647.5 532.6C647.5 529.452 644.948 526.9 641.8 526.9C638.652 526.9 636.1 529.452 636.1 532.6C636.1 535.748 638.652 538.3 641.8 538.3Z" fill="#FFC140"/>
<path d="M533.6 493.1C536.748 493.1 539.3 490.548 539.3 487.4C539.3 484.252 536.748 481.7 533.6 481.7C530.452 481.7 527.9 484.252 527.9 487.4C527.9 490.548 530.452 493.1 533.6 493.1Z" fill="#FFC140"/>
<path d="M468.5 657C471.648 657 474.2 654.448 474.2 651.3C474.2 648.152 471.648 645.6 468.5 645.6C465.352 645.6 462.8 648.152 462.8 651.3C462.8 654.448 465.352 657 468.5 657Z" fill="#FFC140"/>
<path d="M401.2 616C404.348 616 406.9 613.448 406.9 610.3C406.9 607.152 404.348 604.6 401.2 604.6C398.052 604.6 395.5 607.152 395.5 610.3C395.5 613.448 398.052 616 401.2 616Z" fill="#FFC140"/>
<path d="M383.3 662.3C386.448 662.3 389 659.748 389 656.6C389 653.452 386.448 650.9 383.3 650.9C380.152 650.9 377.6 653.452 377.6 656.6C377.6 659.748 380.152 662.3 383.3 662.3Z" fill="#FFC140"/>
<path d="M815.2 504.6C818.348 504.6 820.9 502.048 820.9 498.9C820.9 495.752 818.348 493.2 815.2 493.2C812.052 493.2 809.5 495.752 809.5 498.9C809.5 502.048 812.052 504.6 815.2 504.6Z" fill="#FFC140"/>
<path d="M817.3 448.9C820.448 448.9 823 446.348 823 443.2C823 440.052 820.448 437.5 817.3 437.5C814.152 437.5 811.6 440.052 811.6 443.2C811.6 446.348 814.152 448.9 817.3 448.9Z" fill="#FFC140"/>
<path d="M683.9 421.6C687.048 421.6 689.6 419.048 689.6 415.9C689.6 412.752 687.048 410.2 683.9 410.2C680.752 410.2 678.2 412.752 678.2 415.9C678.2 419.048 680.752 421.6 683.9 421.6Z" fill="#FFC140"/>
<path d="M329.1 640.5L348 588L364.8 591.2C364.8 591.2 375.3 624.8 346.9 653.2L329.1 640.5Z" fill="#E89D00"/>
<path d="M852.4 320C852.4 320 851.4 311.6 861.9 288.5L852.4 320Z" fill="#FFCDB2"/>
<path d="M852.4 321.4C851.6 321.4 851 320.8 850.9 320.1C850.9 319.7 849.9 311 860.5 287.8C860.8 287 861.7 286.7 862.5 287C863.3 287.3 863.6 288.2 863.3 289V289.1C853.2 311.3 854 319.7 854 319.8C854.1 320.6 853.5 321.4 852.7 321.5L852.4 321.4Z" fill="#1D1D1B"/>
<path d="M345.6 586.4C345.6 586.4 324.1 497.6 288.4 537.7L245.3 522.9C245.3 522.9 223.8 537.5 253.2 560C253.2 560 246.5 575.6 254.2 589.2C254.2 589.2 242.6 604.2 264.2 620.2C287.6 637.5 327.4 639.1 327.4 639.1L345.6 586.4Z" fill="#FFCDB2"/>
<path d="M328.5 640.6H327.4C325.8 640.5 286.9 638.8 263.3 621.4C255.3 615.5 250.7 609 249.7 602.1C249.1 597.6 250 593.1 252.4 589.2C246.1 577.2 250 564.4 251.4 560.5C241.1 552.4 236 544.3 236.2 536.5C236.5 527.2 244.1 521.9 244.4 521.7L245 521.3L287.9 536C295.5 527.7 303.2 524.5 310.8 526.4C333.7 532.2 346.5 583.9 347 586.1L347.1 586.5L347 586.9L328.5 640.6ZM245.5 524.5C243.9 525.8 239.3 530.1 239.1 536.5C238.9 543.5 243.9 551 254 558.7L254.9 559.4L254.4 560.5C254.3 560.7 248.1 575.6 255.3 588.4L255.8 589.3L255.2 590.1C252.9 593.5 252 597.6 252.6 601.6C253.5 607.7 257.6 613.5 265 618.9C285.6 634.1 319.7 637 326.3 637.4L343.9 586.2C342.6 581.2 330.1 534.2 309.9 529.1C303.3 527.4 296.4 530.6 289.3 538.5L288.6 539.3L245.5 524.5Z" fill="#1D1D1B"/>
<path d="M268.3 623.8C279.9 630 298.5 623.6 294.1 611.6C290.4 601.6 284.1 599.5 284.1 599.5C284.1 599.5 306.2 599.5 299.9 580.6C293.6 561.7 254.7 559.6 254.7 559.6" fill="#FFCDB2"/>
<path d="M278.5 627.7C274.7 627.7 271 626.9 267.6 625.1C266.9 624.7 266.7 623.7 267.1 623C267.5 622.4 268.3 622.1 269 622.4C276.3 626.3 285.9 624.7 290.4 620.8C293 618.7 293.9 615.1 292.7 612.1C289.3 602.9 283.7 600.9 283.7 600.9C282.9 600.6 282.5 599.8 282.8 599C283 598.4 283.6 598 284.2 598C284.3 598 294 597.9 297.9 592.4C299.9 589.6 300.1 585.8 298.5 581C292.6 563.3 255 561 254.7 561C253.9 561 253.2 560.2 253.3 559.4C253.4 558.6 254.1 557.9 254.9 558C256.5 558.1 294.9 560.4 301.4 580C303.3 585.7 303 590.5 300.4 594.1C297.5 598.1 292.4 599.8 288.7 600.4C291.9 603.2 294.3 606.9 295.6 610.9C297.3 615.1 296.1 620 292.5 622.9C289 626.1 283.8 627.7 278.5 627.7Z" fill="#1D1D1B"/>
<path d="M286.3 600.8C286.2 600.8 286 600.8 285.9 600.7L253.8 590.9C253 590.7 252.6 589.8 252.8 589C253 588.2 253.9 587.8 254.7 588L286.8 597.8C287.6 598.1 288 598.9 287.8 599.7C287.5 600.5 286.9 600.9 286.3 600.8Z" fill="#1D1D1B"/>
<path d="M288.4 537.7C288.4 537.7 266.3 555.4 274.7 569.1C283.1 582.8 317.8 555.4 317.8 555.4" fill="#FFCDB2"/>
<path d="M282.3 574.3C281.5 574.3 280.7 574.2 279.9 574.1C277.2 573.7 274.8 572.1 273.4 569.8C264.4 555.2 286.5 537.2 287.4 536.5C288 536 289 536.1 289.5 536.7C290 537.3 289.9 538.3 289.3 538.8C289.1 539 268.3 555.8 275.9 568.2C276.9 569.8 278.5 570.9 280.4 571.2C281.1 571.3 281.7 571.4 282.4 571.4C294.8 571.4 316.5 554.4 316.8 554.2C317.5 553.7 318.4 553.8 318.9 554.5C319.4 555.2 319.3 556.1 318.6 556.6C317.7 557.3 295.9 574.3 282.3 574.3Z" fill="#1D1D1B"/>
<path d="M529 759.2H672.4C685.9 759.2 696.9 770.2 696.9 783.7V808.3C696.9 821.8 685.9 832.8 672.4 832.8H529C515.5 832.8 504.5 821.8 504.5 808.3V783.7C504.6 770.2 515.5 759.2 529 759.2Z" fill="#FFAD00"/>
<path d="M672.4 834.3H529C514.6 834.3 503 822.7 503 808.3V783.7C503 769.3 514.6 757.7 529 757.7H672.4C686.8 757.7 698.4 769.3 698.4 783.7V808.3C698.4 822.7 686.8 834.3 672.4 834.3ZM529 760.7C516.3 760.7 506 771 506 783.7V808.3C506 821 516.3 831.3 529 831.3H672.4C685.1 831.3 695.4 821 695.4 808.3V783.6C695.4 770.9 685.1 760.6 672.4 760.6L529 760.7Z" fill="#1D1D1B"/>
<path d="M628 685.7H831C842.8 685.7 852.4 695.3 852.4 707.1V708.4C852.4 720.2 842.8 729.8 831 729.8H628C616.2 729.8 606.6 720.2 606.6 708.4V707.1C606.5 695.3 616.1 685.7 628 685.7Z" fill="#D9CFFF"/>
<path d="M831 731.3H628C615.3 731.3 605 721.1 605 708.4V707.1C605 694.4 615.3 684.2 628 684.2H831C843.7 684.2 853.9 694.5 853.9 707.1V708.4C853.9 721 843.7 731.3 831 731.3ZM628 687.2C617 687.2 608 696.1 608 707.1V708.4C608 719.4 617 728.3 628 728.3H831C842 728.3 850.9 719.4 850.9 708.4V707.1C850.9 696.1 842 687.2 831 687.2H628Z" fill="#1D1E1B"/>
<path d="M628 625.8H831C842.8 625.8 852.4 635.4 852.4 647.2V648.5C852.4 660.3 842.8 669.9 831 669.9H628C616.2 669.9 606.6 660.3 606.6 648.5V647.2C606.5 635.4 616.1 625.8 628 625.8Z" fill="#D9CFFF"/>
<path d="M831 671.4H628C615.3 671.4 605 661.2 605 648.5V647.2C605 634.5 615.3 624.3 628 624.3H831C843.7 624.3 853.9 634.6 853.9 647.2V648.5C853.9 661.1 843.7 671.4 831 671.4ZM628 627.3C617 627.3 608 636.2 608 647.2V648.5C608 659.5 617 668.4 628 668.4H831C842 668.4 850.9 659.5 850.9 648.5V647.2C850.9 636.2 842 627.3 831 627.3H628Z" fill="#1D1E1B"/>
<path d="M733.2 224.7L598.7 223.7C597 223.7 595.7 222.4 595.7 220.7C595.7 219 597 217.7 598.7 217.7L733.2 218.7C734.9 218.7 736.2 220 736.2 221.7C736.2 223.4 734.8 224.7 733.2 224.7Z" fill="white"/>
<path d="M529.3 640.5C528.7 640.5 528.2 640.2 527.9 639.6C516.9 615.1 510.6 557.9 510.4 555.4C510.3 554.6 510.9 553.8 511.7 553.7C512.5 553.6 513.3 554.2 513.4 555C513.5 555.6 519.9 614.2 530.7 638.2C531 639 530.7 639.9 529.9 640.2C529.8 640.5 529.5 640.6 529.3 640.5Z" fill="#1D1E1B"/>
<path d="M738.9 466C738.9 466 770.4 505.9 786.2 536.4L738.9 466Z" fill="#FFAD00"/>
<path d="M786.2 537.9C785.6 537.9 785.1 537.6 784.9 537.1C769.4 507.1 738.1 467.3 737.8 466.9C737.3 466.2 737.4 465.3 738.1 464.8C738.8 464.3 739.7 464.4 740.2 465.1C740.5 465.5 772 505.5 787.6 535.7C788 536.4 787.7 537.3 787 537.7C786.7 537.9 786.5 537.9 786.2 537.9Z" fill="#1D1D1B"/>
<path d="M521.395 351.915C521.908 348.753 519.761 345.774 516.599 345.261C513.437 344.748 510.458 346.895 509.945 350.057C509.432 353.219 511.579 356.198 514.741 356.711C517.903 357.224 520.882 355.077 521.395 351.915Z" fill="#1D1D1B"/>
<path d="M554 351C557.203 351 559.8 348.403 559.8 345.2C559.8 341.997 557.203 339.4 554 339.4C550.797 339.4 548.2 341.997 548.2 345.2C548.2 348.403 550.797 351 554 351Z" fill="#1D1D1B"/>
<path d="M516.2 349.9C517.084 349.9 517.8 349.184 517.8 348.3C517.8 347.416 517.084 346.7 516.2 346.7C515.316 346.7 514.6 347.416 514.6 348.3C514.6 349.184 515.316 349.9 516.2 349.9Z" fill="white"/>
<path d="M518.8 353C519.352 353 519.8 352.552 519.8 352C519.8 351.448 519.352 351 518.8 351C518.248 351 517.8 351.448 517.8 352C517.8 352.552 518.248 353 518.8 353Z" fill="white"/>
<path d="M552.9 344.7C553.784 344.7 554.5 343.984 554.5 343.1C554.5 342.216 553.784 341.5 552.9 341.5C552.016 341.5 551.3 342.216 551.3 343.1C551.3 343.984 552.016 344.7 552.9 344.7Z" fill="white"/>
<path d="M555.5 347.7C556.052 347.7 556.5 347.252 556.5 346.7C556.5 346.148 556.052 345.7 555.5 345.7C554.948 345.7 554.5 346.148 554.5 346.7C554.5 347.252 554.948 347.7 555.5 347.7Z" fill="white"/>
<path d="M562.2 387.3C561.4 387.3 560.7 386.6 560.7 385.8C560.7 385.2 561 384.7 561.5 384.5C564.2 383.1 564.8 378.5 564.8 374.9C557.1 382.5 543.4 380.9 542.7 380.8C541.9 380.7 541.3 379.9 541.4 379.1C541.5 378.3 542.3 377.7 543.1 377.8C543.3 377.8 559 379.7 564.8 370.1C565.2 369.4 566.1 369.2 566.8 369.6C567.2 369.8 567.5 370.2 567.5 370.7C567.6 371.2 569.4 383.8 562.9 387.2C562.7 387.3 562.5 387.3 562.2 387.3Z" fill="black"/>
<path d="M909.2 254.2H909C908.2 254.1 907.6 253.4 907.6 252.6C910.5 222.4 903.6 199.1 887.2 183.5C855.8 153.7 799.5 161.6 799 161.7C798.2 161.8 797.4 161.2 797.3 160.4C797.2 159.6 797.7 158.8 798.5 158.7C799.1 158.6 856.8 150.5 889.2 181.3C906.3 197.6 913.5 221.6 910.5 252.8C910.6 253.6 909.9 254.2 909.2 254.2Z" fill="black"/>
<path d="M658.1 787.4H549.8C548.1 787.4 546.8 786.1 546.8 784.4C546.8 782.7 548.1 781.4 549.8 781.4H658.2C659.9 781.4 661.2 782.7 661.2 784.4C661.2 786.1 659.8 787.4 658.1 787.4Z" fill="white"/>
<path d="M613.3 810H550.1C548.4 810 547.1 808.7 547.1 807C547.1 805.3 548.4 804 550.1 804H613.3C615 804 616.3 805.3 616.3 807C616.3 808.7 615 810 613.3 810Z" fill="white"/>
<path d="M410.6 749.1C366.1 749.1 340.3 731.3 326.4 716.3C311.1 699.7 306.8 683.2 306.6 682.5C306.3 681.4 307 680.3 308 680.1C309 679.9 310.2 680.5 310.4 681.5C310.4 681.7 314.7 697.9 329.4 713.8C342.7 728.2 367.5 745.2 410.5 745.2H412.5C413.6 745.2 414.5 746.1 414.5 747.2C414.5 748.3 413.6 749.2 412.5 749.2L410.6 749.1Z" fill="#1D1D1B"/>
<path d="M823.5 355C822.1 355 820.8 354 820.6 352.5C813.1 312.8 833.9 283.1 834.8 281.9C835.8 280.5 837.6 280.2 839 281.2C840.4 282.2 840.7 284 839.7 285.4C839.5 285.7 819.5 314.3 826.5 351.4C826.8 353 825.7 354.6 824.1 354.9C823.9 355 823.7 355 823.5 355Z" fill="white"/>
<path d="M453.6 575.7C453.4 575.7 453.1 575.7 452.9 575.6C451.3 575.2 450.3 573.6 450.7 572C461.7 526.2 484.4 497.8 501.5 482.1C520.1 465 536 458.8 536.6 458.5C538.1 457.9 539.9 458.6 540.5 460.1C541.1 461.6 540.4 463.4 538.9 464H538.8C538.5 464.1 523.1 470.2 505.4 486.6C489 501.8 467.2 529.1 456.6 573.3C456.2 574.7 455 575.7 453.6 575.7Z" fill="white"/>
<path d="M376 80.4H449.4C459 80.4 466.8 88.2 466.8 97.8V171.2C466.8 180.8 459 188.6 449.4 188.6H376C366.4 188.6 358.6 180.8 358.6 171.2V97.8C358.5 88.2 366.3 80.4 376 80.4Z" fill="#D9CFFF"/>
<path d="M449.3 190.1H376C365.5 190.1 357 181.6 357 171.2V97.8C357 87.3 365.5 78.9 376 78.9H449.4C459.8 79 468.3 87.4 468.3 97.8V171.2C468.2 181.6 459.8 190.1 449.3 190.1ZM376 81.9C367.2 81.9 360 89 360 97.8V171.2C360 180 367.2 187.1 376 187.1H449.4C458.2 187.1 465.3 179.9 465.3 171.2V97.8C465.3 89 458.1 81.9 449.4 81.9H376Z" fill="#1D1E1B"/>
<path d="M412.1 171.7C432.976 171.7 449.9 154.776 449.9 133.9C449.9 113.024 432.976 96.1 412.1 96.1C391.224 96.1 374.3 113.024 374.3 133.9C374.3 154.776 391.224 171.7 412.1 171.7Z" fill="#6C32AD"/>
<path d="M412.1 173.3C390.4 173.3 372.8 155.7 372.8 134C372.8 112.3 390.4 94.7 412.1 94.7C433.8 94.7 451.4 112.3 451.4 134C451.4 155.7 433.8 173.3 412.1 173.3ZM412.1 97.6C392 97.6 375.8 113.9 375.8 133.9C375.8 153.9 392.1 170.2 412.1 170.2C432.1 170.2 448.4 154 448.4 133.9C448.4 113.9 432.2 97.6 412.1 97.6Z" fill="black"/>
<path d="M414.4 96.2C414.4 96.2 373.7 134.9 410.2 171.7L414.4 96.2Z" fill="#6C32AD"/>
<path d="M409.2 172.8C398.6 162.2 393.4 150.3 393.6 137.5C394 113.9 412.7 95.8 413.5 95.1L415.6 97.3C415.4 97.5 397 115.3 396.7 137.6C396.5 149.5 401.5 160.6 411.5 170.7L409.2 172.8Z" fill="black"/>
<path d="M413.5 151C409.9 151 406.2 150.7 402.6 150.1C392.6 148.5 383 145.4 374 140.9L375.4 138.3C375.9 138.6 424.6 163.9 448.7 131.4L451.1 133.2C442.4 144.9 429.5 151 413.5 151Z" fill="black"/>
<path d="M485.1 104.6L482.1 104.4C483.1 85 478.6 71.4 469 64C454.2 52.6 431.8 59.6 431.5 59.7L430.6 56.8C431.6 56.5 454.7 49.3 470.8 61.6C481.3 69.7 486.1 84.1 485.1 104.6Z" fill="black"/>
<path d="M379.5 206.9C357.8 206.9 342.6 201.9 334.2 192.1C329.3 186.5 326.9 179 327.6 171.6L330.6 172.1L329.1 171.9L330.6 172.1C330.1 178.7 332.2 185.3 336.6 190.3C344.4 199.4 358.9 204 379.6 204L379.5 206.9Z" fill="black"/>
<path d="M83.3 386.2H194.4C209 386.2 220.8 398 220.8 412.6V523.7C220.8 538.3 209 550.1 194.4 550.1H83.3C68.7 550.1 56.9 538.3 56.9 523.7V412.6C56.9 398 68.7 386.2 83.3 386.2Z" fill="#D9CFFF"/>
<path d="M194.4 551.6H83.3C67.9 551.6 55.4 539.1 55.4 523.7V412.6C55.4 397.2 67.9 384.7 83.3 384.7H194.4C209.8 384.7 222.3 397.2 222.3 412.6V523.7C222.3 539.1 209.8 551.6 194.4 551.6ZM83.3 387.7C69.5 387.7 58.4 398.9 58.4 412.6V523.7C58.4 537.5 69.6 548.6 83.3 548.6H194.4C208.2 548.6 219.3 537.4 219.3 523.7V412.6C219.3 398.9 208.1 387.7 194.4 387.7H83.3Z" fill="#1D1E1B"/>
<path d="M150.3 411.2C151.1 412.9 151.5 414.7 151.5 416.6C151.5 423.6 145.9 429.2 138.9 429.2C131.9 429.2 126.3 423.6 126.3 416.6C126.3 414.7 126.8 412.8 127.6 411C99.9 414.8 79 432.6 79 453.9C79 478 106.1 480.7 138.9 480.7C171.7 480.7 197.8 478 197.8 453.9C197.7 432.8 177.3 415.2 150.3 411.2Z" fill="#FFAD00"/>
<path d="M138.9 482.2C107.8 482.2 77.5 480 77.5 453.9C77.5 432.1 98.5 413.4 127.4 409.5C128.2 409.4 129 410 129.1 410.8C129.1 411.1 129.1 411.4 129 411.7C128.2 413.2 127.8 414.9 127.8 416.6C127.8 422.7 132.8 427.7 138.9 427.7C145 427.7 150 422.7 150 416.6C150 414.9 149.6 413.3 148.9 411.8C148.5 411.1 148.9 410.2 149.6 409.8C149.9 409.7 150.2 409.6 150.5 409.7C178.8 413.9 199.3 432.5 199.3 453.9C199.2 480.1 170.7 482.2 138.9 482.2ZM125.3 412.9C99.2 417.3 80.5 434.2 80.5 453.9C80.5 475.1 101.9 479.2 138.9 479.2C175.2 479.2 196.3 475.1 196.3 453.9C196.3 434.6 178.1 417.8 152.6 413.1C152.9 414.2 153.1 415.4 153 416.6C153 424.4 146.7 430.7 138.9 430.7C131.1 430.7 124.8 424.4 124.8 416.6C124.8 415.4 124.9 414.1 125.3 412.9Z" fill="#1D1D1B"/>
<path d="M165.2 434.5L178.8 514.4H98.9L109.5 434.5" fill="#FFAD00"/>
<path d="M178.8 515.9H99C98.6 515.9 98.2 515.7 97.9 515.4C97.6 515.1 97.5 514.6 97.5 514.2L108 434.3C108.1 433.5 108.9 432.9 109.7 433C110.5 433.1 111.1 433.9 111 434.7L100.7 512.9H177L163.6 434.8C163.4 434 163.9 433.2 164.7 433C165.5 432.8 166.3 433.3 166.5 434.1C166.5 434.2 166.5 434.2 166.5 434.3L180.2 514.2C180.3 514.6 180.2 515.1 179.9 515.4C179.6 515.7 179.2 515.9 178.8 515.9Z" fill="#1D1D1B"/>
<path d="M81.5 575.4C58.2 575.4 41.5 569.5 31.8 557.8C18.5 541.8 23.3 521.1 23.5 520.2C23.7 519.1 24.7 518.4 25.8 518.6C26.9 518.8 27.6 519.8 27.4 520.9C27.4 521 27.4 521.1 27.3 521.1C27.2 521.4 22.8 540.8 34.9 555.2C44.9 567.2 63.3 572.6 89.4 571.2C90.5 571.1 91.4 572 91.5 573.1C91.6 574.2 90.7 575.1 89.6 575.2C86.8 575.4 84.1 575.4 81.5 575.4Z" fill="#1D1D1B"/>
<path d="M211.9 437H211.7C210 436.9 208.8 435.5 208.9 433.9C209.5 423.2 206.8 414.8 201 408.9C190.6 398.5 173.4 399.2 173.2 399.2C171.5 399.3 170.1 398 170 396.4C169.9 394.8 171.2 393.3 172.8 393.2C173.6 393.2 192.8 392.3 205.1 404.6C212.2 411.7 215.5 421.7 214.8 434.1C214.9 435.7 213.5 437 211.9 437Z" fill="white"/>
</svg>
