<svg width="1000" height="1000" viewBox="0 0 1000 1000" fill="none" xmlns="http://www.w3.org/2000/svg">
<rect width="1000" height="1000" fill="white"/>
<path d="M838.37 916.69H164.09C163.56 916.69 163.051 916.479 162.676 916.104C162.301 915.729 162.09 915.22 162.09 914.69C162.09 914.16 162.301 913.651 162.676 913.276C163.051 912.901 163.56 912.69 164.09 912.69H838.37C838.901 912.69 839.409 912.901 839.784 913.276C840.159 913.651 840.37 914.16 840.37 914.69C840.37 915.22 840.159 915.729 839.784 916.104C839.409 916.479 838.901 916.69 838.37 916.69Z" fill="#1D1D1B"/>
<path d="M224.22 961H93C92.4696 961 91.9609 960.789 91.5858 960.414C91.2107 960.039 91 959.53 91 959C91 958.47 91.2107 957.961 91.5858 957.586C91.9609 957.211 92.4696 957 93 957H224.22C224.75 957 225.259 957.211 225.634 957.586C226.009 957.961 226.22 958.47 226.22 959C226.22 959.53 226.009 960.039 225.634 960.414C225.259 960.789 224.75 961 224.22 961Z" fill="#1D1D1B"/>
<path d="M899.67 882.21H796.23C795.7 882.21 795.191 881.999 794.816 881.624C794.441 881.249 794.23 880.74 794.23 880.21C794.23 879.68 794.441 879.171 794.816 878.796C795.191 878.421 795.7 878.21 796.23 878.21H899.67C900.2 878.21 900.709 878.421 901.084 878.796C901.459 879.171 901.67 879.68 901.67 880.21C901.67 880.74 901.459 881.249 901.084 881.624C900.709 881.999 900.2 882.21 899.67 882.21Z" fill="#1D1D1B"/>
<path d="M719.93 297.73C719.93 297.73 709 312.58 710 325.55C711 338.52 765.44 329.43 760.56 317.76C755.68 306.09 744.56 292.37 744.56 292.37L719.93 297.73Z" fill="#D9CFFF"/>
<path d="M725.72 333.41C721.871 333.521 718.029 332.997 714.35 331.86C709.76 330.23 708.63 327.59 708.48 325.66C707.48 312.29 718.27 297.46 718.73 296.84L719.06 296.38L745.06 290.71L745.65 291.43C746.11 292 756.98 305.43 761.89 317.18C762.53 318.7 762.77 321.06 760.32 323.64C755 329.28 738.6 333.41 725.72 333.41ZM720.82 299.07C719.06 301.62 710.65 314.41 711.47 325.43C711.59 326.95 712.89 328.16 715.35 329.04C725.85 332.78 751.87 328.24 758.18 321.58C759.63 320.05 759.43 319 759.18 318.34C755 308.5 746.24 297 743.92 294L720.82 299.07Z" fill="#1D1E1B"/>
<path d="M634.43 213.59C626.14 217.52 625.01 223.75 625.31 232.15C625.73 243.75 630.74 246.88 638.59 254.41C633.09 261.66 637.29 278.8 642.69 285.3C647.87 291.54 657.82 295.11 665.3 297.22C683.82 302.45 699.53 299.02 720.5 296.73C738.67 294.73 760.14 288.3 773.62 273.27C774.935 271.781 776.038 270.119 776.9 268.33C778.652 270.885 780.929 273.036 783.58 274.64C783.69 274.81 783.28 274.69 783.41 274.81C790.14 280.52 797.49 279.06 804.06 274.26C814.658 266.209 821.648 254.298 823.51 241.12C826.03 221.47 825.58 188.12 807.65 174.38C801.57 169.71 790.35 168.91 783.24 172.89C780.48 165.46 774.36 159.96 767.81 155.98C753.81 147.44 729.03 143.48 730.33 122.18C730.71 115.96 732.33 110.09 728.57 103.84C725.26 98.32 720.69 96.84 714.57 97.38C701.42 98.43 691.68 110.16 687.35 121.68C679.18 143.45 683.55 172.91 686.16 177.09C685.46 176.68 661.6 167.86 645.69 174C638.69 176.7 631.63 187.55 630.1 195.59C628.94 201.5 630.29 209.55 634.43 213.59Z" fill="#D9CFFF"/>
<path d="M686 301.46C678.864 301.519 671.754 300.577 664.88 298.66C653.4 295.42 645.76 291.37 641.52 286.26C635.95 279.54 631.8 262.97 636.64 254.63L634.86 253C628.44 247 624.2 243.07 623.81 232.24C623.5 223.64 624.81 217.36 632.05 213.18C628.46 208.39 627.54 200.87 628.6 195.35C630.19 187.01 637.36 175.63 645.12 172.64C658 167.64 676.12 172.16 683.57 174.64C680.86 164.97 678.85 140.06 685.92 121.25C690.02 110.31 699.92 97.13 714.42 95.97C721.75 95.38 726.52 97.6 729.85 103.15C733.18 108.7 732.63 113.86 732.12 118.91C732.01 120.04 731.89 121.21 731.82 122.36C730.91 137.42 744.05 143.28 756.76 148.95C760.822 150.645 764.774 152.596 768.59 154.79C776.1 159.36 781.29 164.79 784.02 170.92C791.54 167.58 802.38 168.53 808.56 173.27C825.45 186.27 828.13 216.97 825 241.4C824.075 248.129 821.832 254.609 818.4 260.471C814.968 266.332 810.415 271.46 805 275.56C796.88 281.49 789.1 281.65 782.49 276.05L781.71 275.38V275.3C780.001 274.133 778.46 272.736 777.13 271.15C776.439 272.29 775.645 273.364 774.76 274.36C759.14 291.77 734.17 296.84 720.68 298.36C717.22 298.74 713.9 299.15 710.68 299.55C702 300.47 694 301.46 686 301.46ZM659 173.32C654.655 173.232 650.331 173.937 646.24 175.4C639.7 177.92 632.99 188.47 631.58 195.87C630.58 201.11 631.58 208.72 635.51 212.52L637 214L635.05 214.93C627.71 218.4 626.49 223.64 626.79 232.08C627.14 241.66 630.6 244.89 636.89 250.75C637.75 251.55 638.66 252.4 639.61 253.31L640.61 254.23L639.8 255.3C634.87 261.8 638.74 278.15 643.86 284.3C647.7 288.93 654.86 292.67 665.73 295.74C680.9 300.02 693.88 298.42 710.32 296.39C713.54 295.99 716.88 295.58 720.32 295.2C733.39 293.77 757.54 288.89 772.5 272.2C773.708 270.817 774.718 269.272 775.5 267.61L776.61 265.35L778.07 267.41C779.709 269.787 781.832 271.79 784.3 273.29L784.63 273.49L785.04 274.18C790.35 278.26 796.45 277.87 803.13 272.99C813 265.78 820.4 253.18 821.97 240.87C824.97 217.26 822.57 187.69 806.68 175.51C801.02 171.16 790.38 170.51 783.92 174.14L782.39 174.99L781.78 173.35C779.51 167.22 774.53 161.79 766.98 157.2C763.269 155.078 759.431 153.185 755.49 151.53C742.49 145.74 727.74 139.17 728.78 122.03C728.85 120.82 728.97 119.62 729.09 118.46C729.56 113.69 730.01 109.19 727.23 104.55C724.45 99.91 720.83 98.32 714.61 98.81C701.54 99.81 692.47 112.04 688.67 122.15C680.59 143.67 684.98 172.44 687.36 176.23L690.6 181.41L685.33 178.32C685.27 178.34 672.11 173.32 659 173.32Z" fill="#1D1E1B"/>
<path d="M783.19 172.54C783.19 172.54 806.25 219 776.77 268.27L783.19 172.54Z" fill="#D9CFFF"/>
<path d="M778.06 269L775.48 267.46C804.17 219.46 782.08 173.63 781.85 173.17L784.54 171.84C784.77 172.35 807.61 219.64 778.06 269Z" fill="#1D1E1B"/>
<path d="M695.71 174.46C695.058 174.459 694.425 174.245 693.905 173.852C693.385 173.459 693.008 172.907 692.83 172.28C686.11 148.6 691.37 131.9 696.96 122.06C703.08 111.31 710.82 106.25 711.14 106.06C711.8 105.72 712.563 105.636 713.281 105.826C713.999 106.016 714.622 106.466 715.027 107.088C715.433 107.71 715.593 108.461 715.477 109.195C715.362 109.928 714.978 110.593 714.4 111.06C713.27 111.79 686.94 129.51 698.6 170.62C698.708 171 698.74 171.397 698.695 171.789C698.649 172.181 698.527 172.56 698.335 172.905C698.142 173.249 697.884 173.552 697.574 173.797C697.265 174.042 696.91 174.223 696.53 174.33C696.264 174.413 695.988 174.456 695.71 174.46Z" fill="white"/>
<path d="M801.2 268.72C800.593 268.719 800 268.535 799.5 268.19C799.175 267.966 798.898 267.68 798.684 267.348C798.47 267.017 798.323 266.646 798.252 266.258C798.182 265.869 798.189 265.471 798.272 265.085C798.356 264.7 798.515 264.334 798.74 264.01C823.43 228.39 806.22 197.84 805.48 196.56C805.145 195.878 805.081 195.094 805.302 194.366C805.522 193.639 806.011 193.022 806.669 192.641C807.327 192.26 808.105 192.143 808.846 192.314C809.586 192.484 810.235 192.93 810.66 193.56C810.87 193.92 815.81 202.49 817.42 215.91C818.9 228.24 817.72 247.2 803.67 267.46C803.39 267.853 803.019 268.173 802.589 268.392C802.159 268.612 801.683 268.724 801.2 268.72Z" fill="white"/>
<path d="M728.78 325.16C724.201 325.229 719.635 324.646 715.22 323.43C714.832 323.322 714.47 323.138 714.155 322.887C713.84 322.636 713.578 322.325 713.386 321.971C713.194 321.617 713.075 321.229 713.036 320.828C712.998 320.427 713.04 320.023 713.161 319.639C713.282 319.255 713.479 318.899 713.74 318.593C714.001 318.287 714.321 318.036 714.681 317.856C715.041 317.676 715.434 317.57 715.836 317.545C716.237 317.52 716.64 317.576 717.02 317.71C727.647 320.254 738.805 319.398 748.92 315.26C749.289 315.097 749.686 315.011 750.089 315.005C750.492 315 750.892 315.076 751.265 315.228C751.639 315.381 751.977 315.607 752.261 315.893C752.545 316.179 752.768 316.52 752.917 316.894C753.066 317.269 753.138 317.669 753.129 318.072C753.12 318.475 753.03 318.872 752.864 319.24C752.698 319.607 752.46 319.937 752.164 320.21C751.868 320.484 751.519 320.694 751.14 320.83C744.03 323.682 736.441 325.152 728.78 325.16Z" fill="white"/>
<path d="M730.76 296.57C735.592 292.027 740.942 288.07 746.7 284.78C748.15 283.95 749.63 283.16 751.12 282.42C751.84 282.06 752.56 281.72 753.28 281.42C754 281.12 754.65 280.8 755.28 280.57C757.566 279.548 760.075 279.125 762.57 279.34C762.29 279.34 762.79 279.34 762.79 279.34L763.16 279.42C763.431 279.481 763.698 279.558 763.96 279.65C764.41 279.81 763.72 279.53 764.15 279.73L764.54 279.93L764.79 280.08C764.79 280.08 765.27 280.43 765.09 280.28C765.516 280.602 765.871 281.007 766.134 281.472C766.397 281.936 766.563 282.449 766.62 282.98C766.62 282.71 766.62 283.23 766.62 283.22C766.62 283.21 766.62 283.44 766.62 283.54C766.617 283.785 766.593 284.029 766.55 284.27C766.447 284.869 766.262 285.452 766 286C765.468 287.055 764.706 287.978 763.77 288.7C761.3 290.53 757.99 290.77 755.02 290.78C751.4 290.78 747.79 290.61 744.17 290.62C736.73 290.62 729.28 291.02 721.87 291.72C718.07 292.08 714.28 292.527 710.5 293.06C707.11 293.54 703.7 294.06 700.36 294.77C694.84 296.03 688.91 298.71 687.05 304.52C685.51 309.33 687.29 315.62 692.83 316.7C696.18 317.36 699.47 315.96 702.25 314.19C705.32 312.25 708.15 309.89 711.05 307.7L729.29 293.94L733.78 290.56C734.103 290.353 734.337 290.034 734.436 289.664C734.536 289.295 734.495 288.901 734.32 288.56C734.118 288.232 733.799 287.993 733.427 287.893C733.055 287.793 732.659 287.838 732.32 288.02L713.97 301.86L704.8 308.77C702.23 310.71 699.56 312.9 696.38 313.7C695.106 314.077 693.743 314.014 692.51 313.52C692.246 313.396 691.992 313.253 691.75 313.09C691.75 313.09 691.36 312.8 691.6 312.99L691.33 312.76C691.141 312.589 690.964 312.405 690.8 312.21C690.51 311.88 690.95 312.45 690.7 312.08C690.62 311.96 690.54 311.85 690.47 311.73C690.32 311.494 690.19 311.247 690.08 310.99C689.89 310.58 690.17 311.26 690.01 310.83C689.967 310.719 689.931 310.605 689.9 310.49C689.818 310.241 689.751 309.987 689.7 309.73C689.7 309.59 689.64 309.45 689.61 309.3C689.55 308.95 689.61 309.45 689.61 309.12C689.57 308.551 689.57 307.979 689.61 307.41C689.645 306.916 689.732 306.426 689.87 305.95C690.115 304.896 690.57 303.903 691.21 303.03C691.34 302.852 691.48 302.681 691.63 302.52C691.87 302.26 692.12 302.01 692.37 301.77C692.856 301.322 693.378 300.913 693.93 300.55C696.416 299.054 699.16 298.037 702.02 297.55C705.43 296.83 708.9 296.35 712.36 295.88C716.04 295.38 719.73 294.967 723.43 294.64C730.92 293.98 738.43 293.64 745.98 293.64C749.52 293.64 753.09 293.91 756.63 293.76C759.91 293.62 763.33 292.97 765.95 290.86C767.064 289.99 767.977 288.89 768.627 287.636C769.278 286.381 769.65 285.001 769.72 283.59C769.731 282.233 769.35 280.901 768.623 279.755C767.895 278.609 766.853 277.698 765.62 277.13C763.067 276.133 760.258 275.996 757.62 276.74C754.727 277.506 751.94 278.625 749.32 280.07C743.3 283.107 737.652 286.832 732.49 291.17C731.21 292.24 729.96 293.36 728.74 294.5C727.33 295.83 729.46 297.95 730.86 296.62L730.76 296.57Z" fill="black"/>
<path d="M751.82 328.07C754.45 327.32 756.97 328.67 758.72 330.59C759.736 331.772 760.504 333.145 760.978 334.63C761.452 336.114 761.623 337.678 761.48 339.23C761.11 346.64 756.23 352.75 753.06 359.14C750.14 365.05 748.4 372.2 751.46 378.43C752.036 379.531 752.749 380.556 753.58 381.48C753.77 381.69 753.94 381.92 754.12 382.14C754.3 382.36 754.4 382.5 754.2 382.24L754.62 382.79C755.8 384.36 756.94 385.97 758.08 387.57C760.807 391.43 763.493 395.32 766.14 399.24C768.416 402.419 770.509 405.724 772.41 409.14C778.04 419.87 780.41 432.2 780.93 444.22C781.517 457.019 779.894 469.823 776.13 482.07C775.677 483.49 775.197 484.9 774.69 486.3C774.585 486.685 774.637 487.095 774.835 487.441C775.033 487.787 775.36 488.04 775.745 488.145C776.129 488.25 776.54 488.197 776.886 488C777.232 487.802 777.485 487.475 777.59 487.09C781.956 474.77 784.126 461.78 784 448.71C784 435.98 781.93 423.01 776.75 411.32C774.9 407.331 772.702 403.512 770.18 399.91C767.553 396.01 764.887 392.133 762.18 388.28C760.11 385.143 757.884 382.113 755.51 379.2C751.28 374.29 752.61 367.04 755.11 361.67C758.24 354.92 763.11 348.87 764.21 341.31C764.861 337.724 764.268 334.023 762.53 330.82C760.994 328.069 758.447 326.025 755.43 325.12C753.961 324.747 752.42 324.764 750.96 325.17C750.606 325.302 750.315 325.562 750.143 325.898C749.971 326.234 749.932 326.622 750.032 326.986C750.133 327.35 750.366 327.663 750.685 327.864C751.005 328.064 751.389 328.138 751.76 328.07H751.82Z" fill="black"/>
<path d="M737.38 298.27C748.421 300.229 758.488 305.826 765.98 314.17C768.063 316.485 769.912 319.001 771.5 321.68C771.701 322.023 772.031 322.273 772.416 322.373C772.802 322.473 773.211 322.417 773.555 322.215C773.898 322.013 774.148 321.684 774.248 321.298C774.348 320.913 774.291 320.503 774.09 320.16C767.951 310.022 758.604 302.223 747.53 298C744.5 296.841 741.365 295.977 738.17 295.42C737.787 295.326 737.383 295.383 737.041 295.578C736.698 295.774 736.444 296.093 736.33 296.47C736.224 296.847 736.269 297.25 736.455 297.593C736.642 297.937 736.956 298.194 737.33 298.31L737.38 298.27Z" fill="black"/>
<path d="M662.46 222.72C644.82 222.72 633.54 214.96 633.06 214.63C632.734 214.402 632.511 214.054 632.442 213.662C632.373 213.27 632.462 212.866 632.69 212.54C632.918 212.214 633.266 211.992 633.658 211.922C634.05 211.853 634.454 211.942 634.78 212.17C634.89 212.25 646.26 220.05 663.55 219.71C663.948 219.702 664.332 219.852 664.619 220.128C664.906 220.404 665.072 220.782 665.08 221.18C665.088 221.578 664.937 221.963 664.662 222.249C664.386 222.536 664.008 222.702 663.61 222.71L662.46 222.72Z" fill="black"/>
<path d="M659.35 262.58C647.59 262.58 636.73 255.9 636.18 255.58C635.997 255.485 635.835 255.352 635.705 255.191C635.576 255.031 635.481 254.845 635.426 254.645C635.372 254.446 635.359 254.238 635.389 254.033C635.419 253.829 635.49 253.633 635.599 253.457C635.708 253.282 635.853 253.131 636.023 253.014C636.193 252.897 636.386 252.816 636.588 252.777C636.791 252.738 637 252.741 637.202 252.786C637.403 252.831 637.593 252.918 637.76 253.04C637.92 253.13 653.14 262.49 666.06 258.69C666.249 258.634 666.447 258.616 666.643 258.637C666.839 258.658 667.029 258.717 667.203 258.811C667.376 258.906 667.529 259.033 667.653 259.186C667.777 259.34 667.869 259.516 667.925 259.705C667.981 259.894 667.999 260.092 667.978 260.288C667.957 260.484 667.898 260.675 667.804 260.848C667.709 261.021 667.582 261.174 667.429 261.298C667.275 261.422 667.099 261.514 666.91 261.57C664.451 262.264 661.905 262.604 659.35 262.58Z" fill="black"/>
<path d="M642.52 210.74C642.102 210.736 641.69 210.646 641.309 210.473C640.929 210.301 640.588 210.051 640.31 209.74C636.76 205.87 635.25 201.56 635.79 196.94C637.02 186.68 648.4 178.89 648.88 178.56C649.208 178.339 649.577 178.186 649.964 178.107C650.352 178.029 650.752 178.028 651.14 178.104C651.528 178.18 651.897 178.332 652.227 178.551C652.556 178.77 652.839 179.052 653.06 179.38C653.28 179.708 653.434 180.077 653.512 180.465C653.591 180.852 653.592 181.252 653.516 181.64C653.439 182.028 653.288 182.397 653.069 182.727C652.85 183.056 652.568 183.339 652.24 183.56C652.14 183.63 642.64 190.16 641.75 197.7C641.42 200.54 642.39 203.16 644.75 205.7C645.135 206.131 645.388 206.663 645.477 207.234C645.567 207.805 645.49 208.389 645.256 208.917C645.021 209.445 644.639 209.895 644.156 210.211C643.672 210.527 643.108 210.697 642.53 210.7L642.52 210.74Z" fill="white"/>
<path d="M638.83 248.62C638.367 248.62 637.91 248.512 637.495 248.306C637.08 248.099 636.719 247.799 636.44 247.43C627.36 235.43 631.44 224.7 634.85 220.73C635.106 220.431 635.418 220.185 635.77 220.006C636.121 219.827 636.504 219.72 636.896 219.689C637.289 219.658 637.684 219.705 638.059 219.827C638.433 219.949 638.78 220.144 639.08 220.4C639.379 220.656 639.625 220.969 639.804 221.32C639.982 221.671 640.09 222.054 640.121 222.447C640.151 222.839 640.104 223.234 639.982 223.609C639.86 223.984 639.666 224.331 639.41 224.63C639.1 225 632.9 232.77 641.23 243.81C641.567 244.256 641.773 244.787 641.824 245.343C641.876 245.9 641.771 246.459 641.522 246.959C641.272 247.459 640.888 247.88 640.412 248.173C639.937 248.467 639.389 248.621 638.83 248.62Z" fill="white"/>
<path d="M653.85 288.61C653.201 288.61 652.569 288.399 652.05 288.01C644.05 282.01 640.12 276.43 640.28 271.37C640.308 270.057 640.642 268.769 641.254 267.608C641.867 266.447 642.742 265.444 643.81 264.68L647.1 269.68H647.17C646.881 269.925 646.65 270.232 646.496 270.578C646.342 270.925 646.268 271.301 646.28 271.68C646.28 273.03 647.19 276.87 655.65 283.22C656.154 283.598 656.526 284.124 656.713 284.725C656.901 285.327 656.895 285.971 656.696 286.569C656.497 287.166 656.115 287.686 655.604 288.054C655.093 288.422 654.479 288.62 653.85 288.62V288.61Z" fill="white"/>
<path d="M663.23 138C662.843 137.998 662.472 137.847 662.193 137.579C661.914 137.311 661.748 136.946 661.73 136.56C660.55 106.56 671.35 90.56 680.61 82.48C690.71 73.66 701 72.05 701.43 72C701.627 71.9711 701.828 71.9813 702.021 72.03C702.214 72.0787 702.395 72.1649 702.555 72.2838C702.715 72.4026 702.85 72.5518 702.952 72.7227C703.054 72.8937 703.121 73.083 703.15 73.28C703.179 73.477 703.169 73.6777 703.12 73.8708C703.071 74.0638 702.985 74.2454 702.866 74.4051C702.747 74.5648 702.598 74.6996 702.427 74.8016C702.256 74.9037 702.067 74.9711 701.87 75C694.651 76.5599 687.961 79.9717 682.46 84.9C669.97 95.9 663.83 113.74 664.73 136.49C664.738 136.687 664.707 136.884 664.639 137.069C664.571 137.254 664.467 137.424 664.333 137.569C664.2 137.713 664.039 137.831 663.86 137.913C663.681 137.996 663.487 138.042 663.29 138.05L663.23 138Z" fill="#1D1D1B"/>
<path d="M811.63 146.28C818.5 144.78 825.73 147.66 830.88 152.28C836.52 157.28 840.05 164.28 842.71 171.19C845.662 178.947 847.876 186.966 849.32 195.14C850.765 203.269 851.455 211.514 851.38 219.77C851.316 228.061 850.472 236.327 848.86 244.46C848.66 245.46 848.45 246.46 848.22 247.46C848.167 247.65 848.153 247.849 848.177 248.045C848.201 248.241 848.264 248.431 848.362 248.602C848.459 248.774 848.59 248.925 848.745 249.047C848.901 249.168 849.079 249.257 849.27 249.31C849.46 249.363 849.659 249.377 849.855 249.353C850.051 249.328 850.24 249.266 850.412 249.168C850.584 249.071 850.735 248.94 850.856 248.784C850.978 248.629 851.067 248.45 851.12 248.26C852.994 239.827 854.065 231.235 854.32 222.6C854.566 213.966 854.003 205.329 852.64 196.8C851.302 188.347 849.155 180.042 846.23 172C843.5 164.51 840.01 157.05 834.32 151.33C829.02 146 821.42 142.27 813.76 142.91C812.778 142.988 811.802 143.132 810.84 143.34C810.649 143.392 810.471 143.481 810.315 143.602C810.159 143.722 810.028 143.873 809.93 144.044C809.832 144.215 809.769 144.404 809.744 144.6C809.719 144.796 809.733 144.995 809.785 145.185C809.837 145.375 809.926 145.554 810.046 145.71C810.167 145.866 810.317 145.997 810.489 146.095C810.66 146.193 810.849 146.256 811.045 146.281C811.241 146.306 811.439 146.292 811.63 146.24V146.28Z" fill="#1D1D1B"/>
<path d="M759.14 465.84C759.14 465.84 733.77 474.21 730.21 508.03C726.65 541.85 721.71 574.48 721.71 574.48L774.13 572.23L759.14 465.84Z" fill="#FFCDB2"/>
<path d="M720 576.06L720.27 574.26C720.27 573.93 725.27 541.26 728.77 507.88C732.39 473.49 758.46 464.5 758.72 464.41L760.42 463.85L775.9 573.66L720 576.06ZM758 467.94C752.37 470.44 734.7 480.44 731.79 508.19C728.74 537.19 724.62 565.6 723.54 572.91L772.54 570.81L758 467.94Z" fill="#1D1D1B"/>
<path d="M767.13 571.91C767.13 571.91 797.88 577.3 809.52 546.37C821.16 515.44 822.32 483.16 805.22 464.16C788.12 445.16 768.17 444.31 755.22 450.67C742.27 457.03 740.22 471.36 751.38 485.93C751.38 485.93 731.38 501.19 752.52 525.66C752.52 525.66 731.57 559.92 767.52 558.99L767.13 571.91Z" fill="#FFCDB2"/>
<path d="M818.07 498.74C818.84 513.58 815.62 530.16 809.52 546.37C797.88 577.3 767.13 571.91 767.13 571.91L767.55 558.99C751.66 559.4 746.88 552.99 746.55 545.6C746.06 536.34 752.55 525.66 752.55 525.66C745.7 517.76 743.16 510.81 742.86 505.03C742.23 492.92 751.41 485.93 751.41 485.93C746.81 479.93 744.46 473.99 744.18 468.62C743.78 460.93 747.63 454.42 755.25 450.67C768.18 444.31 788.12 445.16 805.25 464.16C813.39 473.16 817.39 485.26 818.1 498.74H818.07ZM820.65 498.61C819.87 483.7 815.32 471.54 807.14 462.45C798.96 453.36 789.31 447.45 779.21 445.4C770.751 443.608 761.937 444.662 754.14 448.4C745.74 452.53 741.14 459.96 741.65 468.78C741.93 474.21 744.13 479.99 748.02 485.6C745.444 488.149 743.429 491.209 742.104 494.582C740.78 497.956 740.176 501.569 740.33 505.19C740.69 511.99 743.76 518.97 749.47 525.97C747.59 529.45 743.56 537.97 743.97 545.76C744.35 552.87 748.36 561.18 764.97 561.57L764.64 571.85V572C764.67 572.578 764.894 573.129 765.278 573.564C765.661 573.998 766.18 574.289 766.75 574.39C772.755 575.193 778.86 574.774 784.7 573.16C793.61 570.7 805.58 564.16 811.97 547.23C818.44 530.06 821.45 513.23 820.68 498.57L820.65 498.61Z" fill="black"/>
<path d="M797.15 494.51C796.753 494.506 796.373 494.349 796.09 494.07C795.38 493.36 778.25 476.72 752.35 487.2C751.981 487.35 751.568 487.347 751.202 487.192C750.835 487.038 750.545 486.744 750.395 486.375C750.245 486.006 750.248 485.593 750.402 485.227C750.557 484.86 750.851 484.57 751.22 484.42C779.01 473.18 798.03 491.76 798.22 491.95C798.429 492.16 798.572 492.427 798.63 492.718C798.688 493.009 798.658 493.31 798.544 493.584C798.431 493.858 798.239 494.092 797.993 494.257C797.746 494.422 797.456 494.51 797.16 494.51H797.15Z" fill="#1D1D1B"/>
<path d="M789.31 527.47C789.168 527.47 789.026 527.45 788.89 527.41C788.67 527.34 766.89 521.15 753.56 527.32C753.198 527.487 752.784 527.504 752.41 527.366C752.036 527.228 751.732 526.947 751.565 526.585C751.398 526.223 751.381 525.809 751.519 525.435C751.657 525.061 751.938 524.757 752.3 524.59C766.67 517.96 788.79 524.25 789.73 524.53C790.076 524.631 790.375 524.854 790.571 525.157C790.766 525.461 790.846 525.825 790.795 526.182C790.744 526.54 790.565 526.867 790.293 527.103C790.02 527.34 789.671 527.47 789.31 527.47Z" fill="#1D1D1B"/>
<path d="M808 483C807.394 483 806.802 482.817 806.302 482.474C805.802 482.131 805.418 481.645 805.2 481.08C805.1 480.81 799.2 465.96 785.2 459.85C776.52 456.04 766.45 456.33 755.28 460.72C754.539 461.01 753.712 460.994 752.983 460.676C752.253 460.357 751.68 459.761 751.39 459.02C751.1 458.279 751.115 457.452 751.434 456.723C751.753 455.993 752.349 455.42 753.09 455.13C765.83 450.13 777.46 449.88 787.67 454.38C803.97 461.56 810.52 478.22 810.79 478.92C810.93 479.292 810.995 479.688 810.981 480.086C810.966 480.483 810.873 480.873 810.707 481.235C810.54 481.596 810.304 481.92 810.011 482.189C809.718 482.457 809.374 482.665 809 482.8C808.68 482.92 808.342 482.988 808 483Z" fill="white"/>
<path d="M479.1 541.47C479.1 541.47 511.02 694.47 640.53 751.77C738.04 794.95 733.38 785.86 770.43 758.39C802.86 734.39 849.12 640.75 838.52 612.74C827.92 584.73 806.62 587 806.62 587L803 564.6L724 560.38L723.1 575.69C723.1 575.69 693.71 585.17 695.4 612.86C697.09 640.55 692.92 678.38 701.35 692.05C701.35 692.05 672.04 582.21 501.22 558.43" fill="#FFAD00"/>
<path d="M727.5 783.09C711.62 783.09 688.07 774.46 639.92 753.15C572.63 723.35 532.09 667.46 509.92 625.82C485.92 580.75 477.71 542.16 477.63 541.77L480.56 541.16C480.64 541.54 488.8 579.78 512.61 624.49C534.54 665.69 574.61 720.97 641.12 750.4C728.41 789.05 732.59 785.79 759.81 764.62C762.69 762.38 765.94 759.85 769.53 757.19C784.53 746.11 804 718.32 819.25 686.41C834.92 653.61 841.76 625.58 837.1 613.27C827 586.66 807 588.49 806.78 588.5L805.37 588.66L801.67 566L725.35 562L724.48 576.84L723.48 577.15C722.33 577.53 695.22 586.63 696.82 612.81C697.37 621.67 697.31 631.67 697.25 641.33C697.17 656.33 697.08 671.73 699.32 682.33C700.649 685.389 701.785 688.528 702.72 691.73L705.35 701.58L700 692.84C698.324 689.902 697.138 686.71 696.49 683.39C692.02 672.88 682.42 654.5 664.05 635.05C638.05 607.51 588.64 572.12 500.94 559.91L501.35 556.91C540.48 562.36 575.41 572.81 605.16 587.97C629 600.12 649.59 615.3 666.36 633.1C677.722 644.998 687.362 658.429 695 673C694.17 663.69 694.23 652.65 694.29 641.28C694.35 631.67 694.4 621.73 693.87 612.96C692.3 587.38 716.41 576.64 721.62 574.63L722.55 558.82L804.26 563.17L807.91 585.49C813.03 585.57 830.65 587.69 839.91 612.22C844.91 625.47 838.21 653.69 821.91 687.71C806.47 720.04 786.59 748.26 771.28 759.61C767.72 762.25 764.47 764.77 761.62 766.99C748.92 776.9 741 783.09 727.5 783.09Z" fill="#1D1D1B"/>
<path d="M403.67 478.36C403.67 478.36 400.37 517.91 372.43 509.36C344.49 500.81 299.94 490.22 283.26 531.68C266.58 573.14 259.11 602.33 227.66 601.28C196.21 600.23 156.5 694.9 240.51 721.8C378.18 765.89 478.81 517.05 478.81 517.05L454.06 495.05L403.67 478.36Z" fill="#6C32AD"/>
<path d="M403.67 478.36L454.06 495.12L478.81 517.12C478.81 517.12 396 721.78 277.9 727C265.23 727.528 252.567 725.787 240.51 721.86C157.58 695.3 195.21 602.71 226.44 601.35C226.85 601.35 227.25 601.35 227.66 601.35C228.89 601.35 230.08 601.35 231.25 601.35C259.7 600.1 267.25 571.59 283.25 531.76C292.09 509.76 308.76 502.44 326.63 501.66C342.49 500.97 359.29 505.43 372.42 509.44C375.118 510.311 377.946 510.713 380.78 510.63C401.05 509.74 403.66 478.42 403.66 478.42L403.67 478.36ZM403.55 475.89C403.089 475.908 402.643 476.054 402.26 476.31C401.94 476.521 401.672 476.801 401.476 477.13C401.281 477.459 401.162 477.828 401.13 478.21C401.13 478.6 398.43 507.31 380.67 508.09C378.124 508.158 375.585 507.796 373.16 507.02C359.09 502.72 342.54 498.43 326.52 499.13C304.32 500.13 288.97 510.76 280.9 530.82C279.06 535.38 277.34 539.82 275.68 544.04C263.03 576.4 254.68 597.78 231.13 598.81C230.03 598.81 228.89 598.87 227.73 598.81C227.27 598.81 226.79 598.81 226.32 598.81C218.09 599.17 209.51 604.9 202.17 614.93C194.747 625.349 190.001 637.434 188.35 650.12C186.27 665.62 189.01 680.28 196.26 692.51C204.91 707.12 219.54 717.81 239.72 724.27C252.069 728.267 265.031 730.034 278 729.49C305.51 728.28 333.34 716.32 360.72 693.94C382.47 676.16 404.01 651.79 424.72 621.5C446.784 588.875 465.683 554.217 481.16 518C481.354 517.514 481.395 516.979 481.275 516.469C481.155 515.959 480.881 515.499 480.49 515.15L455.75 493.2C455.488 492.975 455.186 492.802 454.86 492.69L404.47 476C404.177 475.903 403.869 475.859 403.56 475.87L403.55 475.89Z" fill="black"/>
<path d="M454.06 495.12L403.67 478.36C403.67 478.36 402 497.85 391.4 506.52L427.13 540.82C427.13 540.82 382.18 569.65 365.21 602.73C353.81 624.97 310.34 724.73 340.06 705.81C366.48 689 390 664.14 409.84 637.89C430.41 585.64 454.13 525.32 462.84 502.89L454.06 495.12Z" fill="#59298F"/>
<path d="M630.07 681.41C703.59 773 695.86 914 695.86 914H323.66C323.66 914 327.05 550.16 477.36 556.53" fill="#FFAD00"/>
<path d="M695.86 915.49H323.66C323.461 915.491 323.264 915.453 323.081 915.377C322.897 915.302 322.73 915.191 322.59 915.05C322.451 914.909 322.341 914.742 322.267 914.558C322.193 914.375 322.157 914.178 322.16 913.98C323.238 868.635 327.246 823.408 334.16 778.58C340.78 736.28 349.69 699.1 360.66 668.09C374.41 629.21 391.45 599.93 411.32 581.09C430.62 562.77 452.87 554.02 477.46 555.09C477.656 555.098 477.85 555.144 478.028 555.227C478.207 555.31 478.367 555.427 478.5 555.572C478.633 555.717 478.736 555.887 478.803 556.072C478.87 556.257 478.899 556.454 478.89 556.65C478.847 557.035 478.659 557.39 478.363 557.641C478.067 557.892 477.687 558.02 477.3 558C453.56 557 432.04 565.48 413.36 583.22C369.07 625.22 347.44 712.89 337.1 778.99C330.314 823.187 326.333 867.77 325.18 912.47H694.42C695.028 885.612 693.214 858.753 689 832.22C682.41 789.82 666.62 729.4 628.86 682.35C628.611 682.04 628.495 681.643 628.538 681.247C628.581 680.852 628.78 680.489 629.09 680.24C629.4 679.991 629.797 679.875 630.192 679.918C630.588 679.961 630.951 680.16 631.2 680.47C669.43 728.05 685.37 789 692 831.83C699.2 878.14 697.36 913.72 697.34 914.08C697.319 914.459 697.155 914.817 696.88 915.079C696.605 915.341 696.24 915.488 695.86 915.49Z" fill="#1D1D1B"/>
<path d="M450.19 420.33C469.896 420.33 485.87 404.356 485.87 384.65C485.87 364.944 469.896 348.97 450.19 348.97C430.484 348.97 414.51 364.944 414.51 384.65C414.51 404.356 430.484 420.33 450.19 420.33Z" fill="#6C32AD"/>
<path d="M443.38 349.62C451.155 348.1 459.215 349.21 466.29 352.776C473.365 356.341 479.052 362.159 482.456 369.313C485.859 376.467 486.786 384.55 485.09 392.289C483.393 400.028 479.17 406.982 473.086 412.056C467.002 417.13 459.402 420.036 451.484 420.315C443.567 420.594 435.782 418.23 429.355 413.597C422.929 408.964 418.227 402.324 415.99 394.724C413.753 387.124 414.108 378.996 417 371.62C419.183 366.024 422.746 361.073 427.359 357.226C431.972 353.379 437.483 350.762 443.38 349.62ZM442.89 347.13C433.85 348.868 425.739 353.808 420.049 361.045C414.358 368.281 411.469 377.327 411.912 386.523C412.355 395.718 416.1 404.445 422.46 411.1C428.82 417.756 437.367 421.895 446.533 422.755C455.698 423.616 464.867 421.141 472.354 415.785C479.842 410.43 485.146 402.553 487.293 393.601C489.44 384.649 488.286 375.223 484.042 367.053C479.797 358.884 472.749 352.52 464.19 349.13C457.427 346.442 450.035 345.748 442.89 347.13Z" fill="black"/>
<path d="M559.59 486C559.59 486 582.32 462.29 569.76 441.07C557.2 419.85 551.59 422.3 545.7 410.68C539.81 399.06 517.07 388.96 497.84 396.49C497.84 396.49 471.65 380.37 450.01 388.11C428.37 395.85 421.61 407.11 416.88 425.03C412.15 442.95 406.59 451.19 402.88 463.66C399.17 476.13 394.98 510.56 444.34 531.13C493.7 551.7 559.59 486 559.59 486Z" fill="#6C32AD"/>
<path d="M455 386.69C475.46 382.69 497.8 396.44 497.8 396.44C499.878 395.624 502.027 395.002 504.22 394.58C521.81 391.14 540.42 400.29 545.66 410.63C551.55 422.25 557.15 419.81 569.72 441.02C582.29 462.23 559.59 486 559.59 486C559.59 486 519.73 525.72 478.79 533.73C467.08 536.02 455.28 535.73 444.3 531.13C394.94 510.56 399.09 476.13 402.84 463.66C406.59 451.19 412.16 442.93 416.84 425.03C421.52 407.13 428.33 395.86 449.97 388.11C451.601 387.531 453.272 387.073 454.97 386.74L455 386.69ZM454.48 384.25C452.648 384.605 450.846 385.1 449.09 385.73C426.44 393.83 419.2 406.04 414.36 424.39C412.189 432.465 409.394 440.358 406 448C403.851 452.845 401.974 457.806 400.38 462.86C397.202 473.441 397.503 484.763 401.24 495.16C407.18 511.38 421.33 524.25 443.29 533.41C453.88 537.82 465.98 538.74 479.29 536.15C500.89 531.92 522.08 518.97 536.04 508.85C544.979 502.419 553.451 495.361 561.39 487.73C565.512 483.187 568.963 478.079 571.64 472.56C577.4 460.56 577.5 449.19 571.91 439.75C564.75 427.67 559.75 423.02 555.73 419.28C552.61 416.37 550.35 414.28 547.93 409.51C542.25 398.3 522.71 388.4 503.74 392.11C501.808 392.488 499.906 393.006 498.05 393.66C493.2 390.9 473.35 380.54 454.52 384.22L454.48 384.25Z" fill="black"/>
<path d="M469.77 470H469.65C453.83 471.64 437.02 457.75 436.32 457.16C436.085 456.938 435.943 456.636 435.923 456.313C435.903 455.99 436.007 455.672 436.214 455.424C436.42 455.175 436.714 455.015 437.034 454.975C437.355 454.935 437.679 455.019 437.94 455.21C438.11 455.35 454.64 469.01 469.39 467.48C469.706 467.462 470.017 467.563 470.262 467.762C470.507 467.961 470.67 468.245 470.717 468.557C470.765 468.87 470.694 469.189 470.519 469.452C470.344 469.715 470.077 469.903 469.77 469.98V470Z" fill="black"/>
<path d="M468.64 459C465.103 459.677 461.489 459.869 457.9 459.57C457.565 459.544 457.253 459.387 457.034 459.132C456.814 458.877 456.705 458.545 456.73 458.21C456.741 458.044 456.786 457.882 456.861 457.733C456.935 457.584 457.039 457.452 457.166 457.344C457.293 457.236 457.44 457.154 457.598 457.104C457.757 457.053 457.924 457.035 458.09 457.05C489.3 459.36 495.86 427.3 496.09 425.93C496.169 425.616 496.366 425.344 496.64 425.17C496.913 424.996 497.243 424.933 497.562 424.994C497.88 425.056 498.163 425.237 498.352 425.5C498.542 425.763 498.623 426.089 498.58 426.41C498.56 426.77 493 454.29 468.64 459Z" fill="white"/>
<path d="M503.8 545.49C503.8 545.49 568.96 593.42 485.26 594.49C485.26 594.49 471.85 623.82 440.88 612.49C409.91 601.16 419.58 572.33 439.37 563.14C456.53 555.25 503.8 545.49 503.8 545.49Z" fill="white"/>
<path d="M458.61 616.15C452.448 616.829 446.214 616.006 440.44 613.75C427.52 609.03 420.16 600.75 419.72 590.35C419.24 579.14 427.1 567.51 438.83 562.06C455.93 554.13 501.61 544.65 503.54 544.25C503.713 544.217 503.891 544.22 504.063 544.257C504.234 544.295 504.397 544.368 504.54 544.47C505.72 545.35 533.54 566 528.64 581.21C525.64 590.45 511.34 595.36 486.04 595.79C484.21 599.26 475.46 614 458.61 616.15ZM503.49 546.85C498.11 548 455.73 557 439.9 564.36C429.25 569.31 421.83 580.19 422.25 590.25C422.64 599.52 429.41 607.02 441.31 611.37C453.7 615.89 464.66 614.37 473.88 606.8C478.13 603.278 481.612 598.922 484.11 594C484.21 593.781 484.371 593.596 484.573 593.465C484.775 593.334 485.009 593.263 485.25 593.26C509.47 592.94 523.64 588.5 526.25 580.43C530.25 567.91 507 549.56 503.49 546.85Z" fill="black"/>
<path d="M409.13 358C408.988 358.025 408.842 358.025 408.7 358C408.367 357.951 408.068 357.771 407.867 357.501C407.667 357.231 407.581 356.893 407.63 356.56C408.91 347.97 412.55 341.43 418.44 337.11C428.8 329.5 442.32 331.53 442.88 331.62C443.056 331.632 443.227 331.68 443.383 331.762C443.539 331.843 443.677 331.956 443.787 332.094C443.897 332.232 443.977 332.391 444.022 332.561C444.068 332.731 444.077 332.909 444.05 333.083C444.023 333.257 443.96 333.423 443.865 333.572C443.77 333.72 443.645 333.847 443.498 333.945C443.351 334.042 443.186 334.108 443.013 334.138C442.839 334.169 442.661 334.162 442.49 334.12C442.36 334.12 429.42 332.18 419.92 339.12C414.61 343.03 411.32 349.01 410.14 356.89C410.111 357.158 409.998 357.411 409.817 357.61C409.635 357.81 409.395 357.946 409.13 358Z" fill="black"/>
<path d="M725.08 576.93C725.08 576.93 743.91 611.11 806.27 588.44L802.12 566.44L726.51 562.21L725.08 576.93Z" fill="#E89D00"/>
<path d="M422.19 377.86C421.965 377.902 421.734 377.886 421.518 377.813C421.301 377.74 421.107 377.612 420.955 377.442C420.802 377.273 420.696 377.066 420.646 376.844C420.596 376.621 420.604 376.389 420.67 376.17C423.53 366.99 428.4 360.76 435.17 357.68C446.17 352.68 457.93 357.75 458.43 357.97C458.589 358.04 458.732 358.14 458.853 358.265C458.973 358.39 459.067 358.538 459.13 358.699C459.193 358.861 459.224 359.033 459.221 359.207C459.217 359.38 459.179 359.551 459.11 359.71C459.04 359.869 458.94 360.013 458.815 360.133C458.69 360.253 458.542 360.347 458.381 360.41C458.219 360.474 458.047 360.504 457.873 360.501C457.7 360.497 457.529 360.46 457.37 360.39C457.26 360.34 446.11 355.58 436.25 360.09C430.25 362.86 425.82 368.53 423.2 376.95C423.129 377.179 422.998 377.384 422.82 377.544C422.642 377.704 422.425 377.813 422.19 377.86Z" fill="white"/>
<path d="M499 547.43L501.72 561.34C501.72 561.34 484.72 602.23 432.5 581.61C432.5 581.61 448.85 544.47 453.45 503.29C453.45 503.29 435.37 501.98 435.89 485.92C436.41 469.86 448.62 465.37 456.67 468.54C456.67 468.54 488.67 484.63 509.61 419.66C509.61 419.66 542.38 427.92 553.39 458.98C564.4 490.04 563.39 527.98 540.39 542.17C517.39 556.36 499 547.43 499 547.43Z" fill="#FFCDB2"/>
<path d="M509.61 419.66C509.61 419.66 542.38 427.92 553.39 458.98C564.4 490.04 563.39 527.98 540.39 542.17C534.91 545.616 528.853 548.045 522.51 549.34C508.51 552.07 499 547.43 499 547.43L501.72 561.34C501.72 561.34 493.15 581.9 469.56 586.51C459.88 588.4 447.68 587.61 432.5 581.61C432.5 581.61 448.85 544.47 453.45 503.29C453.45 503.29 435.37 501.98 435.89 485.92C436.25 474.68 442.34 469.11 448.72 467.86C451.381 467.324 454.139 467.56 456.67 468.54C461.077 470.381 465.942 470.828 470.61 469.82C481.79 467.63 497.54 457.13 509.61 419.66ZM509.13 417.17C508.684 417.259 508.27 417.465 507.931 417.767C507.592 418.07 507.339 418.457 507.2 418.89C495.49 455.22 480.58 465.29 470.13 467.33C466.006 468.208 461.714 467.839 457.8 466.27L457.6 466.18C454.616 465.03 451.367 464.75 448.23 465.37C441.31 466.72 433.77 472.81 433.35 485.83C433.119 489.334 433.943 492.826 435.717 495.857C437.491 498.887 440.132 501.316 443.3 502.83C445.617 504.018 448.087 504.879 450.64 505.39C445.79 544.73 430.34 580.19 430.18 580.55C430.04 580.862 429.966 581.199 429.96 581.541C429.955 581.883 430.019 582.222 430.149 582.538C430.279 582.855 430.472 583.141 430.717 583.38C430.961 583.62 431.251 583.807 431.57 583.93C445.67 589.5 458.62 591.19 470.05 588.93C494.68 584.11 503.69 563.14 504.05 562.25C504.239 561.784 504.291 561.274 504.2 560.78L502.32 551.2C509.077 552.959 516.147 553.151 522.99 551.76C529.629 550.403 535.97 547.862 541.71 544.26C553.09 537.26 560.16 524.41 562.16 507.13C563.9 492.03 561.63 474.6 555.77 458.06C551.08 444.81 541.71 433.54 528.7 425.45C522.965 421.818 516.743 419.019 510.22 417.14C509.858 417.061 509.482 417.061 509.12 417.14L509.13 417.17Z" fill="black"/>
<path d="M500 550C499.864 550.025 499.725 550.025 499.59 550C484.52 548 471.36 535.16 470.81 534.62C470.675 534.507 470.566 534.368 470.488 534.21C470.41 534.053 470.366 533.881 470.357 533.706C470.349 533.531 470.377 533.356 470.44 533.192C470.503 533.028 470.6 532.879 470.723 532.754C470.846 532.629 470.994 532.531 471.157 532.466C471.321 532.402 471.495 532.372 471.671 532.378C471.846 532.384 472.019 532.426 472.177 532.503C472.335 532.579 472.476 532.687 472.59 532.82C472.72 532.94 485.71 545.64 499.92 547.48C500.252 547.525 500.553 547.699 500.758 547.965C500.962 548.231 501.052 548.567 501.01 548.9C500.982 549.168 500.869 549.419 500.687 549.617C500.505 549.816 500.264 549.95 500 550Z" fill="black"/>
<path d="M452.44 495.91C452.213 495.953 451.979 495.933 451.763 495.854C451.546 495.775 451.355 495.639 451.21 495.46C446.9 490.16 445.39 485.46 446.72 481.57C448.65 475.92 455.72 474.2 456.02 474.13C456.341 474.07 456.672 474.137 456.946 474.315C457.219 474.494 457.413 474.771 457.488 475.088C457.563 475.406 457.512 475.741 457.347 476.022C457.181 476.304 456.914 476.51 456.6 476.6C456.52 476.6 450.6 478.08 449.12 482.39C448.12 485.39 449.46 489.29 453.18 493.86C453.316 494.031 453.406 494.234 453.441 494.449C453.477 494.665 453.456 494.886 453.382 495.092C453.308 495.297 453.183 495.48 453.018 495.623C452.853 495.767 452.654 495.865 452.44 495.91Z" fill="black"/>
<path d="M517.52 467.16C499.8 472.04 475.15 465.59 471.37 472.23C467.59 478.87 471.25 487.29 481.1 488.84C490.95 490.39 500.57 489.54 520.23 486.84C539.89 484.14 559 480 556.08 469.56C553.16 459.12 543.58 460 517.52 467.16Z" fill="#FFB49F"/>
<path d="M446.2 509.57C449.425 509.57 452.04 506.955 452.04 503.73C452.04 500.505 449.425 497.89 446.2 497.89C442.975 497.89 440.36 500.505 440.36 503.73C440.36 506.955 442.975 509.57 446.2 509.57Z" fill="#FFAD00"/>
<path d="M445.08 498C446.173 497.781 447.305 497.886 448.34 498.3C449.513 498.763 450.505 499.593 451.167 500.666C451.83 501.739 452.127 502.998 452.014 504.254C451.902 505.51 451.386 506.696 450.543 507.634C449.7 508.573 448.577 509.213 447.34 509.46C446.25 509.678 445.121 509.574 444.09 509.16C442.911 508.703 441.912 507.875 441.244 506.8C440.577 505.726 440.277 504.463 440.39 503.204C440.503 501.944 441.022 500.755 441.87 499.816C442.718 498.878 443.848 498.24 445.09 498H445.08ZM444.6 495.51C442.62 495.896 440.846 496.983 439.604 498.572C438.361 500.16 437.733 502.144 437.835 504.158C437.936 506.172 438.761 508.082 440.158 509.537C441.554 510.993 443.429 511.895 445.437 512.08C447.446 512.264 449.453 511.718 451.092 510.542C452.73 509.366 453.889 507.638 454.356 505.676C454.823 503.714 454.567 501.649 453.635 499.861C452.702 498.072 451.156 496.68 449.28 495.94C447.793 495.352 446.169 495.203 444.6 495.51Z" fill="black"/>
<path d="M539.31 479.37C541.138 479.37 542.62 477.888 542.62 476.06C542.62 474.232 541.138 472.75 539.31 472.75C537.482 472.75 536 474.232 536 476.06C536 477.888 537.482 479.37 539.31 479.37Z" fill="black"/>
<path d="M493.34 485.11C495.168 485.11 496.65 483.628 496.65 481.8C496.65 479.972 495.168 478.49 493.34 478.49C491.512 478.49 490.03 479.972 490.03 481.8C490.03 483.628 491.512 485.11 493.34 485.11Z" fill="black"/>
<path d="M439.87 577.7C439.569 577.763 439.256 577.713 438.99 577.56C438.7 577.389 438.488 577.11 438.402 576.784C438.316 576.459 438.362 576.112 438.53 575.82C448.39 558.82 455.22 525.1 455.29 524.76C455.36 524.434 455.556 524.149 455.835 523.966C456.114 523.784 456.454 523.718 456.781 523.784C457.108 523.849 457.396 524.041 457.583 524.317C457.77 524.594 457.84 524.932 457.78 525.26C457.5 526.66 450.78 559.74 440.78 577.1C440.683 577.262 440.551 577.4 440.394 577.504C440.236 577.608 440.057 577.675 439.87 577.7Z" fill="white"/>
<path d="M509.08 530.22H509C500.17 530.15 493.29 521.76 493 521.41C492.749 521.101 492.632 520.705 492.673 520.309C492.714 519.914 492.911 519.551 493.22 519.3C493.529 519.049 493.925 518.932 494.32 518.973C494.716 519.014 495.079 519.211 495.33 519.52C495.4 519.59 501.64 527.17 509.04 527.22H509.12C512.78 527.22 516.21 525.34 519.31 521.63C519.437 521.479 519.592 521.354 519.767 521.263C519.942 521.172 520.133 521.117 520.329 521.099C520.525 521.082 520.723 521.104 520.911 521.163C521.099 521.223 521.274 521.318 521.425 521.445C521.576 521.572 521.7 521.727 521.792 521.902C521.883 522.077 521.938 522.268 521.955 522.464C521.973 522.661 521.951 522.858 521.892 523.046C521.832 523.234 521.737 523.409 521.61 523.56C517.87 528 513.67 530.22 509.08 530.22Z" fill="#1D1D1B"/>
<path d="M374.22 890.43C378.031 890.43 381.12 887.341 381.12 883.53C381.12 879.719 378.031 876.63 374.22 876.63C370.409 876.63 367.32 879.719 367.32 883.53C367.32 887.341 370.409 890.43 374.22 890.43Z" fill="#FFC140"/>
<path d="M362.35 787.8C366.161 787.8 369.25 784.711 369.25 780.9C369.25 777.089 366.161 774 362.35 774C358.539 774 355.45 777.089 355.45 780.9C355.45 784.711 358.539 787.8 362.35 787.8Z" fill="#FFC140"/>
<path d="M506.53 794.59C510.341 794.59 513.43 791.501 513.43 787.69C513.43 783.879 510.341 780.79 506.53 780.79C502.719 780.79 499.63 783.879 499.63 787.69C499.63 791.501 502.719 794.59 506.53 794.59Z" fill="#FFC140"/>
<path d="M471.75 845.47C475.561 845.47 478.65 842.381 478.65 838.57C478.65 834.759 475.561 831.67 471.75 831.67C467.939 831.67 464.85 834.759 464.85 838.57C464.85 842.381 467.939 845.47 471.75 845.47Z" fill="#FFC140"/>
<path d="M588.98 902.44C593.282 902.44 596.77 898.952 596.77 894.65C596.77 890.348 593.282 886.86 588.98 886.86C584.678 886.86 581.19 890.348 581.19 894.65C581.19 898.952 584.678 902.44 588.98 902.44Z" fill="#FFC140"/>
<path d="M656.65 823.42C660.461 823.42 663.55 820.331 663.55 816.52C663.55 812.709 660.461 809.62 656.65 809.62C652.839 809.62 649.75 812.709 649.75 816.52C649.75 820.331 652.839 823.42 656.65 823.42Z" fill="#FFC140"/>
<path d="M607.45 729.28C611.261 729.28 614.35 726.191 614.35 722.38C614.35 718.569 611.261 715.48 607.45 715.48C603.639 715.48 600.55 718.569 600.55 722.38C600.55 726.191 603.639 729.28 607.45 729.28Z" fill="#FFC140"/>
<path d="M701.6 751.33C705.411 751.33 708.5 748.241 708.5 744.43C708.5 740.619 705.411 737.53 701.6 737.53C697.789 737.53 694.7 740.619 694.7 744.43C694.7 748.241 697.789 751.33 701.6 751.33Z" fill="#FFC140"/>
<path d="M624.97 670.43C628.781 670.43 631.87 667.341 631.87 663.53C631.87 659.719 628.781 656.63 624.97 656.63C621.159 656.63 618.07 659.719 618.07 663.53C618.07 667.341 621.159 670.43 624.97 670.43Z" fill="#FFC140"/>
<path d="M705.55 673.75C709.361 673.75 712.45 670.661 712.45 666.85C712.45 663.039 709.361 659.95 705.55 659.95C701.739 659.95 698.65 663.039 698.65 666.85C698.65 670.661 701.739 673.75 705.55 673.75Z" fill="#FFC140"/>
<path d="M511.62 648.71C515.431 648.71 518.52 645.621 518.52 641.81C518.52 637.999 515.431 634.91 511.62 634.91C507.809 634.91 504.72 637.999 504.72 641.81C504.72 645.621 507.809 648.71 511.62 648.71Z" fill="#FFC140"/>
<path d="M752.12 621.78C755.931 621.78 759.02 618.691 759.02 614.88C759.02 611.069 755.931 607.98 752.12 607.98C748.309 607.98 745.22 611.069 745.22 614.88C745.22 618.691 748.309 621.78 752.12 621.78Z" fill="#FFC140"/>
<path d="M820.77 651.17C824.581 651.17 827.67 648.081 827.67 644.27C827.67 640.459 824.581 637.37 820.77 637.37C816.959 637.37 813.87 640.459 813.87 644.27C813.87 648.081 816.959 651.17 820.77 651.17Z" fill="#FFC140"/>
<path d="M763.19 719.79C767.001 719.79 770.09 716.701 770.09 712.89C770.09 709.079 767.001 705.99 763.19 705.99C759.379 705.99 756.29 709.079 756.29 712.89C756.29 716.701 759.379 719.79 763.19 719.79Z" fill="#FFC140"/>
<path d="M774.76 664.23C778.571 664.23 781.66 661.141 781.66 657.33C781.66 653.519 778.571 650.43 774.76 650.43C770.949 650.43 767.86 653.519 767.86 657.33C767.86 661.141 770.949 664.23 774.76 664.23Z" fill="#FFC140"/>
<path d="M400.51 681.79C404.321 681.79 407.41 678.701 407.41 674.89C407.41 671.079 404.321 667.99 400.51 667.99C396.699 667.99 393.61 671.079 393.61 674.89C393.61 678.701 396.699 681.79 400.51 681.79Z" fill="#FFC140"/>
<path d="M224.77 594.47C220.103 594.47 215.41 594.237 210.69 593.77C189.55 591.71 167.55 585.05 145.29 573.99C121.981 562.275 100.462 547.298 81.3799 529.51C81.0074 529.135 80.7983 528.628 80.7983 528.1C80.7983 527.572 81.0074 527.065 81.3799 526.69C81.5657 526.504 81.7862 526.357 82.029 526.256C82.2718 526.155 82.5321 526.103 82.7949 526.103C83.0578 526.103 83.318 526.155 83.5608 526.256C83.8036 526.357 84.0242 526.504 84.2099 526.69C103.022 544.207 124.235 558.952 147.21 570.48C181.41 587.48 232.85 602.26 283.78 576.37C284.253 576.13 284.803 576.088 285.307 576.253C285.812 576.418 286.23 576.777 286.47 577.25C286.71 577.723 286.752 578.273 286.587 578.777C286.422 579.282 286.063 579.7 285.59 579.94C266.763 589.557 245.911 594.538 224.77 594.47Z" fill="#1D1D1B"/>
<path d="M200.65 646.28C190.91 646.209 181.199 645.205 171.65 643.28C156.88 640.365 142.455 635.914 128.61 630C128.36 629.899 128.133 629.748 127.942 629.557C127.752 629.366 127.602 629.139 127.502 628.889C127.402 628.638 127.353 628.37 127.359 628.101C127.365 627.831 127.426 627.565 127.537 627.32C127.649 627.074 127.808 626.854 128.007 626.671C128.206 626.489 128.44 626.349 128.694 626.259C128.948 626.17 129.218 626.132 129.487 626.15C129.756 626.167 130.019 626.238 130.26 626.36C131 626.7 204.34 659.45 245.31 629.95C245.741 629.656 246.271 629.542 246.785 629.633C247.3 629.723 247.758 630.012 248.063 630.437C248.367 630.861 248.493 631.388 248.414 631.904C248.335 632.421 248.057 632.886 247.64 633.2C235.58 641.88 219.62 646.28 200.65 646.28Z" fill="#1D1D1B"/>
<path d="M531 501.18C530.702 501.18 530.411 501.092 530.163 500.927C529.916 500.761 529.723 500.526 529.61 500.25L518.61 473.11C518.536 472.927 518.498 472.732 518.5 472.535C518.501 472.338 518.541 472.143 518.618 471.962C518.694 471.78 518.806 471.615 518.946 471.477C519.086 471.339 519.252 471.229 519.435 471.155C519.618 471.081 519.813 471.043 520.01 471.045C520.207 471.046 520.402 471.086 520.583 471.163C520.765 471.239 520.93 471.351 521.068 471.491C521.206 471.631 521.316 471.797 521.39 471.98L532.39 499.12C532.465 499.302 532.503 499.497 532.503 499.693C532.502 499.89 532.462 500.085 532.386 500.266C532.31 500.447 532.198 500.611 532.058 500.749C531.918 500.887 531.752 500.996 531.57 501.07C531.389 501.145 531.195 501.182 531 501.18Z" fill="#1D1D1B"/>
<path d="M411.82 582.6C355.56 631.6 239.87 756.6 239.82 790.72C239.77 824.84 263.44 831 263.44 831L258.29 856.35L340.76 892.75L347.89 876.81C347.89 876.81 383 878.59 392.4 848.4C401.8 818.21 422.72 700.62 447.24 679" fill="#FFAD00"/>
<path d="M340.76 894.25C340.551 894.25 340.344 894.209 340.15 894.13L257.69 857.73C257.375 857.594 257.118 857.353 256.961 857.049C256.804 856.744 256.758 856.395 256.83 856.06L261.71 832C256.54 830 238.34 820.8 238.35 790.73C238.35 769.94 279.24 719.5 303.61 691.29C337.75 651.75 380.84 607.63 410.83 581.48C410.978 581.349 411.151 581.248 411.338 581.183C411.526 581.119 411.724 581.092 411.922 581.104C412.12 581.116 412.313 581.167 412.491 581.254C412.669 581.341 412.829 581.462 412.96 581.61C413.091 581.758 413.192 581.931 413.257 582.119C413.321 582.306 413.348 582.504 413.336 582.702C413.324 582.9 413.273 583.093 413.186 583.271C413.099 583.449 412.978 583.609 412.83 583.74C382.94 609.8 339.97 653.81 305.91 693.25C264.31 741.42 241.39 776.04 241.38 790.73C241.38 823.2 262.93 829.32 263.85 829.57C264.22 829.665 264.54 829.898 264.742 830.222C264.945 830.546 265.016 830.936 264.94 831.31L260 855.48L340 890.78L346.52 876.21C346.643 875.935 346.847 875.703 347.103 875.544C347.36 875.386 347.658 875.307 347.96 875.32C349.36 875.39 382.06 876.66 390.96 847.96C393.34 840.3 396.54 826.67 400.25 810.88C411.15 764.45 427.62 694.28 446.25 677.88C446.548 677.615 446.94 677.479 447.338 677.502C447.737 677.526 448.11 677.707 448.375 678.005C448.64 678.303 448.776 678.695 448.752 679.093C448.729 679.492 448.548 679.865 448.25 680.13C430.35 695.93 414.01 765.53 403.2 811.59C399.48 827.44 396.27 841.12 393.86 848.88C385.18 876.88 354.86 878.34 348.86 878.36L342.13 893.36C342.011 893.624 341.819 893.848 341.576 894.006C341.333 894.164 341.05 894.249 340.76 894.25Z" fill="#1D1D1B"/>
<path d="M264.79 830.92C263.475 830.521 262.203 829.995 260.99 829.35C281.56 826.68 328.68 826.45 347.73 875.21C346.89 875.21 346.41 875.21 346.41 875.21L339.52 890.61L259.82 855.44L264.79 830.92Z" fill="#E89D00"/>
<path d="M364.57 912.19C364.57 912.19 372.39 878.19 338.51 863.33C304.63 848.47 268.64 845.33 246.41 863.33C224.18 881.33 222.06 903.56 228.41 918.33C234.76 933.1 250.64 936.33 267.58 924.68C267.58 924.68 283.46 947.97 312.05 925.74C312.05 925.74 349.1 951.15 350.16 910.92L364.57 912.19Z" fill="#FFCDB2"/>
<path d="M285.79 851C302.42 851 320.79 855.57 338.51 863.34C372.39 878.16 364.57 912.2 364.57 912.2L350.16 911C349.69 928.78 342.16 933.73 333.97 933.73C323.59 933.73 312.05 925.82 312.05 925.82C302.81 933 294.9 935.43 288.43 935.43C274.86 935.43 267.58 924.76 267.58 924.76C260.58 929.55 253.84 931.83 247.82 931.83C239.2 931.83 232.15 927.14 228.41 918.41C222.06 903.59 224.17 881.35 246.41 863.41C257 854.76 270.69 851 285.79 851ZM285.79 848.14C269.1 848.14 255.24 852.51 244.61 861.14C233.98 869.77 226.83 880.2 223.92 891.36C221.414 900.701 222.068 910.609 225.78 919.54C229.91 929.18 237.94 934.7 247.78 934.7C253.87 934.7 260.46 932.59 266.95 928.57C269.649 931.595 272.95 934.024 276.642 935.699C280.334 937.375 284.336 938.261 288.39 938.3C296.01 938.3 303.99 935.3 312.14 929.3C315.93 931.6 325.14 936.59 333.93 936.59C341.93 936.59 351.42 932.59 352.82 914.1L364.29 915.1H364.53C365.177 915.099 365.805 914.879 366.311 914.476C366.818 914.073 367.173 913.51 367.32 912.88C368.58 906.201 368.471 899.336 367 892.7C364.78 882.6 358.22 868.85 339.62 860.7C320.81 852.47 302.19 848.12 285.75 848.12L285.79 848.14Z" fill="black"/>
<path d="M268.18 929.63C267.87 929.631 267.568 929.535 267.315 929.355C267.062 929.176 266.872 928.923 266.77 928.63C254.77 893.96 278.71 871.92 278.95 871.7C279.094 871.556 279.266 871.442 279.455 871.367C279.645 871.291 279.848 871.255 280.051 871.261C280.255 871.266 280.456 871.313 280.641 871.399C280.826 871.484 280.992 871.607 281.128 871.759C281.264 871.91 281.368 872.088 281.433 872.282C281.498 872.475 281.523 872.679 281.506 872.883C281.489 873.086 281.432 873.283 281.336 873.464C281.24 873.644 281.109 873.802 280.95 873.93C280.72 874.14 258.3 894.93 269.59 927.66C269.654 927.846 269.681 928.042 269.67 928.239C269.658 928.435 269.607 928.627 269.521 928.804C269.434 928.98 269.314 929.138 269.166 929.268C269.018 929.398 268.846 929.497 268.66 929.56C268.505 929.612 268.343 929.635 268.18 929.63Z" fill="#1D1D1B"/>
<path d="M311.2 929.83C310.901 929.831 310.608 929.742 310.36 929.574C310.112 929.407 309.92 929.168 309.81 928.89C302.28 910.07 311.81 882.11 312.25 880.89C312.316 880.704 312.417 880.532 312.549 880.385C312.681 880.237 312.841 880.118 313.019 880.032C313.198 879.947 313.391 879.897 313.588 879.887C313.786 879.876 313.983 879.904 314.17 879.97C314.356 880.036 314.528 880.137 314.675 880.269C314.822 880.401 314.942 880.561 315.028 880.739C315.113 880.918 315.162 881.111 315.173 881.309C315.184 881.506 315.156 881.704 315.09 881.89C314.99 882.17 305.49 909.98 312.6 927.76C312.679 927.946 312.721 928.146 312.721 928.349C312.722 928.551 312.682 928.751 312.603 928.938C312.525 929.124 312.41 929.293 312.265 929.435C312.12 929.576 311.948 929.687 311.76 929.76C311.579 929.818 311.389 929.841 311.2 929.83Z" fill="#1D1D1B"/>
<path d="M351.16 915.74C350.997 915.738 350.835 915.711 350.68 915.66C350.304 915.532 349.993 915.261 349.817 914.904C349.641 914.548 349.613 914.137 349.74 913.76C349.79 913.6 355.14 897.38 349.49 887.5C349.291 887.154 349.238 886.743 349.342 886.358C349.446 885.972 349.699 885.644 350.045 885.445C350.391 885.246 350.802 885.193 351.187 885.297C351.573 885.401 351.901 885.654 352.1 886C358.42 897.05 352.82 914 352.58 914.7C352.483 915.001 352.294 915.263 352.039 915.45C351.784 915.637 351.476 915.738 351.16 915.74Z" fill="#1D1D1B"/>
<path d="M387.66 670.67C390.863 670.67 393.46 668.073 393.46 664.87C393.46 661.667 390.863 659.07 387.66 659.07C384.457 659.07 381.86 661.667 381.86 664.87C381.86 668.073 384.457 670.67 387.66 670.67Z" fill="#FFC140"/>
<path d="M373.76 795.82C376.963 795.82 379.56 793.223 379.56 790.02C379.56 786.817 376.963 784.22 373.76 784.22C370.557 784.22 367.96 786.817 367.96 790.02C367.96 793.223 370.557 795.82 373.76 795.82Z" fill="#FFC140"/>
<path d="M278.56 793.68C281.763 793.68 284.36 791.083 284.36 787.88C284.36 784.677 281.763 782.08 278.56 782.08C275.357 782.08 272.76 784.677 272.76 787.88C272.76 791.083 275.357 793.68 278.56 793.68Z" fill="#FFC140"/>
<path d="M236.45 923C235.82 922.998 235.207 922.798 234.697 922.428C234.188 922.059 233.807 921.538 233.61 920.94C228.8 906.51 229.19 893.59 234.76 882.53C243.68 864.87 262.54 858.53 263.34 858.31C263.715 858.189 264.11 858.142 264.503 858.173C264.896 858.205 265.279 858.313 265.63 858.492C265.981 858.671 266.293 858.918 266.549 859.218C266.804 859.518 266.998 859.865 267.12 860.24C267.241 860.615 267.288 861.01 267.257 861.403C267.225 861.796 267.117 862.179 266.938 862.53C266.759 862.881 266.512 863.193 266.212 863.449C265.912 863.704 265.565 863.899 265.19 864.02C265.02 864.08 247.85 869.87 240.1 885.29C235.29 894.85 235.02 906.21 239.3 919.05C239.55 919.805 239.49 920.627 239.134 921.338C238.778 922.049 238.154 922.589 237.4 922.84C237.095 922.947 236.773 923.001 236.45 923Z" fill="white"/>
<path d="M278.17 753C277.631 753 277.103 752.855 276.64 752.58C276.3 752.38 276.003 752.115 275.766 751.8C275.529 751.485 275.357 751.126 275.258 750.745C275.16 750.363 275.137 749.966 275.193 749.575C275.248 749.185 275.379 748.809 275.58 748.47C303.24 701.66 370.5 629.94 371.18 629.22C371.729 628.656 372.477 628.331 373.263 628.314C374.05 628.297 374.811 628.589 375.384 629.128C375.957 629.667 376.296 630.409 376.327 631.195C376.358 631.981 376.079 632.748 375.55 633.33C374.88 634.04 308.07 705.33 280.75 751.52C280.486 751.97 280.109 752.343 279.656 752.602C279.204 752.862 278.691 752.999 278.17 753Z" fill="white"/>
<path d="M747.09 519.85C736.466 533.103 730.256 549.349 729.33 566.31C729.066 572.347 729.384 578.394 730.28 584.37C731.98 596.61 735.37 608.53 737.2 620.75C738.65 630.39 738.82 640.28 736.52 649.81C734.42 658.46 730.22 666.81 723.11 672.38C722.256 673.053 721.364 673.677 720.44 674.25C718.81 675.25 720.31 677.87 721.95 676.84C729.95 671.84 735.23 663.84 738.15 655.01C741.006 645.943 741.976 636.386 741 626.93C739.87 614.59 736.56 602.59 734.33 590.43C733.155 584.408 732.466 578.302 732.27 572.17C732.151 566.6 732.64 561.034 733.73 555.57C735.902 544.641 740.359 534.295 746.81 525.21C747.6 524.1 748.41 523.02 749.26 521.97C749.527 521.682 749.676 521.303 749.676 520.91C749.676 520.517 749.527 520.138 749.26 519.85C748.977 519.568 748.594 519.41 748.195 519.41C747.796 519.41 747.413 519.568 747.13 519.85H747.09Z" fill="black"/>
<path d="M546 453.83C545.629 453.825 545.272 453.683 545 453.43C544.89 453.33 533.52 443.01 527 449.56C526.716 449.825 526.339 449.969 525.951 449.962C525.562 449.955 525.191 449.798 524.917 449.523C524.642 449.248 524.484 448.878 524.478 448.489C524.471 448.1 524.615 447.724 524.88 447.44C533.46 438.86 546.52 450.72 547.07 451.23C547.29 451.434 547.444 451.699 547.511 451.991C547.579 452.283 547.558 452.589 547.45 452.869C547.343 453.148 547.154 453.39 546.908 453.561C546.661 453.732 546.37 453.826 546.07 453.83H546Z" fill="black"/>
<path d="M479.47 462.93C479.14 462.932 478.82 462.822 478.56 462.62C478.403 462.5 478.272 462.351 478.174 462.18C478.076 462.01 478.012 461.822 477.987 461.626C477.962 461.431 477.976 461.233 478.028 461.043C478.08 460.853 478.169 460.675 478.29 460.52C481.97 455.73 485.99 453.02 490.24 452.52C493.175 452.12 496.154 452.834 498.59 454.52C498.877 454.772 499.058 455.123 499.095 455.503C499.132 455.883 499.022 456.263 498.789 456.565C498.556 456.867 498.216 457.069 497.839 457.13C497.462 457.19 497.076 457.104 496.76 456.89C496.43 456.65 489.14 451.34 480.66 462.37C480.517 462.548 480.336 462.69 480.13 462.787C479.923 462.884 479.698 462.933 479.47 462.93Z" fill="black"/>
<path d="M837.83 584.09C846.18 587.27 852.26 594.85 855.4 603.02C859.46 613.56 859.01 625.19 857.63 636.2C856.229 647.165 854.091 658.023 851.23 668.7C848.387 679.366 844.87 689.84 840.7 700.06C836.528 710.237 831.698 720.131 826.24 729.68C825.57 730.86 824.89 732.03 824.24 733.2C824.057 733.542 824.013 733.943 824.119 734.316C824.225 734.69 824.471 735.008 824.807 735.204C825.142 735.4 825.541 735.457 825.918 735.365C826.295 735.273 826.622 735.038 826.83 734.71C832.589 724.979 837.697 714.877 842.12 704.47C846.547 694.057 850.295 683.368 853.34 672.47C856.363 661.613 858.668 650.569 860.24 639.41C861.86 627.82 862.76 615.62 859.09 604.31C856.2 595.42 850.39 587.02 841.96 582.62C840.891 582.063 839.789 581.572 838.66 581.15C838.283 581.049 837.883 581.096 837.54 581.283C837.198 581.469 836.94 581.779 836.82 582.15C836.723 582.534 836.779 582.941 836.974 583.285C837.17 583.63 837.491 583.886 837.87 584L837.83 584.09Z" fill="black"/>
<path d="M614.24 684C620.884 693.154 627.058 702.64 632.74 712.42C638.39 722.156 643.55 732.168 648.2 742.42C649.36 744.99 650.5 747.58 651.6 750.19C651.37 749.65 651.79 750.65 651.84 750.75C651.96 751.05 652.08 751.35 652.21 751.65C652.48 752.29 652.74 752.94 653 753.58C653.54 754.91 654.08 756.24 654.6 757.58C656.666 762.853 658.603 768.167 660.41 773.52C663.99 784.187 667.036 795.023 669.55 806.03C670.803 811.55 671.917 817.093 672.89 822.66C673.38 825.44 673.83 828.24 674.24 831.03C674.44 832.41 674.64 833.78 674.83 835.16C674.89 835.64 674.77 834.71 674.83 835.16C674.83 835.35 674.83 835.53 674.9 835.71C674.97 835.89 674.99 836.36 675.03 836.71L675.3 838.92C675.473 840.3 675.633 841.68 675.78 843.06C675.8 843.849 676.123 844.601 676.681 845.159C677.239 845.717 677.991 846.04 678.78 846.06C680.26 845.99 681.96 844.73 681.78 843.06C680.536 831.595 678.713 820.201 676.32 808.92C673.951 797.812 671.02 786.831 667.54 776.02C663.985 765.008 659.88 754.181 655.24 743.58C650.717 733.214 645.671 723.084 640.12 713.23C634.533 703.287 628.435 693.641 621.85 684.33C621.05 683.203 620.24 682.073 619.42 680.94C619.005 680.269 618.347 679.783 617.584 679.584C616.821 679.385 616.01 679.487 615.32 679.87C614.06 680.68 613.25 682.61 614.24 683.97V684Z" fill="white"/>
<path d="M144.93 383.13C144.93 383.13 134.87 396.81 135.76 408.74C136.65 420.67 186.81 412.32 182.32 401.57C177.83 390.82 167.56 378.2 167.56 378.2L144.93 383.13Z" fill="#6C32AD"/>
<path d="M150.24 416.09C146.689 416.191 143.146 415.711 139.75 414.67C135.46 413.15 134.4 410.67 134.27 408.85C133.35 396.51 143.27 382.85 143.72 382.24L144.06 381.78L168.14 376.54L168.72 377.25C169.15 377.78 179.17 390.18 183.72 400.99C184.32 402.43 184.55 404.64 182.25 407.07C177.3 412.28 162.13 416.09 150.24 416.09ZM145.82 384.47C144.15 386.89 136.51 398.57 137.26 408.63C137.36 409.97 138.54 411.05 140.75 411.84C150.39 415.27 174.26 411.12 180.05 405.01C181.34 403.65 181.17 402.73 180.93 402.15C177.18 393.15 169.17 382.67 166.93 379.86L145.82 384.47Z" fill="#1D1D1B"/>
<path d="M153.07 407.63C148.933 407.693 144.809 407.168 140.82 406.07C140.34 405.891 139.947 405.534 139.722 405.074C139.498 404.613 139.458 404.084 139.612 403.596C139.766 403.107 140.102 402.696 140.55 402.448C140.998 402.199 141.524 402.132 142.02 402.26C151.971 404.657 162.423 403.866 171.9 400C172.146 399.886 172.414 399.823 172.685 399.816C172.957 399.809 173.227 399.857 173.479 399.957C173.731 400.058 173.961 400.209 174.153 400.401C174.345 400.593 174.496 400.822 174.597 401.074C174.697 401.327 174.745 401.597 174.738 401.868C174.731 402.14 174.669 402.407 174.555 402.654C174.441 402.9 174.278 403.121 174.076 403.303C173.874 403.484 173.637 403.623 173.38 403.71C166.921 406.298 160.028 407.628 153.07 407.63Z" fill="white"/>
<path d="M191 232.13H127.77C103.812 232.13 84.3899 251.552 84.3899 275.51V338.74C84.3899 362.698 103.812 382.12 127.77 382.12H191C214.958 382.12 234.38 362.698 234.38 338.74V275.51C234.38 251.552 214.958 232.13 191 232.13Z" fill="#6C32AD"/>
<path d="M191 383.62H127.77C115.871 383.607 104.463 378.874 96.0496 370.46C87.6358 362.047 82.9031 350.639 82.8899 338.74V275.51C82.9031 263.611 87.6358 252.203 96.0496 243.79C104.463 235.376 115.871 230.643 127.77 230.63H191C202.899 230.643 214.306 235.376 222.72 243.79C231.134 252.203 235.867 263.611 235.88 275.51V338.74C235.867 350.639 231.134 362.047 222.72 370.46C214.306 378.874 202.899 383.607 191 383.62ZM127.77 233.62C116.667 233.633 106.022 238.05 98.1709 245.901C90.3197 253.752 85.9031 264.397 85.8899 275.5V338.73C85.9031 349.833 90.3197 360.478 98.1709 368.329C106.022 376.18 116.667 380.597 127.77 380.61H191C202.103 380.597 212.748 376.18 220.599 368.329C228.45 360.478 232.867 349.833 232.88 338.73V275.51C232.867 264.407 228.45 253.762 220.599 245.911C212.748 238.06 202.103 233.643 191 233.63L127.77 233.62Z" fill="#1D1D1B"/>
<path d="M208.35 303.37C212.85 301.17 213.43 297.77 213.21 293.19C212.92 286.87 210.21 285.19 205.84 281.12C208.84 277.12 206.41 267.81 203.42 264.3C200.43 260.79 195.11 259.03 191.02 257.93C180.88 255.19 172.33 257.15 160.91 258.52C151 259.71 139.33 263.36 132.07 271.64C131.357 272.455 130.764 273.367 130.31 274.35C129.334 272.966 128.077 271.804 126.62 270.94C126.57 270.85 126.79 270.94 126.71 270.85C123.01 267.78 119.01 268.62 115.45 271.27C109.704 275.722 105.948 282.263 105 289.47C103.74 300.2 104.18 318.39 114 325.78C117.34 328.29 123.47 328.66 127.32 326.45C128.87 330.45 132.24 333.45 135.84 335.58C143.56 340.16 157.07 342.17 156.49 353.8C156.32 357.2 155.49 360.41 157.56 363.8C159.4 366.8 161.89 367.54 165.25 367.24C172.41 366.58 177.66 360.13 179.95 353.82C184.28 341.89 181.72 325.82 180.27 323.58C180.66 323.8 193.72 328.47 202.37 325.03C206.18 323.52 209.96 317.56 210.74 313.16C211.41 309.93 210.63 305.54 208.35 303.37Z" fill="#D9CFFF"/>
<path d="M164 368.8C162.454 368.888 160.915 368.539 159.558 367.793C158.202 367.046 157.083 365.933 156.33 364.58C154.33 361.41 154.64 358.45 154.9 355.58C154.95 354.96 155.01 354.34 155.04 353.72C155.43 345.97 148.76 343.08 141.69 340.02C139.436 339.105 137.242 338.049 135.12 336.86C131.547 334.922 128.602 332.004 126.63 328.45C122.35 330.14 116.63 329.58 113.15 326.97C103.63 319.83 101.93 302.82 103.51 289.28C103.991 285.511 105.21 281.873 107.097 278.575C108.985 275.278 111.504 272.384 114.51 270.06C119.11 266.62 123.77 266.49 127.62 269.69L128.41 270.34C128.987 270.762 129.528 271.231 130.03 271.74C130.294 271.356 130.581 270.989 130.89 270.64C139.46 260.88 153.23 257.92 160.68 257.02C162.56 256.8 164.37 256.55 166.11 256.32C174.96 255.13 182.61 254.1 191.36 256.47C197.78 258.21 202.08 260.47 204.51 263.32C207.69 267.06 210.05 275.84 207.69 280.83L208.29 281.38C211.82 284.6 214.37 286.93 214.66 293.11C214.84 296.84 214.66 300.98 210.56 303.78C212.237 306.695 212.839 310.107 212.26 313.42C211.41 318.15 207.38 324.66 202.96 326.42C196.17 329.13 187.27 327.24 182.65 325.91C184.06 331.91 184.93 344.61 181.4 354.33C179.16 360.51 173.63 367.98 165.4 368.73C164.935 368.777 164.467 368.8 164 368.8ZM128.15 324.28L128.77 325.91C130 329.1 132.65 331.91 136.65 334.29C138.666 335.412 140.746 336.413 142.88 337.29C150.22 340.46 158.53 344.06 158.04 353.89C158.04 354.55 157.94 355.21 157.89 355.89C157.66 358.49 157.46 360.73 158.89 363.05C160.32 365.37 162.02 366.05 165.16 365.78C171.97 365.16 176.65 358.7 178.59 353.35C182.72 341.98 180.3 326.35 179.06 324.43L175.77 319.3L181 322.3C182.69 323.01 194.42 326.65 201.86 323.69C205.21 322.35 208.62 316.82 209.32 312.95C209.81 310.22 209.18 306.32 207.32 304.5L205.76 303L207.7 302.06C211.36 300.27 211.92 297.71 211.7 293.3C211.46 288.36 209.7 286.78 206.3 283.65L204.79 282.26L203.79 281.34L204.58 280.27C207.02 276.98 204.86 268.41 202.23 265.27C200.23 262.88 196.39 260.95 190.58 259.38C182.4 257.16 175.39 258.11 166.51 259.3C164.75 259.54 162.93 259.78 161.03 260.01C154.03 260.85 141.03 263.62 133.14 272.63C132.522 273.342 132.007 274.136 131.61 274.99L130.52 277.27L129.04 275.27C128.189 274.055 127.092 273.033 125.82 272.27L125.49 272.08L125.24 271.67C122.62 269.77 119.6 270.04 116.3 272.51C110.907 276.724 107.381 282.885 106.48 289.67C104.99 302.38 106.48 318.24 114.94 324.61C117.87 326.81 123.32 327.07 126.62 325.18L128.15 324.28Z" fill="#1D1E1B"/>
<path d="M127.44 326.64C123.76 318.318 122.108 309.241 122.619 300.156C123.13 291.071 125.79 282.237 130.38 274.38" fill="#D9CFFF"/>
<path d="M126.1 327.32C125.97 327.06 113.1 301.07 129.1 273.63L131.69 275.14C116.53 301.14 128.69 325.71 128.8 325.96L126.1 327.32Z" fill="#1D1E1B"/>
<path d="M208.63 305C208.33 305.003 208.036 304.912 207.79 304.74C203.149 302.021 197.825 300.692 192.45 300.91C192.052 300.91 191.671 300.752 191.389 300.471C191.108 300.189 190.95 299.808 190.95 299.41C190.95 299.012 191.108 298.631 191.389 298.349C191.671 298.068 192.052 297.91 192.45 297.91C198.461 297.638 204.418 299.152 209.57 302.26C209.836 302.441 210.036 302.702 210.142 303.005C210.248 303.308 210.254 303.638 210.159 303.944C210.063 304.251 209.872 304.519 209.613 304.709C209.354 304.899 209.041 305.001 208.72 305H208.63Z" fill="black"/>
<path d="M206.72 282.68C206.445 282.679 206.175 282.603 205.94 282.46C205.86 282.46 197.75 277.56 191.03 279.62C190.841 279.678 190.643 279.698 190.447 279.679C190.251 279.66 190.06 279.603 189.886 279.511C189.712 279.418 189.558 279.293 189.432 279.141C189.307 278.989 189.213 278.813 189.155 278.625C189.097 278.437 189.077 278.239 189.096 278.042C189.114 277.846 189.172 277.656 189.264 277.481C189.356 277.307 189.482 277.153 189.634 277.028C189.786 276.902 189.961 276.808 190.15 276.75C198.15 274.3 207.15 279.67 207.5 279.9C207.673 280.003 207.824 280.139 207.944 280.301C208.063 280.463 208.149 280.648 208.196 280.844C208.242 281.04 208.249 281.243 208.215 281.442C208.182 281.641 208.108 281.83 208 282C207.863 282.214 207.674 282.39 207.449 282.509C207.225 282.628 206.974 282.687 206.72 282.68Z" fill="black"/>
<path d="M89.9998 294.75C89.4779 294.75 88.9766 294.546 88.603 294.182C88.2293 293.818 88.0128 293.322 87.9998 292.8C87.3798 268.02 95.6798 255.21 102.76 248.8C110.55 241.8 118.5 240.8 118.84 240.74C119.37 240.679 119.903 240.831 120.321 241.163C120.74 241.495 121.009 241.98 121.07 242.51C121.131 243.04 120.979 243.573 120.647 243.992C120.315 244.41 119.83 244.679 119.3 244.74C118.14 244.88 90.8998 248.74 91.9998 292.69C92.0065 292.957 91.9597 293.222 91.8622 293.471C91.7646 293.719 91.6184 293.946 91.432 294.137C91.2456 294.328 91.0229 294.48 90.7769 294.583C90.5309 294.687 90.2667 294.74 89.9998 294.74V294.75Z" fill="white"/>
<path d="M96.7599 206.59C85.8798 210.359 76.1752 216.91 68.6099 225.59C60.5801 234.87 55.3353 246.229 53.4799 258.36C52.3995 265.442 52.4704 272.651 53.6899 279.71C53.7593 279.964 53.8781 280.201 54.0393 280.409C54.2006 280.616 54.4012 280.79 54.6297 280.92C54.8581 281.05 55.11 281.134 55.3709 281.166C55.6317 281.199 55.8964 281.18 56.1499 281.11C56.6601 280.968 57.0931 280.629 57.3536 280.167C57.6142 279.706 57.6812 279.161 57.5399 278.65C57.2699 277.07 57.1399 276.11 56.9799 274.51C56.8199 272.91 56.7499 271.51 56.7099 270.01C56.6393 267.004 56.7796 263.996 57.1299 261.01C57.2199 260.21 57.2499 259.96 57.3899 259.09C57.5299 258.22 57.6299 257.61 57.7799 256.87C58.0599 255.4 58.3899 253.93 58.7799 252.48C59.1699 251.03 59.5999 249.59 60.0899 248.17C60.3299 247.46 60.5899 246.75 60.8599 246.05C60.9799 245.72 61.1099 245.38 61.2499 245.05C61.3099 244.89 61.3799 244.72 61.4499 244.56C61.4499 244.56 61.6999 243.96 61.5799 244.24C62.7473 241.508 64.1109 238.865 65.6599 236.33C66.3732 235.157 67.1232 234.017 67.9099 232.91C68.2999 232.35 68.7099 231.8 69.1199 231.26L69.4099 230.87C69.2199 231.13 69.4699 230.8 69.5199 230.74L70.1899 229.9C71.9115 227.782 73.7687 225.778 75.7499 223.9C76.7499 222.96 77.7499 222.06 78.8099 221.18C79.3299 220.74 79.8599 220.31 80.3999 219.89L80.5299 219.79L80.9199 219.49L81.7799 218.86C84.2743 217.05 86.898 215.426 89.6299 214C90.9632 213.28 92.3399 212.613 93.7599 212L94.2099 211.81C94.3399 211.75 94.3299 211.81 94.2099 211.81L94.5699 211.66L95.6499 211.23C96.3799 210.95 97.1099 210.68 97.8499 210.42C98.1163 210.363 98.3683 210.252 98.5903 210.094C98.8124 209.937 98.9999 209.735 99.1413 209.502C99.2827 209.269 99.375 209.01 99.4127 208.74C99.4503 208.471 99.4324 208.196 99.3601 207.933C99.2878 207.671 99.1625 207.426 98.9921 207.213C98.8217 207 98.6097 206.825 98.369 206.697C98.1283 206.57 97.8641 206.493 97.5926 206.471C97.3211 206.449 97.0479 206.483 96.7899 206.57L96.7599 206.59Z" fill="#1D1D1B"/>
<path d="M216.46 269.66C235.728 267.536 254.74 263.516 273.22 257.66C291.636 251.813 309.467 244.26 326.48 235.1C343.552 225.898 359.746 215.153 374.86 203C389.918 190.907 403.812 177.432 416.36 162.75C428.925 148.081 440.021 132.215 449.49 115.38C450.65 113.32 451.77 111.25 452.87 109.17C453.78 107.47 451.19 105.95 450.28 107.66C441.306 124.61 430.674 140.628 418.54 155.48C406.471 170.251 393.057 183.87 378.47 196.16C363.788 208.531 347.998 219.524 331.3 229C314.679 238.456 297.214 246.343 279.13 252.56C261.038 258.776 242.383 263.214 223.43 265.81C221.11 266.13 218.777 266.413 216.43 266.66C214.54 266.87 214.52 269.88 216.43 269.66H216.46Z" fill="black"/>
<path d="M228 290.5C238.466 291.926 249.033 292.474 259.59 292.14C278.783 291.519 297.702 287.405 315.42 280C324.365 276.266 333.028 271.888 341.34 266.9C350.125 261.614 358.624 255.866 366.8 249.68C367.87 248.88 368.93 248.08 369.99 247.26C370.313 247.053 370.547 246.734 370.647 246.364C370.746 245.995 370.705 245.601 370.53 245.26C370.328 244.932 370.009 244.693 369.637 244.593C369.265 244.493 368.869 244.538 368.53 244.72C360.367 251.028 351.893 256.922 343.14 262.38C334.944 267.487 326.4 272.011 317.57 275.92C309.075 279.655 300.272 282.646 291.26 284.86C281.987 287.106 272.527 288.492 263 289C252.694 289.542 242.36 289.208 232.11 288C230.75 287.85 229.38 287.68 228.02 287.5C227.21 287.39 226.52 288.27 226.52 289C226.53 289.395 226.691 289.77 226.971 290.049C227.25 290.329 227.625 290.49 228.02 290.5H228Z" fill="black"/>
<path d="M154.47 380.77C146.552 374.402 137.015 370.367 126.93 369.12C123.473 368.56 119.947 368.56 116.49 369.12C114.827 369.408 113.239 370.028 111.821 370.944C110.404 371.86 109.186 373.052 108.24 374.45C107.339 375.798 106.834 377.373 106.783 378.993C106.731 380.614 107.136 382.217 107.95 383.62C108.808 384.963 109.939 386.111 111.269 386.989C112.599 387.868 114.098 388.457 115.67 388.72C119.51 389.41 123.33 388.65 127.09 387.86C135.212 386.16 143.187 383.819 150.94 380.86C151.45 380.718 151.883 380.379 152.144 379.917C152.404 379.456 152.471 378.911 152.33 378.4C152.188 377.89 151.849 377.457 151.387 377.196C150.926 376.936 150.381 376.869 149.87 377.01C143.388 379.48 136.75 381.521 130 383.12C126.812 383.984 123.563 384.599 120.28 384.96C118.742 385.121 117.189 385.009 115.69 384.63C115.37 384.54 115.06 384.43 114.75 384.32C114.68 384.32 114.4 384.17 114.75 384.32L114.26 384.09C114 383.95 113.73 383.8 113.48 383.64C113.23 383.48 113.18 383.44 113.03 383.33C112.68 383.1 113.2 383.51 112.86 383.21C112.52 382.91 112.42 382.81 112.21 382.6L111.85 382.2C111.47 381.8 111.98 382.39 111.78 382.12C111.595 381.86 111.425 381.589 111.27 381.31C111.27 381.21 111.17 381.1 111.11 381C111.05 380.9 111.02 380.79 111.11 381C111.066 380.893 111.029 380.782 111 380.67C110.91 380.392 110.84 380.108 110.79 379.82C110.86 380.22 110.79 379.82 110.79 379.71C110.79 379.6 110.79 379.41 110.79 379.26C110.79 379.11 110.79 378.89 110.79 378.71C110.79 378.8 110.71 379.09 110.79 378.71C110.862 378.355 110.956 378.004 111.07 377.66C111.25 377.11 110.89 377.97 111.15 377.46L111.36 377.05C111.52 376.75 111.71 376.47 111.9 376.18C111.9 376.13 112.13 375.89 111.9 376.18C112.02 376.03 112.14 375.89 112.27 375.75C112.523 375.473 112.793 375.212 113.08 374.97C113.17 374.882 113.267 374.801 113.37 374.73C113.05 374.97 113.55 374.61 113.57 374.59C113.83 374.42 114.09 374.26 114.37 374.11C114.967 373.774 115.606 373.518 116.27 373.35C116.687 373.222 117.111 373.119 117.54 373.04L117.97 372.96C117.97 372.96 118.65 372.87 118.3 372.96C119.1 372.865 119.904 372.815 120.71 372.81C122.293 372.804 123.876 372.887 125.45 373.06L126.45 373.17L126.87 373.23H127.18C127.94 373.34 128.71 373.47 129.47 373.62C130.99 373.91 132.47 374.27 133.99 374.7C135.51 375.13 137.21 375.7 138.79 376.32C139.66 376.66 140.02 376.81 140.84 377.18C141.66 377.55 142.37 377.9 143.12 378.28C144.63 379.05 146.12 379.88 147.52 380.79C148.227 381.25 148.927 381.72 149.62 382.2L150.73 383.01C151.15 383.32 151.15 383.32 151.58 383.67C151.961 384.034 152.468 384.237 152.995 384.237C153.522 384.237 154.029 384.034 154.41 383.67C154.596 383.484 154.743 383.264 154.844 383.021C154.945 382.778 154.997 382.518 154.997 382.255C154.997 381.992 154.945 381.732 154.844 381.489C154.743 381.246 154.596 381.026 154.41 380.84L154.47 380.77Z" fill="#1D1D1B"/>
<path d="M150.05 385.06C155.23 382.32 161.37 383.82 165.91 387.14C171.28 391.06 173.74 397.5 174.02 403.98C174.69 419.59 164.93 432.81 160.25 447.08C158.04 453.84 156.94 461.08 158.13 468.16C159.32 475.24 163.53 480.66 167.99 486.11C172.407 491.264 175.436 497.459 176.79 504.11C177.933 510.887 177.807 517.818 176.42 524.55C171.06 553.18 148.99 577.72 152.5 608.06C154.17 622.48 160.31 635.79 163.5 649.86C165.21 656.852 165.62 664.099 164.71 671.24C163.5 678.405 161.313 685.37 158.21 691.94C152.56 704.56 145.06 716.43 141.21 729.79C137.76 741.66 136.68 755.15 142.3 766.54C143.636 769.193 145.317 771.658 147.3 773.87C149.01 775.8 151.83 772.96 150.12 771.04C141.44 761.23 141.12 747.33 143.94 735.17C147.12 721.29 154.61 709.17 160.58 696.38C163.754 689.924 166.202 683.136 167.88 676.14C169.39 669.053 169.59 661.749 168.47 654.59C166.28 640.02 159.79 626.54 157.15 612.07C155.801 604.724 155.849 597.189 157.29 589.86C158.91 582.35 161.293 575.026 164.4 568C170.13 554.47 177.07 541.38 180.03 526.86C182.69 513.79 182.28 499.41 174.49 488.06C170.37 482.06 164.64 477.13 162.62 469.91C160.6 462.69 161.83 455.07 164.11 448.13C168.83 433.74 178.29 420.65 178.05 404.94C177.94 398.29 175.98 391.51 171.32 386.6C167.372 382.345 161.9 379.828 156.1 379.6C153.285 379.58 150.51 380.268 148.03 381.6C145.75 382.81 147.77 386.26 150.03 385.06H150.05Z" fill="#1D1D1B"/>
</svg>
