<svg width="1000" height="1000" viewBox="0 0 1000 1000" fill="none" xmlns="http://www.w3.org/2000/svg">
<rect width="1000" height="1000" fill="white"/>
<path d="M872 856H168C166.9 856 166 855.1 166 854C166 852.9 166.9 852 168 852H872C873.1 852 874 852.9 874 854C874 855.1 873.1 856 872 856Z" fill="#1D1D1B"/>
<path d="M254 881H117C115.9 881 115 880.1 115 879C115 877.9 115.9 877 117 877H254C255.1 877 256 877.9 256 879C256 880.1 255.1 881 254 881Z" fill="#1D1D1B"/>
<path d="M926 892H818C816.9 892 816 891.1 816 890C816 888.9 816.9 888 818 888H926C927.1 888 928 888.9 928 890C928 891.1 927.1 892 926 892Z" fill="#1D1D1B"/>
<path d="M375.2 127.8C388.5 155.3 349.5 201.7 349.5 201.7C349.5 201.7 288.9 203.5 275.6 176C266.6 157.4 266.5 135.5 282.1 126.8C302.4 115.6 316.6 136.7 316.6 136.7C316.6 136.7 316.4 111.4 331.9 103.2C348.9 94 366.3 109.5 375.2 127.8Z" fill="#D9CFFF"/>
<path d="M346.8 203.2C334.7 203.2 286.3 201.6 274.3 176.6C265.6 158.7 264.2 135 281.4 125.5C297.5 116.6 310.1 127.1 315.3 132.7C315.9 125 318.7 108.5 331.2 101.8C336.9 98.6 343.7 98.1 349.9 100.2C360.1 103.5 370.1 113.6 376.6 127.1C390.2 155.1 352.3 200.6 350.7 202.6L350.3 203.1H349.6C349.2 203.1 348.3 203.2 346.8 203.2ZM294 125C290.1 125.1 286.2 126.1 282.8 128.1C267.3 136.7 268.9 158.6 277 175.3C289 200.1 342.1 200.3 348.8 200.2C353 195.1 385.9 153.3 373.9 128.5C367.7 115.7 358.4 106.2 348.9 103.1C343.5 101.2 337.6 101.8 332.6 104.5C318.1 112.2 318.1 136.4 318.1 136.7V141.7L315.3 137.6C314.9 136.8 306.7 125 294 125Z" fill="#1D1E1B"/>
<path d="M261 154.4C225.5 154.4 199.9 138.3 183.7 123.2C170.7 111.1 160 96.8 152.2 80.8C151.8 79.8 152.2 78.6 153.2 78.2C154.2 77.8 155.4 78.2 155.8 79.2C163.4 94.7 173.8 108.6 186.4 120.4C214.1 146.1 247.1 155.4 284.5 148.1C285.6 147.8 286.7 148.5 286.9 149.5C287.2 150.6 286.5 151.7 285.5 151.9C285.4 151.9 285.3 151.9 285.3 151.9C277.4 153.6 269.2 154.4 261 154.4Z" fill="#1D1D1B"/>
<path d="M244.7 192.2C236.3 192.2 227.9 191.5 219.6 190C218.5 189.8 217.8 188.8 217.9 187.7C218.1 186.6 219.1 185.9 220.2 186C220.3 186 220.3 186 220.4 186C220.9 186.1 269.6 195.5 290.6 173.6C291.4 172.8 292.6 172.8 293.4 173.5C294.2 174.3 294.2 175.5 293.5 176.3C281.2 189.2 260.9 192.2 244.7 192.2Z" fill="#1D1D1B"/>
<path d="M365 150H364.8C363.1 149.9 361.9 148.5 362 146.8C362.6 136.1 360.3 128.3 355.2 123.7C348.1 117.3 337.6 118.9 337.5 118.9C335.9 119.2 334.3 118.1 334 116.4C333.7 114.8 334.8 113.2 336.5 112.9C337 112.8 349.9 110.8 359.1 119.1C365.7 125 368.7 134.4 368 147C367.9 148.7 366.6 150 365 150Z" fill="white"/>
<path d="M181.6 411.9C194.4 431.9 168.6 471.3 168.6 471.3C168.6 471.3 122 478.3 109.2 458.3C100.5 444.7 98.3999 427.8 109.6 419.7C124.2 409.2 137.1 424.1 137.1 424.1C137.1 424.1 134.6 404.6 145.8 396.8C158.1 388.3 173 398.6 181.6 411.9Z" fill="#D9CFFF"/>
<path d="M150.4 474C135.5 474 115.8 471.5 107.9 459.1C99.4999 445.9 96.0999 427.6 108.7 418.5C120 410.3 130.5 416.5 135.4 420.5C135.3 414.2 136.2 401.8 145 395.6C149.2 392.6 154.5 391.5 159.5 392.6C167.8 394.2 176.5 401.1 182.9 411.1C196.1 431.7 171 470.5 169.9 472.1L169.5 472.7L168.8 472.8C162.7 473.7 156.5 474.1 150.4 474ZM120.5 417.5C116.9 417.6 113.3 418.8 110.5 421C99.4999 429 102.7 445.5 110.5 457.5C121.8 475.2 162 470.6 167.7 469.9C170.8 465 191.7 430.4 180.3 412.7C174.4 403.5 166.4 397.1 158.9 395.6C154.6 394.7 150.2 395.6 146.7 398.1C136.4 405.3 138.6 423.8 138.6 424L139.2 429L135.9 425.2C135.6 424.8 129.2 417.5 120.5 417.5Z" fill="#1D1E1B"/>
<path d="M123 463C122.3 463 121.6 462.7 121.1 462.3C99.0998 443.6 114.6 424.3 114.7 424.1C115.8 422.8 117.6 422.6 118.9 423.7C120.2 424.8 120.4 426.6 119.3 427.9C118.8 428.5 107.5 442.9 124.9 457.7C126.2 458.8 126.3 460.7 125.3 461.9C124.7 462.6 123.9 463 123 463Z" fill="white"/>
<path d="M872 338.1C853.8 353.4 811.4 332.8 811.4 332.8C811.4 332.8 798.5 287.5 816.7 272.2C829 261.8 845.5 257.6 855 267.7C867.3 280.8 854.1 295.6 854.1 295.6C854.1 295.6 873.1 290.6 882.3 300.7C892.4 311.9 884.1 328 872 338.1Z" fill="#D9CFFF"/>
<path d="M853.2 345.3C834 345.3 812.1 334.8 810.8 334.2L810.2 333.9L810 333.3C809.5 331.4 797 286.9 815.8 271.2C827.8 261.1 845.5 255.5 856.1 266.8C865.7 277 860.9 288.2 857.6 293.5C863.9 292.5 876.3 291.9 883.5 299.8C887 303.6 888.8 308.7 888.4 313.8C887.8 322.2 882.1 331.8 873.1 339.3C867.7 343.7 860.7 345.3 853.2 345.3ZM812.7 331.8C817.9 334.2 855 350.5 871 337L872 338.1L871 337C879.4 330 884.7 321.2 885.3 313.6C885.7 309.3 884.2 305 881.2 301.8C872.7 292.5 854.7 297.1 854.5 297.1L849.7 298.4L853 294.7C853.5 294.1 865.1 280.8 853.9 268.8C844.6 258.9 828.6 264.3 817.7 273.4C801.6 286.9 811.2 326.2 812.7 331.8Z" fill="#1D1E1B"/>
<path d="M834 278C833.2 278 832.5 277.5 832.2 276.8C821.2 252.8 820.1 218.3 828.8 174.2C832.8 154.2 838.2 134.5 845.1 115.2C845.5 114.2 846.6 113.6 847.7 114C848.8 114.4 849.3 115.5 848.9 116.6C848.5 117.6 810.5 219.5 835.9 275.1C836.4 276.1 835.9 277.3 834.9 277.7C834.6 277.9 834.3 278 834 278Z" fill="#1D1D1B"/>
<path d="M821 291C820.6 291 820.2 290.9 819.9 290.6C784.4 266.3 785.9 204.5 786 201.9C786 200.8 787 199.9 788.1 200C789.2 200.1 790.1 201 790 202.1C790 202.7 788.5 264.3 822.1 287.4C823 288 823.2 289.3 822.6 290.2C822.3 290.7 821.7 291 821 291Z" fill="#1D1D1B"/>
<path d="M847 339C845.3 339 844 337.7 844 336C844 334.6 844.9 333.4 846.3 333.1C864.9 328.5 870 322.4 871.4 319.2C872.3 317.4 872.3 315.3 871.4 313.5C870.6 312.1 871 310.3 872.4 309.4C873.8 308.5 875.7 309 876.5 310.4C878.3 313.8 878.4 317.8 876.9 321.3C873.7 328.9 863.9 334.8 847.7 338.9C847.4 338.9 847.2 339 847 339Z" fill="white"/>
<path d="M495.9 302.7C495.9 302.7 490.1 335.9 467.1 326.6C444.1 317.3 395 296.9 377.7 330.7C360.4 364.5 363.5 372 336.9 368.7C310.3 365.4 257.8 406 310.1 459.8C362.4 513.6 538.8 341.5 538.8 341.5L537.2 320.6L495.9 302.7Z" fill="#6C32AD"/>
<path d="M495.9 302.7L537.3 320.7L538.9 341.6C538.9 341.6 393.9 483.1 327.8 469.4C321.1 468.1 315 464.8 310.2 459.9C257.9 406.1 310.4 365.6 337 368.8C363.6 372 360.6 364.6 377.8 330.8C387.9 311 408.7 309.8 429 314C443.5 317 457.6 322.8 467.2 326.7C468.5 327.2 469.9 327.7 471.3 328C490.8 332 495.9 302.8 495.9 302.7ZM496.5 299.8C495.8 299.7 495.1 299.8 494.5 300.1C493.7 300.5 493.1 301.3 493 302.2C493 302.4 490.3 317.4 481.8 323.1C478.9 325.1 475.2 325.8 471.8 324.9C470.6 324.6 469.4 324.3 468.2 323.8L467.3 323.4C458 319.5 443.8 313.8 429.5 310.8C402.5 305.2 384.1 311.4 375.1 329.2C371.8 335.6 369.4 340.9 367.2 345.6C358 365.4 356.8 368 337.4 365.6C322.2 363.7 299.4 375 289.6 394.6C283.7 406.5 278.2 431.1 308.1 461.7C313.3 467 320 470.6 327.2 472C355.5 477.9 400.1 457.9 459.9 412.7C488.2 391.1 515.3 368 541 343.4C541.6 342.8 542 341.9 541.9 341L540.3 320.1C540.2 319 539.5 318 538.5 317.6L497.1 299.6C496.9 299.5 496.7 299.5 496.5 299.4V299.8Z" fill="black"/>
<path d="M304.7 453.8C318.3 399.8 414.4 356.5 443.6 352.3C472.8 348.1 508.6 339.7 515.5 328.6C522.4 317.5 503.3 309.1 503.3 309.1L509.5 308.4L537.4 320.5L539 341.4C539 341.4 362.6 513.5 310.3 459.8C308.2 457.9 306.4 455.8 304.7 453.8Z" fill="#59298F"/>
<path d="M298 853C298 853 269.5 374.4 535 391C886 413 770 853 770 853H298Z" fill="#FFAD00"/>
<path d="M771.5 855H296.1L296 853.1C296 852.4 291.7 778.6 302.3 691.1C308.5 639.7 318.5 593.7 332 554.4C348.9 505.1 371.5 466.2 399 438.8C435.6 402.4 481.4 385.6 535.2 389C624.2 394.6 691 427.6 734 487.1C756.5 518.3 772.6 557 781.6 602.2C788.8 638.2 791.6 678.4 790 721.7C787.2 795.3 772.2 853 772 853.6L771.5 855ZM299.9 851H768.4C770.7 841.5 783.4 788 785.9 721.4C788.5 654 780.9 559.1 730.6 489.4C688.4 430.9 622.5 398.5 534.8 393C482.2 389.7 437.4 406.1 401.7 441.7C340.2 503 315.8 611.5 306.2 691.7C296.7 771 299.3 839 299.9 851Z" fill="#1D1D1B"/>
<path d="M300 782C300 782 420 822 549 699C549 699 674.4 890 786 721V702L514 664L299 735L300 782Z" fill="#E89D00"/>
<path d="M493 394C493 394 255 423.7 260 664C262.9 802 375.8 776.3 419.4 757.3C463 738.3 543.2 710 560.3 679.1C577.4 648.2 559.1 630.8 559.1 630.8L576.4 610.4L519.9 536.2L505.5 547.1C505.5 547.1 474.5 527.9 451 550.6C427.5 573.3 399.3 604.3 384.4 616.4" fill="#FFAD00"/>
<path d="M350.3 774.1C333.2 774.1 315.4 770.7 299.9 760.8C273.4 743.9 259.5 711.3 258.6 664.1C257.5 609 269.1 560.5 293.1 519.8C312.3 487.2 339.5 459.6 373.9 437.8C432.4 400.6 492.3 392.8 492.9 392.7L493.3 395.7C492.7 395.8 433.4 403.5 375.4 440.4C322 474.2 258.9 540.6 261.5 664C262.5 710.2 275.9 741.9 301.5 758.2C344.7 785.9 406.8 761.2 418.9 755.9C426.2 752.7 434.5 749.3 443.4 745.6C486.3 727.9 545.1 703.6 559.1 678.3C575.4 648.8 558.8 632.5 558.1 631.8L557.1 630.8L558 629.7L574.5 610.2L519.6 538.1L505.5 548.7L504.6 548.2C503.4 547.4 474.3 529.9 451.9 551.5C442.2 560.8 431.9 571.4 421.8 581.7C407.5 596.3 394 610.2 385.2 617.4L383.3 615.1C392 608 405.4 594.2 419.7 579.6C429.8 569.3 440.2 558.6 449.8 549.3C471.7 528.3 499.9 542.1 505.3 545.1L520.1 533.9L521 535.1L578.3 610.3L561 630.6C564.6 634.9 576.6 652.4 561.6 679.7C547.1 705.9 490.2 729.4 444.4 748.3C435.6 751.9 427.2 755.4 420 758.6C412 762.2 382.3 774.1 350.3 774.1Z" fill="#1D1D1B"/>
<path d="M481.3 396.8C481.3 396.8 470.5 409.5 485.5 426.5C500.5 443.5 527.8 419.2 527.8 419.2L481.3 396.8Z" fill="white"/>
<path d="M499 434C498.5 434 498.1 434 497.6 434C492.5 433.8 487.7 431.4 484.4 427.5C468.7 409.7 480 396 480.1 395.8L480.9 394.9L530.5 418.8L528.8 420.3C528.2 420.9 513.2 434 499 434ZM481.8 398.7C479.8 401.8 474.8 412.1 486.7 425.5C489.5 428.8 493.5 430.8 497.8 431C508.6 431.6 520.6 423 525.1 419.5L481.8 398.7Z" fill="#1D1D1B"/>
<path d="M597.4 229C619.215 229 636.9 211.315 636.9 189.5C636.9 167.685 619.215 150 597.4 150C575.585 150 557.9 167.685 557.9 189.5C557.9 211.315 575.585 229 597.4 229Z" fill="#6C32AD"/>
<path d="M629.1 166C642.1 183.5 638.4 208.3 620.9 221.3C603.4 234.3 578.6 230.6 565.6 213.1C552.6 195.6 556.3 170.8 573.8 157.8C591.3 144.8 616.1 148.5 629.1 166ZM631.7 164.1C617.6 145.1 590.9 141.2 571.9 155.3C552.9 169.4 549 196.1 563.1 215.1C577.2 234 603.9 238 622.9 223.9C641.8 209.8 645.7 183 631.7 164.1Z" fill="black"/>
<path d="M640.8 348.8C640.8 348.8 676 339.8 676.7 312.5C677.4 285.2 670.6 284.2 671.9 269.9C673.2 255.5 657.7 232.7 635.2 228.5C635.2 228.5 620 198 595.2 192.6C570.4 187.2 557.4 193.8 542.5 207.9C527.6 222 517.5 226.4 506.7 236C495.9 245.6 471.8 275.4 506.1 323.7C540.4 372 640.8 348.8 640.8 348.8Z" fill="#6C32AD"/>
<path d="M663.8 247.1C669.4 254.7 672.4 263.2 671.8 269.8C670.5 284.2 677.2 285.2 676.6 312.4C676 339.6 640.7 348.7 640.7 348.7C640.7 348.7 541.5 371.6 506.6 324.5L506 323.6C471.7 275.4 495.7 245.5 506.6 235.9C517.4 226.4 527.5 221.9 542.4 207.8C557.3 193.7 570.3 187.1 595.1 192.5C609.6 195.6 620.8 207.3 627.6 216.5C630.4 220.2 632.9 224.2 635.1 228.4C647.2 230.7 657.3 238.3 663.8 247.1ZM666.4 245.2C659 235.2 648.5 228.1 637.4 225.6C635.3 221.8 633 218.2 630.4 214.7C623.2 205 611.4 192.8 596 189.4C569.8 183.7 555.7 191 540.4 205.5C533.6 211.8 526.4 217.6 518.7 222.8C513.8 226.1 509.2 229.7 504.7 233.5C495.5 241.6 489.1 252.5 486.5 264.6C482.6 283.4 488.3 303.9 503.7 325.5C503.9 325.8 504.2 326.1 504.4 326.4C512.8 337.7 525.3 346 541.7 351.2C554.6 355.2 569.9 357.4 587.1 357.5C605.5 357.6 623.8 355.7 641.8 351.9H641.9C648.5 350 654.8 347.3 660.5 343.6C673.1 335.6 679.9 324.9 680.2 312.6C680.6 297 678.6 289.7 677 283.8C675.8 279.3 674.9 276 675.4 270.2C676.1 262.8 672.8 253.5 666.7 245.3L666.4 245.2Z" fill="black"/>
<path d="M552 375L554 409C554 409 506 439 485 396C485 396 516 351 531 302.9C531 302.9 514.8 291.1 524.7 276.3C534.6 261.5 548.7 264.4 554.4 272.1C554.4 272.1 575.1 306 632.7 257.2C632.7 257.2 658.7 284.1 650.8 319.8C642.9 355.5 619.8 390.5 589.9 390.3C560 390.1 552 375 552 375Z" fill="#FFCDB2"/>
<path d="M632.7 257.2C632.7 257.2 658.7 284.1 650.8 319.8C642.9 355.5 619.9 390.4 590.1 390.4H589.9C560 390.2 552 375 552 375L554 409C554 409 537.7 419.2 520 419.2C507.3 419.2 493.8 414 485 396C485 396 516 351 531 302.9C531 302.9 514.8 291.1 524.7 276.3C529.8 268.7 536 265.8 541.6 265.8C546.6 265.8 551.4 268.2 554.4 272.2C554.4 272.2 561.4 283.6 578.6 283.6C590.9 283.6 608.5 277.6 632.7 257.2ZM632.9 253.1L630.7 254.9C610.6 271.9 593 280.5 578.4 280.5C563.1 280.5 556.9 270.6 556.8 270.5L556.7 270.4L556.6 270.3C553 265.5 547.3 262.7 541.3 262.7C533.9 262.7 527 266.9 521.9 274.6C517.2 281.7 516.9 289.3 521.3 296.6C522.9 299.3 524.9 301.8 527.3 303.9C512.4 350.3 482.6 393.8 482.3 394.3L481.3 395.7L482.1 397.3C490.1 413.6 503.1 422.2 519.8 422.2C538.2 422.2 554.7 412 555.4 411.6L556.9 410.7L556.8 408.9L555.3 383.3C561.1 388 571.7 393.3 589.7 393.4H589.9C604.7 393.4 618.9 385.4 630.9 370.3C641.4 357.1 649.4 339.4 653.6 320.5C657 305.3 654.8 289.1 647.3 273.9C644 267.1 639.8 260.8 634.8 255.2L632.9 253.1Z" fill="#1D1D1B"/>
<path d="M560.4 386.7C561.3 387.3 562.3 387.8 563.2 388.3C564 388.7 565 388.3 565.3 387.5C565.6 386.7 565.3 385.8 564.6 385.4C554.9 380.6 546.9 369.1 546.8 369C546.3 368.2 545.3 368 544.6 368.4C543.9 368.8 543.6 369.9 544 370.6C544 370.7 544.1 370.7 544.1 370.8C544.5 371.3 551.4 381.1 560.4 386.7Z" fill="black"/>
<path d="M533.5 295C534 295.7 535.1 295.9 535.8 295.3C536.3 295 536.5 294.4 536.4 293.8C535.6 287.4 536.5 283 539.2 280.8C543 277.7 549.3 279.8 549.4 279.8C550.2 280.1 551.1 279.6 551.4 278.8C551.7 278 551.2 277 550.4 276.8C550.1 276.7 542.3 274.1 537.1 278.4C533.5 281.4 532.1 286.7 533.1 294.3C533.2 294.5 533.4 294.8 533.5 295Z" fill="black"/>
<path d="M612.3 306.5C592.8 300.7 573.4 280.2 566 284.2C558.6 288.2 557.1 298.3 565.4 305.5C573.7 312.7 583.3 317.6 603.4 326.5C623.5 335.4 643.8 342.7 647.2 331.3C650.6 319.9 641 315 612.3 306.5Z" fill="#FFB49F"/>
<path d="M614.7 316.8C615.2 317.4 616.1 317.6 616.8 317.2C621 314.8 625.1 314.2 629 315.4C636.8 317.7 641.3 326.4 641.4 326.5C641.9 327.3 642.9 327.5 643.6 327.1C644.3 326.7 644.6 325.8 644.3 325.1C644.1 324.7 639.1 315.1 630 312.4C625.3 311 620.3 311.7 615.3 314.5C614.5 314.9 614.3 315.9 614.7 316.7V316.8Z" fill="black"/>
<path d="M568.1 296.5C568.5 297 569.2 297.3 569.9 297.1C587.9 291.9 594.2 307.1 594.5 307.8C594.9 308.6 595.9 308.9 596.7 308.5C597.4 308.1 597.7 307.3 597.5 306.6C597.4 306.4 589.9 288 569 294C568.1 294.2 567.6 295.1 567.9 296C567.9 296.1 568 296.3 568.1 296.5Z" fill="black"/>
<path d="M629.1 297.8C631 300.4 633.4 302.7 636.2 304.6C636.9 305.1 637.9 304.9 638.5 304.2C639 303.5 638.8 302.5 638.1 301.9C638 301.9 638 301.8 637.9 301.8C634.5 299.4 631.6 296.3 629.7 292.6C629.3 291.8 628.3 291.5 627.5 291.9C626.7 292.3 626.4 293.3 626.8 294.1C627.4 295.4 628.2 296.6 629.1 297.8Z" fill="black"/>
<path d="M561.4 340.6C564.4 344.7 568.9 347.5 573.8 348.6C574.7 348.7 575.5 348 575.6 347.1C575.7 346.3 575.1 345.5 574.3 345.4C573.7 345.3 560.5 343.1 560 325.8C560 324.9 559.3 324.2 558.4 324.1C557.5 324 556.8 324.8 556.7 325.7C556.7 325.8 556.7 325.9 556.7 325.9C557 332.5 558.9 337.2 561.4 340.6Z" fill="black"/>
<path d="M551.9 269.2C555.5 274 560 278.6 565.6 281.3C566.4 281.7 567.4 281.4 567.8 280.6C568.2 279.8 567.9 278.8 567.1 278.4C552.4 271.3 544.9 248.8 544.8 248.6C544.5 247.8 543.5 247.4 542.7 247.7C542 248 541.6 248.8 541.8 249.6C544.1 256.6 547.6 263.2 551.9 269.2Z" fill="black"/>
<path d="M558.6 264.5C558.7 264.6 558.8 264.8 558.9 264.9C589.1 286.9 616.6 257.9 616.9 257.5C617.5 256.8 617.5 255.8 616.8 255.2C616.1 254.6 615.1 254.6 614.5 255.3C613.5 256.4 588.6 282.6 560.8 262.2C560.1 261.7 559.1 261.8 558.5 262.5C558.2 263.1 558.2 263.9 558.6 264.5Z" fill="white"/>
<path d="M573.6 140.1C573.7 140.2 573.8 140.3 573.9 140.4C574.6 141 575.6 140.9 576.2 140.2C581.9 133.5 588.4 129.9 595.6 129.3C608.5 128.3 619.5 137.6 619.6 137.7C620.3 138.3 621.3 138.2 621.9 137.5C622.5 136.8 622.4 135.8 621.7 135.2C621.2 134.8 609.6 124.9 595.4 126C587.3 126.6 580 130.7 573.7 138C573.2 138.7 573.1 139.5 573.6 140.1Z" fill="black"/>
<path d="M600.5 340.8C601 341.5 602 341.7 602.8 341.1C603.1 340.8 603.4 340.5 603.4 340.1L608.6 307.6C608.8 306.7 608.3 305.9 607.4 305.6C606.5 305.4 605.7 305.9 605.4 306.8C605.4 306.9 605.4 307 605.4 307L600.2 339.5C600.1 340 600.2 340.5 600.5 340.8Z" fill="black"/>
<path d="M523.9 305.6C527.49 305.6 530.4 302.69 530.4 299.1C530.4 295.51 527.49 292.6 523.9 292.6C520.31 292.6 517.4 295.51 517.4 299.1C517.4 302.69 520.31 305.6 523.9 305.6Z" fill="#FFAD00"/>
<path d="M529.1 295.2C531.2 298.1 530.6 302.1 527.8 304.2C524.9 306.3 520.9 305.7 518.8 302.9C516.7 300 517.3 296 520.1 293.9C522.9 291.8 527 292.4 529.1 295.2ZM531.7 293.3C528.5 289 522.4 288.1 518.1 291.3C513.8 294.5 512.9 300.6 516.1 304.9C519.3 309.2 525.4 310.1 529.7 306.9C534 303.7 534.9 297.6 531.7 293.3Z" fill="black"/>
<path d="M576.1 169.6C576.8 170.4 577.8 170.4 578.5 169.9C585.5 163.8 592.6 161.2 599.5 162.1C610.8 163.6 618.1 174 618.2 174.1C618.6 174.9 619.6 175.1 620.4 174.7C621.2 174.3 621.4 173.3 621 172.5C621 172.4 620.9 172.4 620.9 172.3C620.6 171.8 612.7 160.6 600 158.9C592.1 157.9 584.2 160.8 576.4 167.5C575.7 167.9 575.6 168.9 576.1 169.6Z" fill="white"/>
<path d="M641.8 346.6C641.8 346.6 598.3 349.4 595.4 390C595.4 390 618.2 390.7 641.8 346.6Z" fill="#FFB49F"/>
<path d="M701.4 399.5C726.7 448.2 659.1 533.5 659.1 533.5C659.1 533.5 550.4 539.9 525.1 491.2C507.9 458.2 506.6 418.9 534.1 402.6C569.9 381.4 596.5 418.5 596.5 418.5C596.5 418.5 594.8 373.1 622.2 357.5C652.4 340.3 684.5 367.1 701.4 399.5Z" fill="#D9CFFF"/>
<path d="M646.9 535.3C631.7 535.3 616.5 534.3 601.4 532.1C560.6 526.1 534.5 512.5 523.8 491.9C507.5 460.6 503.6 418.9 533.4 401.3C563.4 383.6 587.3 405.6 595.1 414.4C595.4 402.6 598.4 369.5 621.5 356.3C631.3 350.5 643.1 349.1 654 352.5C672.2 357.9 690.4 375.2 702.7 398.9C713.4 419.5 709.5 448.7 691.1 485.5C682.3 502.7 672 519.1 660.3 534.5L659.9 535H659.2C659.1 535 654.4 535.3 646.9 535.3ZM556.5 397.5C549.3 397.5 542.1 399.6 534.9 403.9C506.8 420.5 510.8 460.5 526.4 490.5C550 535.8 649.1 532.4 658.3 532C663.9 524.7 723.6 445.5 700 400.2C688 377.2 670.5 360.5 653.1 355.3C643 352.2 632 353.4 622.9 358.8C596.6 373.8 598 418 598 418.4L598.2 423.4L595.3 419.4C590.5 413.2 584.6 407.9 577.9 403.8C571.5 399.8 564.1 397.6 556.5 397.5Z" fill="#1D1E1B"/>
<path d="M690 436C688.3 436 687 434.7 687 433C687 412.9 679 396.4 663.3 383.9C656.1 378.2 647.9 373.8 639.2 370.9C637.6 370.5 636.7 368.8 637.1 367.2C637.5 365.6 639.2 364.7 640.8 365.1C650.3 368.1 659.1 372.8 666.8 379C678.7 388.4 692.9 405.4 692.9 433C693 434.7 691.7 436 690 436Z" fill="white"/>
<path d="M523.8 545.8C523.8 545.8 520.1 426.4 586.3 455L605.6 438.5C605.6 438.5 637.3 433.6 620.4 465.8C620.4 465.8 648.1 458.6 629.4 499.7C629.4 499.7 653.2 496.1 624.1 548.8C607.4 579.1 562.6 601.9 562.6 601.9L523.8 545.8Z" fill="#FFCDB2"/>
<path d="M562.6 603.4C562.1 603.4 561.6 603.2 561.4 602.7L522.6 546.6C522.4 546.4 522.3 546.1 522.3 545.8C522.2 542.9 520.5 474.3 549.8 454.3C559.6 447.6 571.8 447.2 586 453.1L604.6 437.2C604.8 437 605.1 436.9 605.3 436.8C605.9 436.7 619.1 434.7 624.6 442.3C628 447 627.4 454.2 623 463.7C626.2 463.4 631.3 463.8 634.5 467.6C639 473 638 483.2 631.6 498C634.1 498.3 636.4 499.6 637.9 501.7C643 509 638.7 525 625.4 549.2C608.7 579.5 565.1 602 563.2 602.9C563.1 603.3 562.9 603.4 562.6 603.4ZM525.3 545.3L563.1 599.9C570.2 596.1 608.1 574.8 622.9 548C639.7 517.6 638.1 507.1 635.6 503.6C634.2 501.8 632 500.8 629.7 501.1C629.2 501.2 628.6 501 628.3 500.5C628 500.1 627.9 499.5 628.1 499C636.5 480.6 635 472.9 632.3 469.7C628.6 465.3 620.9 467.2 620.8 467.2C620 467.4 619.2 466.9 619 466.1C618.9 465.7 619 465.4 619.1 465.1C624.1 455.4 625.2 448.4 622.2 444.3C618.3 438.8 608.3 439.7 606.2 439.9L587.2 456.1C586.8 456.5 586.2 456.6 585.6 456.3C572 450.4 560.5 450.6 551.4 456.8C524.7 475.1 525.2 539.3 525.3 545.3Z" fill="#1D1D1B"/>
<path d="M548.9 490C548.9 490 557.5 474.9 586.4 454.9L548.9 490Z" fill="#FFCDB2"/>
<path d="M548.9 492C548.5 492 548.2 491.9 547.9 491.7C546.9 491.2 546.6 489.9 547.1 489C547.5 488.4 556.2 473.2 585.2 453.2C586.1 452.6 587.4 452.8 588 453.7C588.6 454.6 588.4 455.9 587.5 456.5C559.4 475.9 550.7 490.8 550.7 490.9C550.2 491.6 549.6 492 548.9 492Z" fill="#1D1D1B"/>
<path d="M570.3 523.1C570.3 523.1 590.4 501.3 620.5 465.7L570.3 523.1Z" fill="#FFCDB2"/>
<path d="M570.3 524.6C569.9 524.6 569.6 524.5 569.3 524.2C568.7 523.6 568.6 522.7 569.2 522.1C569.4 521.9 589.6 499.9 619.3 464.8C619.8 464.2 620.8 464.1 621.4 464.6C622 465.1 622.1 466.1 621.6 466.7C591.8 501.9 571.6 523.9 571.4 524.1C571.1 524.5 570.7 524.7 570.3 524.6Z" fill="#1D1D1B"/>
<path d="M582.6 552.4C582.6 552.4 604.3 543.3 629.2 500.5L582.6 552.4Z" fill="#FFCDB2"/>
<path d="M582.6 553.9C581.8 553.9 581.1 553.2 581.1 552.4C581.1 551.8 581.5 551.3 582 551C582.2 550.9 603.6 541.5 627.9 499.7C628.3 499 629.2 498.6 629.9 499C630.6 499.4 630.9 500.3 630.6 501C630.6 501.1 630.5 501.1 630.5 501.2C605.7 544 584.1 553.4 583.2 553.8C583 553.9 582.8 553.9 582.6 553.9Z" fill="#1D1D1B"/>
<path d="M586.6 533.8C586.6 533.8 590.3 414.4 524.1 443L504.8 426.5C504.8 426.5 473.2 421.6 490 453.8C490 453.8 462.3 446.6 481 487.7C481 487.7 457.2 484.1 486.3 536.8C503 567.1 547.9 589.9 547.9 589.9L586.6 533.8Z" fill="#FFCDB2"/>
<path d="M547.8 591.4C547.6 591.4 547.3 591.3 547.1 591.2C545.3 590.3 501.6 567.8 484.9 537.5C471.5 513.2 467.3 497.2 472.4 490C473.9 487.9 476.2 486.6 478.7 486.3C472.3 471.5 471.3 461.3 475.8 455.9C479 452.1 484.1 451.8 487.3 452C482.8 442.5 482.3 435.4 485.7 430.6C491.1 423 504.4 425 505 425.1C505.3 425.2 505.5 425.3 505.7 425.5L524.3 441.4C538.5 435.5 550.7 435.9 560.5 442.6C589.8 462.5 588.1 531.1 588 534.1C588 534.4 587.9 534.7 587.7 534.9L549 590.7C548.7 591.1 548.3 591.4 547.8 591.4ZM480.1 489.1C478 489 476.1 490 474.9 491.7C472.5 495.2 470.9 505.7 487.6 536C502.4 562.8 540.3 584.1 547.4 587.9L585.2 533.3C585.3 527.3 585.8 463.1 559 444.9C549.9 438.7 538.4 438.5 524.8 444.4C524.3 444.6 523.7 444.5 523.2 444.2L504.2 428C502.1 427.7 492.1 426.9 488.2 432.4C485.2 436.5 486.3 443.6 491.3 453.2C491.7 453.9 491.4 454.9 490.6 455.2C490.3 455.4 489.9 455.4 489.6 455.3C489.5 455.3 481.8 453.4 478.1 457.8C475.4 461 474 468.7 482.3 487.1C482.5 487.6 482.5 488.2 482.1 488.6C481.8 489 481.2 489.3 480.7 489.2C480.5 489.1 480.3 489.1 480.1 489.1Z" fill="#1D1D1B"/>
<path d="M561.6 478C561.6 478 553 462.9 524.1 442.9L561.6 478Z" fill="#FFCDB2"/>
<path d="M561.6 479.5C561.1 479.5 560.6 479.2 560.3 478.7C560.2 478.6 551.5 463.6 523.3 444.1C522.6 443.7 522.4 442.7 522.8 442C523.2 441.3 524.2 441.1 524.9 441.5L525 441.6C553.8 461.5 562.5 476.6 562.9 477.2C563.3 477.9 563.1 478.8 562.3 479.2C562.1 479.5 561.8 479.5 561.6 479.5Z" fill="#1D1D1B"/>
<path d="M540.1 511.1C540.1 511.1 520 489.3 490 453.7L540.1 511.1Z" fill="#FFCDB2"/>
<path d="M540.1 512.6C539.7 512.6 539.3 512.4 539 512.1C538.8 511.9 518.5 489.8 488.8 454.7C488.3 454.1 488.3 453.1 489 452.6C489.6 452.1 490.6 452.1 491.1 452.8C520.8 487.9 541 509.9 541.2 510.1C541.8 510.7 541.7 511.7 541.1 512.2C540.9 512.5 540.5 512.7 540.1 512.6Z" fill="#1D1D1B"/>
<path d="M527.8 540.4C527.8 540.4 506.1 531.3 481.2 488.5L527.8 540.4Z" fill="#FFCDB2"/>
<path d="M527.8 541.9C527.6 541.9 527.4 541.9 527.2 541.8C526.3 541.4 504.8 532 479.9 489.2C479.5 488.5 479.7 487.6 480.4 487.1C481.1 486.7 482 486.9 482.5 487.7C506.8 529.5 528.1 538.9 528.3 539C529.1 539.3 529.4 540.2 529.1 541C529 541.6 528.4 541.9 527.8 541.9Z" fill="#1D1D1B"/>
<path d="M725 478C725 478 775 516.2 792 614C820.5 778.5 675.7 788.1 637.6 759.6C599.5 731.1 527.9 685.3 518.3 651.3C508.7 617.3 530.5 604.6 530.5 604.6L518.3 580.8L590.3 521.5L601.9 535.4C601.9 535.4 636.4 523.8 654.2 551.3C672 578.8 692.3 615.3 704 630.6" fill="#FFAD00"/>
<path d="M685.4 773.6H685.2C665.5 773.6 647.4 768.8 636.8 760.9C630.4 756.1 623.1 750.9 615.3 745.3C575 716.4 525 680.5 516.9 651.7C508.5 621.7 524.1 607.4 528.7 604.1L516.5 580.4L590.6 519.4L602.5 533.7C608.4 532 639.1 525 655.5 550.5C662.8 561.8 670.5 574.5 677.9 586.8C688.4 604.3 698.4 620.7 705.2 629.6L702.8 631.4C695.9 622.4 685.9 605.8 675.3 588.3C667.9 576 660.2 563.3 652.9 552C636 525.9 603.7 536.3 602.3 536.7L601.3 537L590 523.5L520.1 581.1L532.4 605.1L531.2 605.8C530.4 606.3 510.5 618.4 519.6 650.8C527.4 678.6 579.1 715.7 616.9 742.8C624.7 748.4 632 753.6 638.4 758.4C648.6 766 666 770.5 685 770.6H685.2C706.9 770.6 728.2 764.8 745.4 754.3C773.9 736.8 804.9 698.3 790.4 614.3C773.7 518.1 724.5 479.6 724 479.2L725.8 476.8C726.3 477.2 738.7 486.7 753.3 508.5C766.7 528.5 784.6 563 793.4 613.8C799.7 650.1 798 681.3 788.3 706.5C780 728.2 766.1 745.1 747 756.8C729.5 767.6 707.6 773.6 685.4 773.6Z" fill="#1D1D1B"/>
<path d="M533 605C533 605 591 592 601 537L590 523L521 581L533 605Z" fill="#E89D00"/>
<path d="M337.1 591.5C341.574 591.5 345.2 587.874 345.2 583.4C345.2 578.927 341.574 575.3 337.1 575.3C332.626 575.3 329 578.927 329 583.4C329 587.874 332.626 591.5 337.1 591.5Z" fill="#FFC140"/>
<path d="M428.1 545.5C432.574 545.5 436.2 541.874 436.2 537.4C436.2 532.927 432.574 529.3 428.1 529.3C423.626 529.3 420 532.927 420 537.4C420 541.874 423.626 545.5 428.1 545.5Z" fill="#FFC140"/>
<path d="M413.1 490.5C417.574 490.5 421.2 486.874 421.2 482.4C421.2 477.926 417.574 474.3 413.1 474.3C408.626 474.3 405 477.926 405 482.4C405 486.874 408.626 490.5 413.1 490.5Z" fill="#FFC140"/>
<path d="M454.1 441.5C458.574 441.5 462.2 437.874 462.2 433.4C462.2 428.926 458.574 425.3 454.1 425.3C449.626 425.3 446 428.926 446 433.4C446 437.874 449.626 441.5 454.1 441.5Z" fill="#FFC140"/>
<path d="M337.1 715.5C341.574 715.5 345.2 711.874 345.2 707.4C345.2 702.927 341.574 699.3 337.1 699.3C332.626 699.3 329 702.927 329 707.4C329 711.874 332.626 715.5 337.1 715.5Z" fill="#FFC140"/>
<path d="M472.1 701.5C476.574 701.5 480.2 697.874 480.2 693.4C480.2 688.927 476.574 685.3 472.1 685.3C467.626 685.3 464 688.927 464 693.4C464 697.874 467.626 701.5 472.1 701.5Z" fill="#FFC140"/>
<path d="M422.1 645.5C426.574 645.5 430.2 641.874 430.2 637.4C430.2 632.927 426.574 629.3 422.1 629.3C417.626 629.3 414 632.927 414 637.4C414 641.874 417.626 645.5 422.1 645.5Z" fill="#FFC140"/>
<path d="M544.2 667.5C548.674 667.5 552.3 663.874 552.3 659.4C552.3 654.927 548.674 651.3 544.2 651.3C539.727 651.3 536.1 654.927 536.1 659.4C536.1 663.874 539.727 667.5 544.2 667.5Z" fill="#FFC140"/>
<path d="M642.2 616.5C646.674 616.5 650.3 612.874 650.3 608.4C650.3 603.927 646.674 600.3 642.2 600.3C637.727 600.3 634.1 603.927 634.1 608.4C634.1 612.874 637.727 616.5 642.2 616.5Z" fill="#FFC140"/>
<path d="M638.2 707.5C642.674 707.5 646.3 703.874 646.3 699.4C646.3 694.927 642.674 691.3 638.2 691.3C633.727 691.3 630.1 694.927 630.1 699.4C630.1 703.874 633.727 707.5 638.2 707.5Z" fill="#FFC140"/>
<path d="M721.2 733.5C725.674 733.5 729.3 729.874 729.3 725.4C729.3 720.927 725.674 717.3 721.2 717.3C716.727 717.3 713.1 720.927 713.1 725.4C713.1 729.874 716.727 733.5 721.2 733.5Z" fill="#FFC140"/>
<path d="M774.2 638.5C778.674 638.5 782.3 634.874 782.3 630.4C782.3 625.927 778.674 622.3 774.2 622.3C769.727 622.3 766.1 625.927 766.1 630.4C766.1 634.874 769.727 638.5 774.2 638.5Z" fill="#FFC140"/>
<path d="M686.2 564.5C690.674 564.5 694.3 560.874 694.3 556.4C694.3 551.927 690.674 548.3 686.2 548.3C681.727 548.3 678.1 551.927 678.1 556.4C678.1 560.874 681.727 564.5 686.2 564.5Z" fill="#FFC140"/>
<path d="M512.156 800.755C512.873 796.339 509.874 792.178 505.458 791.461C501.043 790.745 496.882 793.744 496.165 798.159C495.449 802.575 498.447 806.736 502.863 807.452C507.279 808.169 511.44 805.17 512.156 800.755Z" fill="#FFC140"/>
<path d="M329.1 834.5C333.574 834.5 337.2 830.874 337.2 826.4C337.2 821.927 333.574 818.3 329.1 818.3C324.626 818.3 321 821.927 321 826.4C321 830.874 324.626 834.5 329.1 834.5Z" fill="#FFC140"/>
<path d="M576.2 774.5C580.674 774.5 584.3 770.874 584.3 766.4C584.3 761.927 580.674 758.3 576.2 758.3C571.727 758.3 568.1 761.927 568.1 766.4C568.1 770.874 571.727 774.5 576.2 774.5Z" fill="#FFC140"/>
<path d="M733.2 828.5C737.674 828.5 741.3 824.874 741.3 820.4C741.3 815.927 737.674 812.3 733.2 812.3C728.727 812.3 725.1 815.927 725.1 820.4C725.1 824.874 728.727 828.5 733.2 828.5Z" fill="#FFC140"/>
<path d="M269 452C268.3 452 267.6 451.6 267.2 450.9C251.3 420.1 248.4 394 258.4 373.3C273.1 342.9 310 335.4 311.6 335.1C312.7 335 313.7 335.7 313.8 336.8C313.9 337.8 313.3 338.8 312.3 339C311.9 339 275.8 346.5 261.9 375C252.5 394.6 255.4 419.5 270.7 449C271.2 450 270.8 451.2 269.8 451.7C269.6 451.9 269.3 452 269 452Z" fill="#1D1D1B"/>
<path d="M278 662C276.4 662 275 660.7 275 659.1C273.4 607.3 287.6 568.5 299.7 545C312.9 519.5 326.3 506.4 326.9 505.8C328.1 504.7 330 504.8 331.1 506C332.2 507.2 332.1 509 331 510.1C330.8 510.3 317.5 523.3 304.8 547.9C293 570.7 279.4 608.4 280.9 658.8C281.1 660.6 279.7 661.9 278 662C278.1 662 278.1 662 278 662Z" fill="white"/>
<path d="M690 640C688.8 640 687.8 639.3 687.3 638.3C649.3 557.6 628.8 547.5 621.7 546.9C618 546.6 616.4 548.7 616.4 548.7C615.5 550.1 613.6 550.5 612.3 549.6C610.9 548.7 610.5 546.8 611.4 545.5C611.4 545.4 611.5 545.4 611.5 545.3C612.8 543.5 616.5 540.5 622.2 540.9C639.8 542.3 664.2 575.1 692.7 635.7C693.4 637.2 692.8 639 691.3 639.7C690.9 639.9 690.4 640 690 640Z" fill="white"/>
<path d="M813 624H812.8C811.7 623.9 810.9 622.9 811 621.8C817.1 568.3 795.3 524.9 775.9 497.9C754.8 468.6 732 451.8 731.8 451.6C730.9 450.9 730.7 449.7 731.4 448.8C732.1 447.9 733.3 447.7 734.2 448.4C734.4 448.6 757.7 465.7 779.1 495.5C799 523 821.3 567.3 815 622.2C814.9 623.2 814 624 813 624Z" fill="#1D1D1B"/>
</svg>
