<svg width="1000" height="1000" viewBox="0 0 1000 1000" fill="none" xmlns="http://www.w3.org/2000/svg">
<rect width="1000" height="1000" fill="white"/>
<path d="M763.5 905.2L214.8 901.9C213.7 901.9 212.8 901 212.8 899.9C212.8 898.8 213.7 897.9 214.8 897.9L763.5 901.2C764.6 901.2 765.5 902.1 765.5 903.2C765.5 904.3 764.6 905.2 763.5 905.2Z" fill="black"/>
<path d="M235.1 876.1H156.2C155.4 876.1 154.7 875.4 154.7 874.6C154.7 873.8 155.4 873.1 156.2 873.1H235.1C235.9 873.1 236.6 873.8 236.6 874.6C236.6 875.4 235.9 876.1 235.1 876.1Z" fill="black"/>
<path d="M704 402.6C704 402.6 699.9 375.2 727.5 365.6C755.1 356 783.8 355.6 800.2 371.2C816.6 386.8 817 404.4 811.1 415.8C805.2 427.2 792.5 428.7 779.8 418.4C779.8 418.4 765.9 435.8 744.6 416.5C744.6 416.5 713.8 434.3 715.4 402.5L704 402.6Z" fill="#FFCDB2"/>
<path d="M769.9 359.1C781.8 360 792.4 363.8 800.3 371.2C816.8 386.7 817.1 404.4 811.2 415.8C807.7 422.5 801.9 425.8 795.1 425.2C790.3 424.8 785.1 422.6 779.9 418.4C779.9 418.4 773.5 426.4 762.8 425.6C757.7 425.2 751.6 422.8 744.7 416.6C744.7 416.6 735.1 422.2 726.9 421.5C720.4 421 714.8 416.6 715.5 402.6L704 402.7C704 402.7 699.9 375.3 727.5 365.7C742 360.6 756.8 358.1 769.9 359.1ZM770.1 356.9C757.1 355.9 742.1 358.2 726.8 363.6C711.6 368.9 705.6 379.4 703.3 387.2C701.7 392.3 701.2 397.7 701.8 403.1C702 404.1 702.8 404.9 703.9 405H704.1L713.2 404.9C713.2 419.6 720.5 423.3 726.8 423.8C733.7 424.3 741.3 420.9 744.5 419.3C750.6 424.5 756.7 427.4 762.7 427.8C769.2 428.2 775.5 425.9 780.2 421.4C785.1 425 790.2 427 795 427.4C802.8 428 809.5 424.1 813.3 416.8C816.8 410 817.9 402.2 816.5 394.7C814.9 385.7 809.9 377 802 369.6C794.1 362.2 783.3 357.8 770.1 356.9Z" fill="black"/>
<path d="M779.2 422.6C779 422.6 778.8 422.6 778.6 422.5C777.8 422.2 777.5 421.3 777.8 420.5C788.6 395.5 772.8 378.4 772.1 377.7C771.5 377.1 771.6 376.1 772.2 375.6C772.8 375.1 773.7 375.1 774.3 375.6C774.5 375.8 792.2 394.8 780.6 421.6C780.3 422.2 779.8 422.5 779.2 422.6Z" fill="#1D1D1B"/>
<path d="M745.2 420.1C745 420.1 744.7 420.1 744.5 420C743.8 419.6 743.5 418.7 743.8 418C750.4 404.5 744.6 382.1 744.6 381.9C744.4 381.1 744.9 380.3 745.7 380.1C746.5 379.9 747.3 380.4 747.5 381.2C747.8 382.2 753.7 404.9 746.5 419.5C746.3 419.8 745.8 420.1 745.2 420.1Z" fill="#1D1D1B"/>
<path d="M714.5 406.6C713.8 406.6 713.2 406.1 713 405.5C712.8 404.9 709.4 391.1 715.2 382.6C715.6 381.9 716.5 381.7 717.3 382.1C718.1 382.5 718.2 383.4 717.8 384.2L717.7 384.3C712.7 391.6 715.9 404.6 716 404.8C716.2 405.6 715.7 406.4 714.9 406.6C714.7 406.6 714.6 406.6 714.5 406.6Z" fill="#1D1D1B"/>
<path d="M804.7 419.6C803 419.6 801.7 418.2 801.7 416.6C801.7 416.2 801.8 415.8 801.9 415.5C806 405.8 806.5 397 803.3 389.3C798.2 376.9 785.2 371.4 785.1 371.3C783.6 370.7 782.8 368.9 783.5 367.4C784.2 365.9 785.9 365.1 787.4 365.8C788 366.1 802.8 372.3 808.8 387C812.6 396.2 812.1 406.6 807.4 417.9C807.1 418.8 805.9 419.6 804.7 419.6Z" fill="white"/>
<path d="M929.4 584.7H891.9C890.8 584.7 889.6 584.8 888.5 584.9C881.1 552.6 867.2 522.2 847.6 495.5L869.4 471.1C879.7 459.6 878.7 441.9 867.2 431.6L823.2 392.2C811.7 381.9 794 382.9 783.7 394.4L759.5 421.4C741.7 412.6 722.9 406 703.5 401.8V368C703.5 352.5 691 340 675.5 340H616.5C601 340 588.5 352.5 588.5 368V404.8C565 411.1 542.5 421 522 434L494.7 409.6C483.2 399.3 465.5 400.3 455.2 411.8L415.8 455.8C405.5 467.3 406.5 485 418 495.3L442 516.8C429.7 537.9 420.6 560.8 415.1 584.6H379.5C364 584.6 351.5 597.1 351.5 612.6V671.6C351.5 687.1 364 699.6 379.5 699.6H416.6C423 724.6 433.5 748.5 447.5 770.2L423.4 797.1C413.1 808.6 414.1 826.3 425.6 836.6L469.6 875.9C481.1 886.2 498.8 885.2 509.1 873.7L530.9 849.5C551.9 861.6 574.5 870.4 598.2 875.7C598.1 876.4 598.1 877.2 598.1 877.9V901.4H713.1V878C713.1 876.7 713 875.3 712.8 874C739.5 867.1 764.7 855.7 787.6 840.2C788.2 840.9 788.9 841.6 789.6 842.2L817.6 867.2C829.1 877.4 846.7 876.4 857 865L896.3 821C906.6 809.5 905.6 791.8 894.1 781.5L866.1 756.5C865.7 756.1 865.2 755.7 864.7 755.4C874.4 737.7 881.9 718.9 886.9 699.3C888.5 699.6 890.2 699.7 891.8 699.7H929.3C944.8 699.7 957.3 687.2 957.3 671.7V612.7C957.4 597.2 944.8 584.7 929.4 584.7ZM652.3 812C556.5 812 478.9 734.4 478.9 638.6C478.9 542.8 556.5 465.2 652.3 465.2C748.1 465.2 825.7 542.8 825.7 638.6C825.8 734.3 748.2 812 652.3 812C652.4 812 652.4 812 652.3 812Z" fill="#D9CFFF"/>
<path d="M714.6 903H596.6V878C596.6 877.7 596.6 877.3 596.6 876.9C573.7 871.6 551.7 863 531.2 851.4L510.3 874.7C499.4 886.8 480.8 887.9 468.7 877L424.7 837.7C412.6 826.9 411.5 808.2 422.3 796.1L445.6 770C432 748.7 421.9 725.5 415.5 701.1H379.5C363.2 701.1 350.1 687.9 350 671.6V612.6C350 596.3 363.2 583.1 379.5 583.1H414C419.4 559.9 428.2 537.7 440.1 517.1L417 496.6C404.9 485.8 403.8 467.1 414.7 455L454.1 411C465 398.9 483.6 397.8 495.7 408.7L522.1 432.3C542.2 419.7 564 410 586.9 403.8V368C586.9 351.7 600.1 338.6 616.4 338.5H675.4C691.7 338.5 704.9 351.6 705 367.9V400.6C723.7 404.8 741.9 411.1 759.2 419.6L782.6 393.4C793.5 381.3 812.1 380.2 824.2 391.1L868.2 430.5C880.3 441.3 881.4 460 870.5 472.1L849.5 495.6C868.6 521.8 882.3 551.7 889.7 583.3C890.5 583.2 891.2 583.2 892 583.2H929.5C945.8 583.2 958.9 596.4 959 612.7V671.7C959 688 945.8 701.2 929.5 701.2H892C890.7 701.2 889.5 701.1 888.2 700.9C883.3 719.7 876.1 737.8 866.9 754.9L867.4 755.3L895.4 780.3C907.5 791.2 908.6 809.8 897.7 821.9L858.4 865.9C847.6 878 828.9 879.1 816.8 868.3L788.8 843.3C788.4 842.9 788 842.5 787.6 842.1C765.3 857 740.7 868.2 714.7 875C714.8 876 714.8 876.9 714.9 877.9L714.6 903ZM599.6 900H711.6V878C711.6 876.7 711.5 875.5 711.3 874.2L711.1 872.9L712.4 872.6C738.9 865.7 764 854.4 786.7 839.1L787.8 838.4L788.7 839.4C789.3 840.1 790 840.7 790.6 841.3L818.6 866.3C829.5 876 846.2 875.1 856 864.2L895.3 820.2C905 809.3 904.1 792.6 893.2 782.8L865.2 757.8C864.8 757.4 864.4 757.1 863.9 756.7L862.9 755.9L863.5 754.8C873.1 737.2 880.5 718.5 885.5 699L885.8 697.7L887.2 697.9C888.7 698.2 890.3 698.3 891.8 698.3H929.3C943.9 698.3 955.7 686.4 955.8 671.8V612.8C955.8 598.2 943.9 586.4 929.3 586.3H891.8C890.7 586.3 889.6 586.4 888.5 586.5L887.2 586.7L886.9 585.4C879.6 553.3 865.8 523 846.2 496.5L845.5 495.5L868.1 470.2C877.8 459.3 876.9 442.6 866 432.8L822 393.4C811.1 383.7 794.4 384.6 784.6 395.5L759.7 423.3L758.7 422.8C741 414 722.3 407.5 703 403.3L701.8 403V368C701.8 353.4 689.9 341.5 675.3 341.5H616.3C601.7 341.5 589.8 353.3 589.8 367.9V405.8L588.7 406.1C565.3 412.4 543.1 422.2 522.6 435.2L521.6 435.8L493.5 410.7C482.6 401 465.9 401.9 456.1 412.8L416.7 456.8C407 467.7 407.9 484.4 418.8 494.2L443.8 516.5L443.2 517.6C430.9 538.6 421.9 561.3 416.5 585L416.2 586.2H379.4C364.8 586.2 353 598.1 352.9 612.7V671.7C352.9 686.3 364.8 698.1 379.4 698.2H417.7L418 699.3C424.4 724.2 434.8 747.9 448.7 769.4L449.3 770.4L424.5 798.2C414.8 809.1 415.7 825.8 426.6 835.6L470.6 874.9C481.5 884.6 498.2 883.7 508 872.8L530.5 847.6L531.6 848.2C552.4 860.2 575 869 598.4 874.3L599.7 874.6L599.6 875.9C599.5 876.7 599.5 877.4 599.5 878L599.6 900ZM652.3 813.4C555.8 813.4 477.4 734.9 477.4 638.5C477.4 542.1 555.9 463.6 652.3 463.6C748.7 463.6 827.2 542.1 827.2 638.5C827.2 734.9 748.8 813.4 652.3 813.4ZM652.3 466.6C557.5 466.6 480.4 543.7 480.4 638.5C480.4 733.3 557.5 810.4 652.3 810.4C747.1 810.4 824.2 733.3 824.2 638.5C824.2 543.7 747.2 466.6 652.3 466.6Z" fill="#1D1E1B"/>
<path d="M731.7 543.3C736.174 543.3 739.8 539.674 739.8 535.2C739.8 530.727 736.174 527.1 731.7 527.1C727.227 527.1 723.6 530.727 723.6 535.2C723.6 539.674 727.227 543.3 731.7 543.3Z" fill="#FFC140"/>
<path d="M718.5 630.1C722.973 630.1 726.6 626.473 726.6 622C726.6 617.526 722.973 613.9 718.5 613.9C714.026 613.9 710.4 617.526 710.4 622C710.4 626.473 714.026 630.1 718.5 630.1Z" fill="#FFC140"/>
<path d="M877 595C875.5 595 874.2 593.8 874 592.3C867.2 527.4 824.6 494.7 824.2 494.4C822.9 493.4 822.6 491.5 823.6 490.2C824.6 488.9 826.5 488.6 827.8 489.6C829.6 491 872.9 524.2 880 591.7C880.2 593.3 879 594.8 877.3 595C877.2 595 877.1 595 877 595Z" fill="white"/>
<path d="M852 857C851.3 857 850.5 856.7 850 856.2C848.8 855.1 848.7 853.2 849.8 852C850 851.7 873 826.8 885.8 813C888.3 810.5 889.7 807.1 889.5 803.5C889 795 880.1 787.4 880 787.3C878.8 786.2 878.7 784.3 879.8 783.1C880.9 781.9 882.6 781.8 883.9 782.8C884.4 783.2 894.8 792.1 895.5 803.2C895.8 808.4 893.9 813.5 890.2 817.2C877.4 831 854.4 855.9 854.2 856.2C853.6 856.7 852.8 857 852 857Z" fill="white"/>
<path d="M946 667C944.3 667 943 665.7 943 664V639C943 638.6 943.1 638.2 943.3 637.8C943.4 636.9 943.8 633.1 943 618.1C942.7 612.9 941.1 609 938.1 606.7C932.8 602.5 924.6 603.9 924.6 603.9C923 604.2 921.4 603.1 921.1 601.5C920.8 599.9 921.9 598.3 923.5 598C923.9 597.9 934.4 596 941.9 601.9C946.3 605.4 948.7 610.7 949.1 617.8C949.8 632.6 949.6 637.5 949.1 639.5V664C949 665.7 947.7 667 946 667ZM946 636C945.4 636 944.7 636.2 944.2 636.6C944.7 636.2 945.4 636 946 636Z" fill="white"/>
<path d="M550 435C548.3 435 547 433.7 547 432C547 431 547.5 430 548.4 429.5C549.8 428.6 583.7 407 628.2 409C629.9 409.1 631.1 410.5 631.1 412.1C631 413.7 629.6 415 628 415C585.5 413 552.1 434.3 551.8 434.5C551.1 434.8 550.6 435 550 435Z" fill="white"/>
<path d="M615 376C614.8 376 614.6 376 614.5 375.9C613.4 375.6 612.8 374.5 613.1 373.4C613.2 373 624.9 333.2 665.1 280.7C688.6 249.9 717.2 220.9 750 194.3C791 161.1 838.8 131.8 892.2 107.1C893.2 106.7 894.4 107.2 894.8 108.2C895.2 109.1 894.8 110.2 893.9 110.7C773.9 166.3 705 235.2 668.3 283.1C628.6 335 617.1 374 617 374.4C616.7 375.4 615.9 376 615 376Z" fill="#1D1D1B"/>
<path d="M646 379C645.7 379 645.5 379 645.3 378.9C644.3 378.5 643.8 377.3 644.2 376.3C644.3 376 655.1 348.9 679.1 318.7C701.3 290.7 739.7 254.3 796.5 239.1C797.6 238.9 798.6 239.6 798.8 240.7C799 241.7 798.4 242.6 797.5 242.9C741.8 257.7 704.1 293.5 682.3 321C658.6 350.8 648 377.5 647.9 377.7C647.5 378.5 646.8 379 646 379Z" fill="#1D1D1B"/>
<path d="M914 838C913.5 838 913 837.8 912.7 837.5C911.9 836.8 911.8 835.5 912.6 834.7C924.5 821.5 929.8 808.8 928.3 796.9C926.3 781.5 913.1 772.7 913 772.7C912.1 772.1 911.8 770.9 912.4 769.9C913 769 914.2 768.7 915.2 769.3C915.8 769.7 930 779.1 932.3 796.3C934 809.3 928.4 823.1 915.6 837.3C915.1 837.7 914.6 838 914 838Z" fill="#1D1D1B"/>
<path d="M798.5 543.7C757 482.9 699 468.8 673 465.5C666.5 472.6 663.5 482.2 664.7 491.8C667.9 519.4 665.9 557.4 675 570.5C675 570.5 625 533.7 514.9 523C511.5 522.4 508 521.9 504.5 521.5L433.7 515.8C433.7 515.8 354.2 509.2 285.7 547.8C217.2 586.4 115.5 671.5 140.5 734.5C163.1 791.5 190.5 798.5 230.5 792.5C254.2 789 308.9 751.8 308.9 751.8C308.9 751.8 287.3 806.1 308.9 898.8L670.5 901.5C670.5 901.5 682.5 784.5 662.5 696.5C773.5 735.5 779.2 600.8 798.5 543.7Z" fill="#FFAD00"/>
<path d="M671.8 903H670.4L307.6 900.3L307.3 899.1C289.2 821.5 301.5 770 306 755.4C293.3 763.8 251.1 790.9 230.6 793.9C189.8 800 161.7 792.3 139 735C127.7 706.6 140.8 670.6 176.9 631C204.5 600.7 244.9 569.1 285 546.5C353.1 508.1 433.1 514.2 433.9 514.3L504.7 520C508.1 520.4 511.6 520.9 515.2 521.5C605.6 530.3 656.1 557 671.2 566.2C667 555.6 666.2 538.3 665.3 520.2C664.8 510.6 664.3 500.7 663.3 491.9C662 481.9 665.1 471.9 671.9 464.5L672.4 463.9L673.2 464C693.2 466.6 712.6 472.6 730.6 481.6C758.3 495.5 781.5 516.1 799.7 542.8L800.1 543.4L799.9 544.1C796.4 554.3 793.4 567.2 790.1 580.8C779.9 623.8 767.1 677.3 730.9 697C713 706.8 690.6 707.3 664.4 698.6C683.4 785.5 672 900.3 671.8 901.5V903ZM310.1 897.3L669.2 900C670.4 886.7 679.7 778.5 661.1 696.8L660.5 694.1L663.1 695C689.9 704.4 711.7 704.3 729.7 694.5C764.7 675.4 777.3 622.6 787.4 580.2C790.6 566.8 793.6 554.1 797 543.9C755.7 483.9 697.7 470.2 673.8 467.1C667.9 473.8 665.3 482.7 666.4 491.6C667.4 500.4 667.9 510.4 668.4 520.1C669.4 540.3 670.5 561.1 676.5 569.7L681.7 577.1L674.4 571.7C673.9 571.3 623.4 535 515.1 524.5H515C511.5 523.9 508 523.4 504.6 523L433.9 517.3C433.1 517.2 354.1 511.2 286.8 549.1C217.7 587.9 117.4 672.3 141.9 734C164 789.8 190 797 230.3 791C253.4 787.5 307.5 750.9 308.1 750.5L312.1 747.8L310.3 752.3C310 752.9 289.3 807 310.1 897.3Z" fill="#1D1D1B"/>
<path d="M374 411.4C374 411.4 354.1 448.4 330.6 428.3C307.1 408.2 257.3 364.7 223.5 397.8C189.7 430.9 190.4 440.9 160.3 426.6C130.2 412.3 52.2999 439.4 92.6999 523.5C133.1 607.6 409.4 474.3 409.4 474.3L415.8 449L374 411.4Z" fill="#6C32AD"/>
<path d="M252.4 385.8C281.4 385.8 313.2 413.4 330.6 428.3C335.6 432.6 340.5 434.3 345 434.3C361.7 434.3 374 411.5 374 411.5L415.8 449L409.4 474.2C409.4 474.2 249.7 551.3 155.4 551.3C125.6 551.3 102.4 543.6 92.6999 523.5C59.0999 453.5 107.5 423 142 423C148.3 422.9 154.6 424.1 160.4 426.6C169.3 430.9 175.5 433 180.8 433C193.2 433 199.9 421.2 223.6 397.9C232.3 389.2 242.2 385.8 252.4 385.8ZM252.5 382.8C240.7 382.8 230.2 387.2 221.5 395.7C215.2 401.9 210.1 407.2 205.7 411.9C194.3 423.9 188.6 429.9 180.8 429.9C176.4 429.9 170.7 428.1 161.7 423.8C155.5 421.1 148.8 419.7 142.1 419.9C125.1 419.9 100.4 427.4 87.0999 448.7C78.3999 462.4 71.8999 486.8 90.0999 524.7C99.4999 544.3 121.5 554.2 155.5 554.2C195 554.2 250 541.2 318.9 515.5C370.2 496.4 410.4 477 410.8 476.8C411.6 476.4 412.2 475.7 412.4 474.8L418.8 449.6C419.1 448.5 418.7 447.4 417.9 446.6L376 409.1C375.5 408.6 374.7 408.3 374 408.3C373.8 408.3 373.7 408.3 373.5 408.3C372.6 408.5 371.8 409 371.4 409.8C371.3 410 359.7 431.1 345 431.1C340.8 431.1 336.6 429.3 332.5 425.8L331.6 425C314.3 410.2 282 382.5 252.4 382.5L252.5 382.8Z" fill="black"/>
<path d="M295.5 505.5C295.5 505.5 305.1 526 287.8 565.8C270.5 605.6 222.5 554.4 222.5 554.4L295.5 505.5Z" fill="#FFCDB2"/>
<path d="M267.8 582.4C247 582.4 222.6 556.6 221.5 555.4L220.3 554.1L296.2 503.3L296.9 504.9C297.3 505.8 306.6 526.5 289.2 566.4C285.2 575.5 279.4 580.8 271.7 582.1C270.4 582.3 269.1 582.4 267.8 582.4ZM224.9 554.6C230.5 560.2 253.7 582.1 271.2 579.1C277.8 578 282.9 573.3 286.4 565.2C300.5 532.9 296.4 513.4 294.7 507.8L224.9 554.6Z" fill="#1D1E1B"/>
<path d="M284.9 718.6C291.5 698.2 317 680.3 329.4 637.5C341.8 594.7 286.8 579.7 286.8 579.7L288.7 565.5C288.7 565.5 252.4 576 213.5 548.6L202.7 565.7C202.7 565.7 157.5 579 157.2 617.7C156.9 656.4 121.4 691.2 141.5 736.4" fill="#FFAD00"/>
<path d="M141.6 737.9C141 737.9 140.4 737.6 140.1 737C127.4 708.5 136.4 684.1 145.1 660.5C150.5 645.9 155.6 632.1 155.7 617.7C156 580.8 196.5 566.2 201.7 564.5L212.3 547.8C212.5 547.4 212.9 547.2 213.3 547.1C213.7 547 214.1 547.1 214.4 547.3C252.3 573.9 288 564.1 288.3 564C288.8 563.9 289.3 564 289.7 564.3C290.1 564.6 290.3 565.1 290.2 565.6L288.5 578.6C294.3 580.4 317.7 588.6 328 607C333.2 616.3 334.2 626.7 330.9 637.9C323.4 663.9 311 680.8 301 694.5C294.5 703.4 288.9 711.1 286.3 719.1C286 719.9 285.1 720.3 284.4 720C283.7 719.7 283.3 719 283.5 718.2C286.2 709.8 292 701.9 298.6 692.8C308.4 679.4 320.6 662.6 328 637.2C331 626.7 330.1 617.1 325.4 608.6C314.5 589.1 286.8 581.3 286.5 581.3C285.8 581.1 285.3 580.4 285.4 579.7L287 567.6C278.6 569.3 247.1 573.5 214 550.9L204 566.7C203.8 567 203.5 567.2 203.2 567.3C202.8 567.4 159 580.8 158.8 617.8C158.7 632.8 153.3 647.5 148.1 661.6C139.6 684.6 130.8 708.5 143 735.9C143.3 736.7 143 737.6 142.2 737.9C141.9 737.9 141.7 737.9 141.6 737.9Z" fill="black"/>
<path d="M509.6 522.2C509.6 522.2 522.8 548.8 491.8 555.8C460.8 562.8 454.8 546.8 454.8 546.8C454.8 546.8 433.8 566.8 414.8 549.8C395.8 532.8 418.8 514.8 418.8 514.8L509.6 522.2Z" fill="white"/>
<path d="M477.4 559.1C462.6 559.1 456.5 552.5 454.4 549.2C449.1 553.4 430.7 566 413.9 551C408.4 546.1 405.7 540.5 405.9 534.6C406.3 523 417.5 514.1 418 513.7C418.3 513.5 418.6 513.4 419 513.4L509.8 520.8C510.3 520.8 510.8 521.2 511 521.6C511.2 522.1 516.9 533.7 512 544.1C508.9 550.7 502.2 555.2 492.2 557.4C487.3 558.4 482.4 559 477.4 559.1ZM454.9 545.3C455 545.3 455.1 545.3 455.2 545.3C455.7 545.4 456.1 545.8 456.3 546.2C456.5 546.8 462.4 560.9 491.6 554.3C500.6 552.3 506.6 548.3 509.3 542.6C512.9 535 509.8 526.1 508.7 523.5L419.4 516.3C417.4 518 409.2 525.6 408.9 534.6C408.7 539.6 411.1 544.4 415.9 548.7C433.6 564.6 453 546.5 453.9 545.7C454.1 545.4 454.5 545.3 454.9 545.3Z" fill="black"/>
<path d="M434.8 359.8C455.676 359.8 472.6 342.876 472.6 322C472.6 301.124 455.676 284.2 434.8 284.2C413.924 284.2 397 301.124 397 322C397 342.876 413.924 359.8 434.8 359.8Z" fill="#6C32AD"/>
<path d="M434.8 284.3C455.7 284.3 472.6 301.2 472.6 322C472.6 342.8 455.7 359.8 434.9 359.8C414 359.8 397.1 342.9 397.1 322.1C397.1 309.2 403.7 297.2 414.5 290.2C420.5 286.4 427.6 284.3 434.8 284.3ZM434.8 281.3C412.3 281.3 394.1 299.6 394.1 322.1C394.1 344.6 412.4 362.8 434.9 362.8C457.4 362.8 475.6 344.5 475.6 322C475.6 314.2 473.4 306.7 469.2 300.1C461.7 288.4 448.7 281.3 434.8 281.3Z" fill="black"/>
<path d="M341.8 449.5C341.8 449.5 313.4 429.5 322.1 404.9C330.8 380.3 337.2 381.7 340.9 368.4C344.6 355.1 366.2 340 387.7 343.9C387.7 343.9 411.6 321.9 435.7 325.5C459.8 329.1 469.1 339.5 477.6 357.1C486.1 374.7 493.6 382.2 500 394.4C506.4 406.6 517.7 441.5 470.6 472.9C423.5 504.3 341.8 449.5 341.8 449.5Z" fill="#6C32AD"/>
<path d="M430.2 325.1C432 325.1 433.9 325.2 435.7 325.5C459.7 329.1 469.1 339.5 477.6 357.1C486.1 374.7 493.6 382.2 500 394.4C506.4 406.6 517.7 441.5 470.6 472.9C460.1 479.9 447.9 482.6 435.3 482.6C391.2 482.6 341.7 449.4 341.7 449.4C341.7 449.4 313.3 429.4 322 404.8C330.7 380.2 337.1 381.6 340.8 368.3C344.1 356.5 361.6 343.2 380.6 343.2C382.9 343.2 385.3 343.4 387.6 343.8C387.7 344 408.1 325.1 430.2 325.1ZM430.1 322.1C409.9 322.1 391.4 336.7 386.7 340.7C384.7 340.4 382.6 340.3 380.6 340.3C360 340.3 341.6 354.7 337.9 367.6C336.4 373 334.5 375.6 331.8 379.2C328.4 383.9 324.1 389.8 319.1 403.8C315.2 414.8 317.6 426.7 326.1 438.1C330 443.3 334.7 447.9 339.9 451.8C349.7 458.1 359.9 463.7 370.5 468.6C387.1 476.3 411.8 485.5 435.1 485.5C449.5 485.5 461.9 482.1 472.1 475.3C493.1 461.3 505.2 445 508.1 426.8C509.9 415.2 507.9 403.3 502.4 392.9C499.7 388 496.8 383.2 493.5 378.6C488.4 371.3 483.9 363.7 480 355.7C471.2 337.5 461.2 326.3 435.9 322.4C434.1 322.3 432.1 322.1 430.1 322.1Z" fill="black"/>
<path d="M431.8 414.8C431 414.8 430.3 414.2 430.2 413.4C430.1 412.6 430.8 411.9 431.6 411.8C447.2 410.4 461.5 392.9 461.7 392.7C462.2 392.1 463.2 392 463.8 392.5C464.4 393 464.5 394 464 394.6C463.4 395.4 448.7 413.2 431.9 414.8H431.8Z" fill="black"/>
<path d="M432.1 404C405.8 404 394.3 376.5 394.2 376.1C393.8 375.4 394 374.5 394.7 374C395.4 373.5 396.3 373.8 396.8 374.5C396.9 374.6 396.9 374.8 397 374.9C397.6 376.3 410.8 408.1 442.6 399.4C443.4 399.1 444.2 399.6 444.5 400.4C444.8 401.2 444.3 402 443.5 402.3H443.4C439.8 403.4 436 404 432.1 404Z" fill="white"/>
<path d="M472 286.2C471.4 286.2 470.8 285.8 470.6 285.2C467.8 277.3 463.2 271.8 456.9 268.8C445.7 263.5 432.7 268.1 432.6 268.2C431.8 268.4 431 267.9 430.8 267.2C430.6 266.5 431 265.7 431.6 265.4C432.2 265.2 445.9 260.3 458.2 266.2C465.2 269.5 470.4 275.6 473.5 284.3C473.8 285.1 473.4 285.9 472.6 286.2C472.4 286.2 472.2 286.2 472 286.2Z" fill="black"/>
<path d="M459.8 311.7C459.2 311.7 458.7 311.4 458.5 310.9C454.3 303.1 448.9 298.3 442.4 296.7C431.8 294.2 421.7 301 421.6 301.1C420.9 301.5 420 301.3 419.5 300.6C419.1 299.9 419.2 299.1 419.9 298.6C420.4 298.3 431.2 290.9 443.1 293.8C450.5 295.6 456.6 300.8 461.2 309.4C461.6 310.1 461.3 311 460.6 311.4C460.3 311.6 460 311.7 459.8 311.7Z" fill="white"/>
<path d="M417.2 501V516C417.2 516 443.2 555 493.2 523C493.2 523 468.7 487.7 455.5 445.9C455.5 445.9 474 440.9 470.2 424.3C466.4 407.7 452.8 405.5 445.1 410.5C445.1 410.5 415.1 433.7 380.2 370.5C380.2 370.5 347.8 385.7 342.7 420.2C337.6 454.7 346.3 493.9 373.1 504C399.9 514 417.2 501 417.2 501Z" fill="#FFCDB2"/>
<path d="M380.2 370.5C400.3 407 418.8 414.7 430.9 414.7C436 414.8 440.9 413.4 445.1 410.5C447.5 409 450.4 408.2 453.2 408.2C460.1 408.2 467.5 412.7 470.2 424.3C474 440.9 455.5 445.9 455.5 445.9C468.6 487.7 493.1 523 493.1 523C478.6 532.3 466 535.6 455.6 535.6C430.2 535.6 417.1 516 417.1 516V501C417.1 501 408.1 507.8 393.1 507.8C386.3 507.7 379.5 506.5 373.1 504C346.3 494 337.6 454.7 342.7 420.2C347.8 385.7 380.3 370.5 380.2 370.5ZM380.3 367.5C379.9 367.5 379.4 367.6 379 367.8C372.6 371.1 366.7 375.3 361.4 380.2C349.4 391.3 342 405 339.7 419.7C337 438.1 338.2 456.7 343 472.1C348.6 489.7 358.6 501.7 372 506.7C378.7 509.3 385.9 510.6 393.1 510.7C400.4 510.7 407.5 509.2 414.1 506.1V515.9C414.1 516.5 414.3 517.1 414.6 517.6C415.2 518.4 428.9 538.5 455.6 538.5C468 538.5 481.1 534.1 494.7 525.4C496.1 524.5 496.5 522.7 495.6 521.3C495.6 521.3 495.6 521.2 495.5 521.2C495.3 520.9 472.1 487.4 459.1 447.6C461.6 446.6 463.9 445.2 466 443.5C472.4 438.4 474.8 431.4 473 423.5C469.8 409.8 460.7 405 453.1 405C449.7 405 446.3 406 443.4 407.8L443.2 408C439.5 410.4 435.2 411.6 430.8 411.5C419.6 411.5 402.2 404.1 382.8 368.9C382.3 368.1 381.3 367.5 380.3 367.5Z" fill="black"/>
<path d="M416.7 504C415.9 504 415.2 503.3 415.2 502.5C415.2 501.9 415.6 501.3 416.2 501.1C430.5 496.3 441.4 480.5 441.5 480.4C442 479.7 442.9 479.5 443.6 480C444.3 480.5 444.5 481.4 444 482.1C443.5 482.8 432.5 498.9 417.1 504C417 504 416.8 504 416.7 504Z" fill="black"/>
<path d="M455.1 438.2C454.9 438.2 454.6 438.1 454.4 438C453.7 437.6 453.4 436.7 453.8 436C456.7 430.5 457.3 426.3 455.7 423.4C453.3 419.3 446.9 419 446.9 419C446.1 419 445.4 418.3 445.5 417.4C445.5 416.6 446.2 415.9 447 416C447.3 416 455.1 416.4 458.3 421.9C460.5 425.8 459.9 431 456.5 437.4C456.1 437.9 455.6 438.2 455.1 438.2Z" fill="black"/>
<path d="M381.6 421.4C401 422.9 425.3 411.2 430.6 417.3C435.9 423.4 433.8 432.9 423.9 436.5C414 440.1 403.8 441.2 382.9 442.4C362 443.6 341.3 443.2 342.2 431.8C343.1 420.4 353.1 419.2 381.6 421.4Z" fill="#FFB49F"/>
<path d="M358.1 412.2C357.3 412.2 356.6 411.5 356.6 410.7C356.6 410.3 356.7 410 357 409.7C357.3 409.4 363.6 402.1 372 402.7C372.8 402.8 373.5 403.5 373.4 404.3C373.3 405.1 372.6 405.8 371.8 405.7C364.9 405.2 359.3 411.6 359.3 411.6C359 412 358.6 412.2 358.1 412.2Z" fill="black"/>
<path d="M379.6 456.3C379.5 456.3 379.4 456.3 379.3 456.3C378.5 456.1 378 455.3 378.1 454.5L384.5 423.7C384.7 422.9 385.5 422.4 386.3 422.5C387.1 422.6 387.6 423.5 387.5 424.3L381.1 455.1C381 455.8 380.4 456.3 379.6 456.3Z" fill="black"/>
<path d="M463.1 451.1C466.524 451.1 469.3 448.324 469.3 444.9C469.3 441.476 466.524 438.7 463.1 438.7C459.676 438.7 456.9 441.476 456.9 444.9C456.9 448.324 459.676 451.1 463.1 451.1Z" fill="#FFAD00"/>
<path d="M463.1 438.7C466.5 438.7 469.3 441.5 469.3 444.9C469.3 447 468.2 449 466.4 450.1C463.5 451.9 459.7 451.1 457.9 448.2C456.1 445.3 456.9 441.5 459.8 439.7C460.8 439 461.9 438.7 463.1 438.7ZM463.1 435.7C458 435.7 453.9 439.8 453.9 444.9C453.9 450 458 454.1 463.1 454.1C468.2 454.1 472.3 450 472.3 444.9C472.3 443.2 471.8 441.5 470.9 440C469.2 437.3 466.3 435.7 463.1 435.7Z" fill="black"/>
<path d="M413.6 431.3C415.533 431.3 417.1 429.733 417.1 427.8C417.1 425.867 415.533 424.3 413.6 424.3C411.667 424.3 410.1 425.867 410.1 427.8C410.1 429.733 411.667 431.3 413.6 431.3Z" fill="black"/>
<path d="M362.4 434.8C364.333 434.8 365.9 433.233 365.9 431.3C365.9 429.367 364.333 427.8 362.4 427.8C360.467 427.8 358.9 429.367 358.9 431.3C358.9 433.233 360.467 434.8 362.4 434.8Z" fill="black"/>
<path d="M398 481.3C396.8 481.3 395.6 481.1 394.5 480.8C393.7 480.6 393.2 479.8 393.4 479C393.6 478.2 394.4 477.7 395.2 477.9C404.9 480.5 411.4 467.8 411.4 467.6C411.7 466.8 412.6 466.5 413.4 466.8C414.2 467.1 414.5 468 414.2 468.8C414.2 468.9 414.1 468.9 414.1 469C414 469.6 408 481.3 398 481.3Z" fill="black"/>
<path d="M394.3 403.7C393.9 403.7 393.6 403.5 393.3 403.3C392.7 402.7 392.7 401.8 393.2 401.2C393.7 400.7 398.2 396.1 402.4 397.6C403.2 397.9 403.6 398.7 403.3 399.5C403 400.3 402.2 400.7 401.4 400.4C399.4 399.7 396.3 402.3 395.4 403.2C395.1 403.6 394.7 403.7 394.3 403.7Z" fill="black"/>
<path d="M203.9 566.7C203.8 566.6 214.2 550.5 214.2 550.5C253.1 577.9 287.2 567.1 287.2 567.1L285.7 581.4L286 580.8C286 580.7 250.5 609.9 203.9 566.7Z" fill="#E89D00"/>
<path d="M558.4 580.9C562.874 580.9 566.5 577.273 566.5 572.8C566.5 568.326 562.874 564.7 558.4 564.7C553.927 564.7 550.3 568.326 550.3 572.8C550.3 577.273 553.927 580.9 558.4 580.9Z" fill="#FFC140"/>
<path d="M328.2 464.3L334.9 471.7C337.5 474.5 337.3 478.9 334.4 481.5L230.9 575.4C228.1 578 223.7 577.8 221.1 574.9L214.4 567.5C211.8 564.7 212 560.3 214.9 557.7L318.4 463.8C321.3 461.2 325.7 461.4 328.2 464.3Z" fill="#D9CFFF"/>
<path d="M226.3 578.6H225.9C223.7 578.5 221.6 577.5 220.1 575.9L213.4 568.5C210.3 565.1 210.5 559.7 214 556.6L317.5 462.7C320.9 459.6 326.2 459.9 329.4 463.3L336.1 470.7C339.2 474.1 339 479.4 335.5 482.6L232 576.4C230.5 577.8 228.4 578.6 226.3 578.6ZM323.1 463.5C321.8 463.5 320.5 464 319.5 464.9L216 558.8C213.8 560.8 213.6 564.2 215.6 566.4L222.3 573.8C224.3 576 227.7 576.2 229.9 574.2L333.4 480.3C335.6 478.3 335.8 474.9 333.8 472.7L327.1 465.3C326.1 464.1 324.6 463.5 323.1 463.5Z" fill="#1D1E1B"/>
<path d="M398.5 439.6L392.4 438.2C392.2 438.2 392 438.1 391.8 438.1C391.8 432.6 390.7 427.2 388.5 422.1L393 419C395.1 417.5 395.6 414.6 394.1 412.5L388.5 404.5C387 402.4 384.1 401.9 382 403.4L377.1 406.9C374.6 404.8 371.8 403 368.8 401.6L370.1 396.1C370.7 393.6 369.1 391.1 366.6 390.5L357.1 388.3C354.6 387.7 352.1 389.3 351.5 391.8L350.1 397.8C346.1 397.9 342.1 398.7 338.2 400.1L334.7 395.1C333.2 393 330.3 392.5 328.2 394L320.2 399.6C318.1 401.1 317.6 404 319.1 406.1L322.2 410.5C319.4 413.5 317.1 416.8 315.3 420.5L309.5 419.2C307 418.6 304.5 420.2 303.9 422.7L301.7 432.2C301.1 434.7 302.7 437.2 305.2 437.8L311.2 439.2C311.3 443.5 312.1 447.7 313.6 451.8L308.7 455.3C306.6 456.8 306.1 459.7 307.6 461.8L313.2 469.8C314.7 471.9 317.6 472.4 319.7 470.9L324.1 467.8C327 470.5 330.4 472.8 334 474.6C334 474.7 333.9 474.8 333.9 475L332.5 481.1C331.9 483.6 333.5 486.1 336 486.7L345.6 488.9C348.1 489.5 350.6 487.9 351.2 485.4L352.6 479.3C352.6 479.1 352.7 478.9 352.7 478.6C357.3 478.5 361.8 477.6 366.1 476C366.2 476.1 366.3 476.3 366.4 476.4L370 481.5C371.5 483.6 374.4 484.1 376.5 482.6L384.5 477C386.6 475.5 387.1 472.6 385.6 470.5L382 465.4L381.8 465.2C384 462.7 385.9 459.9 387.5 456.9C387.7 457 388 457.1 388.3 457.2L394.4 458.6C396.9 459.2 399.4 457.6 400 455.1L402.2 445.6C402.6 442.6 401 440.2 398.5 439.6ZM345.2 466C329.7 462.4 320 446.9 323.6 431.4C327.2 415.9 342.7 406.2 358.2 409.8C373.7 413.4 383.4 428.9 379.8 444.4C376.2 459.9 360.7 469.6 345.2 466Z" fill="#FFAD00"/>
<path d="M346.6 490.1C346.1 490.1 345.7 490 345.2 489.9L335.6 487.7C332.3 486.9 330.2 483.6 331 480.3L332.2 475C329.2 473.5 326.4 471.6 323.9 469.4L320.5 471.8C317.7 473.7 313.9 473.1 311.9 470.3L306.3 462.3C305.4 461 305 459.3 305.3 457.7C305.6 456.1 306.5 454.6 307.8 453.7L311.8 450.9C310.7 447.4 310 443.8 309.8 440.1L305 439C301.7 438.2 299.6 434.9 300.4 431.6L302.6 422C303.4 418.7 306.7 416.6 310 417.4L314.6 418.5C316.2 415.5 318.1 412.7 320.4 410.1L318 406.7C316 403.9 316.7 400.1 319.5 398.1L327.5 392.5C330.3 390.6 334.1 391.2 336.1 394L339 398C342.3 397 345.6 396.3 349.1 396.1L350.2 391.2C351 387.9 354.3 385.8 357.6 386.6L367.1 388.8C370.4 389.6 372.5 392.8 371.7 396.1L370.7 400.4C373 401.6 375.3 403 377.4 404.6L381.4 401.8C384.2 399.9 388 400.5 390 403.3L395.6 411.3C397.6 414.1 396.9 417.9 394.1 419.9L390.6 422.4C392.4 426.9 393.4 431.8 393.5 436.6L399 437.9C402.3 438.7 404.4 442 403.6 445.3L401.4 454.8C400.6 458.1 397.3 460.2 394 459.4L388.2 458.1C386.9 460.4 385.4 462.6 383.7 464.6L386.8 469C388.8 471.8 388.1 475.6 385.3 477.6L377.3 483.2C374.5 485.2 370.7 484.5 368.7 481.7L365.5 477.2C361.8 478.5 357.9 479.3 354 479.5L352.7 485.1C352 488.1 349.5 490.1 346.6 490.1ZM324.3 465.6L325.2 466.4C328 469 331.2 471.2 334.7 472.9L335.9 473.5L335.5 474.7C335.5 474.8 335.4 474.9 335.4 474.9L334 480.9C333.6 482.6 334.7 484.3 336.4 484.7L345.9 486.9C347.6 487.3 349.3 486.2 349.7 484.5L351.1 478.4C351.1 478.3 351.1 478.1 351.2 477.9L351.3 476.6H352.6C357 476.5 361.4 475.6 365.5 474L366.7 473.5L367.3 474.6L367.5 474.9L371.1 480C372.1 481.4 374.1 481.8 375.5 480.8L383.5 475.2C384.9 474.2 385.3 472.2 384.3 470.8L380.7 465.7L380.6 465.5L379.8 464.5L380.6 463.5C382.8 461.1 384.6 458.4 386.1 455.6L386.7 454.4L388 454.9C388.2 455 388.3 455 388.5 455.1L394.6 456.5C396.3 456.9 398 455.8 398.4 454.1L400.6 444.5C401 442.8 399.9 441.1 398.2 440.7L392.1 439.3L391.7 439.2L390.4 439.1V438C390.4 432.7 389.4 427.5 387.3 422.6L386.8 421.5L392.2 417.7C393.6 416.7 394 414.7 393 413.3L387.4 405.3C386.4 403.9 384.4 403.5 383 404.5L377.1 408.6L376.2 407.9C373.8 405.9 371.1 404.2 368.2 402.8L367.1 402.3L368.6 395.6C368.8 394.8 368.6 393.9 368.2 393.2C367.8 392.5 367.1 392 366.2 391.8L356.6 389.6C354.9 389.2 353.2 390.3 352.8 392L351.2 399.1H350.1C346.2 399.2 342.4 400 338.7 401.3L337.6 401.7L333.5 395.8C332.5 394.4 330.5 394 329.1 395L321.1 400.6C320.4 401.1 320 401.8 319.8 402.6C319.7 403.4 319.8 404.3 320.3 404.9L324.1 410.3L323.3 411.2C320.6 414 318.4 417.3 316.7 420.8L316.2 421.9L309.3 420.3C307.6 419.9 305.9 421 305.5 422.7L303.3 432.2C302.9 433.9 304 435.6 305.7 436L312.8 437.6V438.8C312.9 442.9 313.6 447.1 315 451L315.4 452.1L309.6 456.2C308.2 457.2 307.8 459.2 308.8 460.6L314.4 468.6C315.4 470 317.4 470.3 318.8 469.4L324.3 465.6ZM351.7 468.2C349.4 468.2 347.1 467.9 344.8 467.4C328.5 463.6 318.4 447.3 322.2 431C326 414.7 342.3 404.6 358.6 408.4C374.9 412.2 385 428.5 381.2 444.8C378 458.5 365.8 468.2 351.7 468.2ZM345.5 464.5C360.2 467.9 374.9 458.8 378.3 444.1C381.7 429.4 372.6 414.7 357.9 411.3C343.2 407.9 328.5 417 325.1 431.7C321.6 446.3 330.6 460.9 345.2 464.4C345.3 464.4 345.4 464.5 345.5 464.5Z" fill="#1D1D1B"/>
<path d="M219.9 550.4C219.9 550.4 197.5 532.7 211.5 505.9C225.5 479.1 246.9 458.6 270.3 458.7C293.7 458.8 306.5 471.9 310 484.6C313.5 497.3 305 507.5 288.3 508.7C288.3 508.7 290.1 531.7 260.5 532.2C260.5 532.2 249.9 567.4 228.6 542.3L219.9 550.4Z" fill="#FFCDB2"/>
<path d="M270.1 458.7H270.2C293.6 458.8 306.4 471.9 309.9 484.6C313.4 497.3 304.9 507.5 288.2 508.7C288.2 508.7 290 531.7 260.4 532.2C260.4 532.2 254.6 551.3 243.1 551.3C239 551.3 234.1 548.9 228.5 542.3L219.9 550.5C219.9 550.5 197.5 532.8 211.5 506C225.5 479.1 246.7 458.7 270.1 458.7ZM270.1 455.7C258.2 455.7 246.5 460.5 235.3 470C225.4 478.4 216.2 490.4 208.8 504.5C201 519.5 203.9 531.8 207.7 539.5C210.2 544.6 213.7 549.1 218 552.7L220.1 554.3L222 552.5L228.3 546.5C233.3 551.6 238.2 554.2 243.1 554.2C254.3 554.2 260.6 540.4 262.6 535C272.5 534.5 280 531.4 285 525.9C288.6 521.8 290.8 516.7 291.2 511.3C299.8 510.1 306.5 506.6 310.3 501.1C313.8 496.2 314.6 490.1 312.8 483.7C310.5 476 305.8 469.2 299.3 464.4C291.6 458.7 281.6 455.6 270.2 455.6L270.1 455.7Z" fill="#1D1E1B"/>
<path d="M289.5 512.7C288.9 512.7 288.3 512.3 288.1 511.7C278.6 485.2 254.6 483.5 253.6 483.4C252.8 483.4 252.1 482.6 252.2 481.8C252.2 481 253 480.3 253.8 480.4C254.1 480.4 280.8 482.2 291 510.6C291.3 511.4 290.9 512.2 290.1 512.5C289.9 512.6 289.7 512.7 289.5 512.7Z" fill="#1D1D1B"/>
<path d="M262.2 534.9C261.5 534.9 261 534.5 260.8 533.8C256.3 518.9 236 506.1 235.8 506C235.1 505.6 234.8 504.7 235.2 504C235.6 503.3 236.5 503 237.2 503.4C237.2 503.4 237.3 503.4 237.3 503.5C238.2 504 258.7 517 263.6 533C263.8 533.8 263.4 534.6 262.6 534.9C262.5 534.9 262.4 534.9 262.2 534.9Z" fill="#1D1D1B"/>
<path d="M229.5 546.4C229.2 546.4 228.9 546.3 228.7 546.2C228.2 545.9 215.8 537.9 214.2 527.5C214.1 526.7 214.6 525.9 215.5 525.8C216.4 525.7 217.1 526.2 217.2 527.1C218.6 536.2 230.3 543.7 230.4 543.8C231.1 544.2 231.3 545.2 230.9 545.9C230.5 546.1 230.1 546.4 229.5 546.4Z" fill="#1D1D1B"/>
<path d="M305.6 492.7C304.3 492.7 303.2 491.9 302.8 490.7C299 480.5 293.1 473.5 285.3 469.9C272.7 464.1 258.9 469.2 258.8 469.2C257.3 469.8 255.5 469 254.9 467.5C254.3 466 255.1 464.2 256.6 463.6C257.2 463.3 272.7 457.6 287.7 464.4C297.1 468.7 304 476.8 308.4 488.6C309 490.2 308.1 491.9 306.6 492.4C306.3 492.6 306 492.7 305.6 492.7Z" fill="white"/>
<path d="M536.4 671.9C540.874 671.9 544.5 668.273 544.5 663.8C544.5 659.326 540.874 655.7 536.4 655.7C531.927 655.7 528.3 659.326 528.3 663.8C528.3 668.273 531.927 671.9 536.4 671.9Z" fill="#FFC140"/>
<path d="M366.4 588.9C370.874 588.9 374.5 585.273 374.5 580.8C374.5 576.326 370.874 572.7 366.4 572.7C361.927 572.7 358.3 576.326 358.3 580.8C358.3 585.273 361.927 588.9 366.4 588.9Z" fill="#FFC140"/>
<path d="M435.4 633.9C439.874 633.9 443.5 630.273 443.5 625.8C443.5 621.326 439.874 617.7 435.4 617.7C430.927 617.7 427.3 621.326 427.3 625.8C427.3 630.273 430.927 633.9 435.4 633.9Z" fill="#FFC140"/>
<path d="M350.4 806.9C354.874 806.9 358.5 803.273 358.5 798.8C358.5 794.326 354.874 790.7 350.4 790.7C345.927 790.7 342.3 794.326 342.3 798.8C342.3 803.273 345.927 806.9 350.4 806.9Z" fill="#FFC140"/>
<path d="M536.4 792.9C540.874 792.9 544.5 789.273 544.5 784.8C544.5 780.326 540.874 776.7 536.4 776.7C531.927 776.7 528.3 780.326 528.3 784.8C528.3 789.273 531.927 792.9 536.4 792.9Z" fill="#FFC140"/>
<path d="M366.4 698.9C370.874 698.9 374.5 695.273 374.5 690.8C374.5 686.326 370.874 682.7 366.4 682.7C361.927 682.7 358.3 686.326 358.3 690.8C358.3 695.273 361.927 698.9 366.4 698.9Z" fill="#FFC140"/>
<path d="M387.4 881.9C391.874 881.9 395.5 878.273 395.5 873.8C395.5 869.326 391.874 865.7 387.4 865.7C382.927 865.7 379.3 869.326 379.3 873.8C379.3 878.273 382.927 881.9 387.4 881.9Z" fill="#FFC140"/>
<path d="M615.4 778.9C619.874 778.9 623.5 775.273 623.5 770.8C623.5 766.326 619.874 762.7 615.4 762.7C610.927 762.7 607.3 766.326 607.3 770.8C607.3 775.273 610.927 778.9 615.4 778.9Z" fill="#FFC140"/>
<path d="M298.4 669C302.874 669 306.5 665.374 306.5 660.9C306.5 656.427 302.874 652.8 298.4 652.8C293.927 652.8 290.3 656.427 290.3 660.9C290.3 665.374 293.927 669 298.4 669Z" fill="#FFC140"/>
<path d="M222.7 633.2C227.174 633.2 230.8 629.573 230.8 625.1C230.8 620.626 227.174 617 222.7 617C218.227 617 214.6 620.626 214.6 625.1C214.6 629.573 218.227 633.2 222.7 633.2Z" fill="#FFC140"/>
<path d="M172.2 699.9C176.674 699.9 180.3 696.273 180.3 691.8C180.3 687.326 176.674 683.7 172.2 683.7C167.727 683.7 164.1 687.326 164.1 691.8C164.1 696.273 167.727 699.9 172.2 699.9Z" fill="#FFC140"/>
<path d="M224.3 770.5C228.773 770.5 232.4 766.874 232.4 762.4C232.4 757.927 228.773 754.3 224.3 754.3C219.826 754.3 216.2 757.927 216.2 762.4C216.2 766.874 219.826 770.5 224.3 770.5Z" fill="#FFC140"/>
<path d="M482.4 874.9C486.874 874.9 490.5 871.273 490.5 866.8C490.5 862.326 486.874 858.7 482.4 858.7C477.927 858.7 474.3 862.326 474.3 866.8C474.3 871.273 477.927 874.9 482.4 874.9Z" fill="#FFC140"/>
<path d="M166.7 476C166.5 476 166.3 476 166.2 475.9C139.9 466.5 116.7 449.9 99.2999 428C85.1999 410.4 74.0999 388.9 66.2999 364.2C53.0999 322.2 54.1999 284.8 54.1999 284.4C54.2999 283.6 54.8999 283 55.7999 283C56.5999 283 57.2999 283.7 57.1999 284.5C57.1999 284.9 56.0999 321.8 69.1999 363.3C81.1999 401.5 107.9 451.5 167.3 473C168.1 473.3 168.5 474.1 168.2 474.9C167.9 475.6 167.3 476 166.7 476Z" fill="black"/>
<path d="M122.5 484.9H122.4C92.4 482.2 70.6 463.6 57.5 448.5C49 438.7 41.9 427.8 36.3 416.1C36.1 415.3 36.5 414.5 37.3 414.2C37.9 414 38.6 414.3 39 414.8C39.3 415.4 67 476.9 122.6 481.8C123.4 481.8 124.1 482.5 124 483.4C124 484.3 123.3 484.9 122.5 484.9Z" fill="black"/>
<path d="M303.7 772.7C303.6 772.7 303.5 772.7 303.4 772.7C302.6 772.5 302.1 771.7 302.3 770.9C302.4 770.4 313.9 722.1 332.7 684.3C333 683.5 333.9 683.2 334.7 683.5C335.5 683.8 335.8 684.7 335.5 685.5C335.5 685.5 335.5 685.6 335.4 685.6C316.7 723 305.3 771 305.2 771.5C305 772.3 304.4 772.7 303.7 772.7Z" fill="black"/>
<path d="M628.5 630.5C628.5 630.5 656.5 664.5 662.5 698.5L628.5 630.5Z" fill="#FFAD00"/>
<path d="M661 698.8C655.1 665.6 627.6 631.8 627.3 631.5L629.6 629.6C629.9 629.9 657.9 664.3 663.9 698.3L661 698.8Z" fill="#1D1D1B"/>
<path d="M652 876C651.8 876 651.6 876 651.4 876C649.8 875.7 648.7 874.1 649 872.5C672.5 751 630.8 679.3 630.4 678.6C629.5 677.2 630 675.3 631.4 674.5C632.8 673.7 634.7 674.1 635.5 675.5C635.9 676.3 646.6 694.3 654.3 727.9C661.4 758.7 667.3 809.1 654.8 873.7C654.7 875 653.4 876 652 876Z" fill="white"/>
<path d="M152 743C150.8 743 149.7 742.2 149.2 741.1C133.8 702.2 153.5 667 154.4 665.5C155.2 664.1 157.1 663.6 158.5 664.4C159.9 665.2 160.4 667.1 159.6 668.5C159.3 668.9 140.5 702.8 154.8 738.9C155.4 740.4 154.6 742.2 153.1 742.8C152.7 742.9 152.4 743 152 743Z" fill="white"/>
<path d="M127 775C126.5 775 125.9 774.8 125.6 774.4C105.9 754.2 104.2 731.2 106.2 715.5C107.5 705.2 110.6 695.2 115.3 686C115.9 685 117.1 684.7 118 685.3C119 685.9 119.3 687.1 118.7 688C114.2 696.8 111.3 706.3 110 716.2C107.3 737.7 113.5 756.4 128.3 771.7C129.1 772.5 129 773.8 128.2 774.5C128 774.8 127.5 775 127 775Z" fill="#1D1D1B"/>
</svg>
