<svg width="1000" height="1000" viewBox="0 0 1000 1000" fill="none" xmlns="http://www.w3.org/2000/svg">
<rect width="1000" height="1000" fill="white"/>
<path d="M465.4 388.8C465.4 388.8 398.1 416.2 369.5 445.9C340.9 475.6 307 483.5 284 490.4C249.8 500.7 238.4 541.8 248.6 541.8C258.8 541.8 264.6 569.2 294.2 568.1C323.8 567 333 551 357 549.8C381 548.6 422 500.7 422 500.7L465.4 388.8Z" fill="#FFAD00"/>
<path d="M465.4 388.8L422 500.6C422 500.6 380.9 548.5 356.9 549.7C332.9 550.9 323.8 566.8 294.1 568H292.3C264.2 568 258.5 541.7 248.4 541.7C238.1 541.7 249.5 500.6 283.8 490.3C306.9 483.4 340.9 475.5 369.4 445.8C397.9 416.1 465.4 388.8 465.4 388.8ZM465.4 385.4H465.2C464.8 385.4 464.4 385.5 464.1 385.7C460.4 387.2 395.6 413.9 367.1 443.5C341.6 470 311.3 478.8 289.2 485.3C287.1 485.9 285 486.5 283 487.1C269.8 491.2 258.4 499.8 250.7 511.3C244.3 520.7 240.7 531.5 241.7 538.3C242.5 543.4 245.8 545.2 248.6 545.2C250.8 545.2 253.7 548.7 256.9 552.3C263.8 560.4 273.3 571.5 292.5 571.5C293.1 571.5 293.8 571.5 294.4 571.5C310.8 570.9 321.4 565.8 330.8 561.3C338.9 557.4 346.6 553.8 357.2 553.3C382.3 552.1 423 505 424.7 503C425 502.7 425.2 502.4 425.3 502L468.6 390.3C468.8 389.9 468.9 389.4 468.9 388.9C468.9 387 467.3 385.5 465.4 385.4Z" fill="black"/>
<path d="M417.1 412.1C395.9 432.1 362.4 468.6 357 504C352.7 531.9 350.8 544.7 349.8 550.5C352.2 550.1 354.6 549.8 357 549.7C380.1 548.6 419.1 504 421.9 500.8L463.4 389.6C447.6 396.4 432.2 403.9 417.1 412.1Z" fill="#E89D00"/>
<path d="M243.4 535.1C243.4 535.1 202.1 531.9 202.9 554.9C203.7 577.9 209.5 606.9 234.8 594.9C260.1 582.9 270 562.4 270 562.4C270 562.4 278 539.3 243.4 535.1Z" fill="#FFCDB2"/>
<path d="M224 599.3C221 599.3 218.1 598.5 215.6 597C206.8 591.7 202 577.5 201.2 554.9C200.9 550 202.8 545.3 206.3 542C217.3 531.4 242.4 533.2 243.5 533.3H243.6C256.5 534.9 265.3 539.2 269.6 546.2C272.6 551.2 273.3 557.3 271.6 562.9C271.6 563 271.6 563 271.5 563.1C271.1 564 261.2 584.3 235.6 596.4C232 598.2 228 599.2 224 599.3ZM238.4 536.6C230.7 536.6 215.9 537.6 208.7 544.5C205.9 547.1 204.4 550.9 204.6 554.8C205.1 569.5 207.7 588.3 217.4 594.1C221.8 596.8 227.4 596.5 234.1 593.3C257.7 582.1 267.6 563.1 268.4 561.7C268.7 560.9 270.5 554.2 266.7 548C262.9 542 255.1 538.2 243.3 536.8C243 536.7 241.1 536.6 238.4 536.6Z" fill="black"/>
<path d="M295.3 510.9C297.343 510.9 299 509.243 299 507.2C299 505.157 297.343 503.5 295.3 503.5C293.257 503.5 291.6 505.157 291.6 507.2C291.6 509.243 293.257 510.9 295.3 510.9Z" fill="#FFC140"/>
<path d="M295.3 548.6C297.343 548.6 299 546.944 299 544.9C299 542.857 297.343 541.2 295.3 541.2C293.257 541.2 291.6 542.857 291.6 544.9C291.6 546.944 293.257 548.6 295.3 548.6Z" fill="#FFC140"/>
<path d="M341 528C343.043 528 344.7 526.343 344.7 524.3C344.7 522.257 343.043 520.6 341 520.6C338.957 520.6 337.3 522.257 337.3 524.3C337.3 526.343 338.957 528 341 528Z" fill="#FFC140"/>
<path d="M360.4 475.5C362.443 475.5 364.1 473.844 364.1 471.8C364.1 469.757 362.443 468.1 360.4 468.1C358.357 468.1 356.7 469.757 356.7 471.8C356.7 473.844 358.357 475.5 360.4 475.5Z" fill="#FFC140"/>
<path d="M543.7 541C543.7 541 578.6 513 682.7 537.5C682.7 537.5 691.9 633.1 677.6 669.9L564.7 665.9C564.7 666 538 584.4 543.7 541Z" fill="#D9CFFF"/>
<path d="M606 527.5C625.8 527.5 651.1 530.1 682.8 537.5C682.8 537.5 692 633.1 677.7 669.9L564.7 666C564.7 666 538 584.4 543.7 541C543.7 541 560.6 527.4 606 527.5ZM605.9 524C559.9 524 542.3 537.7 541.5 538.3C540.8 538.9 540.4 539.7 540.2 540.5C534.5 584.2 560.2 663.6 561.3 667C561.8 668.4 563 669.3 564.4 669.4L677.3 673.3H677.4C678.8 673.3 680.1 672.4 680.6 671.1C695.1 633.9 686.3 541 685.9 537.1C685.8 535.6 684.7 534.4 683.3 534.1C654.9 527.4 628.8 524 605.9 524Z" fill="black"/>
<path d="M614.9 526.1C614.9 526.1 597.6 586.5 620.4 668L614.9 526.1Z" fill="#D9CFFF"/>
<path d="M620.3 669.7C619.5 669.7 618.9 669.2 618.6 668.4C596 587.4 613 526.2 613.1 525.6C613.4 524.7 614.3 524.2 615.2 524.4C616.1 524.6 616.6 525.6 616.4 526.5C616.2 527.1 599.6 587.4 621.9 667.5C622.1 668.4 621.6 669.4 620.7 669.6C620.6 669.7 620.5 669.7 620.3 669.7Z" fill="black"/>
<path d="M549.3 608.8C548.4 608.8 547.6 608.1 547.6 607.1C547.6 606.4 548 605.8 548.7 605.5C549.5 605.2 624.8 574.1 688.7 605.4C689.5 605.9 689.8 606.9 689.3 607.8C688.9 608.5 688 608.8 687.2 608.5C624.8 577.9 550.8 608.4 550.1 608.7C549.8 608.8 549.6 608.8 549.3 608.8Z" fill="black"/>
<path d="M604.9 524C597.3 519.9 589.8 515.4 583.7 509.3C578 503.6 573.7 496.2 572.8 488C572.1 480.8 574.2 471.9 581.3 468.6C582.8 467.9 584.4 467.7 586 467.9C587.9 468.3 589.6 469.1 591 470.4C594.3 473.2 595.9 477.3 597.2 481.3C600.4 490.8 603.3 500.4 606 510.1C606.3 511.3 606.7 512.5 607 513.7C607.3 514.6 608.2 515.1 609.2 514.8C609.9 514.6 610.4 514 610.4 513.2L611.1 499.1C611.3 494.5 611.4 489.9 611.9 485.3C612.2 481.3 613.3 477.4 615.2 473.9C616.8 471 619.4 468.2 622.4 467C625.3 465.8 628.5 465.9 631.2 467.3C633.9 468.9 635.6 471.8 635.5 474.9C635.4 478.4 634.5 481.9 632.8 485C631 488.7 628.9 492.2 626.7 495.6C622.2 502.4 616.9 508.7 610.9 514.3C610.1 515 609.4 515.7 608.6 516.4L611 518.8C615.3 513.9 620.4 509.7 626 506.4C628.7 504.8 631.5 503.4 634.5 502.3C637.2 501.3 640.3 500.6 643 501.5C643.6 501.7 644.1 502 644.6 502.3C644.8 502.4 645 502.6 645.1 502.7L645.4 503C645.4 503 645.7 503.4 645.6 503.2C645.8 503.4 645.9 503.7 646.1 503.9C646.2 504 646.3 504.2 646.3 504.4C646.3 504.6 646.4 504.7 646.3 504.5C646.5 505.1 646.7 505.7 646.8 506.3C646.8 506 646.8 506.4 646.8 506.5V506.9C646.8 507.2 646.8 507.5 646.8 507.8C646.8 507.9 646.8 508 646.8 508.2C646.8 508.4 646.7 508.8 646.8 508.5C646.7 508.9 646.7 509.2 646.6 509.6C646.3 510.7 645.9 511.8 645.3 512.8C644.7 513.8 643.8 514.7 642.9 515.4C641.7 516.3 640.4 517 639 517.5C636.1 518.5 633.1 519.2 630.1 519.5C621.5 520.6 612.8 521.5 604.2 522.5C603.3 522.5 602.5 523.3 602.5 524.2C602.5 525.1 603.3 525.9 604.2 525.9C612.5 524.9 620.9 524 629.2 523C635.6 522.3 643.2 521.2 647.4 515.8C650.9 511.4 651.9 503.8 647 500C641.2 495.5 633.2 499 627.5 501.9C620.4 505.5 614 510.5 608.7 516.5C608 517.2 608 518.3 608.7 518.9C609.4 519.5 610.5 519.6 611.1 518.9C617.7 513 623.5 506.4 628.5 499.1C631 495.5 633.2 491.8 635.2 488C637.2 484.4 638.4 480.5 638.9 476.5C639.2 472.6 638.1 468.5 635 465.9C632 463.4 628.1 462.4 624.3 463C615.9 464.2 610.9 472.5 609.2 480.1C608.3 484.8 607.8 489.6 607.7 494.4L606.9 509.5L606.7 513.2L610.1 512.7C607.3 502.4 604.3 492.2 600.9 482.1C599.4 477.5 597.8 472.8 594.5 469.1C591.5 465.7 587.1 463.6 582.5 464.4C578.3 465.1 574.9 468.1 572.7 471.5C570.4 475.2 569.1 479.4 569 483.8C568.6 492.8 572.4 501.5 578.1 508.3C584 515.4 591.9 520.6 599.9 525.1C600.9 525.6 601.9 526.2 602.9 526.7C605.2 527.9 606.9 525 604.9 524Z" fill="black"/>
<path d="M611 520.7C603.7 522.3 597.1 526.2 592.1 531.8C583.6 541.5 581.2 555.1 585.6 567.2C585.9 567.9 587 567.6 586.7 566.9C583.9 559.3 583.8 551 586.5 543.4C590.5 532.5 599.9 524.3 611.3 521.8C612 521.6 611.7 520.5 611 520.7Z" fill="black"/>
<path d="M593.8 557.1C593.8 557.1 624.4 532.6 715.5 554C715.5 554 723.5 637.7 711 669.9L612.2 666.4C612.1 666.5 588.8 595.1 593.8 557.1Z" fill="#FFAD00"/>
<path d="M648.2 545.3C665.6 545.3 687.7 547.6 715.4 554.1C715.4 554.1 723.4 637.8 710.9 670L612.1 666.5C612.1 666.5 588.8 595.1 593.8 557.1C593.8 557.1 608.6 545.3 648.2 545.3ZM648.2 541.8C607.8 541.8 592.2 553.9 591.6 554.4C590.9 555 590.5 555.8 590.3 556.6C585.3 594.9 607.8 664.5 608.8 667.5C609.2 668.9 610.5 669.9 611.9 669.9L710.7 673.3H710.8C712.2 673.3 713.5 672.4 714 671.1C726.7 638.5 719 557.1 718.7 553.6C718.6 552.1 717.5 550.9 716.1 550.6C691.2 544.9 668.3 541.9 648.2 541.8Z" fill="black"/>
<path d="M660.8 669.9C660 669.9 659.4 669.4 659.1 668.6C639.3 597.6 654.2 544 654.3 543.5C654.6 542.6 655.5 542.1 656.4 542.3C657.3 542.5 657.8 543.5 657.6 544.4C657.5 544.9 642.9 597.7 662.4 667.7C662.6 668.6 662.1 669.6 661.2 669.8C661.1 669.9 661 669.9 660.8 669.9Z" fill="black"/>
<path d="M598.7 616.6C597.8 616.6 597 615.8 597 614.9C597 614.2 597.4 613.6 598.1 613.3C598.8 613 664.8 585.8 720.8 613.2C721.6 613.7 721.9 614.7 721.4 615.6C721 616.3 720.1 616.6 719.3 616.3C664.8 589.6 600.1 616.2 599.5 616.5C599.1 616.6 598.9 616.6 598.7 616.6Z" fill="black"/>
<path d="M658.8 542C652.2 538.4 645.6 534.5 640.2 529.1C635.2 524.1 631.5 517.6 630.8 510.5C630.2 504.3 632.1 496.6 638.3 493.9C639.6 493.3 641 493.2 642.4 493.4C643.9 493.7 645.3 494.4 646.4 495.5C649.2 498 650.6 501.6 651.8 505.1C655 514.4 657.8 523.9 660.3 533.4C660.6 534.3 661.5 534.8 662.4 534.6C663.1 534.4 663.6 533.7 663.6 533L664.2 520.5C664.4 516.5 664.5 512.4 665 508.4C665.7 502.4 668.1 495.2 674 492.8C676.5 491.7 679.3 491.8 681.7 493.1C684 494.5 685.4 497 685.3 499.7C685.2 502.8 684.3 505.8 682.8 508.5C681.2 511.6 679.4 514.7 677.5 517.6C673.1 524.2 667.8 530.3 661.8 535.6L664.2 538C667.9 533.7 672.3 530.1 677.2 527.2C679.6 525.8 682.1 524.5 684.7 523.6C687 522.8 689.6 522.1 692 522.9C692.5 523.1 693 523.3 693.4 523.6C693.4 523.6 693.7 523.9 693.8 524L694 524.3L694.2 524.5C694.1 524.4 694.1 524.4 694.2 524.5C694.7 525.2 695.1 526 695.2 526.9C695.4 528.9 694.9 530.8 693.8 532.4C693.3 533.2 692.6 534 691.8 534.6C690.7 535.4 689.6 536 688.3 536.5C685.7 537.4 683.1 537.9 680.4 538.2C672.9 539.1 665.4 539.9 658 540.8C657.1 540.8 656.3 541.6 656.3 542.5C656.3 543.4 657.1 544.2 658 544.2C665.2 543.4 672.5 542.5 679.7 541.7C685.5 541 692.3 540 696.1 535C699.1 531.1 699.8 524.6 695.7 521.2C690.6 517 683.4 520.1 678.3 522.7C671.9 525.9 666.3 530.3 661.6 535.6C660.9 536.3 660.9 537.4 661.6 538C662.3 538.6 663.4 538.7 664 538C669.8 532.8 674.9 527 679.3 520.6C681.5 517.5 683.4 514.2 685.2 510.9C686.9 507.8 688 504.3 688.4 500.7C688.8 497.2 687.5 493.7 684.9 491.3C682.2 489.1 678.7 488.2 675.3 488.8C668 489.9 663.6 497 662.1 503.7C661.1 508.3 661 513.2 660.7 517.9L659.9 533L663.3 532.5C660.8 523.4 658.1 514.4 655.2 505.5C653.9 501.5 652.5 497.4 649.7 494.2C647.1 491.1 643.1 489.5 639.1 490C635.4 490.5 632.4 493.1 630.3 496.1C628.2 499.3 627 503.1 626.9 507C626.5 514.9 629.8 522.7 634.8 528.7C640 535 646.9 539.6 654 543.5C654.9 544 655.8 544.5 656.7 545C659 545.9 660.8 543 658.8 542Z" fill="black"/>
<path d="M660 547.1C673.1 553.9 688.1 558.1 702.9 557.4C709.4 557.2 715.8 555.7 721.7 553C727.1 550.5 731.8 546.7 735.4 542C739.4 536.7 741.9 530.3 742.5 523.7C742.5 522.8 741.7 522 740.8 522C739.9 522 739.1 522.8 739.1 523.7C738.8 526.4 738.2 529.1 737.2 531.7C736.8 532.9 736.2 534.1 735.6 535.2C735 536.4 734.3 537.6 733.5 538.7C730.4 543.1 726.3 546.7 721.6 549.1C716.4 551.7 710.7 553.3 704.9 553.7C698.2 554.2 691.5 553.7 685 552.3C676.9 550.6 669.1 547.8 661.8 544C661 543.6 660 543.8 659.5 544.6C658.9 545.5 659.2 546.6 660 547.1Z" fill="black"/>
<path d="M617.2 651.9C616.2 651.9 615.2 651.3 614.7 650.5C596.2 618.1 602.7 566.5 602.9 564.3C603.1 562.7 604.4 561.6 606 561.7C607.6 561.8 608.7 563.2 608.6 564.8C608.6 564.9 608.6 564.9 608.6 565C608.5 565.5 602.1 616.9 619.7 647.7C620.5 649.1 620 650.8 618.7 651.6C618.2 651.7 617.7 651.9 617.2 651.9Z" fill="white"/>
<path d="M764.5 522.9C764.5 522.9 750.9 534.4 743.2 530.4C735.5 526.4 734.6 514.9 749.2 506.3L763.8 497.7L776.3 512.3L764.5 522.9Z" fill="#D9CFFF"/>
<path d="M763.8 497.7L776.3 512.3L764.6 522.8C764.6 522.8 754.6 531.2 746.9 531.2C745.6 531.2 744.3 530.9 743.2 530.4C735.5 526.5 734.6 514.9 749.2 506.3L763.8 497.7ZM763.8 494.3C763.2 494.3 762.6 494.5 762.1 494.8L747.5 503.4C738.9 508.4 734.1 515.3 734.3 522.1C734.4 527 737.3 531.4 741.6 533.5C743.2 534.3 745 534.7 746.9 534.7C755.6 534.7 765.6 526.5 766.7 525.5L766.8 525.4L778.5 514.9C779.9 513.7 780 511.5 778.8 510.1L766.3 495.5C765.7 494.8 764.8 494.3 763.8 494.3Z" fill="black"/>
<path d="M769.6 537.1C782.7 529.2 794.2 519 803.6 506.9C806.3 503.5 808.7 500 811.1 496.3C812.3 494.4 809.3 492.7 808.1 494.6C800.2 507.2 790.1 518.2 778.2 527.2C774.9 529.7 771.4 532 767.8 534.2C765.9 535.3 767.6 538.3 769.6 537.1Z" fill="black"/>
<path d="M148 937.2C190.139 937.2 224.3 903.039 224.3 860.9C224.3 818.761 190.139 784.6 148 784.6C105.861 784.6 71.7 818.761 71.7 860.9C71.7 903.039 105.861 937.2 148 937.2Z" fill="#6C32AD"/>
<path d="M148 784.6C190.1 784.6 224.3 818.8 224.3 860.9C224.3 903 190.1 937.2 148 937.2C105.9 937.2 71.7 903 71.7 860.9C71.7 818.7 105.9 784.6 148 784.6ZM148 781.2C104 781.2 68.3 816.9 68.3 860.9C68.3 904.9 104 940.6 148 940.6C192 940.6 227.7 904.9 227.7 860.9C227.7 816.9 192 781.2 148 781.2Z" fill="black"/>
<path d="M150.667 905.653C177.192 904.184 197.504 881.491 196.035 854.965C194.566 828.44 171.872 808.129 145.347 809.598C118.822 811.067 98.5098 833.76 99.9789 860.285C101.448 886.81 124.142 907.122 150.667 905.653Z" fill="#D9CFFF"/>
<path d="M148 809.5C174.6 809.5 196.1 831 196.1 857.6C196.1 884.2 174.6 905.7 148 905.7C121.4 905.7 99.9 884.2 99.9 857.6C99.9 831 121.4 809.5 148 809.5ZM148 806C119.5 806 96.5 829.1 96.5 857.5C96.5 886 119.6 909 148 909C176.4 909 199.5 885.9 199.5 857.5C199.5 829.1 176.5 806 148 806Z" fill="black"/>
<path d="M148.8 874.1C160.232 874.1 169.5 864.832 169.5 853.4C169.5 841.968 160.232 832.7 148.8 832.7C137.368 832.7 128.1 841.968 128.1 853.4C128.1 864.832 137.368 874.1 148.8 874.1Z" fill="white"/>
<path d="M148.8 832.7C160.3 832.7 169.5 842 169.5 853.4C169.5 864.9 160.2 874.1 148.8 874.1C137.4 874.1 128.1 864.8 128.1 853.4C128.1 842 137.4 832.7 148.8 832.7ZM148.8 829.3C135.5 829.3 124.6 840.1 124.7 853.5C124.7 866.8 135.5 877.7 148.9 877.6C162.2 877.6 173 866.8 173 853.4C173 840.1 162.2 829.3 148.8 829.3Z" fill="black"/>
<path d="M562.7 937.2C604.839 937.2 639 903.039 639 860.9C639 818.761 604.839 784.6 562.7 784.6C520.561 784.6 486.4 818.761 486.4 860.9C486.4 903.039 520.561 937.2 562.7 937.2Z" fill="#6C32AD"/>
<path d="M562.7 784.6C604.8 784.6 639 818.8 639 860.9C639 903 604.8 937.2 562.7 937.2C520.6 937.2 486.4 903 486.4 860.9C486.4 818.7 520.5 784.6 562.7 784.6ZM562.7 781.2C518.7 781.2 483 816.9 483 860.9C483 904.9 518.7 940.6 562.7 940.6C606.7 940.6 642.4 904.9 642.4 860.9C642.3 816.9 606.7 781.2 562.7 781.2Z" fill="black"/>
<path d="M562.7 905.7C589.265 905.7 610.8 884.165 610.8 857.6C610.8 831.035 589.265 809.5 562.7 809.5C536.135 809.5 514.6 831.035 514.6 857.6C514.6 884.165 536.135 905.7 562.7 905.7Z" fill="#D9CFFF"/>
<path d="M562.7 809.5C589.3 809.5 610.8 831 610.8 857.6C610.8 884.2 589.3 905.7 562.7 905.7C536.1 905.7 514.6 884.2 514.6 857.6C514.6 831 536.1 809.5 562.7 809.5ZM562.7 806C534.2 806 511.2 829.1 511.2 857.5C511.2 885.9 534.3 909 562.7 909C591.1 909 614.2 885.9 614.2 857.5C614.2 829.1 591.1 806 562.7 806Z" fill="black"/>
<path d="M563.5 874.1C574.932 874.1 584.2 864.832 584.2 853.4C584.2 841.968 574.932 832.7 563.5 832.7C552.068 832.7 542.8 841.968 542.8 853.4C542.8 864.832 552.068 874.1 563.5 874.1Z" fill="white"/>
<path d="M232.6 590.5C227.6 625.3 206.1 660.2 184.5 681.7C162.9 703.2 158 749.7 161.3 782.9C164.6 816.1 177.9 854.2 177.9 854.2H690.4C690.4 854.2 682.1 746.4 627.4 709.9C572.7 673.4 479.8 670.1 479.8 670.1L376.9 695C376.9 695 423.3 758 406.8 792.9C390.3 827.8 275.8 822.8 270.8 787.9C265.8 753 267.5 582.2 267.5 582.2L232.6 590.5Z" fill="#D9CFFF"/>
<path d="M267.4 578.8C267.1 578.8 266.9 578.8 266.6 578.9L231.8 587.2C230.4 587.5 229.4 588.6 229.2 590C224 626.3 200.6 660.8 182.1 679.3C160.4 701 154.3 747.2 157.9 783.2C161.2 816.4 174.1 853.7 174.7 855.3C175.2 856.7 176.5 857.6 177.9 857.6H690.4C692.3 857.6 693.8 856.1 693.8 854.2C693.8 854.1 693.8 854 693.8 854C691.8 834 688.1 814.2 682.7 794.9C677.4 776.4 670.9 760 663.3 746.3C653.7 729 642.2 715.8 629.3 707.2C600.5 688 561.4 678.1 533.6 673.1C515.8 669.9 497.9 667.8 479.8 666.8H479.7C479.4 666.8 479.2 666.8 478.9 666.9L376.1 691.8C375 692.1 374.1 692.9 373.7 694C373.3 695.1 373.5 696.3 374.2 697.2C374.7 697.8 419.2 759 403.7 791.6C397.4 804.9 372.8 813.4 341.1 813.4C305 813.4 276.2 802.3 274.1 787.6C269.2 753.4 270.8 584.1 270.8 582.4C270.9 580.4 269.3 578.8 267.4 578.8ZM267.4 582.2C267.4 582.2 265.7 753 270.7 787.9C273.4 806.6 307.4 816.6 341 816.6C370.1 816.6 399 809 406.7 792.8C423.3 757.9 376.8 694.9 376.8 694.9L479.6 670C479.6 670 572.5 673.3 627.2 709.8C681.9 746.3 690.2 854.1 690.2 854.1H177.8C177.8 854.1 164.5 815.9 161.2 782.8C157.9 749.7 162.9 703.2 184.4 681.6C205.9 660 227.5 625.2 232.5 590.4L267.4 582.2Z" fill="black"/>
<path d="M563.5 832.7C575 832.7 584.2 842 584.3 853.4C584.3 864.9 575 874.1 563.6 874.2C552.1 874.2 542.9 864.9 542.8 853.5C542.8 842 552 832.7 563.5 832.7ZM563.5 829.3C550.2 829.3 539.3 840.1 539.3 853.5C539.3 866.9 550.1 877.7 563.5 877.7C576.9 877.7 587.7 866.9 587.7 853.5C587.6 840.1 576.8 829.3 563.5 829.3Z" fill="black"/>
<path d="M199.4 602.1L267.4 597.1V554L202.7 545.7L199.4 602.1Z" fill="#D9CFFF"/>
<path d="M201.1 602.1C208.445 602.1 214.4 589.475 214.4 573.9C214.4 558.326 208.445 545.7 201.1 545.7C193.755 545.7 187.8 558.326 187.8 573.9C187.8 589.475 193.755 602.1 201.1 602.1Z" fill="#FFAD00"/>
<path d="M355.3 700H722C729.4 700 735.3 694.9 735.3 688.6V601.3C735.3 597.2 731.4 593.8 726.6 593.8C721.8 593.8 717.9 597.1 717.9 601.3V665.2H564.7V652.3C564.7 647.5 560.2 643.6 554.5 643.6H372.8L355.3 700Z" fill="#E89D00"/>
<path d="M146.3 761.4C195.8 761.4 235.9 801.5 235.9 851C235.9 852.1 235.8 853.2 235.8 854.3H56.8C56.8 853.2 56.7 852.1 56.7 851C56.7 801.5 96.8 761.4 146.3 761.4ZM146.3 757.9C95 757.9 53.3 799.6 53.3 850.9C53.3 852 53.3 853.1 53.4 854.1V854.4C53.5 856.2 55 857.7 56.8 857.7H235.8C237.6 857.7 239.2 856.2 239.2 854.4V854.1C239.2 853.1 239.3 852 239.3 850.9C239.2 799.6 197.6 758 146.3 757.9Z" fill="black"/>
<path d="M688.2 854.2C688.6 850.9 688.8 847.5 688.8 844.2C688.8 784.7 632 736.4 561.9 736.4C491.8 736.4 435 784.7 435 844.3C435 847.6 435.2 851 435.6 854.3L688.2 854.2Z" fill="#D9CFFF"/>
<path d="M250.8 562.3H317.2C320.9 562.3 323.8 565.3 323.8 568.9C323.8 572.6 320.8 575.5 317.2 575.5H250.8C247.1 575.5 244.2 572.5 244.2 568.9C244.2 565.3 247.2 562.3 250.8 562.3Z" fill="#6C32AD"/>
<path d="M656 790C655.3 790 654.6 789.7 654.1 789.2C620.2 758.1 581.1 746 537.9 753.2C505.6 758.6 483.2 773.3 482.9 773.5C481.5 774.3 479.8 773.9 479 772.5C478.2 771.2 478.6 769.6 479.8 768.7C480.8 768.1 503.5 753.2 537 747.6C568 742.4 614.1 744.7 658 785C659.1 786.1 659.2 787.8 658.2 789C657.6 789.6 656.8 790 656 790Z" fill="white"/>
<path d="M200.7 598.7C199.8 598.7 199 598.3 198.4 597.6C181.3 575 198.2 551.7 198.4 551.4C199.4 550.2 201.2 550 202.4 551C203.5 551.9 203.8 553.6 203 554.8C202.4 555.6 188.5 575 203 594.1C203.9 595.4 203.7 597.1 202.4 598.1C201.9 598.5 201.3 598.7 200.7 598.7Z" fill="white"/>
<path d="M173.9 569.7H155.6C155 569.7 154.5 569.2 154.5 568.6C154.5 568 155 567.5 155.6 567.5H173.9C174.5 567.5 175 568 175 568.6C175 569.2 174.5 569.7 173.9 569.7Z" fill="black"/>
<path d="M160.2 597.1C159.6 597.1 159 596.6 159 596C159 595.5 159.3 595.1 159.7 594.9L176.8 586.9C177.4 586.6 178.1 586.9 178.3 587.4C178.6 588 178.3 588.7 177.8 588.9L160.7 596.9C160.5 597 160.3 597.1 160.2 597.1Z" fill="black"/>
<path d="M317.2 562.3C320.9 562.4 323.7 565.5 323.6 569.2C323.5 572.7 320.7 575.4 317.2 575.6H250.8C247.1 575.5 244.3 572.4 244.4 568.7C244.5 565.2 247.3 562.5 250.8 562.3H317.2ZM317.2 558.9H250.8C245.2 559.1 240.9 563.7 241.1 569.3C241.3 574.6 245.5 578.9 250.8 579H317.2C322.8 579.2 327.4 574.8 327.6 569.3C327.8 563.7 323.4 559.1 317.9 558.9C317.6 558.9 317.4 558.9 317.2 558.9Z" fill="black"/>
<path d="M203 793.4C202.4 793.4 201.8 793.2 201.3 792.9C177.4 775.4 152.1 770.1 126.1 777.1C114.5 780.2 103.6 785.5 94.1 792.8C92.9 793.8 91.1 793.7 90.1 792.5C89.1 791.3 89.2 789.5 90.4 788.5C100.5 780.6 112.2 774.9 124.6 771.7C143.7 766.6 173.1 765.4 204.6 788.4C205.9 789.3 206.2 791.1 205.2 792.4C204.7 792.9 203.9 793.4 203 793.4Z" fill="white"/>
<path d="M561.8 736.5C631.9 736.5 688.7 784.8 688.7 844.3C688.7 847.6 688.5 851 688.1 854.3H435.5C435.1 851 434.9 847.6 434.9 844.3C434.9 784.7 491.7 736.5 561.8 736.5ZM561.8 733.1C527.1 733.1 494.4 744.6 469.9 765.5C445.4 786.4 431.5 814.5 431.5 844.3C431.5 847.7 431.7 851.2 432.1 854.6C432.3 856.3 433.8 857.7 435.5 857.7H688.2C689.9 857.7 691.4 856.4 691.6 854.6C692 851.2 692.2 847.7 692.2 844.3C692.2 814.5 678.6 786.5 653.8 765.5C629.2 744.6 596.5 733.1 561.8 733.1Z" fill="black"/>
<path d="M235.8 854.2C235.8 853.1 235.9 852 235.9 850.9C235.9 801.4 195.8 761.3 146.3 761.3C96.8 761.3 56.7 801.4 56.7 850.9C56.7 852 56.7 853.1 56.8 854.2H235.8Z" fill="#D9CFFF"/>
<path d="M726.6 593.8C731.4 593.8 735.3 597.1 735.3 601.3V688.6C735.3 694.9 729.3 700 722 700H355.3L372.8 643.6H554.6C560.2 643.6 564.8 647.5 564.8 652.3V665.2H718V601.3C717.9 597.2 721.8 593.8 726.6 593.8ZM726.6 590.4C719.9 590.4 714.4 595.3 714.4 601.3V661.7H568.1V652.2C568.1 645.5 562 640.1 554.5 640.1H370.2L369.5 642.5L352 699L350.6 703.4H722C731.3 703.4 738.8 696.7 738.8 688.6V601.3C738.8 595.3 733.3 590.4 726.6 590.4Z" fill="black"/>
<path d="M202.7 545.7L267.4 554V597.1L199.4 602.1L202.7 545.7ZM202.7 542.3C201.9 542.3 201.1 542.6 200.5 543.1C199.8 543.7 199.3 544.6 199.3 545.5L196 601.9C195.9 603.8 197.3 605.4 199.2 605.5C199.3 605.5 199.4 605.5 199.4 605.5H199.7L267.7 600.5C269.5 600.4 270.9 598.9 270.9 597.1V554C270.9 552.3 269.6 550.8 267.9 550.6L203.2 542.3C203 542.3 202.9 542.3 202.7 542.3Z" fill="black"/>
<path d="M201.1 545.7C208.4 545.7 214.4 558.3 214.4 573.9C214.4 589.5 208.5 602.1 201.1 602.1C193.7 602.1 187.8 589.5 187.8 573.9C187.8 558.3 193.7 545.7 201.1 545.7ZM201.1 542.3C191.6 542.3 184.4 555.9 184.4 573.9C184.4 591.9 191.6 605.5 201.1 605.5C210.6 605.5 217.8 591.9 217.8 573.9C217.8 555.9 210.6 542.3 201.1 542.3Z" fill="black"/>
<path d="M107.4 947C106.1 947 105.1 946 105.1 944.7C105.1 943.4 106.1 942.4 107.4 942.4L733.6 938.6C734.9 938.7 735.8 939.8 735.7 941C735.6 942.1 734.7 943.1 733.6 943.1L107.4 947Z" fill="black"/>
<path d="M907.7 915.5H674.3C673 915.5 672 914.5 672 913.2C672 911.9 673 910.9 674.3 910.9H907.7C909 910.9 910 911.9 910 913.2C909.9 914.5 908.9 915.5 907.7 915.5Z" fill="black"/>
<path d="M802.7 884.7H655.5C654.2 884.6 653.3 883.5 653.4 882.3C653.5 881.2 654.4 880.2 655.5 880.2H802.7C804 880.3 804.9 881.4 804.8 882.6C804.7 883.7 803.8 884.6 802.7 884.7Z" fill="black"/>
<path d="M941.7 240.8C941.7 240.8 938.6 212.7 881.2 177.1C881.2 177.1 834.3 215.7 824.3 238.5L876.5 287.2C876.5 287.2 924.8 262.7 941.7 240.8Z" fill="#D9CFFF"/>
<path d="M881.2 177.1C938.6 212.7 941.7 240.8 941.7 240.8C924.8 262.7 876.4 287.2 876.4 287.2L824.2 238.5C834.4 215.6 881.2 177.1 881.2 177.1ZM881.2 173.6C880.4 173.6 879.6 173.9 879 174.4C877.1 176 831.4 213.7 821.1 237.1C820.5 238.4 820.9 240 821.9 241L874.1 289.7C875.1 290.7 876.7 290.9 878 290.2C880 289.2 927.3 265.1 944.4 242.8C944.9 242.1 945.2 241.2 945.1 240.3C945 239.1 941.2 210.1 883 174C882.5 173.8 881.9 173.7 881.2 173.6Z" fill="black"/>
<path d="M916.7 202.3C916.7 202.3 897.4 237 850.8 263.2L916.7 202.3Z" fill="#D9CFFF"/>
<path d="M850.8 264.9C849.9 264.9 849.1 264.1 849.1 263.2C849.1 262.6 849.4 262 850 261.7C895.6 236 915 201.8 915.2 201.5C915.7 200.7 916.7 200.4 917.5 200.8C918.3 201.3 918.6 202.3 918.2 203.1C918 203.5 898.1 238.5 851.7 264.7C851.3 264.8 851 264.9 850.8 264.9Z" fill="black"/>
<path d="M909.7 269.5C909 269.5 908.4 269.1 908.1 268.4C907.9 267.9 888.6 221.5 847.3 207.3C846.4 207 845.9 206 846.2 205.1C846.5 204.2 847.5 203.7 848.4 204C891.2 218.7 911 266.5 911.2 267C911.6 267.9 911.1 268.9 910.3 269.2C910.1 269.4 909.9 269.5 909.7 269.5Z" fill="black"/>
<path d="M959.2 190.6C958.1 188.1 955.8 186.3 953 186C949.8 185.5 946.7 186.7 944.4 187.8C939.5 190.1 934.7 192.7 930.2 195.1L932 193.1L933.3 191.6C934.8 189.9 936.4 188.2 937.8 186.4C939.8 183.8 944.1 177.2 941.1 171.1C940 169 938.2 167.4 936 166.6C933.8 165.9 931.4 166.4 929.5 167.7C925.5 170.6 924.1 176.2 923.1 180.3C922.6 182.4 922.2 184.5 921.9 186.7L921.8 186.3C920.6 182.2 918.9 177.8 915.1 176.4C913.7 175.9 912.1 176 910.7 176.7C908.8 177.8 907.4 179.5 906.8 181.6C905.6 185.9 908.2 190.1 910.6 193.3C913 196.5 915.5 199.5 917.9 202.5C918.9 203.7 919.8 204.9 920.8 206.1C920.7 206.2 920.7 206.3 920.7 206.4C920.5 206.9 920.8 207.5 921.3 207.7H921.4C926.7 209.3 932.3 210.7 937.9 210.7C938.9 210.7 940 210.7 941 210.6C946.3 210.2 951.3 207.9 955.1 204.3C958.4 201.3 961.3 195.8 959.2 190.6ZM914.3 194.5L913.6 193.6C911.4 190.8 908.9 187.7 908.8 184.1C908.8 182.3 909.5 180.6 910.8 179.3C911.6 178.6 912.6 178.2 913.7 178.3C917.2 178.7 918.8 183.6 919.7 186.3C920.6 189 921.1 191.7 921.4 194.5C921.3 196.6 921.4 198.6 921.5 200.7V201.2H921.7C921.9 201.5 922.2 201.8 922.6 201.8C923 201.8 923.4 201.6 923.5 201.2H923.7V200.7C923.8 198.6 923.8 196.5 923.6 194.4C923.7 191 924.1 187.6 924.7 184.2C925.2 181.6 925.9 179 926.7 176.4C927.3 174.5 928.2 172.7 929.4 171.1C930.4 169.6 932.1 168.7 933.9 168.5C935.9 168.5 937.8 169.5 938.9 171.2C942.5 176.2 938.3 182.7 936.9 184.6C935.5 186.5 933.9 188.3 932.3 190L930.9 191.5L924.5 198.6L924.1 198.8L924.2 198.9C924 199.3 924 199.8 924.3 200.1C924.5 200.4 925 200.6 925.4 200.5L925.5 200.6L925.8 200.3C931.1 197.2 936.6 194.3 942 191.6L943 191.1C945.2 189.8 947.6 188.9 950.1 188.3C952.2 187.9 955 188.3 956.6 190.3C959.6 194.1 956.9 199.6 954.4 202.4C951.2 205.8 946.8 208 942.2 208.6C935.7 209.6 929.1 208 923.3 206.3C923.3 206.1 923.2 205.8 923.1 205.6L914.3 194.5Z" fill="black"/>
<path d="M818.5 336.4C813.1 336.4 807.8 336 802.4 335.2C801.5 335.1 800.8 334.2 800.9 333.3C801 332.4 801.9 331.7 802.8 331.8C861.8 340.4 909.7 296.6 910.2 296.2C910.9 295.5 911.9 295.5 912.6 296.2C913.3 296.9 913.3 297.9 912.6 298.6L912.5 298.7C912.2 299.1 871.5 336.4 818.5 336.4Z" fill="black"/>
<path d="M827.8 353.4C822.7 353.5 817.6 352.9 812.7 351.5C811.8 351.2 811.3 350.3 811.6 349.4C811.9 348.5 812.8 348 813.7 348.3C833.7 354.4 871.4 342.5 871.7 342.4C872.6 342.1 873.6 342.5 873.9 343.4C874.2 344.3 873.8 345.3 872.9 345.6C872.8 345.6 872.7 345.7 872.6 345.7C871.5 346 848 353.4 827.8 353.4Z" fill="black"/>
<path d="M547 331.2C547 331.2 569.8 354 583.5 322.1C590.7 305.3 623.8 267.9 648.5 281C673.2 294.1 689.1 274.4 707.8 268.5C729.5 261.6 766.3 290.1 728.3 333.5C638.4 436.6 520.6 367.7 520.6 367.7L530 329.8L547 331.2Z" fill="#6C32AD"/>
<path d="M714.8 267.4C736.2 267.4 762.6 294.3 728.5 333.5C690 377.6 646.4 390.3 609.1 390.3C559.3 390.3 520.8 367.8 520.8 367.8L530.2 329.9L547 331.2C547 331.2 554.9 339.1 564.2 339.1C570.7 339.1 577.9 335.2 583.5 322.1C589.7 307.7 614.8 278.3 637.4 278.3C641.3 278.3 645.1 279.2 648.6 281C653.6 283.8 659.3 285.3 665.1 285.4C681.1 285.4 693.7 272.9 708 268.4C710.2 267.7 712.5 267.4 714.8 267.4ZM714.8 264C712.1 264 709.5 264.4 706.9 265.2C701.1 267 695.7 270.1 690.4 273C682 277.6 674.1 282 665.1 282C659.9 281.9 654.8 280.6 650.2 278C646.3 275.9 641.9 274.9 637.5 274.9C613.3 274.9 587.1 305.2 580.4 320.8C576.1 330.7 570.7 335.8 564.2 335.8C556.5 335.8 549.5 329 549.4 328.9C548.8 328.3 548.1 328 547.2 327.9L530.3 326.6H530C528.4 326.6 527.1 327.7 526.7 329.2L517.3 367.1C516.9 368.6 517.6 370.1 518.9 370.9C520.5 371.8 558.8 393.9 609 393.9C629.8 394 650.4 389.9 669.6 381.8C692.2 372.2 712.9 356.8 731 336C752.7 311.1 749.3 292.8 745.3 284.1C740 272.1 727.5 264 714.8 264Z" fill="black"/>
<path d="M542.2 314C553.908 314 563.4 304.508 563.4 292.8C563.4 281.092 553.908 271.6 542.2 271.6C530.492 271.6 521 281.092 521 292.8C521 304.508 530.492 314 542.2 314Z" fill="#6C32AD"/>
<path d="M542.1 271.6C553.8 271.6 563.3 281.1 563.3 292.8C563.3 304.5 553.8 314 542.1 314C530.4 314 520.9 304.5 520.9 292.8C520.9 291.9 521 291.1 521.1 290.2C522.4 279.5 531.4 271.5 542.1 271.6ZM542.1 268.2C528.5 268.1 517.4 279 517.3 292.6C517.2 305.2 526.6 315.8 539.1 317.2C540.1 317.3 541.1 317.4 542.1 317.4C555.7 317.4 566.7 306.4 566.7 292.8C566.7 280.4 557.4 269.9 545.1 268.4C544.1 268.3 543.1 268.2 542.1 268.2Z" fill="black"/>
<path d="M455.4 318.9C455.4 318.9 450.3 300.1 462.8 292.6C475.3 285.1 477.6 288 483.9 283.6C490.2 279.2 505 280.4 512.9 289.7C512.9 289.7 531.1 288.7 540.2 298.9C549.3 309.1 549.6 316.9 547 327.5C544.4 338.1 545 344 543.4 351.6C541.8 359.2 534.2 378.3 502.7 375C471.2 371.7 455.4 318.9 455.4 318.9Z" fill="#6C32AD"/>
<path d="M493.5 281.1C500.1 281.1 507.9 283.7 512.9 289.7C512.9 289.7 513.4 289.7 514.2 289.7C518.6 289.7 532.6 290.4 540.2 298.9C549.3 309.1 549.6 316.9 547 327.5C544.4 338.1 545 344 543.4 351.6C541.9 358.6 535.4 375.4 509.6 375.4C507.3 375.4 505 375.3 502.7 375C471.2 371.7 455.4 318.8 455.4 318.8C455.4 318.8 450.3 300 462.8 292.5C475.3 285 477.6 287.9 483.9 283.5C486.8 281.9 490.1 281.1 493.5 281.1ZM493.5 277.8C489.5 277.6 485.5 278.7 482 280.8C480.1 282.1 478 283 475.8 283.4C472.5 284.2 468.5 285.3 461.1 289.7C446.5 298.4 451.9 319 452.1 319.8V319.9C452.8 322.2 468.9 375 502.3 378.5C504.7 378.8 507.1 378.9 509.5 378.9C538.8 378.9 545.4 358.6 546.7 352.4C547.3 349.2 547.8 346.1 548 342.9C548.4 338 549.1 333.2 550.3 328.4C553.1 316.8 552.8 307.9 542.7 296.7C534.4 287.5 520.2 286.4 514.4 286.4C508.8 280.7 501.3 277.6 493.5 277.8Z" fill="black"/>
<path d="M485.1 383.9C485.1 383.9 451.1 398.4 434 413.3C401.4 441.5 385.4 461.3 372.8 519.2C367.6 543.2 366.2 573.2 366.2 573.2L508.8 604C508.8 604 534.1 595 549.1 524.4C559.4 475.9 533.3 409.5 519.1 399.2C519 399.2 484.4 401.4 485.1 383.9Z" fill="#FFAD00"/>
<path d="M485.1 383.9C484.5 397.9 506.4 399.3 515.3 399.3C517.6 399.3 519 399.2 519 399.2C533.3 409.5 559.3 475.9 549 524.4C534 594.9 508.7 604 508.7 604L366.2 573.2C366.2 573.2 367.6 543.2 372.8 519.2C385.4 461.3 401.4 441.5 434 413.3C451.1 398.4 485.1 383.8 485.1 383.9ZM485.1 380.4C484.6 380.4 484.2 380.5 483.7 380.7C482.3 381.3 449 395.6 431.7 410.6C415.1 425 402.8 437.2 392.9 453.2C382.9 469.5 375.6 489.6 369.4 518.4C364.2 542.4 362.7 571.7 362.7 572.9C362.6 574.6 363.8 576 365.4 576.4L508 607.3C508.2 607.4 508.5 607.4 508.7 607.4C509.1 607.4 509.5 607.3 509.8 607.2C510.9 606.8 537.1 596.7 552.3 525.1C562.6 476.7 537.3 408.2 520.9 396.4C520.3 396 519.6 395.7 518.9 395.8H518.7C518.7 395.8 517.3 395.9 515.2 395.9C503.5 395.9 494.2 393.6 490.5 389.6C489 388.1 488.3 386.1 488.4 384C488.5 382.1 487 380.5 485.1 380.4C485.2 380.4 485.2 380.4 485.1 380.4Z" fill="black"/>
<path d="M496.3 398.5C496.3 398.5 495.6 398.9 494.4 399.7C487.3 403.9 462.4 417.8 454.6 410C445.5 400.9 462.6 394 462.6 394" fill="white"/>
<path d="M461.5 413.9C458.2 413.9 455.3 413.1 453.3 411.1C450.7 408.5 449.7 405.8 450.3 403C451.6 396.6 460.8 392.8 461.9 392.3C462.8 391.9 463.8 392.4 464.1 393.2C464.5 394.1 464 395.1 463.1 395.4C460.7 396.4 454.4 399.7 453.6 403.6C453.3 405.2 454 406.9 455.7 408.6C461.2 414.1 479.5 406.3 493.4 398.1C494.6 397.4 495.3 397 495.3 397C496.1 396.5 497.2 396.7 497.7 397.5C498.2 398.3 498 399.4 497.2 399.9C497.2 399.9 496.5 400.4 495.2 401.1C487.8 405.6 472.2 413.9 461.5 413.9Z" fill="black"/>
<path d="M476.6 369.2L463.5 391.5C463.5 391.5 453.8 405.2 507.8 397.8C507.8 397.8 498.1 380.4 505.7 357.9C505.7 357.9 515.5 362.3 519.8 353.8C524.1 345.3 519 339.6 514 339C514 339 492.8 338.3 500.2 298.5C500.2 298.5 480.8 293.5 466.3 306.6C451.8 319.7 441.5 339.7 449.5 353.6C457.5 367.5 476.6 369.2 476.6 369.2Z" fill="#FFCDB2"/>
<path d="M491.3 297.6C494.3 297.6 497.3 297.9 500.2 298.5C492.7 338.3 514 339 514 339C519.1 339.6 524.2 345.4 519.9 353.9C518.4 357.2 515.1 359.3 511.4 359.1C509.5 359.1 507.5 358.7 505.8 357.9C498.2 380.4 507.9 397.8 507.9 397.8C499.1 399.1 490.3 399.8 481.4 400C457.5 400 463.5 391.5 463.5 391.5L476.6 369.2C476.6 369.2 457.4 367.5 449.5 353.6C441.6 339.7 451.7 319.6 466.3 306.6C474.5 299.2 484.3 297.6 491.3 297.6ZM491.3 294.2C483.9 294.2 473.1 295.9 464 304.1C449.1 317.5 437.3 339.3 446.5 355.4C452.6 366.1 464.4 370.3 471.2 371.8L460.7 389.7C459.3 391.9 459.1 394.6 460.3 396.9C462.6 401.4 469.3 403.4 481.5 403.4C490.5 403.2 499.5 402.5 508.4 401.2C510.3 400.9 511.6 399.2 511.3 397.3C511.2 396.9 511.1 396.5 510.9 396.2C506 385.6 505 373.5 508.1 362.2C509.2 362.4 510.3 362.5 511.4 362.5C516.3 362.6 520.8 359.8 522.9 355.4C525.3 350.6 525.5 345.7 523.4 341.8C521.6 338.4 518.2 336.1 514.4 335.5H514.1C511.1 335.1 508.3 333.4 506.5 330.9C503.2 326.7 500 317.8 503.6 299.1C503.9 297.3 502.8 295.6 501.1 295.1C497.9 294.4 494.6 294.1 491.3 294.1V294.2Z" fill="black"/>
<path d="M479 369.2C477.4 369.2 475.7 369.1 474.1 368.7C473.5 368.6 473.1 368 473.2 367.3C473.3 366.7 473.9 366.3 474.5 366.4C480.4 367.7 488.1 365.6 488.1 365.5C488.7 365.3 489.3 365.7 489.5 366.3C489.7 366.9 489.3 367.5 488.7 367.7C485.7 368.7 482.3 369.2 479 369.2Z" fill="black"/>
<path d="M508.9 355C508.3 355 507.8 354.5 507.7 353.9C507.7 353.4 508 353 508.4 352.8C510.5 351.9 513.1 350.4 513.5 348.3C513.9 345.9 511.4 343.5 511.4 343.5C510.9 343.1 510.9 342.4 511.3 341.9C511.7 341.4 512.4 341.4 512.9 341.8C513.1 341.9 516.4 345 515.8 348.7C515.4 351.3 513.2 353.4 509.3 355C509.2 355 509 355 508.9 355Z" fill="black"/>
<path d="M482.6 321C490.5 328.5 505.1 332.2 505.2 336.7C505.3 341.2 501 344.6 495.4 342.6C489.8 340.6 485 337.5 475.6 330.5C466.2 323.5 457.4 316 461.8 311.4C466.2 306.8 471.1 309.9 482.6 321Z" fill="#FFB49F"/>
<path d="M477.3 322.9C476.7 322.9 476.2 322.4 476.2 321.8C476.3 319.6 475.5 317.4 473.9 315.8C470.9 312.9 465.7 313 465.6 313C465 313 464.4 312.5 464.4 311.9C464.4 311.3 464.9 310.7 465.5 310.7C465.8 310.7 471.7 310.5 475.4 314.1C477.4 316.1 478.5 318.9 478.4 321.7C478.5 322.4 478 322.9 477.3 322.9Z" fill="black"/>
<path d="M499.1 339.2C498.6 339.2 498.1 338.8 498 338.3C495.7 328.8 487.2 329.8 486.8 329.9C486.2 330 485.6 329.5 485.5 328.9C485.4 328.3 485.9 327.7 486.5 327.6C486.6 327.6 497.4 326.2 500.2 337.7C500.3 338.3 500 338.9 499.4 339.1C499.3 339.2 499.2 339.2 499.1 339.2Z" fill="black"/>
<path d="M484 311.3C481.6 311.3 479.2 310.7 477.1 309.6C476.5 309.3 476.3 308.6 476.7 308.1C477 307.5 477.7 307.3 478.2 307.6C480.2 308.6 482.3 309 484.5 309C485.1 309 485.7 309.5 485.7 310.1C485.7 310.7 485.2 311.3 484.6 311.3H484Z" fill="black"/>
<path d="M481.6 354.1C478.3 354.1 475.2 352.7 473 350.2C472.6 349.7 472.7 349 473.2 348.6C473.7 348.2 474.4 348.3 474.8 348.8C475 349.1 479.4 354.4 487.4 350.2C488 349.9 488.6 350.1 488.9 350.7C489.2 351.3 489 351.9 488.4 352.2C486.3 353.4 484 354.1 481.6 354.1Z" fill="black"/>
<path d="M761 384C779.1 384.6 796.7 383.6 792.1 390C787.2 396.8 777 401.3 755.2 396.2C734.4 391.3 734.1 386.4 734.1 386.4" fill="#FFCDB2"/>
<path d="M771.8 400.2C766.1 400.1 760.4 399.4 754.8 398C734.4 393.2 732.5 388.1 732.3 386.7C732.2 385.8 732.9 384.9 733.9 384.9C734.8 384.8 735.5 385.4 735.7 386.3C735.9 386.7 738.1 390.6 755.6 394.7C773.3 398.9 785.1 397 790.7 389.2C791.1 388.6 791.1 388.3 791.1 388.3C790.2 386.5 778.2 386.2 770.3 386.1C767.3 386 764.1 386 760.9 385.9C760 385.9 759.2 385.1 759.2 384.1C759.2 383.2 760 382.4 761 382.5C764.2 382.6 767.3 382.7 770.3 382.7C784.7 383 792.3 383.3 794.1 386.8C794.6 387.7 794.8 389.2 793.4 391.2C789.1 397.1 781.8 400.2 771.8 400.2Z" fill="black"/>
<path d="M722.9 356C722.9 356 747.7 328 753.7 334.2C759.7 340.4 741.6 354.7 742.2 365.1C742.8 375.5 722.9 356 722.9 356Z" fill="#FFCDB2"/>
<path d="M740.3 369.8C735.1 369.8 725.8 361.2 721.7 357.1C721.1 356.5 721 355.4 721.6 354.7C723.7 352.3 742.2 331.7 751.2 331.4C752.6 331.3 753.9 331.8 754.9 332.8C759.1 337.1 754.9 343.4 750.5 350.1C747.3 355 743.6 360.6 743.8 364.9C744 367.8 742.7 369 741.7 369.5C741.3 369.8 740.8 369.8 740.3 369.8ZM725.3 355.8C731.8 362 738.8 366.9 740.3 366.4C740.4 366 740.4 365.6 740.4 365.1C740.1 359.7 743.9 353.9 747.7 348.3C751.5 342.7 754.7 337.6 752.5 335.3C752.2 335 751.8 334.9 751.3 334.9C746 335.1 733 347.4 725.3 355.8Z" fill="black"/>
<path d="M707.9 366C707.9 366 720.8 345.1 737.5 355.5C754.2 365.9 758.5 374.4 771.2 368.9C792.4 359.6 804.2 363.6 780.7 383.6C757.2 403.6 713.1 389.4 713.1 389.4" fill="#FFCDB2"/>
<path d="M745.5 396C734.3 395.9 723.2 394.2 712.5 391C711.6 390.7 711.1 389.7 711.4 388.8C711.7 387.9 712.7 387.4 713.6 387.7C714 387.8 757 401.4 779.5 382.3C790.8 372.7 792.4 368 791.7 366.8C790.7 365.2 783.9 365.2 771.8 370.5C761.6 375 756 370.8 747.5 364.6C744.4 362.3 740.9 359.7 736.5 357C733 354.7 728.7 353.8 724.6 354.8C715.6 356.9 709.3 366.9 709.2 367C708.6 367.8 707.6 367.9 706.8 367.4C706.1 366.9 705.9 366 706.3 365.2C706.6 364.7 713.4 353.9 723.8 351.4C728.8 350.2 734.1 351.1 738.3 354C742.8 356.8 746.4 359.4 749.5 361.7C757.8 367.8 762 370.9 770.4 367.2C775.1 365.1 790.8 358.9 794.5 364.8C797 368.8 792.8 375.3 781.7 384.7C771.6 393.4 758 396 745.5 396Z" fill="black"/>
<path d="M469.9 335.9C469.3 335.9 468.8 335.4 468.8 334.7C468.8 334.4 469 334.1 469.2 333.9L483 322.9C483.5 322.5 484.2 322.6 484.6 323.1C485 323.6 484.9 324.3 484.4 324.7L470.6 335.7C470.4 335.8 470.1 335.9 469.9 335.9Z" fill="black"/>
<path d="M517.574 359.602C517.902 357.585 516.532 355.685 514.515 355.357C512.498 355.03 510.597 356.4 510.27 358.417C509.942 360.434 511.312 362.334 513.329 362.662C515.346 362.989 517.247 361.619 517.574 359.602Z" fill="#FFAD00"/>
<path d="M513.9 355.3C514 355.3 514.2 355.3 514.4 355.3C516.4 355.6 517.8 357.4 517.6 359.4C517.4 361.2 515.8 362.6 514 362.6H513.5C511.5 362.4 510 360.6 510.2 358.6C510.4 356.7 512 355.3 513.9 355.3ZM513.9 353C510.6 353.2 508.1 356 508.3 359.3C508.5 362.6 511.3 365.1 514.6 364.9C517.9 364.7 520.4 361.9 520.2 358.6C520 355.6 517.6 353.2 514.6 353C514.4 353 514.2 353 513.9 353Z" fill="black"/>
<path d="M366.2 568C366.2 568 301.1 570.3 284 598.8C266.9 627.3 304.5 771.1 304.5 771.1L375.3 767.7V681" fill="#58298C"/>
<path d="M304.5 772.8C303.7 772.8 303 772.3 302.8 771.5C301.3 765.6 265.2 626.7 282.4 597.9C299.8 568.9 363.3 566.4 366 566.3C366.9 566.3 367.7 567 367.8 567.9C367.8 568.8 367.1 569.6 366.2 569.7C365.6 569.7 301.8 572.2 285.4 599.7C269.7 625.9 302 754.7 305.8 769.4L373.5 766.1V681C373.6 680.1 374.4 679.3 375.3 679.4C376.1 679.5 376.8 680.1 376.9 681V767.7C376.9 768.6 376.2 769.4 375.3 769.4L304.5 772.8Z" fill="black"/>
<path d="M531.6 464.1C562.4 467.5 578.1 456.1 619.8 452.4C661.5 448.7 681.4 441.1 696.9 430.7C716.2 417.7 710.6 403.1 710.6 403.1L720.1 394.8L705.7 362.7L692.6 368.7C683.1 363.1 675.5 357.5 647.2 376.8C624.7 392.2 593.2 369.3 545.5 379.4C497.8 389.5 481.8 407.5 481.8 407.5" fill="#FFAD00"/>
<path d="M542.7 466.5C538.9 466.5 535.2 466.3 531.4 465.9C530.5 465.7 529.8 464.8 530 463.9C530.2 463.1 530.9 462.5 531.8 462.5C549.2 464.4 561.5 461.6 577 458C588.6 455.4 601.7 452.4 619.6 450.7C664.7 446.7 682.9 438 695.9 429.2C713.9 417.1 709 403.8 709 403.7C708.7 403 708.9 402.3 709.5 401.8L718 394.3L704.8 365L693.3 370.3C692.8 370.5 692.2 370.5 691.7 370.2L690.8 369.7C682.1 364.6 674.6 360.1 648.1 378.3C636 386.5 622.1 384.4 604.4 381.7C587.7 379.2 568.8 376.3 545.8 381.2C499.3 391 483.2 408.6 483.1 408.7C482.5 409.4 481.4 409.5 480.7 408.8C480 408.2 479.9 407.1 480.6 406.4C481.3 405.6 497.6 387.9 545.2 377.8C568.8 372.8 588.9 375.9 605 378.3C621.9 380.9 635.3 382.9 646.3 375.4C674.7 356 683.4 361.2 692.7 366.7L692.8 366.8L705.1 361.2C705.5 361 706 361 706.4 361.2C706.8 361.3 707.2 361.7 707.4 362.1L721.8 394.2C722.1 394.9 721.9 395.7 721.4 396.2L712.7 403.8C713.7 407.7 715.3 420.6 698 432.2C684.6 441.2 665.9 450.1 620.1 454.2C602.4 455.8 589.4 458.8 578 461.4C565.9 464 555.3 466.5 542.7 466.5Z" fill="black"/>
<path d="M509.2 604.3C509.2 604.3 520.3 642.5 492.1 647.5C463.9 652.5 380.5 654.5 353.3 694.8C326.1 735.1 220.5 789.3 220.5 789.3L186.4 727C214.1 691.9 244.7 659.3 277.9 629.5C324.2 588.3 366.4 573.2 366.4 573.2L509.2 604.3Z" fill="#6C32AD"/>
<path d="M366.4 573.2L509.2 604.4C509.2 604.4 520.3 642.6 492.1 647.6C463.9 652.6 380.5 654.6 353.3 694.9C326.1 735.2 220.6 789.4 220.6 789.4L186.4 727C214.1 691.9 244.7 659.3 277.9 629.5C324.2 588.2 366.4 573.1 366.4 573.2ZM366.4 569.7C366 569.7 365.6 569.8 365.3 569.9C363.5 570.5 321.9 585.7 275.7 626.9C242.3 656.9 211.5 689.7 183.7 724.9C182.9 726 182.8 727.4 183.4 728.6L217.6 791C218.2 792.1 219.3 792.8 220.6 792.8C221.1 792.8 221.7 792.7 222.2 792.4C226.5 790.2 328.9 737.2 356.2 696.7C377.7 664.9 437.5 657.8 473.2 653.5C481 652.6 487.7 651.8 492.8 650.9C500.6 649.5 506.4 645.7 510.2 639.7C518.9 625.6 512.9 604.2 512.6 603.3C512.2 602.1 511.3 601.2 510.1 600.9L367.3 569.7C366.9 569.8 366.7 569.8 366.4 569.7Z" fill="black"/>
<path d="M184.7 726.6C169.9 721.3 154.3 718.5 138.5 718.3C135.3 718.3 132.8 720.8 132.7 724C132.7 725 133 726 133.5 726.9L181.3 810C181.3 810 207.6 807.7 220.1 791.7L184.7 726.6Z" fill="#6C32AD"/>
<path d="M181.3 811.6C180.7 811.6 180.1 811.3 179.8 810.7L132 727.7C130 724.1 131.2 719.6 134.7 717.6C135.8 717 137.1 716.6 138.4 716.6H138.5C154.5 716.8 170.3 719.6 185.3 725C185.7 725.1 186 725.4 186.2 725.8L221.6 790.8C221.9 791.4 221.9 792.1 221.5 792.7C208.6 809.1 182.6 811.5 181.5 811.6H181.3ZM138.5 720C136.3 720 134.5 721.8 134.5 724C134.5 724.7 134.7 725.4 135 726L182.2 808.1C187.1 807.5 207.3 804.2 218 791.5L183.5 728C169 723 153.8 720.3 138.5 720Z" fill="black"/>
<path d="M305 775.1C293.9 785.9 284.7 798.5 277.7 812.3C276.3 815.1 277.5 818.5 280.2 819.8C281.1 820.2 282.1 820.4 283.1 820.4L377.1 814.1C377.1 814.1 386.4 789.9 377.7 771.9L305 775.1Z" fill="#6C32AD"/>
<path d="M282.7 822.2C278.6 822.2 275.4 818.9 275.4 814.8C275.4 813.7 275.7 812.6 276.2 811.6C283.3 797.6 292.6 784.8 303.9 773.9C304.2 773.6 304.6 773.5 305 773.4L377.8 770.2C378.5 770.2 379.1 770.6 379.4 771.2C388.3 789.7 379.2 813.7 378.8 814.7C378.6 815.3 378 815.7 377.3 815.8L283.3 822.1L282.7 822.2ZM305.7 776.8C295 787.4 286.1 799.7 279.2 813.1C278.2 815 279 817.4 281 818.3C281.6 818.6 282.3 818.7 283 818.7L375.9 812.5C377.5 807.9 383.3 788.7 376.7 773.7L305.7 776.8Z" fill="black"/>
<path d="M487 568C489.043 568 490.7 566.343 490.7 564.3C490.7 562.257 489.043 560.6 487 560.6C484.957 560.6 483.3 562.257 483.3 564.3C483.3 566.343 484.957 568 487 568Z" fill="#FFC140"/>
<path d="M401.4 538.3C403.443 538.3 405.1 536.643 405.1 534.6C405.1 532.557 403.443 530.9 401.4 530.9C399.357 530.9 397.7 532.557 397.7 534.6C397.7 536.643 399.357 538.3 401.4 538.3Z" fill="#FFC140"/>
<path d="M452.8 520.1C454.843 520.1 456.5 518.443 456.5 516.4C456.5 514.357 454.843 512.7 452.8 512.7C450.757 512.7 449.1 514.357 449.1 516.4C449.1 518.443 450.757 520.1 452.8 520.1Z" fill="#FFC140"/>
<path d="M415.1 460.7C417.143 460.7 418.8 459.044 418.8 457C418.8 454.957 417.143 453.3 415.1 453.3C413.057 453.3 411.4 454.957 411.4 457C411.4 459.044 413.057 460.7 415.1 460.7Z" fill="#FFC140"/>
<path d="M533.8 475.5C535.843 475.5 537.5 473.843 537.5 471.8C537.5 469.757 535.843 468.1 533.8 468.1C531.757 468.1 530.1 469.757 530.1 471.8C530.1 473.843 531.757 475.5 533.8 475.5Z" fill="#FFC140"/>
<path d="M503 510.9C505.043 510.9 506.7 509.243 506.7 507.2C506.7 505.157 505.043 503.5 503 503.5C500.957 503.5 499.3 505.157 499.3 507.2C499.3 509.243 500.957 510.9 503 510.9Z" fill="#FFC140"/>
<path d="M547.5 435.6C549.543 435.6 551.2 433.943 551.2 431.9C551.2 429.856 549.543 428.2 547.5 428.2C545.457 428.2 543.8 429.856 543.8 431.9C543.8 433.943 545.457 435.6 547.5 435.6Z" fill="#FFC140"/>
<path d="M509.9 436.7C511.943 436.7 513.6 435.044 513.6 433C513.6 430.957 511.943 429.3 509.9 429.3C507.857 429.3 506.2 430.957 506.2 433C506.2 435.044 507.857 436.7 509.9 436.7Z" fill="#FFC140"/>
<path d="M597.7 405.9C599.743 405.9 601.4 404.243 601.4 402.2C601.4 400.157 599.743 398.5 597.7 398.5C595.657 398.5 594 400.157 594 402.2C594 404.243 595.657 405.9 597.7 405.9Z" fill="#FFC140"/>
<path d="M645.7 439C647.743 439 649.4 437.343 649.4 435.3C649.4 433.257 647.743 431.6 645.7 431.6C643.657 431.6 642 433.257 642 435.3C642 437.343 643.657 439 645.7 439Z" fill="#FFC140"/>
<path d="M659.3 402.5C661.343 402.5 663 400.843 663 398.8C663 396.757 661.343 395.1 659.3 395.1C657.257 395.1 655.6 396.757 655.6 398.8C655.6 400.843 657.257 402.5 659.3 402.5Z" fill="#FFC140"/>
<path d="M465.3 457.3C467.343 457.3 469 455.643 469 453.6C469 451.556 467.343 449.9 465.3 449.9C463.257 449.9 461.6 451.556 461.6 453.6C461.6 455.643 463.257 457.3 465.3 457.3Z" fill="#FFC140"/>
<path d="M442.5 432.2C444.543 432.2 446.2 430.544 446.2 428.5C446.2 426.457 444.543 424.8 442.5 424.8C440.457 424.8 438.8 426.457 438.8 428.5C438.8 430.544 440.457 432.2 442.5 432.2Z" fill="#FFC140"/>
<path d="M198.2 712.4C190.6 721.5 186.4 727 186.4 727L220.6 789.3C220.6 789.3 228.9 785 241.5 778C229.9 740 204.6 717.6 198.2 712.4Z" fill="white"/>
<path d="M220.6 791.1C220 791.1 219.4 790.8 219.1 790.2L184.9 727.9C184.6 727.3 184.6 726.6 185 726C185 725.9 189.3 720.3 196.8 711.3C197.4 710.6 198.5 710.5 199.2 711.1C206.6 717.1 231.4 739.5 243 777.6C243.2 778.4 242.9 779.2 242.2 779.6C229.8 786.6 221.4 790.9 221.3 790.9C221.2 791 220.9 791.1 220.6 791.1ZM188.5 727.2L221.4 787.1C224.2 785.6 230.8 782.2 239.5 777.3C231.8 753.1 217.6 731.5 198.5 714.9C193.3 721 189.8 725.4 188.5 727.2Z" fill="black"/>
<path d="M180.1 736.3C179.5 736.3 178.8 736.1 178.3 735.7C174.9 733 160.6 731.8 151.6 731.8C150 731.8 148.7 730.5 148.7 729C148.7 727.4 150 726.1 151.6 726.1C155.6 726.1 175.7 726.4 181.9 731.3C183.1 732.3 183.3 734.1 182.4 735.3C181.8 735.9 181 736.3 180.1 736.3Z" fill="white"/>
<path d="M300.4 754.3C300.4 754.3 349 753.8 376.4 749.9V772.3L305.6 775.7L300.4 754.3Z" fill="white"/>
<path d="M305.7 777.4C304.9 777.4 304.2 776.9 304 776.1L298.7 754.7C298.5 753.8 299 752.8 300 752.6C300.1 752.6 300.3 752.6 300.4 752.6C300.9 752.6 349.2 752 376.2 748.2C377.1 748.1 378 748.7 378.1 749.7C378.1 749.8 378.1 749.9 378.1 749.9V772.3C378.1 773.2 377.4 774 376.5 774L305.7 777.4ZM302.6 756L307 774L374.7 770.7V751.9C350.6 755 312.1 755.8 302.6 756Z" fill="black"/>
<path d="M742.8 388.5C737.7 388.5 732.6 388.1 727.6 387.1C726.7 386.9 726.1 386 726.3 385.1C726.5 384.2 727.4 383.6 728.3 383.8C728.6 383.9 758.6 390.3 779.4 373.9C780.1 373.3 781.2 373.4 781.8 374.1C782.4 374.8 782.3 375.9 781.6 376.5L781.5 376.6C769 386.3 753.8 388.5 742.8 388.5Z" fill="white"/>
<path d="M558.4 299.7H558.2C557.3 299.6 556.6 298.7 556.7 297.8C557.3 292.6 556.2 288.4 553.6 285.5C549.1 280.4 541.3 280.4 541.2 280.4C540.3 280.3 539.5 279.5 539.6 278.6C539.7 277.8 540.3 277.1 541.2 277C541.6 277 550.6 277.1 556.2 283.3C559.5 287 560.9 292.1 560.2 298.3C560.1 299.1 559.3 299.7 558.4 299.7Z" fill="white"/>
<path d="M575.7 277.1C574.8 277.1 574 276.4 574 275.5C573 259.2 557.1 259.9 556.4 259.9C555.5 260 554.6 259.2 554.6 258.3C554.5 257.4 555.3 256.5 556.2 256.5C556.4 256.5 576.2 255.6 577.4 275.3C577.5 276.2 576.7 277.1 575.8 277.1C575.8 277.1 575.8 277.1 575.7 277.1Z" fill="black"/>
<path d="M244.6 684.4C244.1 684.4 243.6 684.3 243.2 684.1C241.8 683.3 241.3 681.6 242.1 680.2C266.2 636.6 319.7 607.3 322 606C323.4 605.3 325.1 605.9 325.8 607.3C326.4 608.6 326 610.2 324.7 611C324.2 611.3 270.4 640.8 247.1 682.9C246.6 683.8 245.6 684.4 244.6 684.4Z" fill="white"/>
<path d="M516.8 406.5C515.2 406.5 514 405.2 514 403.6C514 402.8 514.4 402 515 401.5C516 400.6 540.6 380.6 609 388.5C610.6 388.6 611.7 390 611.6 391.6C611.5 393.2 610.1 394.3 608.5 394.2C608.4 394.2 608.4 394.2 608.3 394.2C542.7 386.7 518.9 405.7 518.6 406C518.1 406.3 517.5 406.5 516.8 406.5Z" fill="white"/>
<path d="M692.6 371C693.1 374.3 694.7 394 708.5 402.5C708.4 402.2 709.5 402 709.5 402L717.8 394.8L704.5 365L692.6 371Z" fill="#E89D00"/>
<path d="M773.7 411.3C767.9 411.3 762.1 410.7 756.5 409.3C755.6 409 755.1 408 755.4 407.1C755.7 406.3 756.5 405.8 757.4 406C757.7 406.1 789.9 414.6 811.7 393.9C812.4 393.2 813.5 393.3 814.1 394C814.8 394.7 814.7 395.8 814 396.4C801.3 408.5 785.5 411.3 773.7 411.3Z" fill="black"/>
<path d="M669.8 232.8C678.1 224.4 686 215.8 693.7 206.8C701.4 197.8 708.7 188.6 715.7 179.2C722.7 169.8 729.4 160.1 735.7 150.2C742 140.3 748 130.2 753.7 120C759.3 109.7 764.6 99.2 769.4 88.6C770 87.3 770.6 85.9 771.2 84.6C771.6 83.8 771.4 82.8 770.6 82.3C769.8 81.8 768.7 82.1 768.3 82.9C763.5 93.6 758.4 104.1 752.8 114.5C747.2 124.9 741.4 135 735.2 144.9C729 154.8 722.4 164.5 715.6 173.9C708.8 183.3 701.6 192.5 694.2 201.3C686.7 210.3 678.8 219 670.6 227.4C669.6 228.4 668.6 229.5 667.6 230.5C665.9 232 668.3 234.4 669.8 232.8Z" fill="black"/>
<path d="M633.8 253.5C646.1 232.1 654.9 209 660 184.9C661.4 178.1 662.5 171.2 663.4 164.3C663.4 163.4 662.6 162.6 661.7 162.6C660.8 162.6 660 163.4 660 164.3C657.1 188.3 650.5 211.6 640.4 233.6C637.5 239.8 634.4 245.9 631 251.8C629.8 253.7 632.8 255.5 633.8 253.5Z" fill="black"/>
</svg>
