<svg width="1000" height="1000" viewBox="0 0 1000 1000" fill="none" xmlns="http://www.w3.org/2000/svg">
<rect width="1000" height="1000" fill="white"/>
<path d="M953.7 896.5H213.9C212.8 896.5 211.9 895.6 211.9 894.5C211.9 893.4 212.8 892.5 213.9 892.5H953.7C954.8 892.5 955.7 893.4 955.7 894.5C955.7 895.6 954.8 896.5 953.7 896.5Z" fill="#1D1D1B"/>
<path d="M988.5 925.4H875C873.9 925.4 873 924.5 873 923.4C873 922.3 873.9 921.4 875 921.4H988.5C989.6 921.4 990.5 922.3 990.5 923.4C990.5 924.5 989.6 925.4 988.5 925.4Z" fill="#1D1D1B"/>
<path d="M283.6 929.8H170.2C169.1 929.8 168.2 928.9 168.2 927.8C168.2 926.7 169.1 925.8 170.2 925.8H283.7C284.8 925.8 285.7 926.7 285.7 927.8C285.7 928.9 284.8 929.8 283.6 929.8Z" fill="#1D1D1B"/>
<path d="M729.3 547.1C726.1 547.1 722.9 547 719.7 546.6C718.9 546.5 718.3 545.7 718.4 544.9C718.5 544.1 719.3 543.5 720.1 543.6C720.3 543.6 738.5 546.2 763.2 539C786 532.3 819.1 515.7 847.5 474.2C848 473.6 849 473.4 849.6 474C850.2 474.5 850.3 475.3 850 475.9C821.1 518.2 787.2 535.1 763.9 541.9C752.8 545.2 741.1 547 729.3 547.1Z" fill="black"/>
<path d="M788.9 569.7C772.1 569.7 761 565.5 760.6 565.3C759.8 565 759.4 564.2 759.6 563.4C759.9 562.6 760.7 562.2 761.5 562.4C761.6 562.4 761.6 562.4 761.7 562.5C762.2 562.7 807 579.5 852.4 543.8C853 543.3 854 543.4 854.5 544C855 544.6 854.9 545.6 854.3 546.1C854.3 546.1 854.3 546.1 854.2 546.2C829.8 565.4 805.6 569.6 789.7 569.7H788.9Z" fill="black"/>
<path d="M627.8 499.1C627.8 499.1 626.7 532.8 651.1 528.4C675.5 524 727.7 514 737.7 550.6C747.7 587.2 743.2 593.9 769.9 596.1C796.6 598.3 839.7 648.7 777.6 690.7C715.5 732.7 577.8 528.4 577.8 528.4L583.6 508.3L627.8 499.1Z" fill="#6C32AD"/>
<path d="M627.8 499.1C627.8 499.1 626.8 528.8 646.9 528.8C648.3 528.8 649.7 528.7 651.1 528.4C661.3 526.6 676.3 523.7 691.1 523.7C711.8 523.7 731.9 529.2 737.8 550.6C747.8 587.3 743.3 593.9 770 596.1C796.7 598.3 839.8 648.7 777.7 690.7C772 694.5 765.4 696.5 758.5 696.4C691.1 696.4 577.8 528.3 577.8 528.3L583.6 508.2L627.8 499.1ZM627.9 496.1C627.7 496.1 627.5 496.1 627.3 496.2L583 505.4C581.9 505.6 581 506.4 580.7 507.5L575 527.6C574.8 528.5 574.9 529.4 575.4 530.1C595.6 559.4 617.4 587.5 640.7 614.4C690.1 670.8 729.7 699.4 758.6 699.4C766 699.5 773.3 697.3 779.4 693.2C814.8 669.2 814.5 644.1 811.1 631.2C805.6 610 785.5 594.4 770.2 593.1C750.7 591.5 750.1 588.7 745 567.4C743.8 562.4 742.5 556.6 740.6 549.7C735.3 530.4 718.7 520.6 691 520.6C676.4 520.6 661.4 523.3 651.4 525.1L650.5 525.3C649.3 525.5 648 525.7 646.8 525.7C643.3 525.8 639.9 524.4 637.4 521.9C630.3 514.5 630.7 499.3 630.7 499.1C630.8 497.4 629.5 496.1 627.8 496C627.9 496.1 627.9 496.1 627.9 496.1Z" fill="black"/>
<path d="M784.3 686C781.9 630.3 696.7 568.4 668.9 558.4C641.1 548.4 607.8 532.9 603.4 520.6C599 508.4 619.3 503.9 619.3 503.9L613.4 502L583.7 508.2L577.9 528.3C577.9 528.3 715.6 732.7 777.8 690.7C780 689.2 782.2 687.6 784.3 686Z" fill="#59298F"/>
<path d="M520.5 564C520.5 564 499.4 572.9 511.6 585.1C523.8 597.3 542.6 589.2 552.1 583.3C552.1 583.3 549.4 598.5 569.4 596.2C589.4 593.9 604.9 588.4 602.7 564H520.5Z" fill="white"/>
<path d="M602.7 564C604.9 588.4 589.4 594 569.4 596.2C568.1 596.4 566.9 596.4 565.6 596.4C549.8 596.4 552.1 583.2 552.1 583.2C546.2 586.9 536.8 591.4 527.6 591.4C521.6 591.6 515.8 589.3 511.6 585C499.4 572.8 520.5 563.9 520.5 563.9L602.7 564ZM602.7 561H520.6C520.2 561 519.8 561.1 519.4 561.2C518.1 561.7 506.8 566.7 505.1 575.3C504.3 579.4 505.8 583.4 509.6 587.2C514.4 592 520.9 594.6 527.7 594.4C536 594.4 544.1 591.1 549.5 588.3C549.9 590.5 550.9 592.5 552.3 594.2C555.2 597.6 559.7 599.4 565.8 599.4C567.2 599.4 568.6 599.3 569.9 599.2C578.9 598.2 589.2 596.4 596.4 590.8C603.9 585 607 576.1 605.9 563.7C605.6 562.2 604.3 561 602.7 561Z" fill="black"/>
<path d="M693 394.3C692.9 394.3 692.8 394.3 692.7 394.2C692 393.9 691.7 393.1 692 392.4C694.9 385.5 695.2 379 692.9 373.3C688.7 363 677.3 358.2 677.2 358.1C676.5 357.8 676.2 357 676.4 356.3C676.6 355.6 677.5 355.3 678.2 355.5C678.7 355.7 690.8 360.8 695.5 372.2C698.2 378.7 697.9 385.8 694.6 393.5C694.3 394.1 693.6 394.4 693 394.3Z" fill="black"/>
<path d="M660.5 390H660.4C659.6 389.9 659 389.2 659 388.4C659.6 379.8 657.7 373.1 653.2 368.4C645.8 360.8 634 361.1 633.9 361.1C633.1 361.1 632.4 360.5 632.3 359.7C632.2 358.9 632.9 358.2 633.7 358.1C634.2 358.1 647 357.7 655.2 366.3C660.3 371.6 662.6 379.1 661.9 388.6C661.9 389.4 661.3 390.1 660.5 390Z" fill="white"/>
<path d="M825.5 880.8C825.5 880.8 829.1 860.3 874.9 850.7C920.7 841.1 954.5 890.5 954.5 890.5H825.5V880.8Z" fill="#6C32AD"/>
<path d="M957.4 892H824V880.6C824.2 879.7 828.3 859 874.6 849.3C893.8 845.3 913.9 851 932.8 865.9C941.5 872.7 949.2 880.8 955.7 889.7L957.4 892ZM827 889H951.5C944.1 879.4 913.8 844 875.2 852.2C832.9 861.1 827.3 879.5 826.9 881V889H827Z" fill="#1D1E1B"/>
<path d="M894.2 831.4C903.9 826.6 926.8 831.4 931.6 841.1C936.4 850.8 928 858 919.6 860.4C911.2 862.8 899.4 850.9 899.4 850.9L894.2 831.4Z" fill="#FFCDB2"/>
<path d="M917.2 862.2C908.5 862.2 898.8 852.4 898.3 851.9L898 851.6L892.4 830.6L893.5 830.1C903.9 824.9 927.6 829.8 932.9 840.4C934.7 843.8 934.9 847.8 933.4 851.4C931 856.9 924.8 860.4 919.9 861.8C919.1 862 918.1 862.1 917.2 862.2ZM900.7 850C904 853.3 913.1 860.6 919.1 858.9C923.4 857.7 928.7 854.7 930.7 850.2C931.9 847.5 931.7 844.3 930.2 841.7C925.9 833.1 905.5 828.6 895.9 832.2L900.7 850Z" fill="#1D1D1B"/>
<path d="M645.9 429.1C664.678 429.1 679.9 413.878 679.9 395.1C679.9 376.322 664.678 361.1 645.9 361.1C627.122 361.1 611.9 376.322 611.9 395.1C611.9 413.878 627.122 429.1 645.9 429.1Z" fill="#6C32AD"/>
<path d="M651.7 361.7C670.2 364.9 682.6 382.5 679.4 401C676.2 419.5 658.6 431.9 640.1 428.7C621.6 425.5 609.2 407.9 612.4 389.4C612.4 389.4 612.4 389.4 612.4 389.3C615.7 370.8 633.3 358.5 651.7 361.7ZM652.2 358.9C632.2 355.4 613.2 368.8 609.7 388.8C606.2 408.8 619.6 427.8 639.6 431.3C659.6 434.8 678.6 421.4 682.1 401.4C685.6 381.5 672.2 362.4 652.2 358.9Z" fill="black"/>
<path d="M861.7 849.5C861.7 849.5 866.5 829 883.4 826.6C900.3 824.2 914.7 832.6 913.6 849.5C912.5 866.4 891.9 868.8 881.1 865.2C870.3 861.6 861.7 849.5 861.7 849.5Z" fill="#FFCDB2"/>
<path d="M890.6 868.1C887.2 868.1 883.7 867.6 880.4 866.6C869.2 862.9 860.7 850.9 860.4 850.4L860 849.9L860.2 849.2C860.4 848.3 865.5 827.7 883.2 825.1C893.4 823.7 902.6 826 908.5 831.5C913.3 836 915.6 842.3 915.1 849.6C914.8 855.3 911.8 860.6 907 863.7C902.3 866.8 896.3 868.1 890.6 868.1ZM863.3 849.2C865.1 851.6 872.5 860.8 881.4 863.8C888.1 866 898.4 865.9 905.2 861.3C909.2 858.7 911.8 854.3 911.9 849.5C912.4 843.1 910.4 837.7 906.3 833.8C901.1 828.9 892.8 826.9 883.5 828.2C869.6 830.1 864.3 845.8 863.3 849.2Z" fill="#1D1D1B"/>
<path d="M824.3 865.2C814.1 870.3 812.3 880.9 813.5 890.5C814.7 900.1 826.8 908.6 837.6 903.8C848.4 899 843.6 886.9 837.6 880.9C831.6 874.9 842.4 865.2 848.4 873.7C854.4 882.2 871.3 880.9 881 873.7C890.7 866.5 883.4 848.4 870.2 843.5C857 838.6 842.5 836.3 836.4 849.5C830.3 862.7 829.1 862.8 824.3 865.2Z" fill="#FFCDB2"/>
<path d="M831 906.7C827.7 906.7 824.5 905.8 821.6 904.2C816.3 901.2 812.6 896.1 812 890.8C810.4 878 814.5 868.5 823.7 863.9L824.5 863.5C828.4 861.6 829.6 861 835.1 848.9C842 833.7 858.8 837.7 870.7 842.1C879.1 845.3 885.2 852.7 886.8 861.6C887.6 867.2 885.9 871.9 882 874.9C875.2 879.7 866.8 881.8 858.6 880.8C853.6 880 849.7 877.9 847.4 874.6C845.6 872 843.5 871.8 842.2 872C840.2 872.3 838.5 873.8 837.7 875.7C837.2 877.2 837.6 878.9 838.8 879.9C842.9 884 846.6 890.9 845.5 896.9C844.8 900.6 842.3 903.5 838.4 905.3C835.9 906.2 833.5 906.7 831 906.7ZM825 866.5C814.9 871.6 814 882.2 815 890.3C815.5 894.7 818.7 899 823.1 901.5C827.3 904 832.5 904.3 837 902.4C840.1 901 841.9 898.9 842.4 896.2C843.3 891.3 840 885.4 836.5 881.9C834.5 880.1 833.8 877.2 834.7 874.6C835.8 871.6 838.4 869.4 841.5 868.8C844.6 868.3 847.5 869.7 849.6 872.6C852 875.9 855.9 877.1 858.9 877.6C866.4 878.6 873.9 876.7 880.1 872.3C883.1 870 884.4 866.3 883.8 861.8C882.7 854.5 876.8 847.3 869.7 844.7C852.4 838.4 842.3 840.1 837.8 849.9C832.1 862.4 830.5 863.6 825.8 865.9L825 866.5Z" fill="#1D1D1B"/>
<path d="M506.8 423.2C506.8 423.2 500.1 392.7 520.8 381.6C541.5 370.5 544.9 375.4 555.4 368.8C565.9 362.2 589.4 365.3 601.3 381C601.3 381 630.6 380.9 644.3 397.9C658 414.9 658 427.4 653 444.3C648 461.2 648.4 470.7 645.3 482.7C642.2 494.7 628.5 524.7 578.2 517C527.8 509.3 506.8 423.2 506.8 423.2Z" fill="#6C32AD"/>
<path d="M576 366.3C585.3 367.9 595 372.7 601.4 381.1C605.4 381.2 609.4 381.6 613.4 382.3C623.1 384 636.4 388.1 644.4 398C658.2 415 658.1 427.5 653 444.4C647.9 461.3 648.4 470.8 645.3 482.8C642.2 494.8 628.5 524.8 578.2 517.1L577.3 516.9C527.6 508.2 506.9 423.2 506.9 423.2C506.9 423.2 500.2 392.7 520.9 381.6C541.6 370.6 545 375.4 555.5 368.8C560.3 365.9 568 364.9 576 366.3ZM576.5 363.6C567.8 362.1 559.4 363.2 554 366.6C549.7 369.2 546.9 369.8 542.9 370.6C537.8 371.6 531.4 373 519.5 379.2C510.2 384.2 504.5 393.5 503.3 406.3C502.7 412.1 503 418 504.1 423.8V423.9C508.1 439.2 513.8 454 520.9 468.1C527.6 481.3 535.2 492.2 543.2 500.6C553.5 511.2 564.7 517.6 576.7 519.7L577.7 519.9C600.2 523.4 618.2 519.9 631.1 509.6C639.4 503 645.3 493.8 647.9 483.6C649.1 478.7 650.1 473.7 650.7 468.7C651.7 460.8 653.4 453 655.6 445.3C660.8 427.9 661 414.3 646.5 396.3C638 385.7 624 381.4 613.8 379.6C610.1 378.9 606.4 378.5 602.7 378.4C596.5 370.7 587 365.4 576.5 363.6Z" fill="black"/>
<path d="M386 531.7C447.8 512.4 602.6 542.2 646.1 597C670.9 628.2 696.1 686.3 721.1 758.9C731.7 789.6 750.7 818.3 786.6 814.9C809.8 812.6 834 828.9 830.6 844.7C824 875.7 768.7 895.9 768.7 895.9L331 894C331 894 280.3 793.3 328.5 692.2C328.5 692.2 233.4 732.2 194.4 714.8C155.4 697.4 104.4 591 143.3 580.1L135.6 553.7L196.2 519.3L209 535.5C209 535.5 228.7 512.1 242.5 529.1C256.3 546.1 278.1 580.8 278.1 580.8C278.1 580.8 293.1 560.8 386 531.7Z" fill="#FFAD00"/>
<path d="M768.8 897.3L331 895.5C330.4 895.5 329.9 895.2 329.7 894.7C329.6 894.4 316.9 868.9 310.2 831.3C304.2 797.3 302.2 746.5 325.5 695C311.3 700.7 258.6 720.7 219.9 720.7C210 720.7 201 719.4 193.8 716.2C163.5 702.7 125.4 635.4 128 600.1C128.8 589.2 133.4 582.1 141.5 579.2L134.2 554.2C134 553.5 134.3 552.8 134.9 552.5L195.5 518.1C196.1 517.7 197 517.9 197.4 518.5L209.1 533.3C212.3 529.9 221.2 521.5 230.7 521.5H230.8C235.7 521.5 240 523.8 243.6 528.3C255.6 543.1 273.7 571.4 278.3 578.5C283.7 573.2 306.7 555.1 385.6 530.5L386 531.9L385.6 530.5C415.6 521.1 469.6 523 523.3 535.3C582.1 548.8 627.3 571 647.4 596.2C670.4 625.1 695 678.2 722.6 758.6C736.1 797.9 757.6 816.4 786.5 813.6C801.2 812.2 817.7 818.1 826.5 828.1C831.3 833.5 833.3 839.6 832.1 845.2C825.4 876.6 771.5 896.7 769.2 897.5C769.1 897.3 769 897.3 768.8 897.3ZM332 892.5L768.5 894.3C772.5 892.8 823.1 873.1 829.2 844.3C830.5 838.3 827.2 833.1 824.3 829.8C816 820.5 800.6 815 786.8 816.3C784.8 816.5 782.8 816.6 780.8 816.6C753.4 816.6 732.9 797.4 719.8 759.3C692.2 679.2 667.8 626.4 645 597.8C625.3 573.1 580.7 551.2 522.6 537.9C469.4 525.7 416 523.8 386.4 533C295.5 561.4 279.3 581.3 279.2 581.5C278.9 581.9 278.4 582.1 277.9 582.1C277.4 582.1 277 581.8 276.7 581.4C276.5 581.1 254.8 546.6 241.2 529.8C238.2 526.1 234.7 524.2 230.7 524.1H230.6C220.4 524.1 210.2 536 210.1 536.1C209.8 536.5 209.4 536.7 208.9 536.7C208.4 536.7 208 536.5 207.7 536.1L195.7 520.9L137.3 554.1L144.6 579.4C144.7 579.8 144.7 580.2 144.5 580.6C144.3 580.9 144 581.2 143.6 581.3C135.9 583.4 131.6 589.7 130.9 600C128.3 634.4 165.4 700 194.9 713.2C232.9 730.1 326.9 690.9 327.8 690.5C328.6 690.2 329.4 690.6 329.8 691.3C330 691.7 330 692.1 329.8 692.5C305.1 744.4 307.1 796.1 313.1 830.3C319.1 864.1 329.8 887.9 332 892.5Z" fill="#1D1D1B"/>
<path d="M517.7 527.8C517.7 527.8 493.7 531.3 504.7 553.4C515.7 575.5 537.1 568.8 537.1 568.8C537.1 568.8 579.5 614.8 592.5 557.3L517.7 527.8Z" fill="white"/>
<path d="M568.5 587.8C554.2 587.8 539.8 573.8 536.6 570.5C532.2 571.5 513.5 574.4 503.3 554.1C499.8 547.1 499.3 541 501.8 536.2C506 528.1 516.9 526.5 517.4 526.4L517.8 526.3L594.2 556.4L593.9 557.7C590.1 574.7 583.2 584.6 573.6 587.2C572 587.5 570.3 587.8 568.5 587.8ZM537.6 567.1L538.3 567.8C538.5 568 557.5 588.3 573 584.2C581.2 582 587.2 573.3 590.8 558.2L517.6 529.4C515.8 529.8 507.7 531.6 504.6 537.6C502.5 541.6 503 546.7 506.1 552.8C516.5 573.5 535.9 567.7 536.7 567.4L537.6 567.1Z" fill="#1D1D1B"/>
<path d="M572 727C575.755 727 578.8 723.956 578.8 720.2C578.8 716.444 575.755 713.4 572 713.4C568.244 713.4 565.2 716.444 565.2 720.2C565.2 723.956 568.244 727 572 727Z" fill="#FFC140"/>
<path d="M443.1 617.4C446.856 617.4 449.9 614.356 449.9 610.6C449.9 606.845 446.856 603.8 443.1 603.8C439.345 603.8 436.3 606.845 436.3 610.6C436.3 614.356 439.345 617.4 443.1 617.4Z" fill="#FFC140"/>
<path d="M398.1 735.4C401.856 735.4 404.9 732.356 404.9 728.6C404.9 724.845 401.856 721.8 398.1 721.8C394.345 721.8 391.3 724.845 391.3 728.6C391.3 732.356 394.345 735.4 398.1 735.4Z" fill="#FFC140"/>
<path d="M470.4 710C474.156 710 477.2 706.956 477.2 703.2C477.2 699.444 474.156 696.4 470.4 696.4C466.645 696.4 463.6 699.444 463.6 703.2C463.6 706.956 466.645 710 470.4 710Z" fill="#FFC140"/>
<path d="M623 626C626.755 626 629.8 622.956 629.8 619.2C629.8 615.444 626.755 612.4 623 612.4C619.244 612.4 616.2 615.444 616.2 619.2C616.2 622.956 619.244 626 623 626Z" fill="#FFC140"/>
<path d="M548.1 652.6C551.856 652.6 554.9 649.556 554.9 645.8C554.9 642.044 551.856 639 548.1 639C544.345 639 541.3 642.044 541.3 645.8C541.3 649.556 544.345 652.6 548.1 652.6Z" fill="#FFC140"/>
<path d="M442.2 578.8C445.956 578.8 449 575.756 449 572C449 568.245 445.956 565.2 442.2 565.2C438.445 565.2 435.4 568.245 435.4 572C435.4 575.756 438.445 578.8 442.2 578.8Z" fill="#FFC140"/>
<path d="M298.2 641.3C301.956 641.3 305 638.256 305 634.5C305 630.745 301.956 627.7 298.2 627.7C294.445 627.7 291.4 630.745 291.4 634.5C291.4 638.256 294.445 641.3 298.2 641.3Z" fill="#FFC140"/>
<path d="M227.4 589.5C231.155 589.5 234.2 586.456 234.2 582.7C234.2 578.944 231.155 575.9 227.4 575.9C223.644 575.9 220.6 578.944 220.6 582.7C220.6 586.456 223.644 589.5 227.4 589.5Z" fill="#FFC140"/>
<path d="M175.7 618C179.456 618 182.5 614.956 182.5 611.2C182.5 607.444 179.456 604.4 175.7 604.4C171.944 604.4 168.9 607.444 168.9 611.2C168.9 614.956 171.944 618 175.7 618Z" fill="#FFC140"/>
<path d="M633.9 628.8C637.656 628.8 640.7 625.756 640.7 622C640.7 618.245 637.656 615.2 633.9 615.2C630.144 615.2 627.1 618.245 627.1 622C627.1 625.756 630.144 628.8 633.9 628.8Z" fill="#FFC140"/>
<path d="M138.6 554.9L196 521.5L209 537.3C209 537.3 192.8 576 145.2 580.1L138.6 554.9Z" fill="#E89D00"/>
<path d="M322.1 708.5C322 708.5 321.8 708.5 321.7 708.4C320.9 708.2 320.5 707.3 320.7 706.6C329.4 675.9 367.5 619 369.2 616.6C369.7 615.9 370.6 615.7 371.3 616.2C372 616.7 372.2 617.6 371.7 618.3C371.3 618.9 332.3 677.3 323.6 707.5C323.4 708.1 322.8 708.5 322.1 708.5Z" fill="#1D1E1B"/>
<path d="M306.4 586.8C304.7 586.8 303.4 585.5 303.4 583.8C303.4 582.9 303.9 582 304.6 581.4C349.6 548.2 391.9 539.7 419.5 538.5C449.5 537.1 468.5 543.6 469.4 543.9C471 544.5 471.8 546.2 471.2 547.7C470.6 549.3 468.9 550.1 467.4 549.5C467.2 549.4 448.4 543.1 419.5 544.5C392.9 545.8 351.9 554 308.2 586.2C307.6 586.6 307 586.8 306.4 586.8Z" fill="white"/>
<path d="M774.8 883.7C774.8 883.7 779.3 857.9 836.9 845.8C894.5 833.7 936.9 895.8 936.9 895.8H774.8V883.7Z" fill="#6C32AD"/>
<path d="M939.8 897.3H773.3V883.4C773.5 882.3 778.7 856.5 836.6 844.3C860.6 839.3 885.8 846.4 909.4 865.1C920.3 873.7 930 883.8 938.1 895L939.8 897.3ZM776.3 894.3H934C926.3 884.3 917.4 875.2 907.5 867.4C891.5 854.8 866.3 841.1 837.2 847.3C783.1 858.7 776.7 882.1 776.3 883.9V894.3Z" fill="#1D1E1B"/>
<path d="M861.1 821.6C873.2 815.5 902 821.6 908.1 833.7C914.2 845.8 903.5 854.9 893 857.9C882.5 860.9 867.7 845.9 867.7 845.9L861.1 821.6Z" fill="#FFCDB2"/>
<path d="M890 859.8C879.3 859.8 867.1 847.5 866.6 847L866.3 846.7L859.4 820.7L860.5 820.2C866.6 817.2 876.8 816.8 887.3 819.3C898.2 821.9 906.5 827 909.5 833C911.8 837.2 912 842.2 910.2 846.5C907.2 853.3 899.6 857.6 893.4 859.3C892.3 859.7 891.2 859.8 890 859.8ZM869 845.2C871 847.2 883.7 859.1 892.6 856.5C898.1 854.9 904.9 851.2 907.4 845.3C908.9 841.9 908.7 838.2 906.8 834.3C904.2 829.1 896.7 824.6 886.6 822.2C877.6 820 868.5 820.1 863 822.3L869 845.2Z" fill="#1D1D1B"/>
<path d="M820.2 844.3C820.2 844.3 826.3 818.5 847.5 815.5C868.7 812.5 886.9 823.1 885.4 844.3C883.9 865.5 858.1 868.5 844.5 864C830.9 859.5 820.2 844.3 820.2 844.3Z" fill="#FFCDB2"/>
<path d="M856.6 867.3C852.3 867.3 848.1 866.7 844 865.4C830 860.7 819.4 845.8 819 845.1L818.6 844.6L818.8 843.9C819.1 842.8 825.3 817.1 847.3 814C860 812.2 871.4 815.1 878.8 821.9C884.8 827.5 887.6 835.2 887 844.4C886.7 851.5 882.9 858 877 861.9C871.1 865.7 863.7 867.3 856.6 867.3ZM821.8 844C823.8 846.7 833.3 858.7 844.9 862.6C853.3 865.4 866.4 865.2 875.2 859.4C880.4 856 883.6 850.4 883.9 844.2C884.5 836 882 829.1 876.7 824.1C870 817.9 859.5 815.3 847.7 817C829.6 819.6 823 840 821.8 844Z" fill="#1D1D1B"/>
<path d="M773.2 864C760.3 870.4 758 883.7 759.6 895.8C761.2 907.9 776.3 918.5 789.9 912.5C803.5 906.5 797.5 891.3 789.9 883.7C782.3 876.1 796 864 803.5 874.6C811 885.2 832.3 883.7 844.4 874.6C856.5 865.5 847.4 842.8 830.8 836.7C814.2 830.6 795.9 827.6 788.4 844.3C780.9 861 779.3 861 773.2 864Z" fill="#FFCDB2"/>
<path d="M781.7 915.7C777.6 915.7 773.6 914.6 770 912.6C763.5 908.9 758.9 902.6 758.1 896C756.7 884.8 758.1 869.9 772.6 862.7L773.6 862.2C778.6 859.7 780.2 859 787.1 843.7C795.7 824.9 816.5 829.9 831.4 835.3C841.6 839 849.8 848.9 851.3 859.5C852.3 866.4 850.2 872.2 845.4 875.8C836.9 881.8 826.5 884.4 816.2 883.1C810 882.1 805.2 879.5 802.3 875.5C799.9 872.1 797.2 871.7 795.3 872C792.6 872.5 790.3 874.3 789.4 876.9C788.7 878.9 789.3 881.2 790.9 882.6C796 887.7 800.6 896.2 799.2 903.6C798.4 908.1 795.3 911.7 790.4 913.9C787.7 915.1 784.7 915.8 781.7 915.7ZM773.9 865.3C761 871.8 759.8 885.3 761.1 895.6C761.8 901.2 765.8 906.7 771.5 910C776.9 913.2 783.5 913.6 789.3 911.1C793.3 909.3 795.7 906.6 796.3 903C797.5 896.7 793.2 889.1 788.8 884.7C786.4 882.5 785.5 879.1 786.6 876C787.9 872.3 791.1 869.6 794.9 869C797.1 868.7 801.3 868.8 804.7 873.7C807.7 878 812.8 879.5 816.6 880.1C826.1 881.3 835.7 878.9 843.5 873.3C847.4 870.4 849.1 865.6 848.3 859.8C846.9 850.5 839.3 841.3 830.3 838C808.4 830 795.5 832.2 789.8 844.8C782.7 860.4 780.9 861.8 774.9 864.8L773.9 865.3Z" fill="#1D1D1B"/>
<path d="M71.8001 467.8C71.8001 467.8 50.5001 519.4 129.5 546.9C129.5 546.9 172.9 560 194 540V534.5C194 534.5 225.1 515.6 219.6 494.5C219.6 494.5 197.4 486.7 171.8 512.3C171.8 512.3 158.5 473.4 117.4 473.4C117.4 473.4 100.7 463.4 94.1001 472.3C94.0001 472.2 86.3001 462.2 71.8001 467.8Z" fill="#FFCDB2"/>
<path d="M80.3 466.1C85.5 466.1 90.5 468.3 94 472.2C96 469.5 99 468.5 102.2 468.5C109.3 468.5 117.3 473.3 117.3 473.3C158.4 473.3 171.7 512.2 171.7 512.2C187.6 496.3 202.2 493.3 211 493.3C213.9 493.2 216.8 493.6 219.5 494.4C225.1 515.5 193.9 534.4 193.9 534.4V540C184.8 548.7 171.4 551.1 159.2 551.1C149.1 551 139.1 549.6 129.4 546.9C50.5 519.4 71.7 467.8 71.7 467.8C74.5 466.7 77.4 466.2 80.3 466.1ZM80.3 463.1C77 463.1 73.8 463.8 70.8 465C70 465.3 69.4 465.9 69.1 466.7C64.7 479.4 65.4 493.3 71 505.6C79.6 524.6 98.9 539.5 128.6 549.8H128.7C138.7 552.6 149 554 159.4 554.1C175.4 554.1 187.8 550.1 196.1 542.1C196.7 541.6 197 540.8 197 540V536.1C203.4 531.9 227.8 514.2 222.4 493.7C222.1 492.7 221.4 492 220.5 491.6C217.4 490.7 214.2 490.3 211 490.3C201.8 490.3 187.9 493.3 172.8 507C170 501.1 166.4 495.7 162.2 490.8C151.2 477.9 135.1 470.4 118.1 470.3C115.8 469 108.8 465.5 102.2 465.5C99.3 465.4 96.4 466.3 93.9 467.9C90.1 464.8 85.3 463.1 80.3 463.1Z" fill="black"/>
<path d="M166.2 531.5C165.3 531.5 164.7 530.8 164.7 529.9C164.7 529.7 164.8 525.8 160.8 521.9C156.4 517.7 146.5 513 124.1 514.8C123.5 514.8 123 514.6 122.7 514.1C122.5 513.8 107.1 488.5 92.9001 473.2C92.4001 472.5 92.6001 471.6 93.3001 471.1C93.9001 470.7 94.6001 470.8 95.1001 471.2C108.1 485.2 122 507.3 124.8 511.7C143.3 510.4 156.1 513.1 163 519.8C167.9 524.6 167.7 529.8 167.7 530C167.7 530.9 167 531.5 166.2 531.5Z" fill="black"/>
<path d="M145.1 507C144.5 507 143.9 506.6 143.7 506.1C143.6 505.9 136.9 489.6 116.4 473.4C115.7 472.9 115.6 472 116.1 471.3C116.6 470.6 117.5 470.5 118.2 471L118.3 471.1C139.5 487.8 146.3 504.4 146.5 505C146.8 505.8 146.4 506.6 145.7 506.9C145.5 507 145.3 507 145.1 507Z" fill="black"/>
<path d="M127.8 539.8C127.7 539.8 127.6 539.8 127.5 539.8C95.8 534.1 79 503.3 78.3 502C77.8 501 78.1 499.8 79.1 499.3C80.1 498.8 81.3 499.1 81.8 500.1C82 500.4 98.4 530.4 128.1 535.7C129.2 535.8 130 536.8 129.9 537.9C129.8 539 128.9 539.9 127.8 539.8Z" fill="white"/>
<path d="M536.8 505.6L514 540.3C514 540.3 530.4 583.9 589.2 552.4C589.2 552.4 567.7 525.7 584.4 489.9C584.4 489.9 599.7 497.8 607.3 484.5C614.9 471.2 607.1 461.5 599 460.1C599 460.1 565 457.3 580.2 394.1C580.2 394.1 549.5 384.6 525.1 404.3C500.7 424 482.7 455.4 494.4 478.3C506.1 501.2 536.8 505.6 536.8 505.6Z" fill="#FFCDB2"/>
<path d="M574.7 392.9C576.6 393.2 578.4 393.6 580.2 394.1C566.3 451.8 593.5 459.1 598.3 460C598.8 460.1 599 460.1 599 460.1C607.1 461.5 614.8 471.2 607.3 484.5C602.9 492.3 595.8 492.8 590.7 491.9C588.5 491.5 586.4 490.9 584.4 489.9C567.7 525.6 589.2 552.4 589.2 552.4C569.3 563.1 554.2 565.2 543 563.2C521.2 559.4 514 540.3 514 540.3L536.8 505.6C536.8 505.6 536.5 505.6 536.1 505.5C531.4 504.7 505.2 499.2 494.6 478.4C482.9 455.5 500.9 424.1 525.3 404.3C543.3 389.7 564.8 391.2 574.7 392.9ZM575.2 390.1C563.8 388.1 542 387.1 523.4 402.2C510.4 412.8 499.9 425.8 493.8 439C486.8 454.1 486.2 468.2 492 479.6C501.6 498.5 523 505.3 532.1 507.5L511.6 538.7C511.1 539.4 511 540.4 511.3 541.2C516.8 554.2 528.6 563.4 542.4 565.8C556.1 568.2 572.2 564.5 590.4 554.7C591.8 554 592.3 552.3 591.5 551C591.4 550.8 591.3 550.7 591.2 550.6C587.5 545.4 584.7 539.6 583 533.5C579.2 520.2 580.1 506.8 585.7 493.5C587.1 494 588.6 494.4 590.1 494.7C598.6 496.2 605.5 493.1 609.6 485.9C613.4 479.1 614.1 472.3 611.4 466.6C609.1 461.8 604.7 458.3 599.4 457.3H599.1L598.6 457.2C596.6 456.9 589.9 455.2 584.8 447.5C577.7 436.7 577 418.5 582.7 394.7C583 393.3 582.2 391.8 580.8 391.4C579.2 391 577.3 390.5 575.2 390.1Z" fill="black"/>
<path d="M535.3 507.8C534.4 507.6 533.5 507.4 532.6 507.2C531.9 507 531.4 506.2 531.6 505.5C531.8 504.8 532.6 504.3 533.3 504.5C542.3 507 554 504.3 554.1 504.2C554.8 504 555.6 504.5 555.8 505.2C556 505.9 555.5 506.7 554.8 506.9C554.4 507.1 544.4 509.4 535.3 507.8Z" fill="black"/>
<path d="M589.5 484.9C588.7 484.8 588.2 484 588.4 483.3C588.5 482.8 588.8 482.4 589.3 482.2C594.5 480.3 597.5 477.9 598.2 475C599.1 470.8 595.1 466.8 595 466.8C594.4 466.3 594.4 465.4 595 464.8C595.5 464.2 596.4 464.2 597 464.8C597.2 465 602.2 470 600.9 475.6C600 479.5 596.4 482.6 590.2 484.8C590 484.9 589.7 484.9 589.5 484.9Z" fill="black"/>
<path d="M550.3 428.8C562.3 441.5 585.5 448.5 585.3 455.8C585.1 463.1 577.9 468.1 569.2 464.5C560.5 460.9 553 455.4 538.4 443.5C523.8 431.6 510.3 418.7 517.8 411.7C525.3 404.7 532.7 410 550.3 428.8Z" fill="#FFB49F"/>
<path d="M541.4 431C540.7 430.9 540.2 430.3 540.2 429.6C540.4 425.5 539.3 422.1 536.9 419.6C532.1 414.5 523.7 414.4 523.6 414.4C522.8 414.4 522.2 413.8 522.2 413C522.2 412.2 522.8 411.6 523.6 411.6C524 411.6 533.3 411.7 538.9 417.7C541.8 420.8 543.2 424.9 543 429.8C542.9 430.5 542.3 431.1 541.5 431H541.4Z" fill="black"/>
<path d="M575 458.9C574.4 458.8 574 458.4 573.9 457.8C570.9 442 556.8 443 556.2 443C555.4 443.1 554.8 442.5 554.7 441.7C554.6 440.9 555.2 440.3 556 440.2C556.2 440.2 573.2 438.9 576.7 457.2C576.8 457.9 576.4 458.7 575.6 458.8C575.3 458.9 575.2 458.9 575 458.9Z" fill="black"/>
<path d="M550.4 412.6C547.6 412.1 544.9 411.2 542.5 409.8C541.8 409.4 541.6 408.5 542 407.9C542.4 407.2 543.3 407 543.9 407.4C547 409.1 550.6 410.1 554.2 410.2C555 410.2 555.6 410.8 555.6 411.6C555.6 412.4 555 413 554.2 413C553 412.9 551.7 412.8 550.4 412.6Z" fill="black"/>
<path d="M543.7 481.1C539.4 480.3 535.5 478 532.8 474.6C532.3 474 532.4 473.1 533 472.7C533.6 472.2 534.5 472.3 534.9 472.9C534.9 472.9 534.9 473 535 473C535.3 473.4 542.1 482.7 555.6 476.4C556.3 476 557.1 476.3 557.5 477C557.9 477.7 557.6 478.5 556.9 478.9C556.8 478.9 556.8 479 556.7 479C551.7 481.3 547.3 481.7 543.7 481.1Z" fill="black"/>
<path d="M602.2 460.8C596.9 460 592 458 587.6 455C587 454.5 587 453.6 587.5 453C588 452.5 588.7 452.4 589.3 452.8C600.5 461.3 620.6 458.4 620.8 458.4C621.6 458.3 622.3 458.8 622.4 459.6C622.5 460.4 622 461.1 621.2 461.2C614.9 461.9 608.5 461.9 602.2 460.8Z" fill="black"/>
<path d="M603.3 453.9C603.2 453.9 603 453.8 602.9 453.8C574.3 439.2 586 406.8 586.2 406.4C586.5 405.7 587.3 405.3 588 405.6C588.7 405.9 589.1 406.7 588.8 407.4C588.3 408.6 577.8 437.8 604.2 451.3C604.9 451.6 605.2 452.5 604.8 453.2C604.5 453.7 603.9 454 603.3 453.9Z" fill="white"/>
<path d="M528.4 451.1C528 451 527.7 450.8 527.5 450.6C527.1 450 527.2 449.1 527.8 448.7L550.7 432.1C551.3 431.6 552.2 431.7 552.7 432.3C553.2 432.9 553.1 433.8 552.5 434.3C552.4 434.3 552.4 434.4 552.3 434.4L529.4 451C529.2 451.1 528.8 451.2 528.4 451.1Z" fill="black"/>
<path d="M590.1 499.5C593.193 499.5 595.7 496.993 595.7 493.9C595.7 490.807 593.193 488.3 590.1 488.3C587.007 488.3 584.5 490.807 584.5 493.9C584.5 496.993 587.007 499.5 590.1 499.5Z" fill="#FFAD00"/>
<path d="M591 488.4C594 488.9 596.1 491.8 595.5 494.8C595 497.8 592.1 499.9 589.1 499.3C586.1 498.8 584 495.9 584.6 492.9C585.1 489.9 588 487.9 591 488.4ZM591.5 485.7C587 484.9 582.6 487.9 581.8 492.5C581 497.1 584 501.4 588.6 502.2C593.2 503 597.5 500 598.3 495.4C599.1 490.8 596.1 486.5 591.5 485.7Z" fill="black"/>
<path d="M524.4 827.6C527.714 827.6 530.4 824.914 530.4 821.6C530.4 818.286 527.714 815.6 524.4 815.6C521.086 815.6 518.4 818.286 518.4 821.6C518.4 824.914 521.086 827.6 524.4 827.6Z" fill="#FFC140"/>
<path d="M371.7 821.7C375.014 821.7 377.7 819.014 377.7 815.7C377.7 812.386 375.014 809.7 371.7 809.7C368.386 809.7 365.7 812.386 365.7 815.7C365.7 819.014 368.386 821.7 371.7 821.7Z" fill="#FFC140"/>
<path d="M452.6 814.3C455.914 814.3 458.6 811.614 458.6 808.3C458.6 804.986 455.914 802.3 452.6 802.3C449.286 802.3 446.6 804.986 446.6 808.3C446.6 811.614 449.286 814.3 452.6 814.3Z" fill="#FFC140"/>
<path d="M639.9 891.1H321.3C308.3 891.1 297.8 880.6 297.8 867.6V675.5C297.8 662.5 308.3 652 321.3 652H640C653 652 663.5 662.5 663.5 675.5V867.6C663.4 880.6 652.9 891.1 639.9 891.1Z" fill="#6C32AD"/>
<path d="M639.9 892.6H321.3C307.5 892.6 296.3 881.4 296.3 867.6V675.5C296.3 661.7 307.5 650.5 321.3 650.5H640C653.8 650.5 665 661.7 665 675.5V867.6C664.9 881.4 653.7 892.6 639.9 892.6ZM321.3 653.5C309.1 653.5 299.3 663.3 299.3 675.5V867.6C299.3 879.8 309.1 889.6 321.3 889.6H640C652.2 889.6 662 879.8 662 867.6V675.5C662 663.3 652.2 653.5 640 653.5H321.3Z" fill="#1D1E1B"/>
<path d="M676.8 891.6H296.6C285.1 891.6 275.8 882.3 275.8 870.8H697.8C697.7 882.2 688.3 891.6 676.8 891.6Z" fill="#59298F"/>
<path d="M676.8 893.1H296.6C284.3 893.1 274.3 883.1 274.3 870.8V869.3H699.2V870.8C699.2 883.1 689.2 893.1 676.8 893.1ZM277.3 872.2C278.1 882.3 286.5 890 296.6 890H676.9C687 890 695.4 882.2 696.2 872.2H277.3Z" fill="#1D1D1B"/>
<path d="M310.9 849.7C309.2 849.7 307.9 848.4 307.9 846.7V690.1C307.9 688.4 309.2 687.1 310.9 687.1C312.6 687.1 313.9 688.4 313.9 690.1V846.7C313.9 848.4 312.6 849.7 310.9 849.7Z" fill="white"/>
<path d="M463.3 754.9H483.1C488.7 754.9 493.3 759.5 493.3 765.1V784.9C493.3 790.5 488.7 795.1 483.1 795.1H463.3C457.7 795.1 453.1 790.5 453.1 784.9V765C453.1 759.4 457.7 754.9 463.3 754.9Z" fill="#59298F"/>
<path d="M483.1 796.5H463.3C456.9 796.5 451.6 791.3 451.6 784.8V765C451.6 758.6 456.8 753.3 463.3 753.3H483.1C489.5 753.3 494.8 758.5 494.8 765V784.8C494.8 791.3 489.6 796.5 483.1 796.5ZM463.3 756.4C458.5 756.4 454.7 760.3 454.6 765V784.8C454.6 789.6 458.5 793.5 463.3 793.5H483.1C487.9 793.5 491.8 789.6 491.8 784.8V765C491.8 760.2 487.9 756.3 483.1 756.3L463.3 756.4Z" fill="#1D1D1B"/>
<path d="M261.5 133.1C240.9 113.4 217.6 103.4 192.2 103.4C180.3 103.4 166.1 107.7 148.9 116.5C127.9 127.2 117.7 138.6 117.7 151.3C117.7 158.2 120.3 164.8 125 169.8C129.6 175.2 136.4 178.4 143.5 178.4C146.8 178.4 151.5 177.4 169 165.8C181.2 157.7 188.4 156 192.2 156C203.8 156 214.7 160.7 225.4 170.4C236.3 180.2 241.6 190.3 241.6 201.4C241.6 209.3 234.9 219.3 222.3 230.2L180.9 261.4L180.8 261.5C163.4 275.2 155.3 286.7 155.3 297.7C155.6 312.1 167.2 323.7 181.6 324C188.8 324 195.3 320.6 201 314C207.5 306.5 219.5 296.4 236.6 284C255 270.9 267.4 260.4 274.4 251.9C286.4 237.8 292.8 219.9 292.7 201.5C292.6 175.8 282.1 152.9 261.5 133.1Z" fill="#D9CFFF"/>
<path d="M181.5 325.4C166.3 325 154 312.8 153.7 297.6C153.7 286.1 162 274.3 179.8 260.2L180 260.1L221.4 229C233.7 218.4 240.2 208.8 240.2 201.4C240.2 190.8 235.1 181 224.5 171.5C214.1 162.1 203.6 157.5 192.3 157.5C188.7 157.5 181.8 159.2 169.9 167.1C152 179 147.2 180 143.5 180C135.9 180 128.8 176.7 123.8 170.9C118.9 165.6 116.1 158.6 116.1 151.4C116.1 138.1 126.6 126.2 148.1 115.2C165.6 106.3 180 101.9 192.1 101.9C218 101.9 241.6 112 262.5 132C283.5 152.1 294.1 175.4 294.1 201.3C294.3 220.1 287.6 238.4 275.5 252.7C268.4 261.3 255.9 271.9 237.4 285.1C220.4 297.4 208.5 307.5 202.1 314.9C196.1 321.8 189.1 325.4 181.5 325.4ZM192.1 154.4C204.1 154.4 215.3 159.2 226.3 169.2C237.5 179.3 243 189.8 243 201.3C243 209.7 236.1 220 223.2 231.2L223.1 231.3L181.6 262.6C164.6 276 156.7 287.1 156.7 297.6C157.1 311.2 168 322.1 181.5 322.4C188.2 322.4 194.4 319.2 199.8 312.9C206.4 305.3 218.4 295.1 235.6 282.7C253.9 269.7 266.2 259.3 273.1 250.9C284.8 237.1 291.2 219.5 291.1 201.4C291.1 176.4 280.8 153.8 260.4 134.3C240.1 114.9 217.1 105.1 192.1 105.1C180.4 105.1 166.5 109.3 149.5 118C129 128.4 119.1 139.4 119.1 151.5C119.1 158 121.5 164.3 126 169C130.3 174.1 136.7 177 143.4 177.1C146.3 177.1 150.9 176.1 168.1 164.7C180.6 156.2 188.1 154.4 192.1 154.4Z" fill="#1D1E1B"/>
<path d="M169.2 334.4C162.5 334.4 153 336.8 145.6 347.9C140.9 355 138.4 363.4 138.5 372C138.5 379.4 141.7 385.9 147.7 390.9C153 395.5 159.9 398 166.9 398C173.1 398 181.9 395.7 188.6 384.8C192.4 378.3 194.4 370.8 194.3 363.3C194.3 337.2 176.7 334.4 169.2 334.4Z" fill="#D9CFFF"/>
<path d="M166.9 399.5C159.5 399.5 152.3 396.9 146.7 392.1C140.3 386.8 136.9 379.9 136.9 372C136.8 363.1 139.4 354.4 144.3 347C152.1 335.3 162.1 332.8 169.1 332.8C177.1 332.8 195.7 335.8 195.7 363.2C195.8 371 193.7 378.7 189.8 385.5C182.8 397.1 173.5 399.5 166.9 399.5ZM169.2 335.9C162.9 335.9 153.9 338.1 146.9 348.8C142.3 355.7 139.9 363.8 140 372.1C140 379 143 385.1 148.7 389.9C153.8 394.3 160.3 396.6 167 396.6C172.8 396.6 181.1 394.4 187.4 384.1C191.1 377.8 193 370.7 192.9 363.4C192.8 338.5 176.3 335.9 169.2 335.9Z" fill="#1D1E1B"/>
<path d="M278.5 225.5C278.3 225.5 278.1 225.5 277.9 225.4C276.3 225.1 275.2 223.5 275.5 221.9C280.7 194.4 276.9 171.8 264.3 154.5C244.3 127.2 208.5 122.5 208.1 122.5C206.4 122.3 205.3 120.8 205.5 119.1C205.7 117.4 207.2 116.3 208.9 116.5C210.5 116.7 247.6 121.5 269.2 150.9C282.9 169.6 287 193.9 281.5 223.1C281.2 224.5 279.9 225.5 278.5 225.5Z" fill="white"/>
<path d="M306.2 388.7C302.8 377.6 296.5 369.4 287.5 364.4C283.3 362 277.4 360.8 269.5 360.4C259.9 360 254 362 251.5 366.6C250.1 369 249.7 371.9 250.4 374.6C251 377.4 252.8 379.9 255.3 381.3C256.5 381.9 258.3 382.5 266.9 381.9C272.8 381.4 275.7 382.3 277.1 383C281.2 385.3 284.1 389.1 286 394.7C287.9 400.3 287.8 405 285.6 408.9C284 411.7 279.7 413.9 273 415.3L252.1 418.2H252C243.1 419.6 237.9 422.1 235.8 426C233.1 431.2 234.9 437.6 239.9 440.6C242.5 442 245.5 442.1 248.8 440.9C252.6 439.5 258.9 438.3 267.4 437.3C276.5 436.3 283 435 287.2 433.4C294.2 430.8 300.1 425.7 303.7 419.1C308.8 410.1 309.6 399.8 306.2 388.7Z" fill="#D9CFFF"/>
<path d="M244.4 443.3C242.6 443.3 240.8 442.9 239.2 442C233.4 438.6 231.4 431.3 234.5 425.4C236.9 421.1 242.4 418.4 251.8 416.9H251.9L272.7 414.1C278.8 412.8 282.9 410.8 284.2 408.5C286.2 405 286.3 400.7 284.5 395.5C282.7 390.3 280 386.7 276.2 384.6C275.2 384.1 272.7 383.2 266.9 383.7C257.9 384.4 255.9 383.7 254.5 382.9C251.6 381.3 249.5 378.5 248.9 375.2C248.1 372.1 248.6 368.9 250.1 366.1C252.9 361 259.3 358.8 269.5 359.2C277.6 359.5 283.7 360.9 288.2 363.3C297.6 368.6 304.1 377 307.7 388.5C311.2 400 310.3 410.7 305.1 420.1C301.3 427 295.2 432.3 287.8 435.1C283.5 436.8 276.9 438.1 267.6 439.1C259.2 440.1 253 441.3 249.3 442.6C247.7 442.9 246.1 443.3 244.4 443.3ZM270.1 380.3C273.5 380.3 276.1 380.8 277.8 381.7C282.3 384.2 285.4 388.3 287.4 394.2C289.4 400.1 289.3 405.3 286.9 409.6C285.1 412.9 280.5 415.2 273.3 416.7H273.2L252.3 419.6C243.9 420.9 239 423.2 237.1 426.6C234.8 431.1 236.3 436.6 240.7 439.1C242.8 440.3 245.4 440.4 248.3 439.3C252.2 437.9 258.6 436.7 267.2 435.6C276.2 434.6 282.6 433.4 286.6 431.8C293.3 429.3 298.9 424.5 302.4 418.2C307.3 409.5 308 399.7 304.8 389C301.6 378.3 295.4 370.4 286.8 365.6C282.8 363.4 277.1 362.1 269.5 361.8C260.5 361.4 255.1 363.2 252.9 367.2C251.7 369.3 251.4 371.8 252 374.2C252.5 376.6 254 378.7 256.2 379.9C257.2 380.5 259.2 380.9 266.9 380.3C267.9 380.3 269.1 380.3 270.1 380.3Z" fill="#1D1E1B"/>
<path d="M231.8 447C229.4 445.7 225.6 444.6 220.7 447.1C217.6 448.7 215.1 451.2 213.4 454.3C211.9 456.9 211.8 460.1 212.9 462.8C213.9 465.5 215.8 467.7 218.3 469.1C220.5 470.3 224.1 471.3 228.6 468.7C231.2 467.1 233.4 464.9 234.9 462.2C240.2 453 234.5 448.5 231.8 447Z" fill="#D9CFFF"/>
<path d="M223.1 471.9C221.2 471.9 219.4 471.4 217.7 470.5C214.9 468.9 212.7 466.4 211.6 463.4C210.3 460.2 210.5 456.6 212.2 453.6C214 450.3 216.8 447.6 220.1 445.8C225.5 443 229.9 444.2 232.6 445.7C235 447 242.4 452.2 236.4 463C234.8 465.9 232.4 468.4 229.6 470.1C227.5 471.3 225.3 471.9 223.1 471.9ZM226.6 447.2C224.8 447.2 223.1 447.7 221.5 448.6C218.7 450.1 216.3 452.3 214.8 455.1C213.6 457.3 213.4 460 214.4 462.4C215.3 464.8 217 466.7 219.2 468C221.9 469.5 224.9 469.4 228.1 467.6C230.5 466.2 232.5 464.1 233.8 461.7C238.2 453.9 234 450.1 231.2 448.5C229.7 447.6 228.2 447.2 226.6 447.2Z" fill="#1D1E1B"/>
<path d="M298.5 419.5C296.8 419.5 295.5 418.2 295.5 416.5C295.5 416.1 295.6 415.8 295.7 415.4C300.2 404.1 300.5 394.4 296.7 386.8C291.2 375.9 278.9 372.5 278.8 372.4C277.2 372 276.2 370.3 276.7 368.7C277.1 367.1 278.8 366.1 280.4 366.6C281 366.8 295.4 370.7 302.1 384C306.8 393.3 306.6 404.6 301.4 417.6C300.9 418.8 299.8 419.5 298.5 419.5Z" fill="white"/>
</svg>
