<svg width="1000" height="1000" viewBox="0 0 1000 1000" fill="none" xmlns="http://www.w3.org/2000/svg">
<rect width="1000" height="1000" fill="white"/>
<path d="M894.5 941C893.7 941 893 940.3 893 939.5V359.5C893 358.7 893.7 358 894.5 358C895.3 358 896 358.7 896 359.5V939.5C896 940.3 895.3 941 894.5 941Z" fill="#1D1E1B"/>
<path d="M923.5 405C922.7 405 922 404.3 922 403.5V289.5C922 288.7 922.7 288 923.5 288C924.3 288 925 288.7 925 289.5V403.5C925 404.3 924.3 405 923.5 405Z" fill="#1D1E1B"/>
<path d="M771.9 621C713.1 691.3 647.6 747.2 574 785.8C457.1 847.1 312.6 815.6 231.2 711.7C146.6 604 98.4 474.6 81.5 326.9C235.1 306.2 338.5 293.9 454.5 167.5C493.9 388.3 557.5 632.5 771.9 621Z" fill="#D9CFFF"/>
<path d="M447.2 818.5C362.4 818.5 282.3 779.5 230 712.8C187.9 658.8 154 598.9 129.6 534.9C105.2 471.6 88.6 401.7 80 327.2L79.8 325.7L87.5 324.7C239.1 304.3 339.3 290.8 453.4 166.6L455.4 164.4L455.9 167.4C474.7 272.6 500.5 392.1 548.9 480.8C602.7 579.4 675.6 624.8 771.8 619.7L775.3 619.5L773 622C712.5 694.4 645.7 750 574.6 787.2C535.3 807.8 491.6 818.5 447.2 818.5ZM83.1 328.2C100.5 477.9 150.7 606.7 232.4 710.9C313.6 814.5 457 845.5 573.3 784.6C643.2 748 708.9 693.5 768.6 622.8C718.9 624.8 674.5 612.9 636.6 587.4C602.1 564.2 571.8 528.8 546.3 482.2C498.2 394 472.4 275.6 453.6 170.8C401.2 227.4 347.5 264.5 285.1 287.5C226.3 309.1 162.2 317.7 88 327.7L83.1 328.2Z" fill="#1D1E1B"/>
<path d="M273 754.6C273 754.6 380.5 785.5 434.5 720.5C434.5 720.5 481.5 827.5 557 794C557 794 411.5 868.7 273 754.6Z" fill="#6C32AD"/>
<path d="M444.5 819.5C421.2 819.5 397.9 816.4 375.4 810.3C338.6 800.2 303.8 781.9 272 755.7L266.4 751.1L273.4 753.1C292.2 757.9 311.5 760.3 330.9 760.4H333.5C363.8 760 405.8 752.6 433.3 719.5L434.8 717.6L435.8 719.8C436.1 720.4 461.7 777.9 504.5 794.5C521.4 801 538.8 800.4 556.3 792.6L557.6 795.3C557.2 795.5 520.3 814.2 467 818.5C459.5 819.2 452 819.5 444.5 819.5ZM279.2 757.7C348.6 812.4 419.2 819.5 466.7 815.7C489.5 813.8 512 809.2 533.7 801.9C523.4 802.8 513.1 801.3 503.5 797.5C464.4 782.3 439.4 734.2 434.2 723.4C405.9 755.9 364 763.2 333.6 763.6C315.2 763.6 297 761.6 279.2 757.7Z" fill="#1D1E1B"/>
<path d="M173.6 419L173.4 416C173.8 416 213.1 413.1 262.2 399C307.4 386 370.3 360.7 413.4 313.5L415.6 315.5C372 363.3 308.5 388.9 262.9 401.9C213.6 416.1 174 419 173.6 419Z" fill="#1D1E1B"/>
<path d="M221.4 486C214.1 486.1 206.7 485.7 199.4 485L199.8 482C200.1 482 232.9 486.1 278.7 477.6C339 466.5 394.8 438.3 439.6 396.4L441.7 398.6C396.5 440.9 340 469.4 279.1 480.6C260 484.1 240.7 486 221.4 486Z" fill="#1D1E1B"/>
<path d="M256.6 577.2C250.2 577.2 246.5 576.9 246.3 576.9L246.5 573.9C268.1 574.8 289.6 573.1 310.8 568.9C343.5 562.6 389 547.3 420.2 510.4L422.5 512.3C390.7 549.8 344.5 565.4 311.3 571.8C293.4 575.4 275 577.2 256.6 577.2Z" fill="#1D1E1B"/>
<path d="M216.5 641.5C214.9 641.5 213.3 640.8 212.1 639.6C155.5 580 118.1 391.6 116.6 383.6C116 380.3 118.1 377.2 121.3 376.6C124.6 376 127.7 378.1 128.3 381.3C128.7 383.2 166.6 574.3 220.8 631.3C223.1 633.7 223 637.5 220.6 639.8C219.5 640.9 218 641.5 216.5 641.5Z" fill="white"/>
<path d="M149.5 355C148.9 355 148.3 354.6 148.1 354C134.9 313.8 128.4 271.7 128.9 229.4C129.3 195.9 134.2 162.7 143.4 130.5C159.1 75.5 182.1 42 182.4 41.6C182.9 40.9 183.8 40.8 184.5 41.2C185.2 41.7 185.3 42.6 184.9 43.3C184.7 43.6 161.8 76.8 146.3 131.4C132 181.7 121.2 261 151.1 353C151.3 353.8 150.9 354.6 150.1 354.9C149.8 354.9 149.6 355 149.5 355Z" fill="#1D1E1B"/>
<path d="M199.5 339C199 339 198.6 338.8 198.3 338.4C168 299.7 169.6 250.5 176.3 216C180.8 193.1 188.1 170.9 198.2 149.9C198.6 149.2 199.5 148.9 200.2 149.2C200.9 149.6 201.2 150.5 200.8 151.2C190.9 172 183.6 194 179.2 216.6C172.7 250.5 171.1 298.8 200.7 336.6C201.2 337.3 201.1 338.2 200.4 338.7C200.2 338.9 199.8 339 199.5 339Z" fill="#1D1E1B"/>
<path d="M361.6 851.7C340.8 851.8 320.2 847.7 301 839.7C280 830.9 260.4 817.3 242.7 799.3C212.6 768.7 198.3 735.4 198.1 735.1C197.8 734.3 198.1 733.5 198.9 733.1C199.7 732.8 200.5 733.1 200.9 733.9C201 734.2 215.2 767.1 244.9 797.3C272.3 825.1 318.8 856.3 385.3 847C386.1 846.9 386.9 847.5 387 848.3C387.1 849.1 386.5 849.9 385.7 850C377.7 851.1 369.6 851.7 361.6 851.7Z" fill="#1D1E1B"/>
<path d="M709.9 287.2C687.9 288.9 667.2 287.1 648.2 281C617.9 271.2 599 241.2 603.1 209.6C607.4 176.9 621.5 146.8 644 119C673.5 141.9 693 157.6 734.3 156.2C703 200.2 671.8 252.3 709.9 287.2Z" fill="#D9CFFF"/>
<path d="M694.5 289.3C678.6 289.5 662.8 287.1 647.7 282.4C616.7 272.4 597.4 241.7 601.6 209.4C605.8 177.4 619.7 146.6 642.8 118L643.7 116.9L646 118.7C674.9 141.2 694 156 734.2 154.7L737.2 154.6L735.4 157.1C701.5 204.8 675 253.4 710.8 286.1L713.3 288.4L709.9 288.7C704.8 289.1 699.6 289.3 694.5 289.3ZM644.3 121C622.1 148.8 608.7 178.7 604.6 209.7C600.5 240.5 619 269.9 648.6 279.5C665.9 285.1 685.3 287.2 706.4 285.9C673.2 252.3 698.3 204.6 731.3 157.7C692 158.3 671.9 142.6 644.3 121Z" fill="#1D1E1B"/>
<path d="M602.8 224C602.8 224 615.6 247.7 635.9 246C635.9 246 625.4 272.1 643.9 279.4C643.9 279.5 606.6 267 602.8 224Z" fill="#6C32AD"/>
<path d="M643.5 280.9C643.1 280.8 605.2 267.7 601.4 224.2L600.8 217.1L604.2 223.4C604.3 223.6 616.8 246.2 635.9 244.6L638.3 244.4L637.4 246.7C637.3 246.8 632 260.5 636.1 270.2C637.7 273.9 640.7 276.8 644.5 278.2L643.5 280.9ZM605.2 230.3C609.4 253.4 623.9 266.3 634 272.7C633.7 272.2 633.5 271.7 633.3 271.2C629.6 262.7 632.3 252 633.8 247.5C620.2 247.6 610.2 237.1 605.2 230.3Z" fill="#1D1E1B"/>
<path d="M700.4 175.6C670.9 175.6 644.1 152.2 643 151.1L645 148.8C645.3 149.1 673.3 173.5 702.3 172.5L702.4 175.5C701.7 175.6 701.1 175.6 700.4 175.6Z" fill="#1D1E1B"/>
<path d="M692.4 194.1C655.9 192.5 636 166.8 635.8 166.6L638.2 164.8C638.4 165.1 657.4 189.6 692.5 191.1L692.4 194.1Z" fill="#1D1E1B"/>
<path d="M667 210.1C645.2 210.1 628.7 191 628 190.2L630.3 188.3C630.5 188.5 648 208.6 669.6 207.1L669.8 210.1C668.8 210.1 667.9 210.1 667 210.1Z" fill="#1D1E1B"/>
<path d="M613.8 196.7C612.3 196.7 611.3 195.5 611.3 194.1C612 174 638.3 135.6 639.4 133.9C640.2 132.7 641.7 132.4 642.9 133.2C644.1 134 644.4 135.5 643.6 136.7C643.6 136.7 643.6 136.8 643.5 136.8C643.2 137.2 617 175.7 616.3 194.3C616.2 195.6 615.1 196.7 613.8 196.7Z" fill="white"/>
<path d="M590.5 200C589.7 200 589 199.3 589 198.5C589.5 155.2 605.7 124.6 619.2 106.5C633.8 86.9 648.1 77.6 648.7 77.3C649.4 76.9 650.3 77.1 650.7 77.9C651.1 78.6 650.9 79.4 650.3 79.9C650.1 80 635.8 89.3 621.5 108.5C608.3 126.2 592.5 156.2 592 198.6C592 199.3 591.3 200 590.5 200Z" fill="#1D1E1B"/>
<path d="M699.4 537.7C691.5 517.1 687.4 496.8 687.8 476.8C688.6 445 712 418.3 743.5 413.3C776.1 408.1 809 413.1 842 426.8C828.4 461.6 818.9 484.8 832 524C780.9 506.4 722 491.2 699.4 537.7Z" fill="#D9CFFF"/>
<path d="M699.2 541.4L698 538.2C689.8 516.9 685.9 496.2 686.3 476.7C687.1 444.2 711.1 416.8 743.2 411.8C775.1 406.7 808.5 411.3 842.5 425.3L843.9 425.9L842.8 428.7C829.5 462.8 820.6 485.3 833.3 523.5L834.3 526.4L831.4 525.4C776 506.4 721.9 494.9 700.7 538.4L699.2 541.4ZM768.8 412.7C760.4 412.7 752 413.4 743.7 414.7C713 419.6 690.1 445.7 689.3 476.8C688.9 494.9 692.3 514.2 699.6 534C722.4 492.6 775.2 503.1 829.6 521.5C818 484 827.3 460.2 840 427.5C815.9 417.7 792 412.7 768.8 412.7Z" fill="#1D1E1B"/>
<path d="M729.6 417C729.6 417 710.5 436 717.9 455C717.9 455 689.9 452.4 688.1 472.2C688.1 472.2 689.4 432.9 729.6 417Z" fill="#6C32AD"/>
<path d="M689.6 472.4L686.6 472.2C686.6 471.8 688.4 431.7 729 415.7L735.7 413.1L730.6 418.2C730.4 418.4 712.3 436.8 719.3 454.6L720.2 456.9L717.8 456.7C717.6 456.7 703 455.4 694.9 462.2C691.7 464.6 689.8 468.3 689.6 472.4ZM724.2 421.1C703.3 431.6 695 449.2 691.7 460.8C692.1 460.4 692.5 460 692.9 459.7C700 453.8 711 453.3 715.7 453.4C711.9 440.4 719.1 427.8 724.2 421.1Z" fill="#1D1E1B"/>
<path d="M804.3 498.7C794.7 470 810.2 436.2 810.8 434.8L813.5 436.1C813.3 436.4 797.8 470.2 807.1 497.8L804.3 498.7Z" fill="#1D1E1B"/>
<path d="M783.7 494.4C774.8 458.9 793.8 432.6 794 432.4L796.4 434.2C796.2 434.5 778.1 459.7 786.6 493.7L783.7 494.4Z" fill="#1D1E1B"/>
<path d="M762 477.2C753.8 455.5 768.5 432.5 769.1 431.5L771.6 433.1C771.5 433.3 757.1 455.8 764.8 476.1L762 477.2Z" fill="#1D1E1B"/>
<path d="M825.5 431.3C825.2 431.3 825 431.3 824.7 431.2C824.2 431.1 779.9 416.8 761.8 421.5C760.5 421.8 759.1 421 758.8 419.6C758.5 418.3 759.3 417 760.6 416.6C780.1 411.6 824.4 425.8 826.3 426.4C827.6 426.8 828.3 428.2 827.9 429.5C827.6 430.7 826.6 431.4 825.5 431.3Z" fill="white"/>
<path d="M662.5 443C662.4 443 662.2 443 662.1 442.9C661.3 442.7 660.9 441.8 661.1 441C661.3 440.2 666.9 421.9 685.7 405.9C703 391.2 735 376 789.8 386.9C790.6 387.1 791.1 387.9 790.9 388.7C790.7 389.5 790 389.9 789.2 389.8C746.8 381.3 711.7 387.6 687.7 408C669.6 423.4 664 441.6 663.9 441.8C663.8 442.5 663.2 443 662.5 443Z" fill="#1D1E1B"/>
<path d="M565.2 654.7L529.6 678.2C521.2 683.7 509.9 681.4 504.4 673L408.1 527.1L474 483.6L570.3 629.5C575.9 637.9 573.5 649.1 565.2 654.7Z" fill="#6C32AD"/>
<path d="M519.6 682.6C513 682.6 506.8 679.3 503.1 673.8L406 526.6L474.4 481.4L571.5 628.6C577.5 637.7 575 649.9 566 655.9L530.4 679.4C527.2 681.5 523.4 682.7 519.6 682.6ZM410.2 527.5L505.7 672.2C510.8 679.9 521.1 682 528.8 676.9L564.4 653.4C572.1 648.3 574.2 638 569.1 630.3L473.6 485.6L410.2 527.5Z" fill="#1D1E1B"/>
<path d="M403.1 449.5L474 483.6L408.1 527.1L403.1 449.5Z" fill="white"/>
<path d="M406.8 529.7L401.4 447L477.1 483.3L406.8 529.7ZM404.8 452L409.5 524.4L471 483.8L404.8 452Z" fill="#1D1D1B"/>
<path d="M438.5 466.5L405.6 488.3L403.2 448.8L438.5 466.5Z" fill="#FFAD00"/>
<path d="M403.2 448.8L438.6 466.5L405.6 488.3L403.2 448.8ZM403.2 445.8C402.6 445.8 402 446 401.6 446.3C400.7 446.9 400.2 447.9 400.3 449L402.7 488.5C402.8 489.6 403.4 490.5 404.3 491C404.7 491.2 405.2 491.3 405.6 491.3C406.2 491.3 406.8 491.1 407.3 490.8L440.3 469C441.7 468.1 442.1 466.2 441.1 464.8C440.8 464.4 440.4 464 439.9 463.8L404.5 446.1C404.1 445.9 403.7 445.8 403.2 445.8Z" fill="#1D1E1B"/>
<path d="M560.5 659.2C560 659.2 559.5 658.9 559.2 658.5L455.8 495.5C455.4 494.8 455.6 493.9 456.3 493.4C457 493 457.9 493.2 458.3 493.8L561.7 656.8C562.1 657.5 561.9 658.4 561.2 658.9C561.1 659.1 560.8 659.2 560.5 659.2Z" fill="#1D1E1B"/>
<path d="M534.1 676.6C533.6 676.6 533.1 676.3 532.8 675.9L428.8 513.3C428.4 512.6 428.6 511.7 429.3 511.2C430 510.8 430.9 511 431.4 511.7L535.4 674.3C535.8 675 535.6 675.9 534.9 676.4C534.7 676.6 534.4 676.6 534.1 676.6Z" fill="#1D1E1B"/>
<path d="M895.5 890.5C836.3 909.1 632.3 867.7 607 829.2C581.7 790.7 603.8 766.3 603.8 766.3L579.2 741.5L645.3 639.5L665.1 652.2C665.1 652.2 703.4 624.2 736.3 651.3C769.2 678.4 885.9 674.6 895.3 697.5" fill="#FFAD00"/>
<path d="M853.9 896.6C822.8 896.6 781.8 891.8 738.2 882.8C683.4 871.4 619.8 851.5 605.7 830.1C583.1 795.7 597.8 771.8 601.8 766.5L577.3 741.8L645 637.4L665.3 650.4C671.2 646.5 706.8 624.9 737.5 650.2C753.8 663.6 792.1 669.5 825.9 674.7C861.4 680.1 892 684.9 896.9 697L894.1 698.1C889.8 687.6 858.5 682.8 825.4 677.7C789.5 672.2 752.4 666.5 735.5 652.6C703.9 626.6 666.5 653.3 666.1 653.5L665.3 654.1L645.9 641.6L581.3 741.4L606 766.4L605 767.4C604.1 768.4 584.1 791.5 608.3 828.5C619.5 845.5 670.7 865.7 738.9 879.9C806.7 894 868 897.6 895 889.1L895.9 892C886 895.1 871.5 896.6 853.9 896.6Z" fill="#1D1D1B"/>
<path d="M664.9 655.9C664.9 655.9 690.4 710.2 605.9 767.3L582.3 742.3L645.3 644.5L664.9 655.9Z" fill="#E89D00"/>
<path d="M794.4 723.4C800.254 723.4 805 718.654 805 712.8C805 706.946 800.254 702.2 794.4 702.2C788.546 702.2 783.8 706.946 783.8 712.8C783.8 718.654 788.546 723.4 794.4 723.4Z" fill="#FFC140"/>
<path d="M687.7 734.3C693.554 734.3 698.3 729.554 698.3 723.7C698.3 717.846 693.554 713.1 687.7 713.1C681.846 713.1 677.1 717.846 677.1 723.7C677.1 729.554 681.846 734.3 687.7 734.3Z" fill="#FFC140"/>
<path d="M662.3 846.3C668.154 846.3 672.9 841.554 672.9 835.7C672.9 829.846 668.154 825.1 662.3 825.1C656.446 825.1 651.7 829.846 651.7 835.7C651.7 841.554 656.446 846.3 662.3 846.3Z" fill="#FFC140"/>
<path d="M799.6 836.6C805.454 836.6 810.2 831.854 810.2 826C810.2 820.146 805.454 815.4 799.6 815.4C793.746 815.4 789 820.146 789 826C789 831.854 793.746 836.6 799.6 836.6Z" fill="#FFC140"/>
<path d="M720.1 800.8C725.954 800.8 730.7 796.054 730.7 790.2C730.7 784.346 725.954 779.6 720.1 779.6C714.246 779.6 709.5 784.346 709.5 790.2C709.5 796.054 714.246 800.8 720.1 800.8Z" fill="#FFC140"/>
<path d="M573 561C560.9 550.1 538.3 540.9 527 539.6C522 539.1 517 539.7 512.3 541.6C512.3 541.6 549.4 590.7 549 592L436.8 565.7C436.8 565.7 400.8 597.7 460.2 631.9C460.2 631.9 451.6 662.1 469 685.3C469 685.3 452.4 706.5 494.8 739.7C537.2 772.9 607.2 760.8 607.2 760.8L634.6 650C634.6 650 601 582 573 561Z" fill="#FFCDB2"/>
<path d="M577 764.9C552.7 764.9 518.7 760.7 493.6 741.1C455.5 711.3 463.5 690.5 466.6 685.2C451.8 664.4 456.4 639.2 457.9 632.7C437 620.4 425.6 606.9 424.1 592.6C422.4 575.9 434.9 564.6 435.4 564.1L436.2 563.4L544.8 589C538.6 580.1 521.9 557.6 510.8 542.9L509.2 540.8L511.6 539.8C516.6 537.8 521.9 537.1 527.2 537.7C539.5 539.1 562.2 548.7 574.2 559.5C602.2 580.6 635 646.4 636.3 649.2L636.6 649.9L608.7 762.5L607.4 762.7C597.4 764.2 587.2 765 577 764.9ZM437.4 567.9C434.9 570.5 426.8 579.9 428.1 592.4C429.5 605.6 440.6 618.4 461.2 630.2L462.6 631L462.2 632.5C462.1 632.8 454.1 662 470.7 684.1L471.6 685.3L470.6 686.5C470 687.3 456 706.7 496.1 738.1C534.2 767.9 596 760.4 605.7 759L632.6 650.3C629.1 643.3 597.8 582 571.9 562.6L571.8 562.5C560.5 552.3 538.5 542.9 526.9 541.6C523.1 541.2 519.3 541.5 515.7 542.6C518.8 546.7 525.7 555.9 532.5 565.1C551.6 590.8 551.4 591.3 550.9 592.6L550.3 594.3L437.4 567.9Z" fill="#1D1E1B"/>
<path d="M522.7 656.8C525.7 657 528.6 657 531.6 656.9C532.7 656.6 533.3 655.5 533 654.4C532.8 653.6 532.1 653.1 531.3 653C530.9 653 494.4 655.2 462 629.9C461 629.4 459.8 629.8 459.3 630.8C458.9 631.5 459 632.4 459.6 633C477.8 647 499.7 655.3 522.7 656.8Z" fill="black"/>
<path d="M525.3 707.6C529.5 707.9 532.2 707.8 532.6 707.8C533.7 707.6 534.4 706.5 534.1 705.4C533.9 704.6 533.3 704 532.5 703.9C532.1 703.9 491.5 704.6 469.3 682.3C468.4 681.7 467.1 681.9 466.5 682.9C466.1 683.6 466.1 684.4 466.5 685.1C484.3 702.9 512.1 706.8 525.3 707.6Z" fill="black"/>
<path d="M549.2 752.7C565.9 753.7 576.7 749.2 577.1 749C578.2 748.8 578.9 747.7 578.7 746.6C578.5 745.5 577.4 744.8 576.3 745C576 745.1 575.8 745.2 575.5 745.3C575 745.5 531.5 763.2 484.3 715.7C483.4 715.1 482.1 715.3 481.5 716.2C481 716.9 481 717.8 481.5 718.4C507.2 744.2 531.7 751.1 547.8 752.4L549.2 752.7Z" fill="white"/>
<path d="M528 697.4C529.8 697.5 531 697.6 531.3 697.6C532.4 697.6 533.2 696.8 533.3 695.7C533.3 694.6 532.5 693.7 531.4 693.7C530.9 693.7 478.2 691.9 469.6 669.6C469 668.7 467.8 668.4 466.8 669C466.1 669.4 465.8 670.2 465.9 671C474.2 692.5 515.8 696.6 528 697.4Z" fill="white"/>
<path d="M522.5 644.5C523.6 644.4 524.4 643.4 524.3 642.3C524.2 641.5 523.7 640.9 523 640.6C522.3 640.5 457.6 627.8 441.8 597.8C441.5 596.7 440.4 596.1 439.3 596.5C438.2 596.8 437.6 597.9 438 599C438.1 599.2 438.2 599.5 438.4 599.7C455.1 631.5 519.6 644 522.4 644.6C522.3 644.4 522.4 644.5 522.5 644.5Z" fill="white"/>
<path d="M842.5 885.5H842.2C657.8 873.5 622.7 822.4 621.3 820.2C619.8 817.9 620.5 814.8 622.9 813.3C625.2 811.9 628.2 812.5 629.7 814.7C629.9 815 638.5 827.2 668.7 840.6C696.8 853.2 749.9 869.4 842.9 875.5C845.7 875.6 847.8 877.9 847.7 880.7C847.6 883.4 845.3 885.6 842.5 885.5Z" fill="white"/>
</svg>
