<svg width="1000" height="1000" viewBox="0 0 1000 1000" fill="none" xmlns="http://www.w3.org/2000/svg">
<g clip-path="url(#clip0)">
<rect width="1000" height="1000" fill="white"/>
<path d="M912 938H481.9C480.8 938 479.9 937.1 479.9 936C479.9 934.9 480.8 934 481.9 934H912C913.1 934 914 934.9 914 936C914 937.1 913.1 938 912 938Z" fill="#1D1D1B"/>
<path d="M913 937.1C911.9 937.1 911 936.2 911 935.1V480.9C911 479.8 911.9 478.9 913 478.9C914.1 478.9 915 479.8 915 480.9V935.2C915 936.2 914.1 937.1 913 937.1Z" fill="#1D1D1B"/>
<path d="M537.4 963H449C447.9 963 447 962.1 447 961C447 959.9 447.9 959 449 959H537.4C538.5 959 539.4 959.9 539.4 961C539.4 962.1 538.5 963 537.4 963Z" fill="#1D1D1B"/>
<path d="M870.2 501.2C869.1 501.2 868.2 500.3 868.2 499.2V410.8C868.2 409.7 869.1 408.8 870.2 408.8C871.3 408.8 872.2 409.7 872.2 410.8V499.2C872.2 500.3 871.3 501.2 870.2 501.2Z" fill="#1D1D1B"/>
<path d="M911.9 934.8C922.4 873.7 874.2 720.6 832.7 700.8C791.2 681 769.9 706.1 769.9 706.1L742 685.1L649.8 764.4L665.1 782.3C665.1 782.3 642.6 824.1 673.9 853C705.2 881.9 740.8 928.4 764.7 934.6" fill="#FFAD00"/>
<path d="M764.3 936.1C747.6 931.8 726.2 909.1 703.5 885.2C693.3 874.5 682.8 863.4 672.9 854.2C643.7 827.2 660.3 789 663.4 782.6L647.8 764.3L648.9 763.3L742 683.2L769.8 704.1C774.5 699.5 796.2 681.7 833.3 699.4C852.8 708.7 875.1 747 893.2 801.8C910.4 854 918.3 906.3 913.4 935L910.4 934.5C915.2 906.2 907.4 854.5 890.4 802.7C872.9 749.4 850.5 710.9 832.1 702.1C792.2 683 772 706.1 771.1 707.1L770.2 708.2L769.1 707.4L742.2 687L652 764.6L667 782.2L666.5 783.1C666.3 783.5 644.9 824.2 675 852C685 861.2 695.5 872.4 705.7 883.2C727.1 905.8 749.2 929.2 765.1 933.3L764.3 936.1Z" fill="#1D1D1B"/>
<path d="M668.8 781.5C668.8 781.5 726 799.4 771.2 708L743.2 688L654.8 763.6L668.8 781.5Z" fill="#E89D00"/>
<path d="M742.6 912.7C748.454 912.7 753.2 907.954 753.2 902.1C753.2 896.246 748.454 891.5 742.6 891.5C736.746 891.5 732 896.246 732 902.1C732 907.954 736.746 912.7 742.6 912.7Z" fill="#FFC140"/>
<path d="M739.1 805.5C744.954 805.5 749.7 800.754 749.7 794.9C749.7 789.046 744.954 784.3 739.1 784.3C733.246 784.3 728.5 789.046 728.5 794.9C728.5 800.754 733.246 805.5 739.1 805.5Z" fill="#FFC140"/>
<path d="M846.5 765.2C852.354 765.2 857.1 760.454 857.1 754.6C857.1 748.746 852.354 744 846.5 744C840.646 744 835.9 748.746 835.9 754.6C835.9 760.454 840.646 765.2 846.5 765.2Z" fill="#FFC140"/>
<path d="M855.5 902.6C861.354 902.6 866.1 897.854 866.1 892C866.1 886.146 861.354 881.4 855.5 881.4C849.646 881.4 844.9 886.146 844.9 892C844.9 897.854 849.646 902.6 855.5 902.6Z" fill="#FFC140"/>
<path d="M809.3 828.6C815.154 828.6 819.9 823.854 819.9 818C819.9 812.146 815.154 807.4 809.3 807.4C803.446 807.4 798.7 812.146 798.7 818C798.7 823.854 803.446 828.6 809.3 828.6Z" fill="#FFC140"/>
<path d="M588.5 622C588.5 622 569.2 658.3 601.2 699.6C633.2 740.9 662.4 782.4 662.4 782.4L718.2 724.2L588.5 622Z" fill="#FFCDB2"/>
<path d="M662.3 784.8L661.3 783.3C661 782.9 631.8 741.4 600.2 700.5C568 658.9 587.1 621.7 587.3 621.3L588.1 619.7L720.5 724L662.3 784.8ZM589.1 624.4C585.9 631.9 575.3 663.6 602.4 698.7C630.7 735.2 657.1 772.3 662.6 780.1L716 724.4L589.1 624.4Z" fill="#1D1D1B"/>
<path d="M562 660C537 666 537 690 547 703C557 716 594 737 606 730C618 723 564 660 564 660" fill="#FFCDB2"/>
<path d="M599.8 732.9C583.4 732.9 554.3 715.1 545.8 703.9C539.5 695.7 537.5 684.6 540.7 675.6C542.8 669.6 548.2 661.8 561.6 658.5L562.3 661.4C552.7 663.7 546.2 668.9 543.5 676.6C540.7 684.6 542.5 694.8 548.1 702.1C556.8 713.4 585.3 729.9 599.7 729.9C601.6 730 603.5 729.6 605.2 728.7C605.7 728.4 606.1 727.8 606.1 727.2C607.9 716.5 575.4 675.8 562.8 661L565.1 659C569.9 664.5 611.5 713.6 609.1 727.7C608.9 729.2 608 730.5 606.7 731.3C604.6 732.4 602.2 732.9 599.8 732.9Z" fill="#1D1E1B"/>
<path d="M494.5 539.1C512.5 524.6 538.8 527.5 553.2 545.5L700.7 728.9C715.2 746.9 712.3 773.2 694.3 787.6C676.3 802.1 650 799.2 635.6 781.2L488.1 597.8C473.6 579.9 476.5 553.6 494.5 539.1Z" fill="#6C32AD"/>
<path d="M668.3 798.3C655.2 798.3 642.8 792.4 634.5 782.2L487 598.8C472 580.2 475 552.9 493.6 537.9C512.2 522.9 539.5 525.9 554.5 544.5L702 727.9C717 746.5 714.1 773.7 695.5 788.7C687.7 794.9 678.1 798.3 668.3 798.3ZM520.6 531.4C498.4 531.4 480.3 549.4 480.3 571.7C480.3 580.9 483.4 589.8 489.2 597L636.8 780.4C650.7 797.7 676.1 800.5 693.4 786.5C710.7 772.5 713.5 747.2 699.5 729.9L552 546.4C544.4 536.9 532.8 531.3 520.6 531.4Z" fill="#1D1F1C"/>
<path d="M500.5 590.3L543.9 555.4C557.3 544.6 577 546.7 587.8 560.2L611.3 589.4C622.1 602.8 620 622.5 606.5 633.3L563.1 668.2C549.7 679 530 676.9 519.2 663.4L495.7 634.2C485 620.8 487.1 601.2 500.5 590.3Z" fill="#6C32AD"/>
<path d="M543.7 676.6C533.8 676.6 524.4 672.1 518.2 664.4L494.7 635.1C483.4 621 485.6 600.4 499.7 589.1L543.1 554.2C557.2 542.9 577.8 545.1 589.1 559.2L612.6 588.5C623.9 602.6 621.7 623.2 607.6 634.5L564.3 669.4C558.3 674.1 551.1 676.6 543.7 676.6ZM563.4 550C556.6 550 550.1 552.3 544.8 556.5L501.4 591.4C488.6 601.7 486.6 620.4 496.9 633.2L520.4 662.5C530.7 675.3 549.4 677.3 562.2 667L605.5 632.1C618.3 621.8 620.3 603.1 610 590.3L586.5 561C581 554.1 572.4 550 563.4 550Z" fill="#1D1F1C"/>
<path d="M416.2 629.4C523.454 629.4 610.4 542.454 610.4 435.2C610.4 327.946 523.454 241 416.2 241C308.946 241 222 327.946 222 435.2C222 542.454 308.946 629.4 416.2 629.4Z" fill="#D9CFFF"/>
<path d="M416.2 630.8C308.3 630.8 220.5 543 220.5 435.1C220.5 327.2 308.3 239.4 416.2 239.4C524.1 239.4 611.9 327.2 611.9 435.1C611.9 543 524 630.8 416.2 630.8ZM416.2 242.5C310 242.5 223.5 328.9 223.5 435.2C223.5 541.5 309.9 627.9 416.2 627.9C522.5 627.9 608.9 541.5 608.9 435.2C608.9 328.9 522.4 242.5 416.2 242.5Z" fill="#1D1E1B"/>
<path d="M416.2 560.3C485.291 560.3 541.3 504.291 541.3 435.2C541.3 366.109 485.291 310.1 416.2 310.1C347.109 310.1 291.1 366.109 291.1 435.2C291.1 504.291 347.109 560.3 416.2 560.3Z" fill="white"/>
<path d="M416.2 561.7C346.3 561.7 289.7 505 289.7 435.1C289.7 365.2 346.4 308.6 416.3 308.6C486.2 308.6 542.8 365.3 542.8 435.1C542.6 505 486 561.6 416.2 561.7ZM416.2 311.6C348 311.6 292.7 366.9 292.7 435.2C292.7 503.5 348 558.8 416.2 558.8C484.4 558.8 539.8 503.5 539.8 435.2C539.6 367 484.4 311.7 416.2 311.6Z" fill="#1D1D1B"/>
<path d="M404.989 341.337L391.978 519.355L394.97 519.573L407.981 341.555L404.989 341.337Z" fill="#1D1F1C"/>
<path d="M432.007 414.263L425.015 468.311L427.99 468.696L434.983 414.648L432.007 414.263Z" fill="#1D1F1C"/>
<path d="M592.5 428C589.7 428 587.4 426 587.1 423.2C579.9 369.4 555.4 327.2 514.5 298C483.8 276 454.8 270 454.5 269.9C451.5 269.4 449.5 266.5 450.1 263.5C450.6 260.5 453.5 258.5 456.5 259.1C456.6 259.1 456.6 259.1 456.7 259.1C458 259.4 488 265.6 520.5 288.8C550.6 310.2 588.5 350.6 598 421.8C598.4 424.8 596.3 427.6 593.3 428C593 428 592.7 428 592.5 428Z" fill="white"/>
<path d="M331.5 593C330.7 593 329.8 592.8 329.1 592.4C287.9 572.1 264.8 537.5 252.7 512.1C239.6 484.7 236.2 462.2 236.1 461.3C235.7 458.3 237.9 455.6 240.9 455.2C243.8 454.9 246.5 456.8 247 459.7C247 459.9 250.4 481.7 262.8 507.7C274.2 531.4 295.8 563.7 334 582.6C336.7 583.9 337.8 587.2 336.5 590C335.5 591.8 333.6 593 331.5 593Z" fill="white"/>
<path d="M9.69172e-05 337C-0.699903 337 -1.2999 336.7 -1.5999 336.1C-2.1999 335.2 -1.9999 334 -1.0999 333.3C-0.799903 333.1 33.4001 310.2 96.7001 292.3C155.1 275.8 250.9 260.3 376.3 280C377.4 280.2 378.2 281.2 378 282.3C377.8 283.4 376.8 284.2 375.7 284C251.2 264.4 155.9 279.7 98.0001 296.1C35.2001 313.8 1.5001 336.4 1.1001 336.6C0.800097 336.9 0.400097 337 9.69172e-05 337Z" fill="#1D1D1B"/>
<path d="M141 361C139.9 361 139 360.1 139 359C139 358.4 139.3 357.8 139.8 357.4C155.7 346.5 172.8 337.5 190.7 330.4C218.6 319.3 260.6 308.6 302.5 320.1C303.6 320.4 304.2 321.5 303.9 322.6C303.6 323.7 302.5 324.3 301.4 324C260.6 312.8 219.5 323.3 192.2 334.2C174.6 341.1 157.8 350 142.1 360.7C141.8 360.9 141.4 361 141 361Z" fill="#1D1D1B"/>
<path d="M658 478C657.8 478 657.6 478 657.4 477.9C656.3 477.6 655.8 476.4 656.1 475.4C677.1 408.4 666.3 359.8 653.6 330.9C639.8 299.5 620.9 283.7 620.7 283.6C619.8 282.9 619.7 281.6 620.4 280.8C621.1 279.9 622.4 279.8 623.2 280.5C624 281.2 643 296.9 657.1 329.1C670.1 358.7 681.2 408.4 659.8 476.6C659.6 477.4 658.9 478 658 478Z" fill="#1D1D1B"/>
<path d="M382.8 665.7C323.1 665.7 283 641.6 259.3 620.3C231.2 595 219.7 569 219.2 567.9C218.8 566.9 219.3 565.7 220.4 565.3C221.4 564.9 222.4 565.4 222.9 566.3C223 566.6 234.6 592.8 262.2 617.5C287.6 640.2 332.1 666.2 400 661.1C401.1 661 402.1 661.8 402.1 662.9C402.2 664 401.4 665 400.2 665.1C394.2 665.4 388.4 665.7 382.8 665.7Z" fill="#1D1D1B"/>
<path d="M710.1 731.3C710.1 731.3 750 704.6 730 657.9C710 611.2 677 574.1 637.9 571.2C598.8 568.3 575.7 588.5 568.1 609.3C560.5 630.1 573.4 648.2 601.3 652.5C601.3 652.5 595.3 690.8 644.8 695.4C644.8 695.4 658 755.7 696.9 716.4L710.1 731.3Z" fill="#FFCDB2"/>
<path d="M688.9 595.9C705.5 611.6 719.6 633.4 730 657.9C749.9 704.6 710.1 731.3 710.1 731.3L696.8 716.5C679.6 733.8 667.4 731.8 659.2 724C648.8 714.2 644.7 695.4 644.7 695.4C628.7 693.9 618.5 688.9 612 682.8C598.4 670 601.2 652.5 601.2 652.5C589.7 650.7 580.8 646.6 574.8 641C566.2 632.9 563.5 621.6 568 609.3C575.6 588.5 598.6 568.3 637.8 571.2C656.5 572.6 673.8 581.7 688.9 595.9ZM691.6 593.1C674.9 577.4 656.9 568.7 638.2 567.3C619.5 565.9 602.5 569.6 589.1 578.1C577.8 585.1 569.1 595.6 564.5 608.1C559.6 621.6 562.4 634.7 572.3 644C578.4 649.7 587 653.8 597.3 655.9C597.2 662.3 598.5 675.4 609.6 685.8C617.2 693 628.1 697.5 641.8 699.2C643.4 705.1 648 718.7 656.7 727C664.7 734.5 678 739.5 696.8 722.3L707.3 734.1C707.4 734.2 707.5 734.3 707.5 734.3C708.8 735.6 710.9 735.7 712.4 734.7C719.9 729.2 726.3 722.3 731 714.3C738.3 702.1 744.7 682.2 733.7 656.5C722.6 630.6 708.1 608.7 691.7 593.2L691.6 593.1Z" fill="black"/>
<path d="M601.6 653.5C600.8 653.5 600.1 652.8 600.1 652C600.1 651.8 600.1 651.6 600.2 651.4C618.9 609.9 659.2 610.3 659.6 610.3C660.4 610.3 661.1 611 661.1 611.8C661.1 612.6 660.4 613.3 659.6 613.3H659.5C657.4 613.3 620.4 613.9 603 652.6C602.8 653.2 602.2 653.5 601.6 653.5Z" fill="#1D1D1B"/>
<path d="M645.5 696.9C645.3 696.9 645.1 696.9 645 696.8C644.2 696.5 643.8 695.6 644.1 694.9C644.1 694.9 644.1 694.9 644.1 694.8C652.9 672.5 683.9 656.1 685.2 655.4C685.9 655 686.8 655.3 687.2 656C687.6 656.7 687.3 657.6 686.6 658C686.3 658.2 655.3 674.6 646.9 695.9C646.7 696.5 646.2 696.9 645.5 696.9Z" fill="#1D1D1B"/>
<path d="M574.6 621.5C572.9 621.5 571.6 620.2 571.6 618.5C571.6 618.1 571.7 617.6 571.9 617.2C580.5 598.5 592.9 586.2 608.6 580.4C633.7 571.3 658.1 582.5 659.1 583C660.6 583.8 661.1 585.6 660.4 587.1C659.7 588.5 658 589.1 656.6 588.5C656.2 588.3 633.3 577.8 610.6 586.1C596.5 591.3 585.3 602.6 577.4 619.7C576.8 620.9 575.7 621.5 574.6 621.5Z" fill="white"/>
</g>
<defs>
<clipPath id="clip0">
<rect width="1000" height="1000" fill="white"/>
</clipPath>
</defs>
</svg>
