<svg width="1000" height="1000" viewBox="0 0 1000 1000" fill="none" xmlns="http://www.w3.org/2000/svg">
<rect width="1000" height="1000" fill="white"/>
<path d="M905 861.9L156.3 857.6C154.9 857.6 153.7 856.4 153.7 855C153.7 853.6 154.9 852.4 156.3 852.4L905 856.7C906.4 856.7 907.6 857.9 907.6 859.3C907.6 860.7 906.4 861.9 905 861.9Z" fill="black"/>
<path d="M159.6 892.1H52.0001C50.9001 892.1 50.1001 891.2 50.1001 890.2C50.1001 889.2 51.0001 888.3 52.0001 888.3H159.6C160.7 888.3 161.5 889.2 161.5 890.2C161.5 891.2 160.7 892.1 159.6 892.1Z" fill="black"/>
<path d="M956.6 907.1H849C847.9 907.1 847.1 906.2 847.1 905.2C847.1 904.2 848 903.3 849 903.3H956.6C957.7 903.3 958.5 904.2 958.5 905.2C958.5 906.2 957.7 907.1 956.6 907.1Z" fill="black"/>
<path d="M477.3 634.5C477.3 634.5 464.9 657.3 450.4 644.9C435.9 632.5 405.1 605.5 384.2 626C363.3 646.5 363.7 652.6 345.1 643.8C326.5 635 267.9 678.8 311.2 717C382.2 779.6 512.2 677.5 512.2 677.5L503.1 657.8L477.3 634.5Z" fill="#6C32AD"/>
<path d="M368.5 738.8C345.4 738.8 325.8 731.9 310.2 718.1C292.6 702.6 289.3 683.3 301.1 665.4C312.1 648.7 334.6 637.1 345.7 642.4C359.8 649.2 361.6 647.3 373.3 634.9C376.1 632 379.2 628.7 383.1 624.9C404.7 603.7 435.8 630.4 450.8 643.3L451.4 643.8C454.6 646.5 457.9 647.6 461.2 647C469.6 645.4 475.9 634 476 633.8L476.9 632.1L504.4 656.9L514.1 677.9L513.2 678.6C512.9 678.9 480.1 704.5 439 722C414.8 732.3 392.5 738 372.7 738.6C371.2 738.8 369.8 738.8 368.5 738.8ZM339.3 644.1C329.1 644.1 312.8 653 303.6 667C297.2 676.7 289.7 696 312.1 715.8C348.2 747.6 400.2 735.3 437.6 719.3C474.5 703.5 504.6 681.2 510.3 677L501.8 658.7L477.6 636.8C475.4 640.3 469.5 648.4 461.7 649.8C457.4 650.6 453.3 649.3 449.4 646L448.8 645.5C434.5 633.2 404.8 607.7 385.2 627C381.3 630.8 378.2 634.1 375.5 636.9C363.7 649.4 360.5 652.7 344.4 645C342.8 644.4 341.1 644.1 339.3 644.1Z" fill="black"/>
<path d="M360.3 856.2C360.3 856.2 339.7 663.4 532.1 670.1C786.6 679 702.5 856.2 702.5 856.2H360.3Z" fill="#FFAD00"/>
<path d="M703.7 858.2H358.5L358.3 856.4C357 839.6 357.6 822.7 360.1 806C363.9 779.8 374 742.5 400.9 713.7C430.9 681.5 475 666.2 532.2 668.2C619.5 671.2 676.9 694.3 702.7 736.8C719.8 764.8 719.3 796.1 715.9 817.4C713.8 831.1 709.9 844.5 704.3 857.2L703.7 858.2ZM362.1 854.2H701.1C704.9 845.3 728.4 786.7 699.2 738.7C674.1 697.5 617.8 675 532 672.1C476.1 670.1 433 685 403.8 716.3C357.8 765.7 361.2 841.6 362.1 854.2Z" fill="#1D1D1B"/>
<path d="M651.5 694.9C651.5 694.9 732.4 725.7 745.3 806.7C764.3 926.3 658.7 919.2 633.4 895.7C608.1 872.2 560 833.6 555.8 808.4C551.6 783.2 568.2 775.6 568.2 775.6L561.2 757.5L617.7 720.3L625 731.2C625 731.2 650.8 725.5 661.5 746.7C672.2 767.9 684 795.8 691.3 807.7" fill="#FFAD00"/>
<path d="M678.5 911.1C659 911.1 640.9 904.8 632.3 896.8C628.1 892.9 623.2 888.5 618 883.9C591.2 859.9 557.8 830.1 554.2 808.6C550.5 786.7 562.3 777.4 566.3 774.9L559.8 758C559.5 757.3 559.8 756.6 560.4 756.2L616.9 719C617.6 718.5 618.5 718.7 619 719.4L625.7 729.5C630.7 728.7 653 726.5 662.8 746C667.2 754.7 671.8 764.5 676.2 774C682.4 787.4 688.3 800 692.5 807C692.9 807.7 692.6 808.6 691.9 809C691.2 809.4 690.4 809.2 689.9 808.5C685.6 801.4 679.7 788.7 673.4 775.3C669 765.9 664.5 756.1 660.1 747.4C650.1 727.5 625.5 732.6 625.3 732.7C624.7 732.8 624.1 732.6 623.7 732.1L617.3 722.4L563.1 758.1L569.6 775.1C569.9 775.8 569.5 776.7 568.8 777C568.2 777.3 553.2 784.4 557.2 808.1C560.7 828.6 595 859.3 620 881.7C625.2 886.3 630.1 890.7 634.3 894.6C647.5 906.9 684.7 915.1 712.8 900.1C732 889.9 752.9 865.4 743.7 807C737.2 765.7 712.3 737.8 692.6 721.8C671.2 704.3 651.1 696.5 650.9 696.5C650.1 696.2 649.8 695.3 650.1 694.5C650.4 693.8 651.2 693.4 652 693.7C652.2 693.8 672.7 701.7 694.5 719.5C714.6 735.9 740 764.4 746.7 806.7C756.2 866.8 734.3 892.2 714.3 902.9C703.1 908.6 690.5 911.1 678.5 911.1Z" fill="#1D1D1B"/>
<path d="M569.9 776.1C569.9 776.1 612.7 771.2 624.2 732.3L617.4 721.3L563.2 757.8L569.9 776.1Z" fill="#E89D00"/>
<path d="M447.2 683.4C447.2 683.4 361.1 721.9 353.4 801.6C341.7 922.1 444.6 919.2 470 895.7C495.4 872.2 543.3 833.6 547.6 808.4C551.9 783.2 535.2 775.6 535.2 775.6L542.2 757.5L485.6 720.3L478.3 731.2C478.3 731.2 452.5 725.5 441.8 746.7C431.1 767.9 419.3 795.8 412 807.7" fill="#FFAD00"/>
<path d="M428.7 910C416.3 910.1 404.1 907.4 392.9 902C378.5 894.9 367.6 883.6 360.5 868.4C352.2 850.7 349.3 828.2 351.9 801.4C355.9 759.8 381.5 729.5 402.2 711.4C415.6 699.7 430.5 689.7 446.6 681.9C447.3 681.5 448.2 681.8 448.6 682.5C449 683.2 448.7 684.1 448 684.5C447.9 684.5 447.9 684.6 447.8 684.6C432 692.3 417.3 702.1 404.1 713.6C383.8 731.3 358.8 760.9 354.9 801.5C348.9 863.2 373 888.6 394.2 899.1C423.4 913.6 456.9 905.5 468.9 894.3C473.1 890.4 478 886 483.2 881.4C508.3 859 542.6 828.4 546.1 807.8C550.1 784 534.7 776.7 534.5 776.7C533.8 776.4 533.4 775.5 533.7 774.8L540.2 757.8L486 722.4L479.6 732C479.3 732.5 478.6 732.8 478 732.6C477 732.4 453.2 727.4 443.2 747.3C438.8 756 434.3 765.7 429.9 775.2C423.6 788.7 417.7 801.4 413.4 808.4C413 809.1 412.1 809.4 411.4 809C410.7 808.6 410.4 807.7 410.8 807C410.8 807 410.8 806.9 410.9 806.9C415.1 800 421 787.4 427.3 774C431.7 764.5 436.3 754.7 440.7 746C450.6 726.5 472.8 728.7 477.8 729.5L484.5 719.4C485 718.7 485.9 718.5 486.6 719L543.1 756.2C543.7 756.6 543.9 757.3 543.7 758L537.2 774.9C541.2 777.4 553 786.6 549.3 808.6C545.7 830.1 512.3 859.9 485.5 883.9C480.3 888.5 475.5 892.9 471.2 896.8C462.3 904.8 446.2 910 428.7 910Z" fill="#1D1D1B"/>
<path d="M533.4 776.1C533.4 776.1 490.6 771.2 479.1 732.3L486 721.3L540.2 757.8L533.4 776.1Z" fill="#E89D00"/>
<path d="M505.8 547.5C504.9 547.5 504.1 546.9 503.9 546C497.2 519.8 523.2 507.6 523.5 507.5C524.5 507 525.7 507.5 526.2 508.5C526.7 509.5 526.2 510.7 525.2 511.1C524.2 511.5 502 522 507.8 544.9C508.1 546 507.4 547.1 506.4 547.3C506.2 547.4 506 547.5 505.8 547.5Z" fill="#1D1D1B"/>
<path d="M553.2 595.9C575.071 595.9 592.8 578.17 592.8 556.3C592.8 534.429 575.071 516.7 553.2 516.7C531.33 516.7 513.6 534.429 513.6 556.3C513.6 578.17 531.33 595.9 553.2 595.9Z" fill="#6C32AD"/>
<path d="M553.2 597.4H552.6C529.9 597.2 511.7 578.7 511.8 556.1C512 533.4 530.5 515.2 553.2 515.3H553.8C576.5 515.5 594.7 534 594.6 556.7C594.4 579.3 575.9 597.6 553.2 597.4ZM553.2 518.3C532.2 518.1 515 535.1 514.9 556.1C514.7 577.1 531.7 594.3 552.7 594.4H553.3C574.1 594.3 591 577.7 591.3 556.9C591.6 535.9 574.8 518.6 553.8 518.3H553.2Z" fill="#1D1E1B"/>
<path d="M592.5 573.1C576.7 544.1 532.1 549.6 520.7 562.1C492.4 593.2 465.1 577.9 459.7 611.6C457 628.5 471.9 635.2 464.7 666.1C460.9 682.1 487.7 706.9 512.2 707.3C536.7 707.7 620.1 709.8 627.1 691.9C634.1 674 661.6 644.3 639.6 609.8C617.4 574.9 599.4 585.7 592.5 573.1Z" fill="#6C32AD"/>
<path d="M536.5 709C529.5 709 522.5 708.9 515.6 708.8L512.3 708.7C495.1 708.4 478.4 696.9 470.1 686.2C464.4 678.9 462.1 671.6 463.5 665.7C467.7 647.8 464.4 638.4 461.4 630C459.3 624.2 457.4 618.6 458.5 611.3C461.6 591.8 471.9 587.9 485 583C495.5 579.1 507.5 574.6 519.8 561C526.9 553.3 544.1 548.9 559.8 550.8C575.4 552.7 587.5 560.3 594 572.2C596.3 576.5 600.1 577.7 605.4 579.5C614.5 582.5 627 586.7 641.1 608.8C658.9 636.8 645.1 661.5 635.1 679.6C632.7 683.7 630.6 687.9 628.7 692.2C623.1 706.2 579.8 709 536.5 709ZM552.1 553.5C538.6 553.5 526.6 558 521.9 563.2C509 577.3 496.2 582.1 485.9 586C473.3 590.7 464.1 594.2 461.3 611.9C460.3 618.4 462 623.4 464 629.1C467.1 637.9 470.6 647.8 466.2 666.5C465 671.5 467.2 677.9 472.3 684.5C480.2 694.6 496 705.6 512.2 705.8L515.5 705.9C541.2 706.3 619.3 707.6 625.6 691.4C627.5 686.9 629.7 682.6 632.2 678.4C641.9 661 655.2 637.1 638.3 610.7C624.8 589.5 612.9 585.5 604.2 582.7C598.7 580.9 594 579.3 591.1 574C585.1 563 573.8 555.9 559.2 554.1C556.9 553.6 554.5 553.5 552.1 553.5Z" fill="#1D1E1B"/>
<path d="M566.4 638.9C546.2 642 519.8 631.8 514.7 638.6C509.6 645.4 512.7 655.2 523.3 658.2C533.9 661.2 544.7 661.5 566.8 660.9C588.9 660.3 610.5 658.3 608.6 646.4C606.7 634.5 596.1 634.3 566.4 638.9Z" fill="#FFB49F"/>
<path d="M555.5 580.6C547.2 611.8 515.5 625.7 498.2 627C494.3 636.5 496 649.4 495.9 660.6C495.3 701.8 517.3 731.9 556.9 729.8C595.6 727.7 616.2 705.9 616.4 660.5C616.4 649.8 617 639.2 613.7 629.9C580.9 629.4 555.5 580.6 555.5 580.6Z" fill="#FFCDB2"/>
<path d="M553.1 731.5C537.6 731.5 524.2 726.4 514.2 716.7C501.1 704.1 494.1 684.2 494.4 660.6C494.4 657.8 494.4 654.9 494.3 652C494.1 643.1 493.8 633.8 496.9 626.4L497.3 625.6L498.2 625.5C516.8 624.1 546.5 609.1 554.2 580.2L555.2 576.5L557 579.9C557.3 580.4 582.4 627.9 613.9 628.5H614.9L615.2 629.5C618.2 637.9 618.1 647.5 618 656.8C618 658.1 618 659.3 618 660.6C617.9 683.3 612.6 700.8 602.3 712.5C592.2 724 577 730.3 557 731.4C555.7 731.5 554.4 731.5 553.1 731.5ZM499.3 628.5C496.8 635.2 497.1 643.7 497.3 652C497.4 654.9 497.5 657.9 497.4 660.7C497.1 683.5 503.8 702.6 516.2 714.6C526.5 724.5 540.5 729.3 556.8 728.4C595.6 726.3 614.6 704.1 614.8 660.6C614.8 659.3 614.8 658 614.8 656.8C614.9 647.7 615 639.2 612.5 631.5C584.3 630.1 562.1 595.3 555.8 584.5C546.3 613.5 516.9 626.7 499.3 628.5Z" fill="#1D1D1B"/>
<path d="M562.3 641.3C538.2 645.3 506.6 633.3 500.7 641.6C494.8 649.9 498.4 661.5 511.2 664.9C524 668.3 536.8 668.5 563.1 667.7C589.4 666.9 615.1 664 612.8 649.9C610.5 635.8 597.6 635.4 562.3 641.3Z" fill="#FFB49F"/>
<path d="M554.6 677.9C553.8 677.9 553.1 677.2 553.1 676.4L553.6 644C553.6 643.2 554.3 642.5 555.1 642.5C555.9 642.5 556.6 643.2 556.6 644L556.1 676.4C556.1 677.2 555.5 677.9 554.6 677.9Z" fill="black"/>
<path d="M526.1 545.4C525.8 545.4 525.4 545.3 525.1 545.2C523.9 544.6 523.3 543.1 523.9 541.9C524.2 541.2 532.5 523.9 554.9 522.8C556.3 522.7 557.5 523.8 557.5 525.2C557.5 526.6 556.5 527.8 555.1 527.8C535.8 528.8 528.7 543.4 528.4 544.1C528 544.9 527.1 545.5 526.1 545.4Z" fill="white"/>
<path d="M549.5 695.4C548.1 695.4 546.7 695.2 545.4 694.9C537.3 692.7 532.8 684.6 532.6 684.2C532.2 683.5 532.4 682.6 533.1 682.1C533.8 681.7 534.7 681.9 535.2 682.6V682.7C535.3 682.8 539.3 690 546.2 691.9C549.9 692.9 553.7 692.2 557.7 689.8C558.4 689.4 559.3 689.6 559.8 690.3C560.3 691 560 691.9 559.3 692.4C556.3 694.3 553 695.3 549.5 695.4Z" fill="black"/>
<path d="M541.6 651.2C541.2 651.2 540.9 651.1 540.6 650.8C526.3 638 510.4 649.3 510.2 649.4C509.5 649.8 508.6 649.6 508.1 648.9C507.7 648.3 507.8 647.4 508.4 647C508.6 646.9 526.4 634.2 542.5 648.6C543.1 649.1 543.2 650.1 542.6 650.7C542.4 651 542 651.2 541.6 651.2Z" fill="black"/>
<path d="M566.2 649.7C565.4 649.7 564.7 649 564.7 648.2C564.7 647.7 565 647.2 565.5 646.9C566.4 646.4 588 634.3 603.9 645.4C604.6 645.8 604.8 646.8 604.4 647.5C604 648.2 603 648.4 602.3 648C602.2 648 602.2 647.9 602.1 647.9C587.7 637.8 567.1 649.4 566.9 649.5C566.7 649.6 566.4 649.7 566.2 649.7Z" fill="black"/>
<path d="M512.4 619C512 619 511.7 618.9 511.4 618.7C510.8 618.2 510.7 617.2 511.2 616.6C511.8 615.9 525.1 600.4 540.8 605.3C541.6 605.5 542.1 606.3 541.8 607.1C541.5 607.9 540.8 608.4 540 608.1H539.9C526.1 603.8 513.6 618.3 513.5 618.5C513.3 618.8 512.9 619 512.4 619Z" fill="black"/>
<path d="M592.2 617.5C591.9 617.5 591.5 617.4 591.3 617.2C578.5 607.2 567 614.2 566.9 614.2C566.2 614.7 565.3 614.5 564.8 613.8C564.3 613.1 564.5 612.2 565.2 611.7L565.3 611.6C565.4 611.5 578.6 603.5 593.1 614.8C593.8 615.3 593.9 616.3 593.4 616.9C593.1 617.2 592.7 617.5 592.2 617.5Z" fill="black"/>
<path d="M549.8 742.7C549.8 742.7 538.3 761.8 516.1 753.5C493.9 745.2 476.1 730.7 473.9 712.5C471.7 694.3 480.6 683.2 490.1 679.3C499.6 675.4 508.3 680.9 510.9 693.8C510.9 693.8 528.5 690.2 531.7 713.1C531.7 713.1 560 717.9 542.6 736.8L549.8 742.7Z" fill="#FFCDB2"/>
<path d="M496 678C503 678 508.8 683.6 510.9 693.8C511.8 693.6 512.6 693.6 513.5 693.6C518.5 693.6 529.3 695.7 531.8 713.1C531.8 713.1 560.1 717.9 542.7 736.8L549.9 742.6C549.9 742.6 542.1 755.5 527 755.5C523.3 755.5 519.6 754.8 516.2 753.4C494.1 745.1 476.2 730.6 474 712.4C471.8 694.2 480.7 683.1 490.2 679.2C492 678.4 494 678 496 678ZM496 675C493.6 675 491.2 675.5 488.9 676.5C479 680.6 468.4 692.6 470.9 712.9C472 722.3 476.9 731 485.5 738.9C493 745.9 503.3 751.9 515.1 756.3C518.9 757.8 522.9 758.5 527 758.6C543.6 758.6 552.1 744.8 552.4 744.3L553.7 742.1L551.7 740.4L546.9 736.5C550.9 731.3 552.2 726.5 550.7 722.1C548.2 714.8 538.8 711.7 534.4 710.6C531 692.6 518.8 690.6 513.5 690.6H513.2C510.5 680.9 504 675 496 675Z" fill="#1D1D1B"/>
<path d="M493.5 724.6C492.7 724.6 492.1 724 492 723.2C491.9 709.6 499.7 697.1 512 691.2C512.7 690.8 513.6 691.1 514 691.9C514.4 692.7 514.1 693.5 513.3 693.9C493.9 703.7 495 722.8 495 723C495.1 723.8 494.4 724.5 493.6 724.6H493.5Z" fill="#1D1D1B"/>
<path d="M512.8 735.6C512.6 735.6 512.4 735.5 512.2 735.5C511.5 735.2 511.1 734.3 511.5 733.5C511.8 732.8 520 715.5 532 710.2C532.7 709.8 533.6 710.2 534 710.9C534.4 711.6 534 712.5 533.3 712.9C533.3 712.9 533.3 712.9 533.2 712.9C522.2 717.8 514.3 734.6 514.2 734.8C513.9 735.3 513.3 735.6 512.8 735.6Z" fill="#1D1D1B"/>
<path d="M532.2 749.7C531.4 749.7 530.7 749 530.7 748.2C530.7 747.5 531.1 746.9 531.8 746.8C538.5 744.8 543.2 735.3 543.3 735.2C543.7 734.5 544.6 734.1 545.3 734.5C546 734.8 546.4 735.7 546 736.5C545.8 737 540.7 747.4 532.7 749.7C532.4 749.7 532.3 749.7 532.2 749.7Z" fill="#1D1D1B"/>
<path d="M481.1 722.9C480.5 722.9 480 722.6 479.8 722.1C479.5 721.6 473.8 710.5 477.5 698.6C479.8 691.2 485.3 685.1 493.8 680.7C494.5 680.3 495.4 680.6 495.8 681.3C496.2 682 495.9 682.9 495.2 683.3C487.4 687.3 482.4 692.8 480.3 699.4C476.9 710.1 482.3 720.5 482.4 720.6C482.8 721.3 482.5 722.2 481.8 722.6C481.6 722.8 481.4 722.9 481.1 722.9Z" fill="white"/>
<path d="M553.2 742.7C553.2 742.7 564.8 761.8 586.9 753.5C609 745.2 626.9 730.7 629.1 712.5C631.3 694.3 622.4 683.2 612.9 679.3C603.4 675.4 594.7 680.9 592.1 693.8C592.1 693.8 574.5 690.2 571.2 713.1C571.2 713.1 542.9 717.9 560.3 736.8L553.2 742.7Z" fill="#FFCDB2"/>
<path d="M607 678C609 678 611 678.4 612.9 679.3C622.4 683.3 631.3 694.4 629.1 712.5C626.9 730.6 609 745.2 586.9 753.5C583.5 754.8 579.8 755.5 576.1 755.6C561 755.6 553.2 742.7 553.2 742.7L560.4 736.9C543 718 571.3 713.2 571.3 713.2C573.8 695.8 584.5 693.7 589.6 693.7C590.5 693.7 591.3 693.8 592.2 693.9C594.1 683.7 600 678 607 678ZM607 675C599 675 592.5 680.9 589.8 690.6H589.5C584.2 690.6 572 692.6 568.6 710.6C564.2 711.7 554.8 714.8 552.3 722.1C550.8 726.5 552.1 731.3 556.1 736.5L551.3 740.4L549.3 742.1L550.6 744.3C550.9 744.9 559.5 758.6 576 758.6C580.1 758.6 584.1 757.8 587.9 756.3C599.7 751.9 609.9 745.9 617.5 738.9C626 731 631 722.3 632.1 712.9C634.5 692.6 623.9 680.6 614 676.5C611.8 675.6 609.4 675 607 675Z" fill="#1D1D1B"/>
<path d="M609.5 724.6C608.6 724.5 607.9 723.8 608 723C608 722.2 609 703.7 589.6 693.8C588.9 693.4 588.6 692.5 588.9 691.8C589.3 691.1 590.2 690.8 590.9 691.1C603.2 697 611 709.5 610.9 723.1C610.9 724 610.3 724.6 609.5 724.6Z" fill="#1D1D1B"/>
<path d="M590.2 735.6C589.6 735.6 589.1 735.3 588.8 734.7C588.7 734.5 580.8 717.7 569.8 712.8C569 712.5 568.7 711.6 569 710.8C569.3 710 570.2 709.7 571 710C583 715.4 591.1 732.6 591.5 733.3C591.9 734 591.5 734.9 590.8 735.3C590.6 735.6 590.4 735.6 590.2 735.6Z" fill="#1D1D1B"/>
<path d="M570.8 749.7C570.7 749.7 570.5 749.7 570.4 749.6C562.4 747.3 557.3 736.8 557.1 736.4C556.8 735.6 557.2 734.8 557.9 734.5C558.6 734.2 559.4 734.5 559.8 735.2C559.8 735.3 564.5 744.9 571.3 746.8C572.1 747 572.6 747.9 572.3 748.7C572.1 749.3 571.5 749.7 570.8 749.7Z" fill="#1D1D1B"/>
<path d="M621.9 722.9C621.7 722.9 621.4 722.8 621.2 722.7C620.5 722.3 620.2 721.4 620.6 720.7C620.6 720.6 626 710.2 622.7 699.5C620.6 692.9 615.6 687.5 607.8 683.4C607.1 683 606.8 682.1 607.3 681.3C607.7 680.6 608.5 680.4 609.2 680.7C617.7 685.1 623.2 691.1 625.5 698.6C629.2 710.5 623.5 721.6 623.2 722.1C622.9 722.6 622.4 722.9 621.9 722.9Z" fill="white"/>
<path d="M447.1 707.1C450.248 707.1 452.8 704.548 452.8 701.4C452.8 698.252 450.248 695.7 447.1 695.7C443.952 695.7 441.4 698.252 441.4 701.4C441.4 704.548 443.952 707.1 447.1 707.1Z" fill="#FFC140"/>
<path d="M395.7 763.7C398.848 763.7 401.4 761.148 401.4 758C401.4 754.852 398.848 752.3 395.7 752.3C392.552 752.3 390 754.852 390 758C390 761.148 392.552 763.7 395.7 763.7Z" fill="#FFC140"/>
<path d="M412.4 858.7C415.548 858.7 418.1 856.148 418.1 853C418.1 849.852 415.548 847.3 412.4 847.3C409.252 847.3 406.7 849.852 406.7 853C406.7 856.148 409.252 858.7 412.4 858.7Z" fill="#FFC140"/>
<path d="M471.5 869C474.648 869 477.2 866.448 477.2 863.3C477.2 860.152 474.648 857.6 471.5 857.6C468.352 857.6 465.8 860.152 465.8 863.3C465.8 866.448 468.352 869 471.5 869Z" fill="#FFC140"/>
<path d="M461.2 788.1C464.348 788.1 466.9 785.548 466.9 782.4C466.9 779.252 464.348 776.7 461.2 776.7C458.052 776.7 455.5 779.252 455.5 782.4C455.5 785.548 458.052 788.1 461.2 788.1Z" fill="#FFC140"/>
<path d="M583.3 820.2C586.448 820.2 589 817.648 589 814.5C589 811.352 586.448 808.8 583.3 808.8C580.152 808.8 577.6 811.352 577.6 814.5C577.6 817.648 580.152 820.2 583.3 820.2Z" fill="#FFC140"/>
<path d="M646.2 813.8C649.348 813.8 651.9 811.248 651.9 808.1C651.9 804.952 649.348 802.4 646.2 802.4C643.052 802.4 640.5 804.952 640.5 808.1C640.5 811.248 643.052 813.8 646.2 813.8Z" fill="#FFC140"/>
<path d="M696.3 876.7C699.448 876.7 702 874.148 702 871C702 867.852 699.448 865.3 696.3 865.3C693.152 865.3 690.6 867.852 690.6 871C690.6 874.148 693.152 876.7 696.3 876.7Z" fill="#FFC140"/>
<path d="M695 771.4C698.148 771.4 700.7 768.848 700.7 765.7C700.7 762.552 698.148 760 695 760C691.852 760 689.3 762.552 689.3 765.7C689.3 768.848 691.852 771.4 695 771.4Z" fill="#FFC140"/>
<path d="M408.7 896.5C408.4 896.5 408.1 896.4 407.8 896.3C380.6 886 364.8 864.1 362.2 833C361.1 818.3 362.5 803.4 366.5 789.2C366.9 787.9 368.4 787.2 369.7 787.6C371 788 371.7 789.4 371.3 790.6C367.6 804.3 366.2 818.5 367.2 832.7C369.7 862.1 384 881.9 409.6 891.6C410.9 892.1 411.5 893.5 411 894.8C410.6 895.9 409.7 896.5 408.7 896.5Z" fill="white"/>
<path d="M683 902.3C681.6 902.4 680.4 901.4 680.3 900C680.2 898.6 681.2 897.4 682.6 897.3C701.2 893.9 714.8 885.5 723.1 872.3C739.5 846.1 729.6 809.5 729.5 809.2C729.2 807.9 730 806.5 731.4 806.2C732.7 805.9 734 806.6 734.4 807.9C734.8 809.5 745 847 727.5 875C718.5 889.4 703.7 898.6 683.7 902.2C683.3 902.3 683.2 902.3 683 902.3Z" fill="white"/>
<path d="M244 857.6C243.9 857 228.7 799.1 223 720C219.6 673.5 220.2 628.9 224.6 587.4C230.1 535.5 241.7 488.3 259 447.1C275.5 407.7 309 377 358.5 355.7C402.8 336.6 457.8 326.3 517.8 325.9H521.5C589.7 325.9 658.3 338.7 715.1 361.9C778 387.6 821.1 423.8 839.7 466.3C856.2 504 867 547.9 871.9 597C875.8 636.2 875.9 678.8 872.2 723.5C865.9 799.6 850.7 856.3 850.5 856.9L847.6 856.1C847.8 855.5 863 799 869.2 723.2C874.9 653.3 874 552.2 837 467.6C818.7 425.8 776.2 390.2 714 364.8C656.5 341.3 586.8 328.5 517.8 329C458.2 329.4 403.5 339.6 359.7 358.5C310.9 379.5 278 409.7 261.7 448.3C222.7 540.9 220.7 647 226 719.8C231.7 798.7 246.8 856.3 247 856.9L244 857.6Z" fill="black"/>
<path d="M837 361.8C822.8 329.7 684.8 307.3 517.3 310.9C387.4 313.7 276 331.4 226.4 354.4C222.4 353.9 218.4 353.7 214.4 353.8C168.8 354.8 132.5 390.7 133.5 434.1C134.5 477.5 172.2 511.8 217.8 510.8C250.2 510.1 277.9 491.8 290.8 465.7C304.9 491.2 333.3 508.3 365.7 507.6C401.6 506.8 431.6 484.4 442.4 453.8C454.5 483.9 485.4 505 521.3 504.2C554.3 503.5 582.4 484.4 595.1 457.6C606.2 489.4 638.1 512.1 675.3 511.2C708.3 510.5 736.4 491.4 749.1 464.6C760.2 496.4 792.1 519 829.3 518.2C874.9 517.2 911.1 481.3 910.2 437.9C909.3 398.3 877.5 366.1 837 361.8Z" fill="#FFAD00"/>
<path d="M827.3 519.8C809.9 519.9 792.9 514.7 778.5 504.9C765.2 495.9 754.9 483.2 748.8 468.4C734.9 494.8 706.4 512.1 675.3 512.8C657.3 513.3 639.5 508.1 624.6 497.9C611.3 488.9 601 476.2 595 461.4C581.1 487.8 552.6 505.1 521.5 505.8C487.4 506.6 456.1 487.4 442.6 457.9C430.3 488 400 508.4 365.8 509.2C334.7 509.9 306.2 494.5 290.9 468.9C276.7 495.1 249 511.7 217.8 512.4H216C170.5 512.4 133 477.7 132.1 434.2C131.2 390.1 168.1 353.4 214.5 352.4C218.4 352.3 222.3 352.5 226.2 352.9C277.6 329.2 391.7 312.1 517.2 309.4C684.2 305.8 821.4 327.7 838 360.4C879.2 365.2 910.8 398.4 911.7 438C912.1 459.5 903.7 480.1 888.3 495.1C872.6 510.6 851.5 519.4 829.4 519.8H827.3ZM749.3 460.7L750.5 464.2C761.7 496.5 793.4 517.6 829.2 516.8C850.5 516.5 870.9 508 886.1 493C901.1 478.1 909.1 458.6 908.6 438.1C907.8 399.7 876.9 367.6 836.8 363.3L835.9 363.2L835.6 362.4C821.6 330.8 681.8 308.9 517.3 312.4C391.9 315.1 278 332.1 227.1 355.8L226.7 356H226.3C222.4 355.6 218.5 355.4 214.5 355.5C169.8 356.5 134.1 391.8 135.1 434.2C136 476 172.1 509.4 216 509.4H217.9C248.9 508.7 276.4 491.8 289.6 465.1L290.9 462.5L292.3 465C306.7 491 334.9 506.8 365.8 506.1C400 505.4 430.3 484.2 441.1 453.3L442.4 449.5L443.9 453.2C456 483.5 487.2 503.4 521.4 502.7C552.7 502 581.1 484.1 593.8 456.9L595.4 453.6L596.6 457.1C607.8 489.4 639.5 510.5 675.3 509.7C706.5 509 735 491.1 747.7 463.9L749.3 460.7Z" fill="#1D1D1B"/>
<path d="M240.4 216.1C240.4 216.1 569.9 182.1 817.9 216.1V270.4L892.6 389.3C892.6 389.3 520.6 316.3 145.2 389.3L246.3 271.3L240.4 216.1Z" fill="#FFAD00"/>
<path d="M141.3 391.6L244.7 270.8L238.7 214.7L240.2 214.6C241 214.5 323.9 206 436 201.8C539.5 197.9 689.8 197 818 214.6L819.3 214.8V270L895.7 391.5L892.3 390.8C891.4 390.6 797.8 372.4 659.5 363.4C532 355.1 339.2 353.1 145.5 390.8L141.3 391.6ZM505.9 355.4C556.5 355.4 608 357.1 659.8 360.5C783.5 368.6 871.5 384 889.5 387.3L816.4 270.9V217.4C688.7 200 539.2 201 436.2 204.8C332.4 208.7 253.7 216.2 242 217.4L247.9 271.7L247.5 272.2L149.2 387C233.7 370.8 324.9 360.7 420.3 357C448.5 355.9 477 355.4 505.9 355.4Z" fill="#1D1D1B"/>
<path d="M326.6 258.4L290 367.9C344.9 362.1 398.6 358.9 450 357.6L443.3 249.1L440.8 203.2C397.4 204.8 358.4 207 326.6 209.1V258.4Z" fill="#D9CFFF"/>
<path d="M287.9 369.6L325.2 258.1V207.7L326.6 207.6C364.6 205 403 203 440.8 201.7L442.3 201.6L444.8 249L451.6 359H450C395.4 360.4 341.6 363.8 290.2 369.3L287.9 369.6ZM328.1 210.5V258.6L328 258.8L292.1 366.1C342.4 360.8 395 357.5 448.3 356.1L441.7 249.2L439.3 204.7C402.5 206.1 365.1 208 328.1 210.5Z" fill="#1D1E1B"/>
<path d="M743 258.4L743.1 208C700.9 204.5 657.6 202.5 614.9 201.6L608.8 359.2C670.4 361.9 725 366.7 769.5 371.7L743 258.4Z" fill="#D9CFFF"/>
<path d="M771.5 373.4L769.4 373.2C716.6 367.3 662.6 363.1 608.8 360.7L607.3 360.6L613.5 200H615C660.5 200.9 703.7 203.1 743.3 206.4L744.7 206.5L744.6 258.1L771.5 373.4ZM610.5 357.7C663.2 360.1 716 364.2 767.7 369.9L741.6 258.5V258.3L741.7 209.3C703 206.1 660.9 204 616.5 203.1L610.5 357.7Z" fill="#1D1E1B"/>
<path d="M245.8 271.9L245.2 269C245.9 268.9 320 255.3 427.1 248.6C526 242.4 674.1 240.9 818.1 269L817.5 271.9C673.8 243.9 526 245.4 427.2 251.5C320.4 258.3 246.5 271.8 245.8 271.9Z" fill="#1D1D1B"/>
<path d="M115.5 476.6C115 476.6 114.5 476.3 114.2 475.9C94.6002 444.7 98.0002 417.6 104.3 400.5C108.4 389.3 114.7 379.1 122.9 370.4C123.5 369.8 124.4 369.8 125 370.4C125.6 371 125.6 371.9 125 372.5C125 372.5 125 372.5 124.9 372.6C117 381 110.9 390.9 107 401.7C98.2002 425.7 101.5 450.2 116.7 474.4C117.1 475.1 116.9 476 116.2 476.5C116.1 476.6 115.8 476.6 115.5 476.6Z" fill="#1D1D1B"/>
<path d="M930.3 492.2C930 492.2 929.8 492.1 929.6 492C928.9 491.6 928.6 490.7 929 490C951.5 449.6 946.8 415.1 938.9 393.3C930.3 369.6 916.2 355.3 916.1 355.2C915.5 354.6 915.5 353.7 916.1 353.1C916.7 352.5 917.6 352.5 918.2 353.1C918.8 353.7 932.9 367.9 941.7 392.2C949.9 414.6 954.7 450 931.7 491.5C931.4 491.9 930.9 492.2 930.3 492.2Z" fill="#1D1D1B"/>
<path d="M210.9 500.9C210.6 500.9 210.3 500.9 210.1 500.8C181 490.5 161.9 475.5 153.1 456.2C147 443 146.2 427.9 150.8 414.1C151.3 412.8 152.8 412.3 154.1 412.8C155.3 413.3 155.9 414.7 155.5 415.9C151.5 428.5 152.2 442.2 157.7 454.2C165.9 472.2 184.1 486.3 211.8 496.1C213.1 496.6 213.8 498 213.3 499.3C212.9 500.3 211.9 500.9 210.9 500.9Z" fill="white"/>
<path d="M661.8 500.9C661.6 500.9 661.4 500.9 661.2 500.8C629.1 492.6 613.5 473.2 606.1 458.4C601.2 448.9 598.4 438.5 597.6 427.8C597.6 426.4 598.7 425.3 600 425.3H600.1C601.5 425.3 602.6 426.4 602.6 427.7C603.3 437.7 606.1 447.4 610.6 456.4C620.7 476.5 638.1 489.8 662.4 496C663.7 496.3 664.5 497.7 664.2 499C663.8 500.1 662.8 500.9 661.8 500.9Z" fill="white"/>
<path d="M747.8 350.6C746.7 350.6 745.6 349.8 745.4 348.7L727.4 275.5C727.1 274.2 727.9 272.8 729.2 272.5C730.5 272.2 731.9 273 732.2 274.3L750.2 347.5C750.5 348.8 749.7 350.2 748.4 350.5C748.2 350.5 748 350.6 747.8 350.6Z" fill="white"/>
<path d="M433.1 330C431.7 330 430.6 328.9 430.6 327.5V274.9C430.6 273.5 431.7 272.4 433.1 272.4C434.5 272.4 435.6 273.5 435.6 274.9V327.6C435.6 328.9 434.5 330 433.1 330Z" fill="white"/>
<path d="M273.5 822C272.8 822 272.3 821.6 272.1 820.9C252.9 756.1 250.7 687.6 252.2 641.5C253.8 591.6 260 556.5 260.1 556.2C260.2 555.4 261 554.8 261.9 555C262.7 555.1 263.3 555.9 263.1 556.8C262.8 558.2 238.6 696.9 275.1 820.1C275.3 820.9 274.9 821.7 274.1 822C273.9 822 273.7 822 273.5 822Z" fill="#1D1D1B"/>
<path d="M831.5 821C831.4 821 831.3 821 831.1 821C830.3 820.8 829.8 820 830 819.2C847.5 749.2 846.6 683.7 842.7 641.2C838.5 595.1 830.1 565.3 830 565C829.8 564.2 830.3 563.4 831.1 563.2C831.8 563 832.6 563.5 832.8 564.2C832.9 564.5 841.4 594.6 845.6 641C849.5 683.8 850.4 749.5 832.8 820C832.8 820.6 832.2 821 831.5 821Z" fill="#1D1D1B"/>
<path d="M656.3 201.8C656.3 160.2 701.2 126.6 756.5 126.6C811.8 126.6 856.7 160.3 856.7 201.8C856.7 243.3 811.8 277 756.5 277C749.7 277 743 276.5 736.3 275.5L713.6 297.5L708.3 267.7C677.3 255 656.3 230.2 656.3 201.8Z" fill="#6C32AD"/>
<path d="M712.6 300.6L706.9 268.8C674.7 255.2 654.8 229.6 654.8 201.8C654.8 159.5 700.4 125.1 756.5 125.1C812.6 125.1 858.2 159.5 858.2 201.8C858.2 244.1 812.6 278.5 756.5 278.5C749.9 278.5 743.3 278 736.8 277.1L712.6 300.6ZM756.5 128.1C702.1 128.1 657.8 161.2 657.8 201.8C657.8 228.6 677.3 253.3 708.8 266.3L709.6 266.6L714.6 294.4L735.8 273.8L736.5 273.9C743.1 274.9 749.8 275.4 756.5 275.4C810.9 275.4 855.2 242.3 855.2 201.7C855.2 161.1 810.9 128.1 756.5 128.1Z" fill="#1D1E1B"/>
<path d="M688.1 237.6C685.9 235.4 684 233.1 682.3 230.5C680.6 228 679.1 225.4 677.8 222.6L677.3 221.5L677.001 221C677.101 221.3 677.001 221 677.001 220.9C676.701 220.2 676.4 219.4 676.1 218.7C675.6 217.3 675.101 215.8 674.701 214.3C674.301 212.8 674.001 211.3 673.701 209.9C673.601 209.6 673.601 209.3 673.501 208.9C673.401 208.5 673.401 208.5 673.401 208.3C673.401 208.3 673.301 207.6 673.401 208C673.301 207.2 673.201 206.5 673.201 205.7C672.901 202.7 673 199.7 673.3 196.7C673.3 196.4 673.401 196 673.401 195.7C673.401 195.6 673.401 195.4 673.401 195.2C673.301 195.6 673.401 195 673.401 195C673.501 194.3 673.6 193.5 673.8 192.8C674.1 191.4 674.4 190 674.8 188.7C675.2 187.4 675.6 186 676.1 184.6C676.2 184.2 676.401 183.9 676.501 183.5L676.701 183.1C676.701 183 676.901 182.6 676.701 183C677.001 182.3 677.3 181.6 677.6 180.9C678.9 178.3 680.301 175.7 682.001 173.3C683.801 170.6 685.901 168.1 688.201 165.9C689.401 164.7 690.601 163.5 691.901 162.4C693.301 161.2 694.3 160.5 695.8 159.4C696.7 158.8 697.101 157.6 696.501 156.7C695.901 155.7 694.7 155.4 693.8 156C683.5 163.3 675.7 173.6 671.6 185.6C667.7 197.5 668.3 210.5 673.1 222.1C675.9 228.9 680.101 235.2 685.201 240.4C686.001 241.2 687.201 241.2 688.001 240.4C688.901 239.6 688.9 238.4 688.1 237.6Z" fill="white"/>
<path d="M686.7 242C685.9 242 685.1 241.7 684.5 241.1C679.2 235.7 675.1 229.4 672.2 222.4C667.2 210.6 666.7 197.4 670.7 185.2C674.9 173 682.8 162.5 693.3 155.1C693.9 154.7 694.6 154.5 695.4 154.7C696.3 154.9 697 155.4 697.5 156.1C698.3 157.5 697.9 159.3 696.5 160.2C695 161.3 694.1 162 692.7 163.2C691.3 164.4 690.2 165.4 689.1 166.6C686.9 168.8 684.9 171.3 683.1 173.9C681.5 176.3 680 178.8 678.8 181.3C678.5 181.9 678.2 182.6 677.9 183.2C677.9 183.2 677.9 183.2 677.9 183.3L677.7 183.9C677.6 184.2 677.4 184.6 677.3 184.9C676.8 186.2 676.4 187.5 676 188.9C675.6 190.3 675.3 191.6 675 193C674.9 193.7 674.7 194.4 674.6 195.2V195.3V195.4V195.8C674.6 196.1 674.5 196.5 674.5 196.8C674.2 199.7 674.2 202.7 674.4 205.6C674.5 206.3 674.5 207 674.6 207.7C674.6 207.8 674.6 207.9 674.6 208.1L674.7 208.6C674.7 208.9 674.8 209.2 674.9 209.6C675.2 211.1 675.5 212.5 675.9 214C676.3 215.5 676.7 216.9 677.2 218.3C677.5 219 677.8 219.8 678.1 220.5L678.4 221.1C678.6 221.5 678.7 221.8 678.9 222.2C680.2 224.9 681.6 227.5 683.3 230C685 232.5 686.9 234.8 689 236.9C690.1 238.1 690.1 239.9 689 241.1C688.3 241.7 687.6 242 686.7 242ZM694.7 156.7C694.6 156.7 694.5 156.7 694.4 156.8C684.2 163.9 676.6 174.1 672.6 185.9C668.8 197.6 669.3 210.3 674.1 221.7C676.9 228.4 680.9 234.5 686 239.7C686.2 239.9 686.5 240 686.7 240C686.9 240 687.2 239.9 687.3 239.7C687.7 239.3 687.7 238.7 687.3 238.3C685.1 236.1 683.1 233.7 681.3 231.1C679.6 228.6 678 225.9 676.7 223.1C676.6 222.9 676.5 222.7 676.4 222.4L676 221.4V221.3C675.7 220.5 675.4 219.8 675.1 219C674.6 217.5 674.1 216.1 673.7 214.6C673.3 213.1 673 211.6 672.7 210.1C672.6 209.8 672.6 209.4 672.5 209.1L672.4 208.2C672.3 207.4 672.2 206.7 672.1 205.9C671.8 202.9 671.9 199.8 672.2 196.7C672.2 196.3 672.3 196 672.3 195.7L672.4 195.3V195C672.5 194.2 672.6 193.5 672.8 192.7C673.1 191.3 673.4 189.9 673.8 188.5C674.2 187.1 674.6 185.7 675.2 184.4L675.6 183.3L675.8 182.7C676.1 182 676.4 181.3 676.8 180.6C678.1 177.9 679.6 175.3 681.3 172.9C683.2 170.2 685.3 167.7 687.6 165.3C688.8 164.1 690.1 162.9 691.4 161.8C692.7 160.7 693.8 159.8 695.3 158.7C695.7 158.4 696.1 157.8 695.8 157.3C695.6 157 695.3 156.8 695 156.8L694.7 156.7Z" fill="white"/>
<path d="M790.3 159.1C789.5 159.1 788.8 158.5 788.8 157.6C788.8 156.7 789.4 156.1 790.3 156.1C832.1 153.3 865.9 130.1 886.8 111.1C900.4 98.9 912.5 85.1 922.8 70C923.2 69.3 924.2 69.1 924.9 69.5C925.6 69.9 925.8 70.9 925.4 71.6C914.9 86.9 902.7 100.9 888.9 113.3C867.6 132.6 833.1 156.3 790.5 159.1H790.3Z" fill="black"/>
<path d="M840.4 191.9C837.9 191.9 835.4 191.8 832.8 191.5C832 191.4 831.4 190.7 831.4 189.9C831.5 189.1 832.2 188.5 833 188.5C880.7 193.1 905.7 150.9 906 150.5C906.4 149.8 907.3 149.4 908 149.8C908.7 150.2 909 151.1 908.7 151.8C908.7 151.9 908.6 151.9 908.6 152C908.5 152.4 885.2 191.9 840.4 191.9Z" fill="black"/>
</svg>
