<svg width="1000" height="1000" viewBox="0 0 1000 1000" fill="none" xmlns="http://www.w3.org/2000/svg">
<rect width="1000" height="1000" fill="white"/>
<path d="M921 901.1L126 897.4C124.9 897.4 124 896.5 124 895.4C124 894.3 124.9 893.4 126 893.4L921 897.1C922.1 897.1 923 898 923 899.1C923 900.2 922.1 901.1 921 901.1Z" fill="black"/>
<path d="M146.1 917.9H29C28.2 917.9 27.5 917.2 27.5 916.4C27.5 915.6 28.2 914.9 29 914.9H146.1C146.9 914.9 147.6 915.6 147.6 916.4C147.6 917.2 147 917.9 146.1 917.9Z" fill="black"/>
<path d="M979.2 927.9H862C861.2 927.9 860.5 927.2 860.5 926.4C860.5 925.6 861.2 924.9 862 924.9H979.2C980 924.9 980.7 925.6 980.7 926.4C980.7 927.2 980 927.9 979.2 927.9Z" fill="black"/>
<path d="M346.4 326.8C346.4 326.8 340.5 373.4 307.9 361.8C275.3 350.2 223.2 335.4 201.3 383.6C179.4 431.8 169.1 465.9 132 463C94.9 460.1 43 570 140.9 606.1C301.3 665.4 433.2 376.5 433.2 376.5L405.1 349.3L346.4 326.8Z" fill="#6C32AD"/>
<path d="M346.4 326.8L405.1 349.2L433.2 376.4C433.2 376.4 324.8 614.1 184.8 614.1C169.8 614.1 154.9 611.4 140.9 606.1C44.3 570.5 93.6 463 130.6 463C131.1 463 131.6 463 132 463.1C133.5 463.2 134.9 463.3 136.3 463.3C170 463.3 180.4 430 201.4 383.7C213 358.2 233.1 350.4 254.2 350.4C273 350.4 292.6 356.5 307.9 362C311 363.2 314.4 363.8 317.7 363.8C341.7 363.7 346.4 326.8 346.4 326.8ZM346.4 323.8C344.9 323.8 343.6 324.9 343.4 326.4C343.3 326.9 338.7 360.7 317.7 360.7C314.7 360.7 311.7 360.1 308.9 359C292.5 353.2 273.1 347.3 254.2 347.3C227.9 347.3 209.2 359.1 198.6 382.4C196.2 387.7 193.9 392.8 191.7 397.8C175.1 435.4 164.1 460.3 136.2 460.3C134.9 460.3 133.6 460.2 132.2 460.1C131.6 460.1 131.1 460 130.5 460C120.7 460 110.3 466.3 101.1 477.8C91.8 489.7 85.5 503.8 82.9 518.7C79.6 536.9 82.1 554.4 90.1 569.2C99.6 586.9 116.3 600.3 139.8 609C154.2 614.4 169.4 617.2 184.8 617.2C217.4 617.2 250.9 604.5 284.4 579.5C311 559.6 337.8 531.9 363.8 497.2C408.1 438.2 435.6 378.4 435.8 377.8C436.3 376.6 436.1 375.3 435.2 374.4L407.1 347.2C406.8 346.9 406.5 346.7 406.1 346.6L347.5 324C347.1 323.9 346.8 323.8 346.4 323.8Z" fill="black"/>
<path d="M405.1 349.2L346.4 326.8C346.4 326.8 343.5 349.8 330.4 359.4L348 383C348 383 306.6 400.9 299.9 431.1C293.5 460 187.9 463.3 141.5 606.3C220.6 635.1 292.7 579.4 345.4 515.7C372.4 455 403.6 384.9 415 358.9L405.1 349.2Z" fill="#59298F"/>
<path d="M390.7 411.2C444.4 396.3 739.7 475.3 761 505C782.3 534.8 654.2 891.8 619.9 891.8C580.8 891.8 300.1 891.8 242 893.1C191 894.2 153.7 755.6 170.4 723.4C187.1 691.2 311.3 431 352.7 426C394.1 421 390.7 411.2 390.7 411.2Z" fill="#FFAD00"/>
<path d="M241.4 894.5C226.5 894.5 211.6 883.1 198.2 861.6C172.4 820.1 156.9 746 169.1 722.6C171.1 718.7 174.7 711.6 179.6 701.7C237.9 584.6 319.2 428.5 352.5 424.5C379.2 421.3 386.6 416.1 388.6 413.4C389.4 412.3 389.3 411.6 389.3 411.6C389.1 411.2 389.1 410.8 389.3 410.5C389.5 410.1 389.9 409.9 390.3 409.8C419.5 401.7 515.3 421 588.4 440C666.6 460.3 750.7 488 762.2 504.2C780 529 702.4 755.4 654.8 848C639.1 878.5 627.7 893.3 619.9 893.3C544.9 893.3 295.9 893.4 242 894.6L241.4 894.5ZM392.2 412.3C392.1 413.2 391.8 414 391.3 414.7C388.8 418.7 380 424.2 352.9 427.5C342.6 428.7 319.4 449.3 267.7 540.1C233.7 599.8 200.3 667 182.3 703.1C177.4 713 173.8 720.1 171.8 724C161 744.8 173.4 815.8 200.8 860C209.8 874.4 224 891.5 241.4 891.5H242C296 890.3 544.9 890.2 620 890.2C623.7 890.2 632.7 884.5 652.3 846.5C676 800.4 706.8 722.5 730.8 648C755.8 570.2 767 515.7 759.9 505.7C750.4 492.4 679.6 466.5 587.8 442.7C515.8 424.2 422.1 405.2 392.2 412.3Z" fill="black"/>
<path d="M733.4 524.4C733.4 524.4 382.3 517.7 371.1 528.9C366 534 365.5 648.5 361 729.1C355.6 826.9 278.2 892.4 278.2 892.4H419.1L733.4 524.4Z" fill="#E89D00"/>
<path d="M422.4 417.1C490.2 383.5 676.7 411.8 765.4 487.1C854.1 562.4 801.2 622.4 780 617.9" fill="#FFAD00"/>
<path d="M782.3 619.6C781.4 619.6 780.5 619.5 779.7 619.3C778.9 619.1 778.4 618.3 778.5 617.5C778.7 616.7 779.5 616.2 780.3 616.3C787.9 617.9 800.6 610.2 808.1 595C812.6 585.7 816.7 570.4 810.4 549.9C804 529.3 788.6 508.4 764.5 488C723.9 453.6 658.8 426.1 585.9 412.6C518.1 400 455.7 402.2 423.2 418.3C422.5 418.7 421.6 418.4 421.2 417.6C420.8 416.9 421.1 416 421.9 415.6C455 399.2 518.1 396.9 586.5 409.6C660 423.2 725.6 451 766.5 485.7C791 506.5 806.8 527.8 813.3 549C819.9 570.4 815.6 586.5 810.8 596.3C803.3 611.6 791.1 619.6 782.3 619.6Z" fill="black"/>
<path d="M502 463.2C506.363 463.2 509.9 459.663 509.9 455.3C509.9 450.937 506.363 447.4 502 447.4C497.637 447.4 494.1 450.937 494.1 455.3C494.1 459.663 497.637 463.2 502 463.2Z" fill="#FFC140"/>
<path d="M583.9 438.1C588.263 438.1 591.8 434.563 591.8 430.2C591.8 425.837 588.263 422.3 583.9 422.3C579.537 422.3 576 425.837 576 430.2C576 434.563 579.537 438.1 583.9 438.1Z" fill="#FFC140"/>
<path d="M653.8 474.7C658.163 474.7 661.7 471.163 661.7 466.8C661.7 462.437 658.163 458.9 653.8 458.9C649.437 458.9 645.9 462.437 645.9 466.8C645.9 471.163 649.437 474.7 653.8 474.7Z" fill="#FFC140"/>
<path d="M557.2 507.3C561.563 507.3 565.1 503.763 565.1 499.4C565.1 495.037 561.563 491.5 557.2 491.5C552.837 491.5 549.3 495.037 549.3 499.4C549.3 503.763 552.837 507.3 557.2 507.3Z" fill="#FFC140"/>
<path d="M725.9 508.2C730.263 508.2 733.8 504.663 733.8 500.3C733.8 495.937 730.263 492.4 725.9 492.4C721.537 492.4 718 495.937 718 500.3C718 504.663 721.537 508.2 725.9 508.2Z" fill="#FFC140"/>
<path d="M662.1 532.8C666.463 532.8 670 529.263 670 524.9C670 520.537 666.463 517 662.1 517C657.737 517 654.2 520.537 654.2 524.9C654.2 529.263 657.737 532.8 662.1 532.8Z" fill="#FFC140"/>
<path d="M754.2 428.2C753.9 428.2 753.5 428.1 753.3 427.9C753.1 427.7 732.6 411.3 701.7 396.7C673.2 383.3 629.7 368.7 584.5 375.6C583.7 375.7 582.9 375.2 582.8 374.3C582.7 373.5 583.2 372.7 584.1 372.6C630.1 365.6 674.2 380.4 703.1 394C734.4 408.7 755.1 425.3 755.3 425.5C755.9 426 756 427 755.5 427.6C755.2 428 754.7 428.2 754.2 428.2Z" fill="black"/>
<path d="M63.2 561.3C62.6 561.3 62 560.9 61.8 560.4C46.9 524.4 45.9 494.9 58.6 472.6C76.1 442.1 114 436.5 114.4 436.4C115.2 436.3 116 436.9 116.1 437.7C116.2 438.5 115.6 439.3 114.8 439.4C114.4 439.5 77.9 444.9 61.2 474.1C48.9 495.5 50.1 524.1 64.5 559.2C64.8 560 64.5 560.8 63.7 561.2C63.6 561.3 63.4 561.3 63.2 561.3Z" fill="black"/>
<path d="M104.3 855.3C103.8 855.3 103.3 855 103 854.6C76.1 813.7 80.3 769.2 88.6 739.1C94 719.3 102.3 700.4 113.1 683C113.6 682.3 114.5 682.2 115.2 682.7C115.8 683.2 116 684 115.6 684.7C104.9 701.9 96.8 720.5 91.5 740C83.4 769.5 79.3 813.1 105.6 853C106 853.7 105.9 854.6 105.2 855.1C104.8 855.2 104.6 855.3 104.3 855.3Z" fill="black"/>
<path d="M810 561.5C811.3 526.5 808.1 500 788.8 499.7C757.9 499.2 763.6 563.2 719.2 583.4C693.8 595 673.5 630.2 682.8 657.3C692.1 684.4 808.5 603.4 810 561.5Z" fill="#FFCDB2"/>
<path d="M692.3 664.2C685.3 664.2 682.5 660.8 681.4 657.7C671.6 629 693.4 593.4 718.6 581.9C741 571.7 750.3 550.2 758.5 531.2C766.2 513.4 772.8 498.1 788.5 498.1H788.9C793.7 498.1 798.4 500 801.7 503.6C809.7 512 812.7 529.9 811.5 561.5C810.7 584.3 779.3 613 765.8 624.2C740.4 645.5 712.4 661.4 696.3 663.8C695 664.1 693.6 664.2 692.3 664.2ZM788.5 501.2C774.8 501.2 768.8 515 761.3 532.5C752.9 552 743.4 574 719.9 584.7C695.8 595.7 674.9 629.5 684.3 656.8C685.6 660.5 689.5 661.9 695.9 660.9C711.6 658.6 738.9 642.9 763.9 622C791.3 599.1 807.9 576.5 808.5 561.5C809.3 540.8 808.9 515.7 799.5 505.8C796.7 502.8 792.9 501.2 788.8 501.3L788.5 501.2Z" fill="black"/>
<path d="M827.4 539H391.8V892.3H827.4V539Z" fill="#6C32AD"/>
<path d="M827.4 539V892.3H391.8V539H827.4ZM827.4 536H391.8C390.1 536 388.8 537.3 388.8 539V892.3C388.8 894 390.1 895.3 391.8 895.3H827.4C829.1 895.3 830.4 894 830.4 892.3V539C830.4 537.3 829 536 827.4 536Z" fill="black"/>
<path d="M800.9 570.7H419.6V854.1H800.9V570.7Z" fill="#D9CFFF"/>
<path d="M800.9 570.7V854.1H419.6V570.7H800.9ZM800.9 567.7H419.6C417.9 567.7 416.6 569 416.6 570.7V854.1C416.6 855.8 417.9 857.1 419.6 857.1H800.9C802.6 857.1 803.9 855.8 803.9 854.1V570.7C803.9 569 802.5 567.7 800.9 567.7Z" fill="black"/>
<path d="M828.9 892.3H404.9C383.2 892.3 365.6 874.7 365.6 853H868.2C868.2 874.7 850.6 892.3 828.9 892.3Z" fill="#59298F"/>
<path d="M868.2 853C868.2 874.7 850.6 892.3 828.9 892.3H404.9C383.2 892.3 365.6 874.7 365.6 853H868.2ZM871.2 850H362.5V853C362.5 876.4 381.4 895.3 404.8 895.3H828.9C852.3 895.3 871.2 876.3 871.2 853V850Z" fill="black"/>
<path d="M669.3 658.1H730.7C745.4 658.1 757.3 670 757.3 684.7V738.3C757.3 753 745.4 764.9 730.7 764.9H669.3C654.6 764.9 642.7 753 642.7 738.3V684.7C642.7 670 654.6 658.1 669.3 658.1Z" fill="#6C32AD"/>
<path d="M730.7 658.1C745.4 658.1 757.3 670 757.3 684.7V738.3C757.3 753 745.4 764.9 730.7 764.9H669.3C654.6 764.9 642.7 753 642.7 738.3V684.7C642.7 670 654.6 658.1 669.3 658.1H730.7ZM730.7 655.1H669.3C653 655.1 639.8 668.3 639.7 684.7V738.3C639.7 754.6 652.9 767.8 669.3 767.9H730.7C747 767.9 760.2 754.7 760.3 738.3V684.7C760.2 668.3 747 655.1 730.7 655.1Z" fill="black"/>
<path d="M603.3 665.2H457.9C457.1 665.2 456.4 664.5 456.4 663.7C456.4 662.9 457.1 662.2 457.9 662.2H603.3C604.1 662.2 604.8 662.9 604.8 663.7C604.8 664.5 604.1 665.2 603.3 665.2Z" fill="black"/>
<path d="M599.9 704.4L457.9 701C457.1 701 456.4 700.3 456.4 699.5C456.4 698.7 457.1 698 457.9 698L599.9 701.3C600.7 701.3 601.4 702 601.4 702.8C601.4 703.6 600.7 704.3 599.9 704.4Z" fill="black"/>
<path d="M603.3 749.1H509.4C508.6 749.1 507.9 748.4 507.9 747.6C507.9 746.8 508.6 746.1 509.4 746.1H603.3C604.1 746.1 604.8 746.8 604.8 747.6C604.8 748.4 604.1 749.1 603.3 749.1Z" fill="black"/>
<path d="M358.4 559C357.7 559 357 558.4 356.9 557.7C354.5 540.5 357.6 527.9 366.1 520.3C380.2 507.6 403.6 513.3 404.6 513.6C405.4 513.8 405.9 514.6 405.7 515.4C405.5 516.2 404.7 516.7 403.9 516.5C403.7 516.4 381 511 368.1 522.5C360.4 529.4 357.6 541.1 359.9 557.3C360 558.1 359.5 558.9 358.6 559H358.4Z" fill="black"/>
<path d="M423.1 554.5C422.3 554.5 421.6 553.8 421.6 553C421.6 552.2 422.3 551.5 423.1 551.5L565.1 550.4C565.9 550.4 566.6 551.1 566.6 551.9C566.6 552.7 565.9 553.4 565.1 553.4L423.1 554.5Z" fill="white"/>
<path d="M834.6 874.2H673.6C672.8 874.2 672.1 873.5 672.1 872.7C672.1 871.9 672.8 871.2 673.6 871.2H834.6C835.4 871.2 836.1 871.9 836.1 872.7C836.1 873.5 835.4 874.2 834.6 874.2Z" fill="white"/>
<path d="M631.1 687.5C630.3 687.5 629.6 686.8 629.6 686C630 666 635.4 652.1 645.7 644.9C659.1 635.4 675.6 640.8 676.3 641C677.1 641.2 677.6 642 677.4 642.8C677.2 643.6 676.4 644.1 675.6 643.9C675.5 643.9 675.5 643.9 675.4 643.8C675.2 643.8 659.6 638.7 647.4 647.3C637.9 654 633 667 632.6 686C632.6 686.9 631.9 687.5 631.1 687.5Z" fill="black"/>
<path d="M670.4 751.1C669.5 751.1 668.6 750.7 668 750.1C666.6 748.8 666.5 746.6 667.9 745.2L731.6 678.1C732.9 676.7 735.1 676.5 736.5 677.8C737.9 679.1 738.1 681.3 736.8 682.7C736.7 682.8 736.7 682.8 736.6 682.9L672.9 750C672.3 750.7 671.3 751.1 670.4 751.1Z" fill="white"/>
<path d="M734.1 751.1C733.2 751.1 732.4 750.7 731.7 750.1L660.2 683C658.7 681.8 658.5 679.6 659.7 678.1C660.9 676.6 663.1 676.4 664.6 677.6C664.8 677.7 664.9 677.9 665 678L736.6 745.1C738 746.4 738.1 748.6 736.8 750C736.1 750.8 735.1 751.2 734.1 751.1Z" fill="white"/>
<path d="M754.2 784.9H702.8C702 784.9 701.3 784.2 701.3 783.4C701.3 782.6 702 781.9 702.8 781.9H754.2C755 781.9 755.7 782.6 755.7 783.4C755.7 784.2 755.1 784.9 754.2 784.9Z" fill="black"/>
<path d="M341.5 424.4C282.2 480.3 201.5 481.5 129.6 712.3C99.9 807.6 131.9 854.2 158.7 874.4C195.2 901.9 384.2 909.7 389 838.6L420.3 837.5L429.2 749.2H404.6C404.6 749.2 394 710.9 348.3 706.2C271.2 698.4 211.2 733.5 201.1 736.9" fill="#FFAD00"/>
<path d="M262.5 895.8C217.1 895.8 173.5 887.4 157.8 875.6C133.4 857.2 97.1 811.5 128.2 711.8C153 632.1 181.1 572.7 214 530.2C242.8 493 271.8 473.3 297.3 456C312.6 445.6 327.1 435.8 340.5 423.2C341.1 422.6 342.1 422.7 342.6 423.3C343.1 423.9 343.1 424.8 342.5 425.4C329 438.2 314.4 448.1 299 458.5C246.3 494.3 186.5 534.8 131 712.7C100.5 810.7 135.8 855.3 159.5 873.2C172.7 883.1 206.6 890.7 245.8 892.4C289.4 894.3 329.1 888.7 354.7 877C375.3 867.6 386.3 854.6 387.4 838.5C387.5 837.7 388.1 837.1 388.9 837.1L418.9 836L427.5 750.6H404.6C403.9 750.6 403.3 750.2 403.2 749.5C403.1 749.1 392.2 712.1 348.2 707.6C282.8 701 229.4 725.6 209.3 734.8C205.7 736.5 203.1 737.6 201.6 738.2C200.8 738.5 200 738 199.7 737.2C199.4 736.4 199.9 735.6 200.6 735.3C202 734.8 204.5 733.7 208 732.1C228.3 722.7 282.2 697.9 348.4 704.6C390.2 708.8 403.4 741.1 405.6 747.6H429.1C429.5 747.6 429.9 747.8 430.2 748.1C430.5 748.4 430.6 748.8 430.6 749.3L421.6 837.6C421.5 838.3 420.9 838.9 420.2 838.9L390.2 840C388.5 856.7 377 870 355.8 879.7C331.1 891.1 296.3 895.8 262.5 895.8Z" fill="black"/>
<path d="M383.4 844.8C383.9 818.8 398.3 772 405 751.5H425.9L417.4 835.2L387.8 836.3C386.5 839.2 385.1 842.1 383.4 844.8Z" fill="#E89D00"/>
<path d="M315.3 509.1C319.663 509.1 323.2 505.563 323.2 501.2C323.2 496.837 319.663 493.3 315.3 493.3C310.937 493.3 307.4 496.837 307.4 501.2C307.4 505.563 310.937 509.1 315.3 509.1Z" fill="#FFC140"/>
<path d="M233.6 622C237.963 622 241.5 618.463 241.5 614.1C241.5 609.737 237.963 606.2 233.6 606.2C229.237 606.2 225.7 609.737 225.7 614.1C225.7 618.463 229.237 622 233.6 622Z" fill="#FFC140"/>
<path d="M307.5 671.2C311.863 671.2 315.4 667.663 315.4 663.3C315.4 658.937 311.863 655.4 307.5 655.4C303.137 655.4 299.6 658.937 299.6 663.3C299.6 667.663 303.137 671.2 307.5 671.2Z" fill="#FFC140"/>
<path d="M149.8 713.7C154.163 713.7 157.7 710.163 157.7 705.8C157.7 701.437 154.163 697.9 149.8 697.9C145.437 697.9 141.9 701.437 141.9 705.8C141.9 710.163 145.437 713.7 149.8 713.7Z" fill="#FFC140"/>
<path d="M225.8 841.2C230.163 841.2 233.7 837.663 233.7 833.3C233.7 828.937 230.163 825.4 225.8 825.4C221.437 825.4 217.9 828.937 217.9 833.3C217.9 837.663 221.437 841.2 225.8 841.2Z" fill="#FFC140"/>
<path d="M299.6 779.7C303.963 779.7 307.5 776.163 307.5 771.8C307.5 767.437 303.963 763.9 299.6 763.9C295.237 763.9 291.7 767.437 291.7 771.8C291.7 776.163 295.237 779.7 299.6 779.7Z" fill="#FFC140"/>
<path d="M315.3 853.5C319.663 853.5 323.2 849.963 323.2 845.6C323.2 841.237 319.663 837.7 315.3 837.7C310.937 837.7 307.4 841.237 307.4 845.6C307.4 849.963 310.937 853.5 315.3 853.5Z" fill="#FFC140"/>
<path d="M201.7 753.5C200.9 753.5 200.2 752.8 200.2 752C200.2 751.4 200.5 750.9 201 750.7C256.2 722.8 290.4 719.7 309.3 722C330.2 724.6 337.8 733.9 338.1 734.3C338.6 734.9 338.6 735.9 337.9 736.4C337.3 736.9 336.3 736.9 335.8 736.2L335.7 736.1C335.6 736 328.3 727.2 308.5 724.9C290 722.7 256.5 725.9 202.3 753.3C202.2 753.4 201.9 753.5 201.7 753.5Z" fill="white"/>
<path d="M428.9 749.8C428.9 749.8 465.5 641.8 504.3 707L568.1 698.1C568.1 698.1 594 724.2 547.1 747.5C547.1 747.5 552.2 771 537.8 787.8C537.8 787.8 549.5 804.8 515.5 828.1C481.5 851.4 422.6 837.3 422.6 837.3L428.9 749.8Z" fill="#FFCDB2"/>
<path d="M462 843.1C448.6 843.1 435.3 841.6 422.3 838.7C421.6 838.5 421.1 837.9 421.2 837.1L427.5 749.6C427.5 749.5 427.5 749.3 427.6 749.2C428.5 746.7 448.8 687.4 476.1 684.5C486.4 683.4 496.1 690.4 505.1 705.2L567.9 696.5C568.4 696.4 568.8 696.6 569.2 696.9C569.6 697.3 578.6 706.5 576.5 719.2C574.7 730 565.4 739.8 548.8 748.2C549.6 753.2 552 772.7 539.7 787.9C541.8 792.1 547 808.3 516.4 829.2C500.6 840.1 479.9 843.1 462 843.1ZM424.2 836.1C432.8 837.9 484.4 847.7 514.7 826.9C546.8 804.8 537 789.4 536.6 788.7C536.2 788.1 536.3 787.4 536.7 786.9C550.4 770.8 545.7 748.1 545.6 747.9C545.5 747.2 545.8 746.5 546.4 746.2C562.7 738.2 571.8 729 573.4 718.9C575 709.4 569.2 701.8 567.4 699.7L504.4 708.5C503.8 708.6 503.2 708.3 502.9 707.8C494.4 693.5 485.4 686.7 476.2 687.7C451.5 690.3 431.5 746.5 430.2 750.2L424.2 836.1Z" fill="black"/>
<path d="M483.3 713.5C482.5 713.6 481.7 713 481.6 712.2C481.5 711.4 482.1 710.6 482.9 710.5L503.9 705.6C504.7 705.4 505.5 706 505.7 706.8C505.9 707.6 505.4 708.3 504.6 708.5L483.6 713.4C483.5 713.4 483.4 713.5 483.3 713.5Z" fill="black"/>
<path d="M498.2 763.6C495.9 763.6 493.7 763.5 491.4 763.3C490.6 763.2 490 762.4 490.1 761.6C490.2 760.8 491 760.2 491.8 760.3C492.1 760.3 519.8 763.7 545.8 746C546.4 745.5 547.4 745.6 547.9 746.2C548.4 746.8 548.3 747.8 547.7 748.3C547.6 748.3 547.6 748.4 547.5 748.4C532.9 758.3 515.7 763.6 498.2 763.6Z" fill="black"/>
<path d="M493.7 802.3C490.5 802.3 488.4 802.1 488.1 802.1C487.3 802 486.7 801.3 486.7 800.5C486.8 799.7 487.5 799.1 488.3 799.1C488.6 799.1 519.6 801.6 537.6 785.6C538.2 785 539.2 785.1 539.7 785.7C540.2 786.3 540.2 787.3 539.6 787.8C525.3 800.6 503.8 802.3 493.7 802.3Z" fill="black"/>
<path d="M473.4 835.6C460.6 835.6 452.6 831.6 452.3 831.5C451.6 831.1 451.3 830.2 451.6 829.5C452 828.8 452.9 828.5 453.6 828.8C454 829 486.3 844.6 524.6 810.6C525.2 810 526.2 810.1 526.7 810.7C527.2 811.3 527.2 812.3 526.6 812.8C505.8 831.3 486.7 835.4 474.4 835.6H473.4Z" fill="white"/>
<path d="M492.2 794.4C490.8 794.4 489.9 794.4 489.7 794.4C488.9 794.4 488.2 793.7 488.2 792.9C488.2 792.1 488.9 791.4 489.7 791.4C489.7 791.4 489.7 791.4 489.8 791.4C490.2 791.4 530.5 792.6 538.1 775.9C538.4 775.1 539.3 774.7 540 775C540.7 775.3 541.2 776.2 540.9 776.9C540.9 777 540.8 777 540.8 777.1C533.4 793.2 501.5 794.4 492.2 794.4Z" fill="white"/>
<path d="M498.9 754.2C498.1 754.3 497.4 753.6 497.3 752.8C497.2 752 497.9 751.3 498.7 751.2C499.2 751.1 549.3 744.6 562.7 722.4C563.1 721.7 564.1 721.5 564.8 721.9C565.5 722.3 565.7 723.3 565.3 724C551.1 747.5 501.2 754 499.1 754.3L498.9 754.2Z" fill="white"/>
<path d="M404 246.2C427.306 246.2 446.2 227.306 446.2 204C446.2 180.694 427.306 161.8 404 161.8C380.694 161.8 361.8 180.694 361.8 204C361.8 227.306 380.694 246.2 404 246.2Z" fill="#6C32AD"/>
<path d="M404 161.8C427.3 161.8 446.2 180.7 446.2 204C446.2 227.3 427.3 246.2 404 246.2C380.7 246.2 361.8 227.3 361.8 204C361.8 196 364.1 188.1 368.4 181.3C376.1 169.1 389.6 161.8 404 161.8ZM404 158.8C379 158.8 358.8 179 358.7 204C358.6 229 378.9 249.2 403.9 249.3C428.9 249.3 449.1 229.1 449.2 204.1C449.2 188.6 441.3 174.3 428.3 165.9C421 161.3 412.6 158.8 404 158.8Z" fill="black"/>
<path d="M508 346.5C508 346.5 539.8 324.1 530 296.6C520.2 269.1 513.2 270.7 509 255.9C504.8 241.1 480.7 224.2 456.6 228.5C456.6 228.5 429.8 203.8 403 207.9C376.2 212 365.7 223.5 356.1 243.3C346.5 263.1 338.2 271.3 331 285C323.8 298.7 311.2 337.7 363.8 372.8C416.4 407.9 508 346.5 508 346.5Z" fill="#6C32AD"/>
<path d="M409.2 207.5C433.9 207.5 456.7 228.5 456.7 228.5C459.3 228 461.9 227.8 464.6 227.8C485.8 227.8 505.3 242.7 509.1 255.9C513.3 270.7 520.4 269.2 530.1 296.6C539.8 324 508.1 346.5 508.1 346.5C508.1 346.5 452.8 383.6 403.5 383.6C389.4 383.6 375.7 380.6 364 372.7C311.4 337.6 324 298.6 331.2 284.9C338.4 271.2 346.7 262.9 356.3 243.2C365.9 223.5 376.3 211.9 403.2 207.8C405 207.6 407.1 207.5 409.2 207.5ZM409.1 204.5C406.9 204.5 404.7 204.7 402.5 205C374.4 209.3 363.2 221.8 353.4 242C349 250.9 344 259.5 338.3 267.6C334.7 272.7 331.4 278.1 328.4 283.6C322.3 295.2 320.1 308.4 322.1 321.3C325.3 341.5 338.8 359.6 362.2 375.3C373.5 382.8 387.3 386.7 403.3 386.7C429.3 386.7 456.9 376.5 475.4 367.9C487.3 362.5 498.7 356.2 509.7 349.1H509.8C515.6 344.8 520.8 339.6 525.1 333.8C534.5 321.1 537.2 308 532.9 295.8C527.3 280.1 522.6 273.6 518.8 268.4C515.8 264.3 513.7 261.4 512 255.3C508 241 487.5 225.1 464.6 225.1C462.3 225.1 460 225.3 457.6 225.6C452.6 221.3 431.9 204.7 409.2 204.7L409.1 204.5Z" fill="black"/>
<path d="M407.4 307.6H407.3C388.5 305.9 372.2 286 371.5 285.1C371 284.5 371.1 283.5 371.7 283C372.3 282.5 373.3 282.6 373.8 283.2C374 283.4 390.1 303 407.5 304.6C408.3 304.6 409 305.3 408.9 306.2C408.8 307.1 408.2 307.6 407.4 307.6Z" fill="black"/>
<path d="M407 295.4C402.7 295.4 398.5 294.8 394.4 293.6C393.6 293.4 393.1 292.6 393.3 291.7C393.5 290.9 394.3 290.4 395.2 290.7C430.9 300.5 445.8 264.7 446.4 263.2C446.7 262.4 447.6 262.1 448.4 262.4C449.2 262.7 449.5 263.6 449.2 264.4C449 264.8 436.3 295.4 407 295.4Z" fill="white"/>
<path d="M427.6 394.2C427.6 394.2 496.9 460.2 398.5 449C398.5 449 378.4 481.4 343.7 463.5C309 445.6 324.7 413.2 349.3 405.4C370.6 398.6 427.6 394.2 427.6 394.2Z" fill="white"/>
<path d="M364 470.4C356.7 470.3 349.5 468.4 343 464.9C328.5 457.4 321.1 446.6 322.2 434.4C323.3 421.2 334.3 408.7 348.9 404C370.2 397.2 425.2 392.9 427.5 392.8C427.9 392.8 428.3 392.9 428.6 393.2C429.9 394.4 459.4 422.8 451.4 439.9C446.5 450.3 429 453.9 399.2 450.7C396.6 454.4 384.1 470.4 364 470.4ZM427 395.7C420.5 396.2 369.4 400.5 349.7 406.8C336.5 411 326.1 422.7 325.1 434.6C324.2 445.6 331 455.4 344.3 462.2C358.2 469.4 371.3 469.2 383.2 461.7C388.7 458.2 393.4 453.6 397.1 448.2C397.4 447.7 398 447.4 398.5 447.5C427 450.7 444.3 447.6 448.5 438.6C455.3 424.4 430.8 399.4 427 395.7Z" fill="black"/>
<path d="M362.4 163.8C361.6 163.8 360.9 163.1 360.9 162.3C360.9 162.1 360.9 162 361 161.8C364.4 152.1 370.1 145.4 378 141.7C391.8 135.2 407 140.6 407.6 140.9C408.4 141.2 408.7 142.1 408.4 142.9C408.1 143.6 407.3 143.9 406.6 143.7C406.5 143.6 391.9 138.5 379.2 144.4C372.1 147.7 367 153.9 363.8 162.8C363.6 163.4 363 163.8 362.4 163.8Z" fill="black"/>
<path d="M376.1 192.3C375.3 192.3 374.6 191.6 374.6 190.8C374.6 190.5 374.7 190.3 374.8 190.1C380 180.5 386.7 174.7 394.9 172.7C408.2 169.5 420.2 177.7 420.7 178.1C421.4 178.6 421.6 179.5 421.1 180.2C420.6 180.9 419.7 181.1 419 180.6C418.9 180.5 407.5 172.8 395.6 175.7C388.3 177.5 382.2 182.8 377.4 191.6C377.1 192 376.6 192.3 376.1 192.3Z" fill="white"/>
<path d="M423.7 404.1V420.9C423.7 420.9 394.6 464.5 338.7 428.7C338.7 428.7 366.1 389.3 380.8 342.5C380.8 342.5 360.1 336.9 364.3 318.3C368.5 299.7 383.8 297.3 392.4 302.8C392.4 302.8 425.9 328.8 465 258.1C465 258.1 501.2 275.1 506.9 313.7C512.6 352.3 502.9 396.1 472.9 407.3C442.9 418.5 423.7 404.1 423.7 404.1Z" fill="#FFCDB2"/>
<path d="M465 258.2C465 258.2 501.2 275.2 506.9 313.8C512.6 352.4 502.9 396.2 472.9 407.4C465.8 410.2 458.2 411.6 450.5 411.7C433.7 411.7 423.6 404.2 423.6 404.2V421C423.6 421 409 442.9 380.5 442.9C368.8 442.9 354.8 439.2 338.6 428.8C338.6 428.8 366 389.4 380.7 342.6C380.7 342.6 360 337 364.2 318.4C367.2 305.4 375.5 300.4 383.2 300.4C386.4 300.4 389.6 301.3 392.3 303C392.3 303 398.3 307.6 408.2 307.6C421.8 307.6 442.5 298.9 465 258.2ZM465 255.2C463.9 255.2 462.9 255.8 462.4 256.7C440.6 296.2 420.9 304.5 408.4 304.5C403.4 304.6 398.5 303.2 394.3 300.5L394.1 300.4C390.9 298.4 387.2 297.3 383.4 297.3C375 297.3 364.9 302.7 361.5 317.7C359.5 326.5 362.1 334.1 369.2 339.7C371.6 341.6 374.3 343.2 377.2 344.3C362.6 388.9 336.6 426.6 336.3 426.9C335.8 427.6 335.7 428.4 335.8 429.2C336 430 336.4 430.7 337.1 431.1C352.2 440.8 366.9 445.7 380.6 445.7C410.3 445.7 425.5 423.4 426.1 422.4C426.4 421.9 426.6 421.3 426.6 420.7V409.2C434 412.8 442.2 414.6 450.5 414.5C458.5 414.4 466.4 412.9 473.9 410.1C488.7 404.5 499.8 391.2 506.1 371.6C511.6 354.5 512.9 333.7 509.8 313.2C507.4 296.7 499 281.5 485.8 269.2C480 263.7 473.4 259 466.2 255.4C465.9 255.3 465.5 255.2 465 255.2Z" fill="black"/>
<path d="M424.3 407.3C424.1 407.3 424 407.3 423.8 407.2C406.8 401.5 394.4 383.6 393.9 382.8C393.4 382.1 393.6 381.2 394.3 380.7C395 380.2 395.9 380.4 396.4 381.1C396.5 381.3 408.7 399 424.8 404.3C425.6 404.5 426 405.4 425.8 406.2C425.5 406.9 424.9 407.3 424.3 407.3Z" fill="black"/>
<path d="M381.4 333.7C380.8 333.7 380.3 333.4 380 333C376.2 325.9 375.5 320.1 378 315.8C381.5 309.7 390.1 309.3 390.5 309.3C391.3 309.3 392 309.9 392 310.7C392 311.5 391.4 312.2 390.6 312.3C390.5 312.3 383.3 312.7 380.6 317.3C378.7 320.6 379.4 325.4 382.7 331.5C383.1 332.2 382.8 333.1 382.1 333.5C381.9 333.7 381.6 333.7 381.4 333.7Z" fill="black"/>
<path d="M463.4 315.1C441.7 316.7 414.6 303.6 408.7 310.5C402.8 317.4 405.2 328 416.2 332C427.2 336 438.7 337.2 462.1 338.5C485.5 339.8 508.6 339.4 507.6 326.6C506.6 313.8 495.3 312.7 463.4 315.1Z" fill="#FFB49F"/>
<path d="M488.4 319.8H488.3C479 318.9 473.4 309.7 473.2 309.3C472.8 308.6 473 307.7 473.8 307.3C474.5 306.9 475.4 307.1 475.8 307.8C475.9 307.9 480.8 316 488.6 316.8C489.4 316.8 490.1 317.5 490 318.4C489.9 319.2 489.2 319.9 488.4 319.8Z" fill="black"/>
<path d="M465.7 354C465 354 464.4 353.5 464.2 352.8L457.1 318.4C456.9 317.6 457.5 316.8 458.3 316.6C459.1 316.4 459.9 317 460.1 317.8L467.2 352.2C467.4 353 466.9 353.8 466.1 354H465.7Z" fill="black"/>
<path d="M372.3 348.3C376.111 348.3 379.2 345.211 379.2 341.4C379.2 337.589 376.111 334.5 372.3 334.5C368.489 334.5 365.4 337.589 365.4 341.4C365.4 345.211 368.489 348.3 372.3 348.3Z" fill="#FFAD00"/>
<path d="M372.3 334.5C373.6 334.5 374.9 334.9 376 335.6C379.2 337.7 380.2 341.9 378.1 345.1C376.8 347.1 374.6 348.3 372.3 348.3C371 348.3 369.7 347.9 368.6 347.2C365.4 345.1 364.4 340.9 366.5 337.7C367.8 335.7 370 334.5 372.3 334.5ZM372.3 331.5C366.8 331.5 362.4 335.9 362.4 341.4C362.4 346.9 366.8 351.3 372.3 351.3C377.8 351.3 382.2 346.9 382.2 341.4C382.2 338 380.5 334.9 377.6 333C376.1 332 374.2 331.5 372.3 331.5Z" fill="black"/>
<path d="M428.9 332.2C431.054 332.2 432.8 330.454 432.8 328.3C432.8 326.146 431.054 324.4 428.9 324.4C426.746 324.4 425 326.146 425 328.3C425 330.454 426.746 332.2 428.9 332.2Z" fill="black"/>
<path d="M482.5 335.6C484.654 335.6 486.4 333.854 486.4 331.7C486.4 329.546 484.654 327.8 482.5 327.8C480.346 327.8 478.6 329.546 478.6 331.7C478.6 333.854 480.346 335.6 482.5 335.6Z" fill="black"/>
<path d="M450.1 381.2C449.6 381.2 449.2 381 448.9 380.6C441.6 370.2 420 371 419.8 371.1C419 371.1 418.3 370.5 418.2 369.7C418.1 368.9 418.8 368.2 419.6 368.1C420.6 368.1 443.1 367.2 451.3 378.9C451.8 379.5 451.7 380.5 451 381C451 381 451 381 450.9 381C450.7 381.2 450.4 381.3 450.1 381.2Z" fill="black"/>
<path d="M434.2 314.5C433.4 314.6 432.6 314 432.6 313.1C432.6 312.2 433.1 311.5 434 311.5C434.1 311.5 446.2 309.3 447.5 301.9C447.6 301.1 448.4 300.5 449.3 300.7C450.1 300.8 450.7 301.6 450.5 302.5C448.8 312 435.1 314.5 434.5 314.5C434.4 314.5 434.3 314.5 434.2 314.5Z" fill="black"/>
<path d="M348.2 425.9C347.8 425.9 347.5 425.8 347.2 425.5C346.6 425 346.5 424 347.1 423.4C362.4 405.9 378 368.3 378.1 367.9C378.4 367.1 379.3 366.8 380.1 367.1C380.8 367.4 381.2 368.3 380.9 369C380.3 370.6 365 407.5 349.3 425.3C349 425.7 348.6 425.9 348.2 425.9Z" fill="white"/>
<path d="M825.1 641.6C825.1 641.6 780.3 668.3 802.8 696.5C825.3 724.7 860.9 702.3 861.1 669.6C861.3 636.9 835.9 624.1 823.8 611.4" fill="#FFCDB2"/>
<path d="M826.7 711C817.4 711 808.6 706.4 801.6 697.5C796 690.5 793.9 683 795.4 675.2C799 655.6 823.3 641 824.3 640.3C825 639.9 825.9 640.1 826.4 640.8C826.8 641.5 826.6 642.4 825.9 642.9C825.7 643 801.7 657.5 798.4 675.7C797.1 682.6 799 689.3 804 695.6C812.6 706.4 824.1 710.4 835.5 706.4C849.6 701.5 859.5 686.4 859.6 669.6C859.7 644.4 844.3 631.3 831.8 620.7C828.5 617.9 825.3 615.2 822.7 612.5C822.1 611.9 822.1 610.9 822.7 610.4C823.3 609.9 824.3 609.8 824.8 610.4C827.3 613 830.4 615.6 833.7 618.4C846.6 629.4 862.7 643 862.5 669.6C862.4 687.6 851.7 703.9 836.4 709.2C833.3 710.4 830.1 711 826.7 711Z" fill="black"/>
<path d="M830.6 589.5C830.6 589.5 785.8 616.2 808.3 644.4C830.8 672.6 866.4 650.2 866.6 617.5C866.8 584.8 841.4 572 829.3 559.3" fill="#FFCDB2"/>
<path d="M832.3 658.8C823 658.8 814.2 654.2 807.2 645.3C801.6 638.3 799.5 630.8 801 623C804.6 603.4 828.9 588.8 829.9 588.1C830.6 587.7 831.5 587.9 831.9 588.7C832.3 589.4 832.1 590.3 831.4 590.7C831.2 590.9 807.2 605.3 803.9 623.5C802.6 630.4 804.5 637.1 809.5 643.4C818.1 654.2 829.6 658.2 841 654.2C855.1 649.3 865 634.2 865.1 617.4C865.2 592.3 849.8 579.1 837.3 568.5C834 565.7 830.8 563 828.2 560.3C827.6 559.7 827.6 558.8 828.2 558.2C828.8 557.6 829.7 557.6 830.3 558.2C832.8 560.8 835.9 563.4 839.2 566.2C852.1 577.2 868.2 590.8 868 617.4C867.9 635.4 857.2 651.7 841.9 657C838.9 658.2 835.6 658.8 832.3 658.8Z" fill="black"/>
<path d="M827.8 545.5C827.8 545.5 783 572.1 805.5 600.4C828 628.7 863.6 606.2 863.8 573.5C864 540.8 842.5 541.2 826.9 537.4" fill="#FFCDB2"/>
<path d="M829.5 614.8C820.2 614.8 811.4 610.2 804.4 601.3C798.8 594.3 796.7 586.8 798.2 579C801.8 559.4 826.1 544.8 827.1 544.2C827.8 543.8 828.7 544 829.2 544.7C829.6 545.4 829.4 546.3 828.7 546.8C828.5 546.9 804.5 561.4 801.2 579.6C799.9 586.5 801.8 593.2 806.8 599.5C815.4 610.3 826.9 614.3 838.3 610.3C852.4 605.4 862.3 590.3 862.4 573.5C862.5 546.2 847.5 543.1 832.9 540.2C830.7 539.8 828.7 539.4 826.7 538.9C825.9 538.7 825.4 537.9 825.5 537.1C825.7 536.3 826.5 535.8 827.3 535.9H827.4C829.3 536.4 831.4 536.8 833.5 537.2C847.8 540.1 865.6 543.7 865.4 573.5C865.3 591.5 854.6 607.8 839.3 613.1C836.1 614.2 832.8 614.8 829.5 614.8Z" fill="black"/>
<path d="M826.8 693.5C826 693.5 825.3 692.8 825.3 692C825.3 691.2 826 690.5 826.8 690.5C827.9 690.5 853.7 689.8 855.2 658.1C855.3 657.3 855.9 656.6 856.8 656.7C857.6 656.7 858.3 657.4 858.2 658.3C856.6 692.8 827.2 693.5 826.8 693.5Z" fill="white"/>
<path d="M829.4 652.8C828.6 652.9 827.9 652.2 827.8 651.4C827.7 650.6 828.4 649.9 829.2 649.8C830.2 649.6 855.1 645.8 859.6 618C859.7 617.2 860.5 616.6 861.3 616.7C862.1 616.8 862.7 617.6 862.6 618.4C857.8 648.4 830 652.6 829.7 652.7L829.4 652.8Z" fill="white"/>
<path d="M822.1 601.9H821.8C821 601.9 820.3 601.2 820.3 600.4C820.3 599.6 821 598.9 821.8 599C823.1 599 852.9 599.7 857 569.5C857.1 568.7 857.9 568.1 858.7 568.2C859.5 568.3 860.1 569.1 860 569.9C855.8 601 825.6 601.9 822.1 601.9Z" fill="white"/>
<path d="M879.5 575.8C879.4 575.8 879.2 575.8 879.1 575.8C878.3 575.6 877.9 574.7 878.1 574C883 556.5 878.9 542 865.9 530.7C859.6 525.4 852.3 521.3 844.4 518.8C843.6 518.6 843.1 517.8 843.3 517C843.5 516.2 844.3 515.7 845.1 515.9C845.2 515.9 845.2 515.9 845.3 515.9C845.8 516 893.6 530.2 881 574.8C880.8 575.4 880.1 575.8 879.5 575.8Z" fill="black"/>
</svg>
