<svg width="1000" height="1000" viewBox="0 0 1000 1000" fill="none" xmlns="http://www.w3.org/2000/svg">
<rect width="1000" height="1000" fill="white"/>
<path d="M840 865H107C105.9 865 105 864.1 105 863C105 861.9 105.9 861 107 861H840C841.1 861 842 861.9 842 863C842 864.1 841.1 865 840 865Z" fill="#1D1D1B"/>
<path d="M914 892H801C799.9 892 799 891.1 799 890C799 888.9 799.9 888 801 888H914C915.1 888 916 888.9 916 890C916 891.1 915.1 892 914 892Z" fill="#1D1D1B"/>
<path d="M182 892H52C50.9 892 50 891.1 50 890C50 888.9 50.9 888 52 888H182C183.1 888 184 888.9 184 890C184 891.1 183.1 892 182 892Z" fill="#1D1D1B"/>
<path d="M185.5 333.5H504.4C539.2 333.5 567.4 361.7 567.4 396.5V617.4C567.4 652.2 539.2 680.4 504.4 680.4H185.5C150.7 680.4 122.5 652.2 122.5 617.4V396.5C122.5 361.7 150.7 333.5 185.5 333.5Z" fill="#D9CFFF"/>
<path d="M504.5 333.5C539.3 333.5 567.5 361.7 567.5 396.5V617.5C567.5 652.3 539.3 680.5 504.5 680.5H185.5C150.7 680.5 122.5 652.3 122.5 617.5V396.5C122.5 361.7 150.7 333.5 185.5 333.5H504.5ZM504.5 330.5H185.5C149.1 330.6 119.6 360.1 119.5 396.5V617.4C119.6 653.8 149.1 683.3 185.5 683.4H504.4C540.8 683.3 570.3 653.8 570.4 617.4V396.5C570.4 360.1 540.9 330.6 504.5 330.5Z" fill="#1D1E1B"/>
<path d="M122.5 617.5V573L231.5 487.5L307.5 534.5L400.5 418.5L567.5 551.7V617.4C567.5 652.2 539.3 680.4 504.5 680.4H185.5C150.7 680.5 122.5 652.3 122.5 617.5Z" fill="white"/>
<path d="M504.5 682H185.5C149.9 682 121 653.1 121 617.5V572.3L121.6 571.8L231.4 485.7L307.2 532.6L400.3 416.5L401.5 417.4L569 551V617.5C569 653.1 540.1 682 504.5 682ZM124 573.7V617.5C124 651.5 151.6 679 185.5 679H504.4C538.4 679 565.9 651.4 565.9 617.5V552.5L400.7 420.6L307.8 536.5L231.6 489.4L124 573.7Z" fill="#1D1F1C"/>
<path d="M597 410.5C596.6 364.1 580.3 329.8 550 311.2C535.9 302.7 519.9 297.8 503.5 297V294C504.5 294 527.7 294.2 551.4 308.6C573.3 321.9 599.5 350.4 600 410.5H597Z" fill="#1D1F1C"/>
<path d="M134.5 413C132.9 413 131.5 411.7 131.5 410C131.1 388.5 136.9 371.5 148.6 359.5C165.9 341.8 189.6 341.5 190.6 341.5C192.3 341.5 193.6 342.8 193.6 344.5C193.6 346.2 192.3 347.5 190.6 347.5C190.2 347.5 168.2 348 152.8 363.8C142.2 374.6 137.1 390.2 137.4 410C137.5 411.6 136.2 413 134.5 413Z" fill="white"/>
<path d="M271.5 434.5C285.859 434.5 297.5 422.859 297.5 408.5C297.5 394.141 285.859 382.5 271.5 382.5C257.141 382.5 245.5 394.141 245.5 408.5C245.5 422.859 257.141 434.5 271.5 434.5Z" fill="white"/>
<path d="M271.5 436C256.3 436 244 423.7 244 408.5C244 393.3 256.3 381 271.5 381C286.7 381 299 393.3 299 408.5C299 423.7 286.7 436 271.5 436ZM271.5 384C258 384 247 395 247 408.5C247 422 258 433 271.5 433C285 433 296 422 296 408.5C296 395 285 384 271.5 384Z" fill="#1D1F1C"/>
<path d="M632 556.7C580.1 540.5 450.1 565.5 413.5 611.5C392.7 637.7 371.5 686.5 350.5 747.5C341.6 773.3 325.6 797.4 295.5 794.5C276 792.6 255.7 806.3 258.5 819.5C264.1 845.5 310.5 862.5 310.5 862.5L678.2 861C678.2 861 720.8 776.4 680.3 691.5C680.3 691.5 760.2 725.1 792.9 710.5C825.6 695.9 868.5 606.5 835.8 597.4L842.2 575.2L791.3 546.3L780.6 559.9C780.6 559.9 764.1 540.2 752.5 554.5C740.9 568.8 722.6 597.9 722.6 597.9C722.6 597.9 710 581.1 632 556.7Z" fill="#FFAD00"/>
<path d="M310.5 864C310.3 864 310.1 864 310 863.9C308.1 863.2 262.7 846.3 257 819.8C256 815 257.7 809.8 261.8 805.2C269.3 796.8 283.2 791.8 295.6 793C319.7 795.3 337.7 779.9 349 747C372.3 679.5 392.9 634.8 412.3 610.6C429.2 589.3 467.3 570.6 516.7 559.3C561.8 549 607.3 547.4 632.5 555.3C697.7 575.7 717.5 590.8 722.5 595.5C726.5 589.2 741.5 565.8 751.5 553.5C754.6 549.7 758.3 547.8 762.5 547.7H762.6C770.5 547.7 777.9 554.5 780.7 557.5L790.3 545.3C790.8 544.7 791.6 544.6 792.2 544.9L843 573.8C843.6 574.1 843.9 574.9 843.7 575.5L837.7 596.3C844.4 598.8 848.3 604.8 849 614C851.2 643.8 819.1 700.4 793.6 711.8C764.2 724.9 699.4 700.6 683.3 694.2C702.7 737.3 700.9 779.8 695.9 808.3C690.3 839.9 679.6 861.4 679.5 861.6C679.2 862.1 678.7 862.4 678.2 862.4L310.5 864ZM291.9 795.8C281.3 795.8 270.3 800.2 264.1 807.2C261.7 809.9 259 814.2 260 819.2C265.1 843.2 307.2 859.6 310.8 861L677.3 859.5C684.7 843 690 825.5 693 807.7C698 779 699.7 735.6 679 692.1C678.7 691.4 679 690.5 679.7 690.1C680.1 689.9 680.5 689.9 680.9 690.1C681.7 690.4 760.6 723.3 792.3 709.1C817 698.1 848.1 643.1 845.9 614.3C845.3 605.8 841.7 600.6 835.4 598.8C835 598.7 834.7 598.4 834.5 598.1C834.3 597.7 834.3 597.3 834.4 596.9L840.5 575.9L791.8 548.2L781.9 560.8C781.6 561.2 781.2 561.4 780.7 561.4C780.3 561.4 779.8 561.2 779.6 560.9C779.5 560.8 771 550.9 762.6 550.9H762.5C759.2 550.9 756.4 552.5 753.8 555.6C742.4 569.7 724.2 598.6 724 598.9C723.7 599.3 723.3 599.6 722.8 599.6C722.3 599.6 721.8 599.4 721.5 599C721.4 598.8 707.7 582.1 631.5 558.3C606.8 550.6 561.9 552.2 517.3 562.4C468.5 573.6 431.1 591.9 414.6 612.6C395.5 636.6 375 680.9 351.8 748.2C340.8 780.2 323.5 796.5 300.3 796.5C298.6 796.5 296.9 796.4 295.2 796.2C294.2 795.9 293 795.8 291.9 795.8Z" fill="#1D1D1B"/>
<path d="M259.4 571.7C240.8 571.7 222.2 569.9 203.9 566.3C174 560.5 145.3 550 118.7 535.2C85.6 516.8 55.9 491.5 30.3 460.2C29.6 459.3 29.7 458.1 30.6 457.4C31.5 456.7 32.7 456.8 33.4 457.7C90.5 527.7 158 553.3 204.5 562.4C255 572.3 292.4 565.5 292.8 565.4C293.9 565.2 294.9 565.9 295.2 566.9C295.4 568 294.7 569 293.7 569.3H293.6C293.3 569.3 280.3 571.7 259.4 571.7Z" fill="#1D1D1B"/>
<path d="M408.4 505.5C408.4 505.5 397.6 534.9 378.2 522.5C358.8 510.1 317.4 483.4 296 511.4C274.6 539.4 276.1 546.7 252.5 539.3C228.9 531.9 166.5 594.3 224.7 632.4C320 694.8 457.4 550.7 457.4 550.7L443.2 528.8L408.4 505.5Z" fill="#6C32AD"/>
<path d="M278.6 649.5C258.4 649.5 240 644.2 223.8 633.6C200.2 618.2 193 596 204 572.7C214.2 551 238.8 533.4 252.8 537.8C271 543.5 273.1 540.5 284.8 524C287.6 520.1 290.7 515.6 294.7 510.4C316.6 481.6 358.2 508 378.1 520.7L378.8 521.2C383.1 524 387.3 524.7 391.3 523.3C401.2 519.9 406.8 505 406.8 504.9L407.5 503.1L444.1 527.6L459.1 550.7L458.3 551.5C458 551.9 423.3 588 377.4 616C350.4 632.5 324.8 643 301.4 647.2C294 648.8 286.3 649.5 278.6 649.5ZM248.3 540.2C236.1 540.2 216.1 554.3 206.8 574C200.8 586.8 195.2 611.2 225.5 631.1C274.1 662.9 334.1 639.1 375.9 613.6C417.6 588.2 449.9 556 455.4 550.4L442 529.8L409 507.7C407.1 512 401.5 523.1 392.3 526.2C387.4 527.8 382.4 527 377.2 523.8L376.5 523.3C357.3 511.1 317.3 485.7 297.1 512.3C293.1 517.5 290 521.9 287.2 525.8C275.3 542.5 272.2 547 251.9 540.7C250.8 540.3 249.6 540.2 248.3 540.2Z" fill="black"/>
<path d="M289.8 647.5C349.6 565.2 438.6 544.7 438.6 544.7C443.4 548.1 447.4 552.7 450.2 557.9C427.9 579.2 358.1 641.1 289.8 647.5Z" fill="#59298F"/>
<path d="M414.2 468.9C430.382 468.9 443.5 455.782 443.5 439.6C443.5 423.418 430.382 410.3 414.2 410.3C398.018 410.3 384.9 423.418 384.9 439.6C384.9 455.782 398.018 468.9 414.2 468.9Z" fill="#6C32AD"/>
<path d="M397.1 415.9C410.2 406.5 428.5 409.5 437.9 422.6C447.3 435.7 444.3 454 431.2 463.4C418.1 472.8 399.8 469.8 390.4 456.7C387.2 452.2 385.3 446.8 384.9 441.3C384.4 431.3 389 421.7 397.1 415.9ZM395.8 414.1C381.7 424.3 378.5 443.9 388.7 458.1C398.9 472.3 418.5 475.4 432.7 465.2C446.8 455 450 435.4 439.8 421.2C433.5 412.5 423.2 407.6 412.4 408.2C406.4 408.6 400.6 410.6 395.8 414.1Z" fill="black"/>
<path d="M530.5 477.4C530.5 477.4 539.3 451.9 522.6 440.5C505.9 429.1 502.6 432.8 494.2 426.1C485.8 419.4 465.4 419.8 453.7 432C453.7 432 428.7 429 415.2 442.2C401.7 455.4 400.6 466.1 403.2 481.1C405.8 496.1 404.5 504.1 406 514.7C407.5 525.3 416.2 552.3 460 550.7C503.8 549.1 530.5 477.4 530.5 477.4Z" fill="#6C32AD"/>
<path d="M456.4 552.2C413.4 552.2 405.9 523.8 404.7 514.9C404.2 510.6 403.9 506.3 403.8 502C403.7 495.1 403.1 488.2 401.9 481.4C399.2 466.3 400.4 454.9 414.3 441.2C426.9 428.8 448.9 430.1 453.3 430.5C465.4 418.5 486 417.6 495.3 425C498.1 427.2 501.2 428.8 504.6 429.7C508.8 431.1 514.1 432.8 523.5 439.3C540.9 451.3 532.3 476.9 531.9 478C526.9 490.7 520.5 502.9 513 514.3C496.9 538.4 478.6 551.5 460.2 552.2C458.9 552.2 457.6 552.2 456.4 552.2ZM447.6 433.2C439.6 433.2 425.1 434.5 416.3 443.2C403.3 456 402.2 466.2 404.8 480.7C406 487.6 406.6 494.7 406.7 501.7C406.8 505.9 407.1 510.1 407.6 514.3C408.8 522.9 416.2 550.6 460.1 549C502.2 547.4 528.5 478.2 529 476.8C529.3 476.1 537 452.2 521.7 441.6C512.7 435.4 507.6 433.7 503.6 432.4C499.9 431.4 496.4 429.6 493.3 427.2C485.8 421.2 466.3 421 454.8 432.9L454.3 433.4L453.5 433.3C451.6 433.3 449.6 433.2 447.6 433.2Z" fill="black"/>
<path d="M458.2 496.5C446.9 503.2 429.6 498.7 428.8 498.5C428.2 498.4 427.8 497.8 428 497.2C428.1 496.6 428.7 496.2 429.3 496.4H429.4C429.6 496.4 446.5 500.9 457 494.7C457.5 494.4 458.2 494.6 458.5 495.2C458.7 495.6 458.6 496.2 458.2 496.5Z" fill="black"/>
<path d="M521.4 553.4C521.4 553.4 541.6 556.4 532.3 574.9C523 593.4 505.1 587.8 505.1 587.8C505.1 587.8 469.5 626.5 458.6 578.1L521.4 553.4Z" fill="white"/>
<path d="M478.7 604C477.2 604 475.7 603.8 474.3 603.4C466.1 601.2 460.3 592.8 457.1 578.5L456.8 577.2L521.2 551.8H521.6C522 551.9 531.3 553.3 534.9 560.2C537.1 564.4 536.7 569.5 533.7 575.5C525.2 592.5 509.6 590.3 505.6 589.4C502.7 592.4 490.7 604 478.7 604ZM460.3 579.1C463.3 591.5 468.3 598.7 475 600.5C488 604 503.8 587 504 586.8L504.6 586.1L505.5 586.4C506.2 586.6 522.4 591.4 530.9 574.2C533.4 569.1 533.9 564.9 532.2 561.7C529.7 556.9 523.2 555.3 521.5 555L460.3 579.1Z" fill="#1D1D1B"/>
<path d="M453 489.8C450.6 491.5 448 492.9 445.2 493.9C444.6 494.1 444 493.8 443.8 493.2C443.6 492.7 443.9 492.1 444.4 491.8C468.4 482.8 462.2 456.8 462 455.7C461.9 455.1 462.2 454.5 462.8 454.4C463.4 454.3 464 454.6 464.1 455.2C464.2 455.5 469.5 477.9 453 489.8Z" fill="white"/>
<path d="M444.8 494.5C444.1 494.5 443.5 494.1 443.3 493.5C443.1 493.1 443.1 492.7 443.3 492.3C443.5 491.9 443.8 491.6 444.2 491.5C467.7 482.7 461.7 457 461.5 455.9C461.4 455.5 461.5 455.1 461.7 454.7C462.2 453.9 463.1 453.7 463.9 454.2C464.3 454.4 464.5 454.8 464.6 455.2C464.7 455.4 470.1 478.2 453.3 490.3C450.9 492 448.2 493.5 445.4 494.5C445.2 494.5 445 494.5 444.8 494.5ZM463.1 454.9H463C462.8 454.9 462.7 455 462.6 455.2C462.5 455.3 462.5 455.5 462.5 455.7C462.8 456.8 469 483.3 444.6 492.4C444.5 492.5 444.3 492.6 444.3 492.7C444.2 492.9 444.2 493 444.3 493.2C444.4 493.5 444.8 493.7 445.1 493.6C447.8 492.6 450.4 491.2 452.8 489.5C469.1 477.8 463.8 455.6 463.7 455.4C463.7 455.2 463.6 455.1 463.4 455C463.3 454.9 463.2 454.9 463.1 454.9Z" fill="white"/>
<path d="M393.8 444.4C393.6 444.5 393.5 444.6 393.3 444.6C392.7 444.7 392.1 444.3 392.1 443.6C391.1 436.1 392.5 430 396.4 425.6C402.6 418.4 412.7 418.1 413.1 418.1C413.7 418.1 414.2 418.6 414.2 419.2C414.2 419.8 413.7 420.3 413.1 420.3C413 420.3 403.5 420.6 398 427C394.6 430.9 393.4 436.4 394.3 443.3C394.3 443.8 394.1 444.2 393.8 444.4Z" fill="white"/>
<path d="M393.1 445.1C392.7 445.1 392.4 445 392.1 444.8C391.8 444.5 391.5 444.2 391.5 443.7C390.5 436.1 392 429.9 395.9 425.3C402.2 418 412.6 417.7 413 417.7C413.4 417.7 413.8 417.9 414.1 418.1C414.7 418.7 414.8 419.7 414.1 420.4C413.8 420.7 413.4 420.9 413 420.9C412.9 420.9 403.6 421.2 398.3 427.4C395 431.2 393.8 436.6 394.7 443.3C394.8 443.9 394.5 444.5 394.1 444.8C393.9 444.9 393.6 445 393.4 445.1H393.1ZM413.1 418.7C412.7 418.7 402.8 419 396.7 426C393 430.3 391.6 436.3 392.6 443.6C392.6 443.8 392.7 443.9 392.8 444C392.9 444.1 393.1 444.1 393.3 444.1C393.4 444.1 393.5 444 393.6 444C393.8 443.9 393.9 443.7 393.9 443.4C393 436.4 394.3 430.8 397.8 426.8C403.5 420.2 413.2 419.9 413.3 419.9C413.6 419.9 413.9 419.6 413.9 419.3C413.9 419.2 413.8 419 413.7 418.9C413.4 418.8 413.2 418.7 413.1 418.7Z" fill="white"/>
<path d="M506.5 544L519.9 553.7C519.9 553.7 512.7 599.2 463.4 574.8C463.4 574.8 468.2 559 457.5 526.8C457.5 526.8 443.6 532 438.5 519.9C433.4 507.8 440.9 500.2 448 499.8C448 499.8 477.4 500.8 470.6 445.2C470.6 445.2 497.8 440.1 516.7 459.4C535.6 478.7 547.9 507.3 535.6 525.8C523.3 544.3 506.5 544 506.5 544Z" fill="#FFCDB2"/>
<path d="M478.8 444.7C488.3 444.7 504.3 446.9 516.6 459.5C535.5 478.8 547.8 507.4 535.5 525.9C523.7 543.7 507.6 544 506.6 544L520 553.7C520 553.7 515.5 582 489.5 582C482.5 582 474 580 463.5 574.8C463.5 574.8 468.3 559 457.6 526.8C455.4 527.5 453.2 527.9 450.9 527.9C446.6 527.9 441.3 526.4 438.6 519.9C433.5 507.8 441 500.2 448.1 499.8H448.2C450.1 499.8 477.2 498.9 470.7 445.2C473.3 444.8 476 444.6 478.8 444.7ZM478.8 441.7C475.8 441.7 472.9 441.9 469.9 442.4L467.1 442.9L467.4 445.7C470.7 472.4 465.2 484.9 460.1 490.7C454.7 496.8 448.6 497 447.9 497H447.6C442.8 497.3 438.5 499.9 435.9 504C432.9 508.7 432.8 514.9 435.5 521.2C438.2 527.5 443.5 531 450.6 531C452.2 531 453.8 530.8 455.3 530.5C464.4 559.4 460.4 573.9 460.3 574L459.6 576.4L461.9 577.5C472 582.5 481.2 585 489.2 585C501 585 510.5 579.6 516.8 569.4C519.7 564.7 521.7 559.5 522.7 554.1L523 552.3L521.5 551.2L514 545.7C520.5 543.9 530.1 539.2 537.9 527.4C544.1 518 545 505.8 540.5 491.9C536.6 479.9 528.8 467.6 518.7 457.2C505.4 443.7 488 441.7 478.8 441.7Z" fill="#1D1D1B"/>
<path d="M508.1 545.6C508 545.7 507.9 545.7 507.8 545.8C495.9 549.5 481.7 544.5 481 544.2C480.4 544 480.1 543.4 480.3 542.8C480.5 542.2 481.1 541.9 481.7 542.1C481.8 542.2 495.8 547.1 507 543.6C507.6 543.3 508.2 543.5 508.5 544.1C508.8 544.7 508.7 545.4 508.1 545.6Z" fill="black"/>
<path d="M454.2 521.7C453.9 521.9 453.4 522 453.1 521.8C448.1 519.3 445.3 516.3 445 512.9C444.5 508 449.2 504.3 449.4 504.1C449.9 503.7 450.6 503.8 450.9 504.3C451.3 504.8 451.2 505.5 450.7 505.8C450.6 505.9 446.8 509 447.2 512.6C447.5 515.2 449.8 517.6 454.1 519.7C454.6 520 454.9 520.6 454.6 521.2C454.4 521.5 454.3 521.6 454.2 521.7Z" fill="black"/>
<path d="M492.7 477.9C481.2 487.6 460.6 491.3 460.1 497.5C459.6 503.7 465.2 508.8 473.1 506.5C481 504.2 487.8 500.3 501.5 491.5C515.2 482.7 528 473.1 522.2 466.3C516.4 459.5 509.6 463.6 492.7 477.9Z" fill="#FFB49F"/>
<path d="M503.3 461.4C503 461.6 502.7 461.7 502.4 461.6C502.3 461.6 495.9 460.1 491.8 463.6C491.3 464 490.6 463.9 490.2 463.5C489.8 463.1 489.9 462.3 490.3 461.9C495.3 457.7 502.5 459.4 502.8 459.5C503.4 459.6 503.8 460.2 503.6 460.9C503.6 461.1 503.5 461.3 503.3 461.4Z" fill="black"/>
<path d="M509.8 498.9C509.4 499.2 508.8 499.2 508.4 498.8L490.4 482.4C489.9 482 489.9 481.3 490.3 480.8C490.7 480.4 491.4 480.3 491.9 480.7L509.9 497.1C510.3 497.5 510.4 498.2 510 498.7L509.8 498.9Z" fill="black"/>
<path d="M452.2 534.4C454.851 534.4 457 532.251 457 529.6C457 526.949 454.851 524.8 452.2 524.8C449.549 524.8 447.4 526.949 447.4 529.6C447.4 532.251 449.549 534.4 452.2 534.4Z" fill="#FFAD00"/>
<path d="M449.4 525.8C451.6 524.3 454.5 524.8 456.1 526.9C457.6 529.1 457.1 532 455 533.6C452.8 535.1 449.9 534.6 448.3 532.5C447.8 531.8 447.5 530.9 447.4 530C447.3 528.3 448 526.7 449.4 525.8ZM448.1 524C445 526.3 444.3 530.6 446.5 533.8C448.8 536.9 453.1 537.6 456.3 535.4C459.4 533.1 460.1 528.8 457.9 525.6C456.5 523.7 454.2 522.6 451.8 522.7C450.4 522.7 449.2 523.2 448.1 524Z" fill="black"/>
<path d="M476.7 472.5C476.5 472.7 476.1 472.7 475.8 472.7C474.8 472.5 471.6 472.3 470.7 473.7C470.3 474.2 469.6 474.2 469.1 473.9C468.7 473.6 468.6 473 468.8 472.5C470.8 469.7 475.6 470.5 476.1 470.6C476.7 470.7 477.1 471.3 477 471.9C477.1 472.1 476.9 472.4 476.7 472.5Z" fill="black"/>
<path d="M192.7 618.3C146 618.3 100.3 604.5 61.4 578.7C60.5 578.1 60.1999 576.8 60.7999 575.9C61.3999 575 62.6999 574.7 63.5999 575.3C101.9 600.7 146.8 614.3 192.7 614.3H192.9C227.7 614.3 251.2 606.5 251.4 606.4C252.4 606 253.6 606.6 253.9 607.7C254.2 608.8 253.7 609.9 252.6 610.2C251.6 610.5 228.3 618.2 192.9 618.3H192.7Z" fill="#1D1D1B"/>
<path d="M475.8 720.6C478.948 720.6 481.5 718.048 481.5 714.9C481.5 711.752 478.948 709.2 475.8 709.2C472.652 709.2 470.1 711.752 470.1 714.9C470.1 718.048 472.652 720.6 475.8 720.6Z" fill="#FFC140"/>
<path d="M584.1 628.6C587.248 628.6 589.8 626.048 589.8 622.9C589.8 619.752 587.248 617.2 584.1 617.2C580.952 617.2 578.4 619.752 578.4 622.9C578.4 626.048 580.952 628.6 584.1 628.6Z" fill="#FFC140"/>
<path d="M621.9 727.7C625.048 727.7 627.6 725.148 627.6 722C627.6 718.852 625.048 716.3 621.9 716.3C618.752 716.3 616.2 718.852 616.2 722C616.2 725.148 618.752 727.7 621.9 727.7Z" fill="#FFC140"/>
<path d="M561.1 706.4C564.248 706.4 566.8 703.848 566.8 700.7C566.8 697.552 564.248 695 561.1 695C557.952 695 555.4 697.552 555.4 700.7C555.4 703.848 557.952 706.4 561.1 706.4Z" fill="#FFC140"/>
<path d="M433 635.8C436.148 635.8 438.7 633.248 438.7 630.1C438.7 626.952 436.148 624.4 433 624.4C429.852 624.4 427.3 626.952 427.3 630.1C427.3 633.248 429.852 635.8 433 635.8Z" fill="#FFC140"/>
<path d="M495.9 658.2C499.048 658.2 501.6 655.648 501.6 652.5C501.6 649.352 499.048 646.8 495.9 646.8C492.752 646.8 490.2 649.352 490.2 652.5C490.2 655.648 492.752 658.2 495.9 658.2Z" fill="#FFC140"/>
<path d="M584.8 596.2C587.948 596.2 590.5 593.648 590.5 590.5C590.5 587.352 587.948 584.8 584.8 584.8C581.652 584.8 579.1 587.352 579.1 590.5C579.1 593.648 581.652 596.2 584.8 596.2Z" fill="#FFC140"/>
<path d="M705.8 648.7C708.948 648.7 711.5 646.148 711.5 643C711.5 639.852 708.948 637.3 705.8 637.3C702.652 637.3 700.1 639.852 700.1 643C700.1 646.148 702.652 648.7 705.8 648.7Z" fill="#FFC140"/>
<path d="M765.3 605.2C768.448 605.2 771 602.648 771 599.5C771 596.352 768.448 593.8 765.3 593.8C762.152 593.8 759.6 596.352 759.6 599.5C759.6 602.648 762.152 605.2 765.3 605.2Z" fill="#FFC140"/>
<path d="M808.7 629.1C811.848 629.1 814.4 626.548 814.4 623.4C814.4 620.252 811.848 617.7 808.7 617.7C805.552 617.7 803 620.252 803 623.4C803 626.548 805.552 629.1 808.7 629.1Z" fill="#FFC140"/>
<path d="M423.8 638.2C426.948 638.2 429.5 635.648 429.5 632.5C429.5 629.352 426.948 626.8 423.8 626.8C420.652 626.8 418.1 629.352 418.1 632.5C418.1 635.648 420.652 638.2 423.8 638.2Z" fill="#FFC140"/>
<path d="M839.9 576.2L791.6 548.1L780.8 561.3C780.8 561.3 794.4 593.8 834.4 597.3L839.9 576.2Z" fill="#E89D00"/>
<path d="M792.4 545.4C792.4 545.4 751.7 463.6 804.8 471.3L828.3 432.3C828.3 432.3 854.2 429.7 846.1 465.8C846.1 465.8 861.3 473.4 864.1 488.8C864.1 488.8 882.6 492.8 876.3 519C869.5 547.3 840 574.2 840 574.2L792.4 545.4Z" fill="#FFCDB2"/>
<path d="M840.4 575.9L791.3 546.4L791.1 546C790.1 544 766.6 496.1 780.4 477C784.9 470.7 792.9 468.2 804.1 469.6L827.5 430.8L828.2 430.7C828.6 430.7 837.9 429.8 844.1 436.8C849.3 442.7 850.6 452.1 847.9 465C851.4 467 862.6 474.4 865.5 487.6C869.8 489 873.4 491.9 875.8 495.8C879.5 501.7 880.2 509.6 877.9 519.3C871 547.7 842.4 574.1 841.2 575.2L840.4 575.9ZM793.6 544.3L840 572.2C844.8 567.7 869 543.5 875 518.6C877.1 509.7 876.6 502.6 873.3 497.4C871.1 493.9 867.8 491.4 863.8 490.3L862.8 490.1L862.6 489.1C859.9 474.6 845.5 467.2 845.4 467.1L844.4 466.6L844.7 465.5C847.5 453.1 846.5 444.2 841.8 438.9C837.6 434.1 831.3 433.7 829.2 433.8L805.6 473L804.6 472.9C794.1 471.4 786.8 473.4 782.8 478.9C770.7 495.6 791.4 539.7 793.6 544.3Z" fill="#1D1D1B"/>
<path d="M875.7 524.3C870.8 536.5 852.5 543.6 848.1 531.5C844.5 521.5 848 515.8 848 515.8C848 515.8 831.1 530 823.8 511.5C816.5 493 844.9 466.3 844.9 466.3" fill="#FFCDB2"/>
<path d="M857 539.3H856.7C852.1 539.4 848 536.5 846.6 532.1C845 528.1 844.5 523.8 845.1 519.6C841.8 521.5 836.9 523.5 832.1 522.3C827.8 521.2 824.5 517.8 822.2 512.2C814.6 492.9 842.5 466.5 843.6 465.4C844.2 464.8 845.1 464.9 845.7 465.5C846.3 466.1 846.2 467.1 845.6 467.6C845.3 467.9 818 493.7 824.9 511.1C826.7 515.8 829.4 518.6 832.7 519.4C839.2 521.1 846.7 514.9 846.8 514.8C847.4 514.3 848.4 514.4 848.9 515C849.3 515.5 849.3 516.2 849 516.7C848.9 516.9 846 522 849.3 531.1C850.3 534.3 853.3 536.4 856.6 536.3H856.7C862.6 536.3 870.9 531.3 873.9 523.8C874.2 523 875.1 522.7 875.9 523C876.7 523.3 877 524.2 876.7 525C873.9 532.9 864.9 539.3 857 539.3Z" fill="#1D1D1B"/>
<path d="M846.2 518.7C845.9 518.7 845.6 518.6 845.4 518.4C844.7 517.9 844.5 517 845 516.3L863.3 488.1C863.8 487.4 864.7 487.2 865.4 487.7C866.1 488.2 866.3 489.1 865.8 489.8L847.5 518C847.2 518.4 846.7 518.7 846.2 518.7Z" fill="#1D1D1B"/>
<path d="M804.9 471.2C804.9 471.2 833.2 470.5 835.6 486.4C838 502.3 793.8 503.7 793.8 503.7" fill="#FFCDB2"/>
<path d="M793.8 505.2C793 505.2 792.3 504.6 792.3 503.7C792.3 502.9 792.9 502.2 793.8 502.2C794.1 502.2 824.8 501.1 832.6 491.8C833.9 490.4 834.4 488.5 834.1 486.7C832 472.3 805.2 472.7 805 472.8C804.2 472.8 803.5 472.2 803.5 471.3C803.5 470.5 804.1 469.8 805 469.8C806.2 469.8 834.7 469.3 837.2 486.3C837.6 489 836.8 491.8 835 493.8C826.2 504.1 795.2 505.2 793.8 505.2Z" fill="#1D1D1B"/>
<path d="M685.7 705.4C685 705.4 684.4 705 684.3 704.3C677.1 679 644.3 630 644 629.5C643.6 628.8 643.8 627.9 644.5 627.4C645.2 627 646 627.2 646.5 627.8C647.9 629.8 679.9 677.7 687.2 703.5C687.4 704.3 687 705.1 686.2 705.4C686 705.4 685.8 705.4 685.7 705.4Z" fill="#1D1E1B"/>
<path d="M378.3 657.7C378.3 657.7 377.1 708.6 382.9 742.4L378.3 657.7Z" fill="#FFAD00"/>
<path d="M382.9 743.9C382.2 743.9 381.5 743.4 381.4 742.6C375.7 709 376.8 658.1 376.8 657.6C376.8 656.8 377.5 656.1 378.3 656.1C379.1 656.1 379.8 656.8 379.8 657.6C379.8 658.1 378.7 708.7 384.4 742C384.5 742.8 384 743.6 383.2 743.7L382.9 743.9Z" fill="#1D1D1B"/>
<path d="M699 603.4C698.4 603.4 697.7 603.2 697.2 602.8C660.6 575.8 626.4 568.9 604 567.8C579.8 566.6 564 572 563.9 572C562.3 572.6 560.6 571.7 560.1 570.2C559.5 568.6 560.4 566.9 561.9 566.4C562.6 566.2 578.7 560.7 604 561.9C627.2 563 662.8 570.1 700.7 598.1C702 599.1 702.3 601 701.3 602.3C700.8 602.9 699.9 603.4 699 603.4Z" fill="white"/>
<path d="M499.6 525.8C495.8 525.7 492.1 524.7 488.7 522.8C488 522.4 487.7 521.5 488.2 520.7C488.7 519.9 489.5 519.7 490.3 520.2C490.4 520.3 501.3 526.5 507.4 519.5C508 518.9 508.9 518.8 509.5 519.4C510.1 520 510.2 520.9 509.6 521.5C507.1 524.4 503.4 525.9 499.6 525.8Z" fill="black"/>
<path d="M480.5 496C481.881 496 483 494.881 483 493.5C483 492.119 481.881 491 480.5 491C479.119 491 478 492.119 478 493.5C478 494.881 479.119 496 480.5 496Z" fill="black"/>
<path d="M514.5 475C515.881 475 517 473.881 517 472.5C517 471.119 515.881 470 514.5 470C513.119 470 512 471.119 512 472.5C512 473.881 513.119 475 514.5 475Z" fill="black"/>
<path d="M378 413.5C377.2 413.5 376.5 412.8 376.5 412C376.5 411.8 376.6 411.5 376.7 411.3C377 410.7 384 397.3 397.9 392.9C406.3 390.3 415.3 391.6 424.7 396.7C425.4 397.1 425.8 398 425.4 398.7C425 399.4 424.1 399.8 423.4 399.4C423.4 399.4 423.3 399.4 423.3 399.3C414.6 394.6 406.3 393.4 398.8 395.8C386 399.8 379.4 412.6 379.4 412.7C379.1 413.2 378.6 413.5 378 413.5Z" fill="#1D1F1C"/>
<path d="M305.5 852.3C305.5 852.3 301.7 830.7 253.3 820.5C204.9 810.3 169.3 862.5 169.3 862.5H305.5V852.3Z" fill="#6C32AD"/>
<path d="M307 864H166.5L168.1 861.7C175 852.2 183.1 843.8 192.3 836.5C212.2 820.8 233.5 814.8 253.7 819C302.5 829.3 306.9 851.1 307.1 852V852.3L307 864ZM172.3 861H304V852.5C303.6 850.9 297.8 831.4 253 822C212 813.3 179.9 851 172.3 861Z" fill="#1D1E1B"/>
<path d="M232.9 800.1C222.7 795 198.5 800.1 193.4 810.3C188.3 820.5 197.2 828.1 206.1 830.7C215 833.3 227.4 820.6 227.4 820.6L232.9 800.1Z" fill="#FFCDB2"/>
<path d="M208.7 832.5C207.7 832.5 206.7 832.4 205.8 832.1C200.6 830.6 194.1 827 191.6 821.2C190 817.5 190.2 813.2 192.2 809.6C194.7 804.6 201.8 800.2 211 798C219.8 795.9 228.5 796.2 233.7 798.8L234.8 799.3L228.9 821.3L228.6 821.6C228.1 822.1 217.8 832.5 208.7 832.5ZM222.4 799.6C218.8 799.6 215.2 800.1 211.7 801C203.4 803 197 806.8 194.9 811C193.3 813.8 193.2 817.1 194.4 820C196.5 824.8 202.2 827.9 206.7 829.2C213.1 831 222.7 823.3 226.2 819.8L231.2 800.9C228.3 800 225.3 799.6 222.4 799.6Z" fill="#1D1D1B"/>
<path d="M267.3 819.2C267.3 819.2 262.2 797.6 244.4 795C226.6 792.4 211.3 801.4 212.6 819.2C213.9 837 235.5 839.6 247 835.7C258.5 831.8 267.3 819.2 267.3 819.2Z" fill="#FFCDB2"/>
<path d="M236.7 838.8C230.7 838.8 224.4 837.4 219.6 834.2C214.5 830.9 211.4 825.4 211.1 819.4C210.5 811.7 212.9 805.1 218 800.3C224.2 794.5 233.9 792.1 244.6 793.6C263.2 796.3 268.6 818 268.8 818.9L269 819.6L268.6 820.1C268.2 820.6 259.3 833.3 247.5 837.2C244 838.3 240.4 838.8 236.7 838.8ZM238.5 796.1C231.1 796.1 224.5 798.3 220.1 802.5C215.7 806.7 213.7 812.3 214.1 819.2C214.3 824.3 217 829 221.3 831.8C228.6 836.6 239.5 836.8 246.5 834.5C256 831.3 263.9 821.5 265.7 819.1C264.7 815.6 259.1 798.8 244.2 796.7C242.3 796.2 240.4 796.1 238.5 796.1Z" fill="#1D1D1B"/>
<path d="M306.8 835.8C317.6 841.2 319.5 852.3 318.3 862.5C317.1 872.7 304.3 881.6 292.8 876.5C281.3 871.4 286.4 858.7 292.8 852.3C299.2 845.9 287.7 835.8 281.3 844.7C274.9 853.6 257.1 852.3 246.9 844.7C236.7 837.1 244.3 818 258.3 812.9C272.3 807.8 287.6 805.3 293.9 819.3C300.2 833.3 301.7 833.2 306.8 835.8Z" fill="#FFCDB2"/>
<path d="M299.7 879.5C297.1 879.5 294.5 879 292.2 877.9C288 876 285.4 873 284.7 869.1C283.5 862.8 287.4 855.6 291.7 851.3C293 850.2 293.4 848.4 292.9 846.8C292.2 844.7 290.3 843.2 288.1 842.8C286.6 842.6 284.4 842.9 282.5 845.6C280 849.1 276 851.3 270.7 852.1C262 853.2 253.2 851 246 845.9C241.9 842.8 240.1 837.8 240.9 831.9C242.6 822.6 249 814.8 257.8 811.4C270.4 806.8 288.1 802.6 295.3 818.6C301.1 831.4 302.3 832 306.5 834L307.3 834.4C316.9 839.2 321.3 849.2 319.6 862.7C318.9 868.3 315 873.7 309.5 876.8C306.6 878.5 303.2 879.4 299.7 879.5ZM287.4 839.7C287.8 839.7 288.2 839.7 288.6 839.8C291.9 840.3 294.7 842.6 295.8 845.8C296.7 848.5 295.9 851.5 293.9 853.4C290.2 857.1 286.7 863.4 287.7 868.6C288.2 871.5 290.2 873.7 293.5 875.2C298.3 877.3 303.8 876.9 308.2 874.3C312.9 871.6 316.2 867.1 316.8 862.4C317.9 853.9 316.9 842.6 306.2 837.2L305.4 836.8C300.4 834.3 298.7 833.1 292.8 819.9C288 809.4 277.3 807.7 259 814.3C251.5 817 245.2 824.6 244 832.4C243.3 837.1 244.7 841.1 247.9 843.5C254.4 848.1 262.4 850.1 270.3 849.1C273.4 848.6 277.6 847.3 280.1 843.8C281.7 841.3 284.4 839.8 287.4 839.7Z" fill="#1D1D1B"/>
<path d="M589 798.1C592.148 798.1 594.7 795.548 594.7 792.4C594.7 789.252 592.148 786.7 589 786.7C585.852 786.7 583.3 789.252 583.3 792.4C583.3 795.548 585.852 798.1 589 798.1Z" fill="#FFC140"/>
<path d="M442.8 792.5C445.948 792.5 448.5 789.948 448.5 786.8C448.5 783.652 445.948 781.1 442.8 781.1C439.652 781.1 437.1 783.652 437.1 786.8C437.1 789.948 439.652 792.5 442.8 792.5Z" fill="#FFC140"/>
<path d="M520.3 785.4C523.448 785.4 526 782.848 526 779.7C526 776.552 523.448 774 520.3 774C517.152 774 514.6 776.552 514.6 779.7C514.6 782.848 517.152 785.4 520.3 785.4Z" fill="#FFC140"/>
<path d="M699.8 859.1H394.4C382 859.1 371.9 849 371.9 836.6V652.4C371.9 640 382 629.9 394.4 629.9H699.7C712.1 629.9 722.2 640 722.2 652.4V836.5C722.3 849 712.2 859.1 699.8 859.1Z" fill="#6C32AD"/>
<path d="M699.8 860.6H394.4C381.1 860.6 370.4 849.9 370.4 836.6V652.5C370.4 639.2 381.1 628.5 394.4 628.5H699.7C713 628.5 723.7 639.2 723.7 652.5V836.6C723.8 849.8 713 860.6 699.8 860.6ZM394.4 631.4C382.8 631.4 373.4 640.8 373.4 652.4V836.5C373.4 848.1 382.8 857.5 394.4 857.5H699.7C711.3 857.5 720.7 848.1 720.7 836.5V652.5C720.7 640.9 711.3 631.5 699.7 631.5L394.4 631.4Z" fill="#1D1E1B"/>
<path d="M735.1 859.5H370.8C359.8 859.5 350.8 850.5 350.8 839.5H755.1C755.1 850.5 746.2 859.5 735.1 859.5Z" fill="#59298F"/>
<path d="M735.1 861H370.8C358.9 861 349.3 851.4 349.3 839.5V838H756.6V839.5C756.6 851.4 747 861 735.1 861ZM352.4 841C353.2 850.6 361.2 858 370.8 858H735.2C744.8 858 752.8 850.6 753.6 841H352.4Z" fill="#1D1D1B"/>
<path d="M384.5 819.5C382.8 819.5 381.5 818.2 381.5 816.5V666.5C381.5 664.8 382.8 663.5 384.5 663.5C386.2 663.5 387.5 664.8 387.5 666.5V816.5C387.5 818.2 386.2 819.5 384.5 819.5Z" fill="white"/>
<path d="M530.5 728.5H549.5C554.9 728.5 559.3 732.9 559.3 738.3V757.3C559.3 762.7 554.9 767.1 549.5 767.1H530.5C525.1 767.1 520.7 762.7 520.7 757.3V738.3C520.8 732.9 525.1 728.5 530.5 728.5Z" fill="#59298F"/>
<path d="M549.5 768.5H530.5C524.3 768.5 519.2 763.5 519.2 757.2V738.2C519.2 732 524.3 727 530.5 727H549.5C555.7 727 560.8 732 560.8 738.3V757.3C560.8 763.5 555.7 768.5 549.5 768.5ZM530.5 730C525.9 730 522.2 733.7 522.2 738.3V757.3C522.2 761.9 525.9 765.6 530.5 765.6H549.5C554.1 765.6 557.8 761.9 557.8 757.3V738.3C557.8 733.7 554.1 730 549.5 730H530.5Z" fill="#1D1D1B"/>
<path d="M768.5 317H910.4C928.4 317 943.1 331.6 943.1 349.7V420.9C943.1 438.9 928.5 453.6 910.4 453.6H768.5C750.5 453.6 735.8 439 735.8 420.9V349.7C735.9 331.6 750.5 317 768.5 317Z" fill="#FFAD00"/>
<path d="M910.5 455H768.5C749.6 455 734.4 439.7 734.3 420.8V349.6C734.3 330.7 749.6 315.5 768.5 315.4H910.4C929.3 315.4 944.5 330.7 944.6 349.6V420.8C944.6 439.7 929.3 455 910.5 455ZM768.5 318.5C751.3 318.5 737.3 332.5 737.3 349.7V420.9C737.3 438.1 751.3 452.1 768.5 452.1H910.4C927.6 452.1 941.6 438.1 941.6 420.9V349.7C941.6 332.5 927.6 318.5 910.4 318.5H768.5Z" fill="#1D1D1B"/>
<path d="M755.5 472.9H755.4C734 471.2 717.5 453.4 717.4 431.9V339.6C717.4 338.8 718.1 338.1 718.9 338.1C719.7 338.1 720.4 338.8 720.4 339.6V431.9C720.5 451.8 735.8 468.3 755.7 469.9C756.5 469.9 757.2 470.6 757.1 471.5C757 472.4 756.4 472.9 755.5 472.9Z" fill="#1D1D1B"/>
<path d="M921.9 473H919.5C918.7 473 918 472.3 918 471.5C918 470.7 918.7 470 919.5 470H921.9C942.9 470 960 452.9 960 431.9V339.6C960 318.6 942.9 301.5 921.9 301.5H781C780.2 301.5 779.5 300.8 779.5 300C779.5 299.2 780.2 298.5 781 298.5H921.9C944.6 298.5 963 316.9 963 339.6V431.9C963 454.6 944.6 473 921.9 473Z" fill="#1D1D1B"/>
<path d="M852.5 347.9L797.4 384.3C794.9 386 794.2 389.4 795.9 391.9C796.3 392.6 796.9 393.1 797.6 393.5L852.7 427C855.3 428.6 858.7 427.8 860.2 425.2C860.7 424.3 861 423.4 861 422.4V352.5C861 349.5 858.5 347 855.5 347C854.4 347 853.4 347.3 852.5 347.9Z" fill="#D9CFFF"/>
<path d="M855.5 429.3C854.2 429.3 853 429 851.9 428.3L796.8 394.9C793.5 392.9 792.4 388.6 794.4 385.3C794.9 384.4 795.7 383.6 796.5 383.1L851.6 346.7C854.8 344.6 859.2 345.5 861.3 348.7C862 349.8 862.4 351.2 862.4 352.5V422.3C862.5 426.1 859.4 429.3 855.5 429.3ZM853.3 349.1L798.2 385.5C796.4 386.7 795.9 389.2 797.1 391.1C797.4 391.6 797.8 392 798.3 392.3L853.4 425.7C855.3 426.8 857.8 426.1 858.9 424.2C859.2 423.6 859.4 422.9 859.4 422.3V352.5C859.4 351 858.6 349.7 857.3 349C856.1 348.2 854.5 348.3 853.3 349.1Z" fill="#1D1E1B"/>
<path d="M786.5 342C785.9 342 785.4 341.7 785.2 341.2C757 283.2 701.9 243 660.7 219.5C616 194 577.5 182 577.1 181.9C576.3 181.6 575.9 180.7 576.2 180C576.5 179.3 577.2 178.9 577.9 179.1C578.3 179.2 617.1 191.2 662.1 216.9C703.7 240.6 759.3 281.2 787.8 339.9C788.2 340.6 787.8 341.5 787.1 341.9C787 341.9 786.7 342 786.5 342Z" fill="#1D1E1B"/>
<path d="M757.5 348C756.9 348 756.4 347.7 756.2 347.2C736.7 310.2 665.7 284.2 665 283.9C664.2 283.7 663.7 282.9 664 282.1C664.2 281.3 665 280.8 665.8 281.1C665.9 281.1 665.9 281.1 666 281.2C669 282.3 738.8 307.8 758.8 345.9C759.2 346.6 758.9 347.5 758.2 347.9C758 347.9 757.7 348 757.5 348Z" fill="#1D1E1B"/>
</svg>
